<svg width="160" height="160" viewBox="0 0 160 160" fill="none" xmlns="http://www.w3.org/2000/svg">
<path d="M39.8083 60.6306C37.913 60.6306 36.3049 61.2916 34.983 62.6135C33.6611 63.9353 33 65.5215 33 67.3729V95.7981C33 97.6958 33.6609 99.3025 34.983 100.625C36.3049 101.946 37.913 102.608 39.8083 102.608C41.7022 102.608 43.3005 101.947 44.6019 100.625C45.9007 99.3027 46.5519 97.6958 46.5519 95.7981V67.3729C46.5519 65.5213 45.8909 63.9353 44.5689 62.6135C43.2468 61.2916 41.6596 60.6306 39.8083 60.6306ZM94.5444 35.1133L99.238 26.4549C99.5461 25.8817 99.4365 25.4421 98.9083 25.133C98.3348 24.8665 97.8943 25.0015 97.5864 25.5286L92.8272 34.2562C88.6394 32.4047 84.2101 31.4773 79.5394 31.4773C74.8677 31.4773 70.4381 32.4049 66.2519 34.2562L61.4925 25.5286C61.1832 25.0015 60.7426 24.8677 60.1706 25.133C59.6411 25.4435 59.5315 25.8817 59.8408 26.4549L64.5346 35.1133C59.7752 37.5404 55.9846 40.9207 53.1642 45.2614C50.3439 49.6046 48.9331 54.3507 48.9331 59.5081H110.079C110.079 54.3518 108.668 49.6056 105.848 45.2614C103.028 40.9207 99.2589 37.5404 94.5444 35.1133ZM67.4083 47.7071C66.9007 48.2159 66.2944 48.4691 65.5897 48.4691C64.8837 48.4691 64.2898 48.2159 63.8052 47.7071C63.3207 47.2007 63.0785 46.5968 63.0785 45.8898C63.0785 45.1851 63.3207 44.58 63.8052 44.0724C64.2898 43.566 64.8851 43.3128 65.5897 43.3128C66.2944 43.3128 66.9007 43.566 67.4083 44.0724C67.9147 44.5812 68.1691 45.1851 68.1691 45.8898C68.1677 46.5956 67.9135 47.2007 67.4083 47.7071ZM95.271 47.7071C94.7855 48.2159 94.1902 48.4691 93.4867 48.4691C92.7804 48.4691 92.1744 48.2159 91.6678 47.7071C91.1604 47.2007 90.9072 46.5968 90.9072 45.8898C90.9072 45.1851 91.1604 44.58 91.6678 44.0724C92.1744 43.566 92.7804 43.3128 93.4867 43.3128C94.1914 43.3128 94.7853 43.566 95.271 44.0724C95.7559 44.5812 95.9978 45.1851 95.9978 45.8898C95.9978 46.5956 95.7557 47.2007 95.271 47.7071ZM49.1956 105.912C49.1956 107.941 49.9003 109.659 51.3099 111.069C52.7207 112.478 54.4384 113.183 56.4661 113.183H61.3582L61.4252 128.191C61.4252 130.086 62.0862 131.695 63.408 133.017C64.7299 134.339 66.3173 135 68.1675 135C70.0616 135 71.6706 134.339 72.9927 133.017C74.3148 131.695 74.9757 130.086 74.9757 128.191V113.184H84.098V128.191C84.098 130.086 84.7587 131.695 86.0808 133.017C87.4028 134.339 89.0105 135 90.906 135C92.8001 135 94.4092 134.339 95.7313 133.017C97.0533 131.695 97.7141 130.086 97.7141 128.191V113.184H102.672C104.655 113.184 106.351 112.479 107.763 111.07C109.172 109.66 109.877 107.943 109.877 105.914V61.8855H49.1956V105.912ZM119.268 60.6306C117.416 60.6306 115.83 61.2818 114.508 62.5806C113.187 63.8818 112.526 65.4802 112.526 67.3729V95.7981C112.526 97.6958 113.186 99.3025 114.508 100.625C115.83 101.947 117.418 102.608 119.268 102.608C121.162 102.608 122.771 101.947 124.093 100.625C125.415 99.3025 126.076 97.6958 126.076 95.7981V67.3729C126.076 65.48 125.415 63.8818 124.093 62.5806C122.771 61.2818 121.162 60.6306 119.268 60.6306Z" fill="black"/>
</svg>
