<svg width="160" height="160" viewBox="0 0 160 160" fill="none" xmlns="http://www.w3.org/2000/svg">
<path fill-rule="evenodd" clip-rule="evenodd" d="M79.4478 66.7585C79.4478 63.6594 78.636 61.003 77.0174 58.7794C74.3197 55.158 69.7463 53.3025 63.282 53.208H37.6719V105.49H61.5525C64.2451 105.49 66.736 105.261 69.0404 104.789C71.3448 104.311 73.3365 103.44 75.0257 102.162C76.5283 101.048 77.7788 99.6747 78.7772 98.0481C80.3554 95.5907 81.1421 92.8099 81.1421 89.7108C81.1421 86.7062 80.4513 84.1493 79.0797 82.0501C77.6931 79.9459 75.656 78.4088 72.9533 77.4338C74.7332 76.5384 76.0795 75.5435 76.9972 74.459C78.636 72.519 79.4478 69.9472 79.4478 66.7585ZM115.183 62.1514H92.4723V55.6448H115.183V62.1514ZM95.1172 82.3326C95.4903 79.8155 96.403 77.8208 97.8501 76.3483C99.2973 74.8759 101.345 74.1396 103.967 74.1396C106.387 74.1396 108.409 74.8311 110.053 76.219C111.676 77.6168 112.594 79.6464 112.781 82.3326H95.1172ZM113.18 67.6135C115.918 68.8174 118.172 70.7276 119.947 73.3342C121.566 75.6324 122.604 78.2987 123.078 81.3282C123.356 83.0991 123.467 85.666 123.421 89.0039H94.8663C95.0378 92.879 96.3891 95.6 98.9708 97.157C100.534 98.1271 102.415 98.6146 104.623 98.6146C106.948 98.6146 108.849 98.0226 110.306 96.8437C111.108 96.2019 111.814 95.3165 112.419 94.1823H122.882C122.604 96.4706 121.334 98.8036 119.085 101.171C115.575 104.927 110.659 106.808 104.341 106.808C99.1221 106.808 94.5184 105.226 90.54 102.052C86.5414 98.8832 84.5547 93.7197 84.5547 86.5763C84.5547 79.8757 86.3548 74.737 89.95 71.1604C93.5553 67.5936 98.2195 65.7979 103.963 65.7979C107.376 65.7979 110.447 66.4047 113.18 67.6135ZM48.2344 96.416V82.4725H61.284C63.5531 82.4924 65.323 82.7909 66.5835 83.358C68.8375 84.3778 69.9569 86.2432 69.9569 88.9692C69.9569 92.1828 68.7971 94.3516 66.4726 95.4958C65.1969 96.1076 63.4018 96.416 61.1025 96.416H48.2344ZM48.2344 62.2865V73.8224H61.1227C63.4169 73.8224 65.2877 73.3896 66.7298 72.524C68.1618 71.6585 68.8829 70.1263 68.8829 67.9375C68.8829 65.4951 67.9349 63.8883 66.039 63.1023C64.3952 62.5601 62.3076 62.2865 59.7713 62.2865H48.2344Z" fill="black"/>
</svg>
