<svg width="160" height="160" viewBox="0 0 160 160" fill="none" xmlns="http://www.w3.org/2000/svg">
<path fill-rule="evenodd" clip-rule="evenodd" d="M123.834 80.4252C123.834 83.3251 123.539 86.2209 122.959 89.0437C122.394 91.7995 121.556 94.505 120.459 97.0913C119.387 99.6319 118.058 102.08 116.504 104.363C114.973 106.632 113.21 108.76 111.274 110.701C109.332 112.633 107.197 114.391 104.929 115.928C102.638 117.471 100.187 118.798 97.6446 119.875C95.0546 120.967 92.3428 121.803 89.5895 122.367C86.7629 122.949 83.8565 123.246 80.9524 123.246C78.0461 123.246 75.1399 122.949 72.3174 122.367C69.5598 121.803 66.8482 120.967 64.2602 119.875C61.7183 118.798 59.2642 117.471 56.9735 115.928C54.7059 114.391 52.5701 112.633 50.6333 110.701C48.6944 108.76 46.9313 106.632 45.3986 104.363C43.8534 102.08 42.5216 99.6317 41.4454 97.0913C40.3481 94.505 39.5086 91.7993 38.9411 89.0437C38.3674 86.2209 38.0742 83.3251 38.0742 80.4252C38.0742 77.5231 38.3673 74.621 38.9413 71.8044C39.5087 69.0486 40.3482 66.339 41.4456 63.7568C42.5217 61.2144 43.8535 58.764 45.3988 56.4807C46.9315 54.2101 48.6946 52.0857 50.6335 50.1433C52.5703 48.2112 54.706 46.4572 56.9737 44.9225C59.2643 43.3731 61.7184 42.0456 64.2603 40.9666C66.8484 39.8729 69.5598 39.0346 72.3175 38.4743C75.14 37.8973 78.0463 37.6045 80.9526 37.6045C83.8567 37.6045 86.7629 37.8973 89.5896 38.4743C92.343 39.0347 95.0546 39.8731 97.6448 40.9666C100.187 42.0454 102.639 43.3731 104.929 44.9225C107.197 46.4572 109.333 48.2112 111.274 50.1433C113.211 52.0857 114.974 54.2101 116.504 56.4807C118.058 58.764 119.387 61.2146 120.459 63.7568C121.556 66.339 122.394 69.0486 122.959 71.8044C123.539 74.621 123.834 77.5231 123.834 80.4252ZM65.3312 47.3506C55.1193 52.1659 47.4977 61.5621 45.1211 72.8862L45.1563 72.8865C46.408 72.8981 61.5316 73.0379 78.9287 68.4221C72.5907 57.1775 65.8191 48.001 65.3312 47.3506ZM44.3614 79.2579C45.0104 79.2829 63.1036 79.6885 81.9588 74.0518C83.0077 76.105 84.0109 78.1875 84.93 80.2657C84.4484 80.4036 83.9626 80.5459 83.4852 80.7048C63.7234 87.0859 53.702 104.839 53.7146 104.858C47.8811 98.3827 44.332 89.8186 44.332 80.4246C44.332 80.1533 44.341 79.8882 44.35 79.6208C44.3541 79.5006 44.3581 79.3798 44.3614 79.2579ZM105.137 52.9805C98.6901 47.3038 90.2247 43.8604 80.9531 43.8604C77.9776 43.8604 75.0902 44.22 72.3242 44.8849L72.3837 44.9645C73.2508 46.1242 79.9235 55.0487 86.0139 66.2155C99.7183 61.0852 104.961 53.2438 105.134 52.9854L105.137 52.9805ZM87.3376 86.3536C87.3672 86.3443 87.3969 86.335 87.4265 86.3252C92.5795 99.6983 94.7068 110.897 95.2491 114.092C90.8541 115.958 86.0236 116.99 80.9524 116.99C72.4597 116.99 64.6621 114.077 58.4453 109.249C58.5217 109.084 65.5775 93.926 87.1837 86.4046C87.2344 86.3861 87.2859 86.3699 87.3376 86.3536ZM101.417 110.751C109.639 105.21 115.479 96.4117 117.108 86.2206C116.354 85.9781 106.109 82.7393 94.2891 84.6316C99.0924 97.8125 101.044 108.547 101.417 110.751ZM91.265 76.9663C90.505 75.1826 89.682 73.4078 88.832 71.6639C103.197 65.8054 109.088 57.402 109.231 57.1982L109.233 57.1953C114.371 63.4238 117.476 71.3795 117.56 80.048C117.55 80.046 117.535 80.043 117.516 80.0391C116.555 79.8391 104.396 77.3102 92.0565 78.8606C91.7991 78.2335 91.5352 77.6062 91.265 76.9663Z" fill="black"/>
</svg>
