<svg width="280" height="280" viewBox="0 0 280 280" fill="none" xmlns="http://www.w3.org/2000/svg">
<style>
    path {
      fill: black;
    }
    @media (prefers-color-scheme: dark) {
      path {
        fill: white;
      }
    }
  </style>
<path fill-rule="evenodd" clip-rule="evenodd" d="M103.646 11.1508C102.732 11.2792 101.091 11.5789 99.9999 11.8164C96.9648 12.477 90.1497 12.6049 86.1668 12.0758C81.811 11.4971 70.3981 11.2359 67.2873 11.6435C65.9983 11.8122 62.7172 12.3661 59.9959 12.8739C54.844 13.8356 53.5017 13.8838 49.9703 13.2335C46.653 12.6229 46.4116 12.6221 45.1804 13.2182C43.6054 13.9804 42.9588 15.0814 42.7752 17.3128C42.5539 20.0012 42.5633 20.4231 42.9107 23.5175C43.0877 25.093 43.382 27.9652 43.5648 29.9001C43.9413 33.8846 44.3226 34.9491 45.8376 36.2459C46.3918 36.7204 46.8454 37.2209 46.8454 37.3581C46.8454 37.8227 48.5328 39.2086 49.4495 39.4971C49.9507 39.6549 50.9468 39.7583 51.6629 39.727C52.8683 39.6742 53.0907 39.7677 54.6576 40.9877C56.2224 42.2058 56.4013 42.4517 57.0242 44.2391C57.3947 45.3026 57.8929 46.5479 58.1309 47.0064C58.7543 48.2067 60.0639 55.0806 60.5183 59.5383C60.7326 61.64 60.9636 63.6035 61.0318 63.9016C61.4308 65.6482 61.9821 72.6448 62.2076 78.824C62.3505 82.7462 62.5836 86.9648 62.7253 88.1986C63.1323 91.7472 63.4703 98.7412 63.7651 109.712C63.9151 115.298 64.1682 122.68 64.3278 126.118C64.9075 138.603 64.7119 154.517 63.7809 170.647C63.6489 172.939 63.4067 178.153 63.2432 182.235C63.0797 186.317 62.7208 191.942 62.4456 194.735C62.1589 197.645 61.8255 204.149 61.6649 209.969C61.5107 215.554 61.3024 220.528 61.2024 221.021L61.0204 221.918L59.9873 221.02C56.1617 217.695 49.2073 213.641 42.8091 211.007C41.5201 210.476 40.3483 209.958 40.205 209.856C39.3363 209.235 36.1786 208.163 33.4621 207.566C29.243 206.64 24.2067 206.599 19.7181 207.453C15.3065 208.293 14.3042 208.63 10.2434 210.643C5.62433 212.932 4.31214 214.132 2.40961 217.806C1.67552 219.225 0.950026 220.971 0.797949 221.687C-0.282218 226.77 -0.263468 234.741 0.840395 239.655C3.17676 250.057 6.72142 257.535 11.4699 262.079C13.2868 263.818 14.5865 264.585 16.6955 265.164C17.4517 265.372 18.9868 265.834 20.1068 266.19C25.1603 267.799 26.4905 267.97 32.9485 267.839C38.3142 267.73 39.1691 267.65 41.5933 267.026C43.3023 266.586 45.9147 266.192 48.7544 265.945C59.6915 264.994 60.9368 264.829 64.2926 263.886C65.51 263.544 67.6779 263.015 69.1102 262.71C70.5424 262.405 72.6517 261.86 73.7975 261.498C76.6341 260.603 81.2037 259.536 81.4769 259.705C81.5995 259.781 81.774 260.18 81.8646 260.593C81.9552 261.005 82.3977 261.912 82.8479 262.608C83.2982 263.304 83.9205 264.4 84.2312 265.045C85.2692 267.199 86.9147 268.17 89.5268 268.17C91.4411 268.17 92.2845 267.866 93.4582 266.755C94.4415 265.824 95.0698 265.65 98.6273 265.324C100.157 265.184 101.238 265.228 102.273 265.472C104.04 265.887 111.595 265.943 115.743 265.57C121.858 265.021 125.346 264.791 131.608 264.522C135.188 264.369 138.89 264.134 139.832 264C142.597 263.608 149.891 263.485 156.477 263.719C166.969 264.092 187.096 263.36 198.923 262.176C204.598 261.608 212.057 261.409 228.169 261.398C237.308 261.392 247.738 261.274 251.346 261.136C255.842 260.965 259.215 260.974 262.071 261.166C264.363 261.321 267.711 261.489 269.511 261.541C271.311 261.594 273.105 261.759 273.499 261.908C275.657 262.729 277.804 261.866 278.804 259.777C279.864 257.563 280.02 255.305 279.998 242.52C279.979 231.373 279.764 225.598 278.873 212.312C278.739 210.307 278.557 206.382 278.469 203.589C278.304 198.35 277.962 196.284 277.047 194.999C276.789 194.636 276.447 193.853 276.287 193.259C275.939 191.968 274.615 190.707 273.208 190.328C272.669 190.182 271.173 189.776 269.884 189.424C267.059 188.654 264.779 188.225 263.512 188.225C262.996 188.225 261.907 187.99 261.092 187.704C258.322 186.73 256.249 187.121 254.41 188.962C253.5 189.874 253.08 190.568 252.73 191.74C252.473 192.6 251.752 194.943 251.129 196.948C249.883 200.957 249.744 201.458 248.797 205.343C248.439 206.809 247.849 208.743 247.484 209.64C246.519 212.014 241.997 220.366 240.608 222.337C239.301 224.191 237.294 226.244 236.788 226.244C236.611 226.244 235.606 226.899 234.556 227.699C233.505 228.499 232.118 229.424 231.474 229.754C230.829 230.084 230.068 230.618 229.781 230.939C229.188 231.606 225.367 233.535 224.641 233.535C224.377 233.535 223.038 233.309 221.476 232.997C217.57 232.215 212.466 233.077 208.688 232.367C205.914 231.846 195.744 230.944 192.803 230.96C191.514 230.966 188.892 230.841 186.976 230.682C185.06 230.523 182.818 230.469 181.993 230.562L180.493 230.732L180.073 228.813C179.238 224.999 178.848 222.692 178.712 220.776C178.636 219.701 178.676 210.327 178.802 199.943C179.027 181.263 178.925 172.038 178.383 162.184C177.728 150.275 177.726 151.538 178.402 151.413C178.732 151.352 180.208 151.07 181.683 150.786C184.606 150.223 184.046 150.174 189.76 151.495C191.387 151.871 192.552 152 193.301 151.888C194.232 151.748 194.681 151.854 196.012 152.525C196.889 152.968 197.726 153.33 197.872 153.33C198.019 153.33 199.285 153.862 200.686 154.513C203.219 155.688 203.243 155.709 204.789 157.926C205.644 159.153 206.619 160.701 206.954 161.366C207.29 162.031 208.309 163.805 209.219 165.309C210.129 166.813 211.292 169.203 211.802 170.621C212.313 172.039 212.975 173.596 213.275 174.081C213.883 175.065 215.942 176.241 217.078 176.254C217.476 176.259 218.271 176.551 218.844 176.904C219.606 177.373 220.256 177.546 221.265 177.547C222.75 177.548 231.207 176.656 233.557 176.251C234.345 176.115 235.634 175.935 236.421 175.852C237.232 175.767 238.419 175.395 239.156 174.997C240.296 174.379 240.587 174.038 241.499 172.242L242.541 170.192L242.713 162.477C242.808 158.234 242.97 150.954 243.074 146.299C243.274 137.337 243.083 132.787 242.157 124.425C241.299 116.675 241.06 111.824 241.151 103.983C241.236 96.729 241.217 96.3853 240.686 95.2595C240.009 93.8255 238.72 92.5664 237.333 91.9841C236.151 91.4883 232.611 91.4485 227.698 91.8761C226.122 92.013 223.954 92.1961 222.88 92.2826C221.806 92.3693 220.567 92.5495 220.127 92.6828C218.883 93.0604 217.832 94.408 216.9 96.822C216.429 98.0394 215.655 99.6846 215.18 100.478C214.704 101.272 214.205 102.209 214.07 102.561C213.935 102.914 213.313 103.859 212.688 104.662C212.064 105.465 211.142 106.851 210.641 107.742C210.14 108.633 209.261 109.959 208.688 110.689C206.01 114.099 205.33 115.04 204.373 116.663C203.807 117.621 202.815 118.839 202.168 119.369C201.169 120.187 200.669 120.385 198.851 120.678C195.287 121.251 193.793 121.195 192.062 120.423C189.607 119.328 188.652 119.176 184.434 119.203C180.442 119.229 180.434 119.228 180.427 118.637C180.418 117.796 179.978 113.216 179.671 110.754C178.857 104.237 178.8 102.557 178.736 83.4342C178.699 72.5365 178.579 59.3271 178.468 54.0801L178.267 44.5399L179.025 44.3854C179.442 44.3003 181.67 44.0425 183.975 43.8126C187.197 43.491 188.886 43.4493 191.267 43.6326C195.093 43.9269 200.319 43.8357 203.653 43.4165C205.574 43.1748 206.898 43.1693 209.251 43.393C210.947 43.5542 213.623 43.7613 215.198 43.8527C217.344 43.9771 218.803 44.2407 221.012 44.9018C222.634 45.3875 224.797 45.9752 225.82 46.2078C227.47 46.583 227.881 46.8101 229.47 48.2246C231.624 50.1417 233.706 52.8724 235.64 56.3136C236.428 57.7154 237.515 59.3687 238.057 59.9877C239.033 61.1049 241.361 65.7135 242.587 68.9585C242.939 69.8894 243.759 71.6407 244.41 72.8502C245.061 74.0601 246.003 76.2853 246.503 77.7956C247.441 80.6304 248.097 82.1033 248.977 83.3524C249.439 84.0074 249.456 84.1949 249.159 85.3524C248.855 86.5414 248.876 86.7151 249.469 87.8671C250.261 89.4072 251.797 90.3118 253.62 90.3118C255.012 90.3118 258.786 89.291 260.824 88.3637C262.231 87.7231 265.102 87.0794 267.8 86.7992C270.934 86.4737 271.839 85.9427 273.1 83.6897C274.041 82.008 274.225 81.0275 273.921 79.3156C273.787 78.5604 273.438 75.5402 273.145 72.6042C272.47 65.8286 271.908 60.7833 271.405 56.9798C271.188 55.3327 270.901 50.7625 270.767 46.8239C270.633 42.8852 270.421 38.6667 270.295 37.4493C270.168 36.2319 269.931 32.5406 269.767 29.2464C269.284 19.5627 268.817 15.2066 268.118 13.8718C267.073 11.876 265.558 11.0011 263.656 11.2945C261.971 11.5544 246.673 11.5489 230.562 11.2826C222.493 11.1492 212.987 11.1846 203.74 11.3828C195.863 11.5516 179.926 11.7396 168.325 11.8005C156.724 11.8612 145.879 11.9875 144.224 12.0807C140.543 12.2885 121.283 11.7229 120.02 11.3701C118.803 11.0297 105.748 10.855 103.646 11.1508ZM241.76 18.7062C251.069 18.8695 258.761 19.0815 258.853 19.177C258.945 19.2726 259.096 22.5037 259.189 26.357C259.281 30.2102 259.469 34.5327 259.605 35.9623C259.741 37.392 259.919 41.5632 260.001 45.2318C260.157 52.2565 260.307 54.3635 261.164 61.5369C262.589 73.4612 263.246 79.6812 263.105 79.9091C263.047 80.0018 262.004 80.1544 260.785 80.2481C259.567 80.3416 257.977 80.652 257.253 80.9377C256.265 81.327 255.911 81.3757 255.839 81.132C255.663 80.5398 255.199 78.4917 254.762 76.3801C254.081 73.089 253.368 70.8094 252.445 68.9697C251.975 68.0325 251.294 66.4455 250.93 65.443C250.025 62.9418 247.754 57.6948 247.191 56.8016C246.937 56.3983 246.243 55.4238 245.65 54.6361C245.056 53.8484 244.01 52.1492 243.324 50.8602C240.909 46.3182 235.126 39.695 232.33 38.2688C231.764 37.9797 229.904 37.3912 228.197 36.961C226.49 36.5305 223.922 35.8147 222.49 35.3702C220.272 34.6819 219.228 34.5241 215.459 34.3077C213.024 34.1679 210.319 33.9387 209.448 33.7984C207.196 33.4356 205.134 33.4827 202.438 33.9585C200.561 34.29 198.592 34.3546 192.543 34.2832C188.389 34.2343 184.112 34.2845 183.038 34.3949C181.964 34.5056 180.382 34.6619 179.523 34.7423C178.663 34.8228 177.299 35.0546 176.49 35.2574C175.682 35.4605 174.298 35.6264 173.416 35.6264C170.013 35.6264 168.049 36.7542 166.713 39.4742L165.981 40.9647L166.027 72.6042C166.059 94.3757 166.164 104.893 166.365 106.327C166.526 107.473 166.823 109.582 167.024 111.014C167.226 112.446 167.582 115.376 167.815 117.524C168.446 123.329 169.383 125.045 172.731 126.526C174.035 127.103 174.361 127.119 179.932 126.883L183.727 126.722L185.67 126.883C186.339 127.307 187.715 127.921 188.727 128.246C190.483 128.81 190.095 129.441 195.358 129.286C203.109 129.057 204.023 128.811 207.608 125.984C209.684 124.348 210.358 123.57 211.669 121.3C212.124 120.512 213.02 119.223 213.659 118.436C215.86 115.724 216.822 114.384 217.404 113.222C217.725 112.58 218.61 111.235 219.371 110.231C220.812 108.331 222.389 105.581 224.257 101.709C225.419 99.2992 225.439 99.2836 227.601 99.0862L228.807 98.9763L228.945 108.641C229.02 113.956 229.217 119.477 229.383 120.91C229.548 122.342 229.915 125.389 230.198 127.68C230.93 133.602 231.277 145.452 230.966 153.888C230.827 157.661 230.785 162.418 230.874 164.46L231.034 168.173H227.38C224.761 168.173 223.655 168.081 223.478 167.848C223.343 167.669 222.973 166.882 222.656 166.099C222.34 165.316 221.395 163.5 220.556 162.063C219.717 160.626 218.608 158.628 218.091 157.625C216.999 155.503 213.003 150.417 211.57 149.324C210.471 148.487 207.886 147.328 203.22 145.582C200.537 144.578 199.69 144.383 197.23 144.203C195.655 144.088 193.721 143.846 192.934 143.665C192.099 143.473 189.653 143.329 187.074 143.32C183.103 143.306 182.46 143.367 180.825 143.913C179.371 144.399 178.475 144.518 176.398 144.5C170.034 144.447 167.807 145.224 166.619 147.913C166.025 149.258 166.01 149.476 166.046 156.325C166.067 160.192 166.207 165.114 166.358 167.262C166.509 169.41 166.694 182.242 166.77 195.777C166.846 209.311 167.011 221.322 167.138 222.468C167.382 224.682 167.923 227.609 168.738 231.136C169.012 232.323 169.237 233.685 169.237 234.163C169.237 236.309 170.563 238.399 172.492 239.292C173.664 239.834 176.084 239.943 177.227 239.504C177.63 239.349 179.132 239.046 180.564 238.832C182.729 238.507 183.916 238.489 187.595 238.725C190.03 238.881 193.37 238.998 195.017 238.984C198.457 238.956 205.544 239.411 207.536 239.789C208.281 239.93 210.609 240.046 212.712 240.046H216.534C224.991 240.809 227.205 241.851 230.66 241.321C231.895 240.736 233.477 240.084 234.175 239.872C234.916 239.646 235.945 239.033 236.649 238.399C237.311 237.801 238.27 237.1 238.779 236.842C239.288 236.584 240.311 235.914 241.053 235.353C241.794 234.792 242.901 234.078 243.512 233.767C246.146 232.428 248.741 230.271 250.274 228.146C250.604 227.689 251.244 226.805 251.695 226.183C252.457 225.134 255.323 220.088 257.948 215.177C259.225 212.786 260.952 207.805 261.559 204.761C261.949 202.8 262.458 200.847 263.406 197.664C263.868 196.11 263.713 196.154 267.019 196.647L269.102 196.958L269.018 202.031C268.971 204.821 269.061 208.555 269.216 210.329C269.372 212.102 269.616 216.028 269.758 219.052C269.901 222.077 270.137 226.192 270.284 228.197C270.554 231.899 271.108 248.424 271.102 252.64C271.101 253.91 271.002 255.038 270.882 255.145C270.763 255.253 269.2 255.185 267.41 254.993C257.157 253.895 257.356 253.9 228.479 253.98C211.095 254.028 199.244 254.167 196.97 254.347C194.965 254.507 191.977 254.752 190.329 254.892C180.466 255.733 172.867 255.987 156.086 256.041C143.176 256.083 136.878 256.211 131.868 256.534C128.144 256.774 122.168 257.151 118.587 257.372C115.007 257.594 109.991 257.907 107.442 258.069C103.826 258.299 102.28 258.292 100.411 258.037C99.0934 257.858 96.9961 257.691 95.7505 257.667C93.298 257.619 93.2103 257.56 93.2014 255.925C93.1983 255.346 93.5405 255.101 96.0828 253.86C98.4025 252.729 99.4913 251.99 101.637 250.09C103.105 248.791 105.503 246.685 106.964 245.412C110.322 242.485 112.837 239.803 115.146 236.685C116.143 235.337 117.397 233.755 117.931 233.169C120.886 229.927 122.688 226.167 125.243 217.911C125.708 216.407 126.653 213.644 127.343 211.771C128.033 209.897 129.119 206.558 129.758 204.349C130.396 202.141 131.402 198.775 131.994 196.869C133.356 192.48 133.818 189.844 133.829 186.402C133.834 184.898 134.007 181.851 134.214 179.631C134.421 177.411 134.767 173.251 134.982 170.387C135.198 167.522 135.507 163.421 135.67 161.273C135.834 159.124 136.054 149.574 136.16 140.049L136.352 122.732L137.147 117.134C137.585 114.054 138.09 109.367 138.269 106.717C138.752 99.6214 138.882 85.9203 138.507 81.7184C138.316 79.5747 138.228 75.1035 138.282 70.2605C138.331 65.8922 138.335 59.4471 138.292 55.9381C138.216 49.7644 138.505 45.856 139.095 45.0792C139.401 44.6761 141.83 43.3076 142.675 43.0623C143.033 42.9582 144.507 42.4189 145.95 41.8637C147.394 41.3085 149.421 40.7145 150.455 40.5439C152.852 40.1479 154.328 39.2393 155.091 37.6896C155.634 36.5857 155.653 36.2832 155.559 30.4183C155.481 25.5224 155.355 23.8039 154.931 21.8249C154.639 20.4642 154.399 19.2815 154.397 19.1968C154.395 19.1119 163.739 18.9562 175.161 18.8505C203.877 18.5851 214.629 18.4443 214.742 18.332C214.794 18.2792 217.087 18.275 219.836 18.3226C222.584 18.3703 232.45 18.543 241.76 18.7062ZM77.313 19.4335C82.8021 20.1695 86.1887 20.3918 91.7655 20.3825C96.862 20.3739 98.2015 20.2859 100.75 19.7921C106.357 18.7054 113.683 18.7492 117.099 19.8898C117.867 20.1463 119.449 20.2642 122.177 20.2687C127.978 20.2778 135.099 20.7059 137.076 21.1645C138.025 21.3845 139.046 21.5645 139.345 21.5645C139.644 21.5645 140.517 21.8715 141.284 22.247C142.4 22.7928 143.041 22.9259 144.491 22.9123L146.303 22.8951L146.507 23.8573C146.619 24.3865 146.711 26.514 146.711 28.5853V32.3508L144.758 33.0783C143.684 33.4783 141.926 34.1049 140.852 34.4702C135.081 36.4337 131.141 39.5364 130.455 42.6574C129.522 46.8989 129.457 48.371 129.516 63.7503C129.559 74.9981 129.67 79.7336 129.94 81.8486C130.178 83.716 130.303 87.2057 130.297 91.8743C130.283 102.316 129.678 111.2 128.423 119.347C128.041 121.828 127.99 124.201 128.042 137.055C128.089 148.472 128.012 152.95 127.712 156.455C127.497 158.962 127.132 164.118 126.901 167.913C126.669 171.708 126.375 175.458 126.247 176.246C126.119 177.034 125.941 179.963 125.851 182.756C125.762 185.549 125.53 188.693 125.336 189.744C124.759 192.875 121.264 204.425 118.349 212.833C117.406 215.554 116.382 218.543 116.074 219.474C114.842 223.195 113.583 225.525 111.558 227.832C110.98 228.49 109.756 230.013 108.838 231.217C106.331 234.505 104.675 236.3 101.891 238.744C100.505 239.961 98.2262 241.985 96.8273 243.24C94.9383 244.936 93.7595 245.763 92.2465 246.452C87.9917 248.391 82.584 250.97 78.0991 251.886C76.4492 252.223 73.9863 252.857 72.6257 253.294C71.265 253.731 68.8628 254.392 67.2873 254.764C65.7119 255.135 63.4362 255.723 62.2305 256.072C59.8657 256.756 56.1354 257.285 50.3609 257.754C45.8387 258.122 42.1268 258.681 39.7116 259.358C38.4564 259.711 36.6885 259.922 34.2157 260.018C30.6111 260.157 30.5421 260.149 28.0961 259.31C24.8353 258.193 22.3935 257.085 21.6245 256.375C20.1298 254.996 17.3075 250.487 16.0479 247.467C15.1992 245.432 13.6331 239.989 13.0881 237.181C12.5545 234.431 12.4983 230.414 12.9386 226.529C13.2055 224.175 13.4696 223.112 14.2112 221.405C15.144 219.257 15.1536 219.246 17.2598 217.964C20.4235 216.037 21.2755 215.657 23.8182 215.037C25.6605 214.587 26.5756 214.502 28.2263 214.626C31.4611 214.87 34.2412 215.492 36.4034 216.457C37.4916 216.943 39.3196 217.711 40.4654 218.164C45.3033 220.076 53.8032 224.652 56.4989 226.795C58.7918 228.618 61.2282 231.093 61.5956 231.973C62.1388 233.272 63.112 234.193 64.6366 234.849C68.1912 236.378 71.5799 234.571 72.3845 230.717C72.5798 229.782 72.6345 228.234 72.5332 226.504C72.2356 221.417 73.2478 199.99 74.1818 191.61C74.4613 189.104 74.8125 183.83 74.9625 179.892C75.1125 175.953 75.2844 172.496 75.3443 172.21C75.4045 171.923 75.5287 169.345 75.6206 166.481C75.7125 163.616 75.9021 159.515 76.0417 157.367C76.5057 150.219 76.5872 142.094 76.2818 133.409C76.1156 128.683 75.88 121.593 75.7583 117.655C75.6365 113.716 75.4685 110.025 75.3847 109.452C75.3011 108.879 75.1092 104.997 74.9584 100.825C74.8076 96.6535 74.5725 91.9662 74.4355 90.4089C74.2988 88.8517 74.0699 84.7066 73.9269 81.1976C73.4683 69.9501 73.1816 64.9573 72.9103 63.4899C72.7647 62.7022 72.5241 60.7101 72.3757 59.063C71.7549 52.1742 70.5328 46.6325 68.7164 42.4694C66.5873 37.5904 65.1395 35.9436 61.1488 33.8629C59.3204 32.9098 58.2304 32.514 57.0591 32.3781C56.181 32.276 55.3505 32.057 55.2138 31.8914C55.0771 31.7258 54.8352 30.1839 54.6761 28.4652C54.5172 26.7465 54.2844 24.4029 54.1592 23.2571C53.8962 20.8512 53.9298 20.8012 55.8294 20.7697C56.5455 20.7577 59.6509 20.3536 62.7302 19.871C68.7891 18.9221 72.6369 18.8065 77.313 19.4335Z" fill="black"/>
</svg>
