<svg width="160" height="160" viewBox="0 0 160 160" fill="none" xmlns="http://www.w3.org/2000/svg">
<path fill-rule="evenodd" clip-rule="evenodd" d="M77.8462 35.0508C71.2848 35.4395 65.6469 36.9005 60.0538 39.6618C58.1359 40.6085 57.1386 41.1803 55.3508 42.3579C50.3038 45.6824 46.0488 49.8473 42.8 54.6433C37.7117 62.1547 35.002 70.7808 35 79.4739C34.9988 84.8871 35.7146 89.4473 37.3246 94.282C41.6714 107.335 51.8304 117.719 64.7996 122.365C65.6109 122.656 65.888 122.715 66.4395 122.715C66.8045 122.715 67.2538 122.669 67.4381 122.614C67.9234 122.469 68.3904 122.045 68.6282 121.534L68.8357 121.089L68.8366 116.619L68.8375 112.149L68.6212 112.203C68.0006 112.359 65.6284 112.615 64.355 112.664C61.2959 112.781 58.6617 112.175 56.7925 110.925C55.9171 110.34 54.9523 109.363 54.4773 108.581C54.2946 108.28 53.9387 107.55 53.6863 106.959C52.4309 104.017 50.5008 101.403 48.8732 100.439C48.0477 99.9508 47.0819 99.0476 46.989 98.6773C46.8178 97.9951 47.3262 97.6591 48.6246 97.5966C50.1007 97.5255 51.356 97.871 52.6151 98.6949C53.5413 99.3009 55.0597 100.872 55.7833 101.972C57.3719 104.389 58.5236 105.494 60.2832 106.292C61.4277 106.811 62.3954 107.005 63.8716 107.011C65.4492 107.017 66.2629 106.877 67.8379 106.328C68.443 106.117 68.9523 105.93 68.9698 105.912C68.9872 105.895 69.0839 105.477 69.1845 104.983C69.5688 103.097 70.3174 101.533 71.4047 100.343L71.8346 99.8727L71.5445 99.8242C71.385 99.7975 70.6055 99.6769 69.8125 99.5562C58.8987 97.8952 53.1769 92.4937 51.7498 82.5047C51.4454 80.3735 51.3425 77.1946 51.5249 75.5613C51.9117 72.1008 53.2849 68.8334 55.4442 66.236C55.8136 65.7918 55.9932 65.5053 55.9585 65.4158C55.9291 65.3401 55.8076 64.9425 55.6884 64.5322C54.9468 61.9793 54.9502 58.9645 55.6978 56.0496C56.1349 54.3458 56.4156 53.6433 56.6866 53.5753C57.0787 53.4769 58.9285 53.6191 59.6968 53.8067C62.0354 54.3779 64.6767 55.5912 67.6677 57.468L68.8575 58.2145L70.1439 57.9034C76.8533 56.2805 84.2581 56.3302 90.6598 58.0411L91.3445 58.2241L91.9782 57.8016C93.7994 56.5874 96.3079 55.244 98.0171 54.5676C100.272 53.6751 103.149 53.213 103.706 53.6538C103.872 53.7849 104.486 55.7544 104.756 57.0243C104.982 58.0844 104.998 58.3005 104.999 60.3123C105 62.6458 104.904 63.3728 104.391 64.8778L104.168 65.5322L104.417 65.8006C104.84 66.2571 105.531 67.1773 106.037 67.9588C108.139 71.2013 109.007 74.9226 108.743 79.5594C108.423 85.2128 107.005 89.4434 104.336 92.7114C102.717 94.6934 100.175 96.5284 97.518 97.632C95.2749 98.5638 92.3015 99.3276 89.5357 99.6823C88.2072 99.8526 88.2741 99.7977 88.7507 100.328C89.8054 101.5 90.4774 102.836 90.883 104.565C91.2859 106.284 91.2877 106.327 91.2907 113.97L91.2935 121.264L91.4887 121.629C91.9129 122.423 92.8367 122.874 93.8096 122.764C94.7642 122.656 98.1372 121.282 100.696 119.958C106.385 117.015 111.491 112.753 115.556 107.554C116.443 106.419 118.264 103.71 118.983 102.456C123.224 95.0551 125.299 86.6836 124.925 78.4896C124.869 77.2658 124.764 75.7305 124.692 75.0779C123.306 62.5829 116.908 51.4328 106.781 43.8629C100.292 39.0131 92.5962 36.0421 84.3941 35.2205C83.0998 35.0909 78.9744 34.984 77.8462 35.0508Z" fill="black"/>
</svg>
