<svg width="160" height="160" viewBox="0 0 160 160" fill="none" xmlns="http://www.w3.org/2000/svg">
<path fill-rule="evenodd" clip-rule="evenodd" d="M79.8213 18.1787C79.8213 18.2769 79.6189 18.3573 79.3712 18.3573C79.0559 18.3573 78.5751 18.7036 77.7632 19.5153C77.1264 20.1523 76.6052 20.7634 76.6052 20.8731C76.6052 20.983 76.364 21.2981 76.0692 21.5735C75.7744 21.8488 75.5331 22.1704 75.5331 22.2882C75.5331 22.4059 75.2919 22.7275 74.9971 23.0029C74.7023 23.2782 74.4611 23.5982 74.4611 23.714C74.4611 23.8296 74.1395 24.2332 73.7464 24.611C73.3533 24.9887 73.0317 25.3923 73.0317 25.5079C73.0317 25.6237 72.7905 25.9437 72.4957 26.219C72.2009 26.4944 71.9597 26.816 71.9597 26.9337C71.9597 27.0515 71.7184 27.3731 71.4236 27.6484C71.1288 27.9238 70.8876 28.2438 70.8876 28.3595C70.8876 28.4751 70.566 28.8788 70.1729 29.2565C69.7798 29.6342 69.4582 30.0362 69.4582 30.1499C69.4582 30.2635 69.1366 30.6655 68.7435 31.0432C68.3504 31.4209 68.0288 31.8219 68.0288 31.9343C68.0288 32.0465 67.6268 32.53 67.1354 33.0086C66.6441 33.4873 66.2421 33.9688 66.2421 34.0789C66.2421 34.1891 65.7597 34.7527 65.17 35.3314C64.5804 35.9101 64.098 36.4724 64.098 36.5809C64.098 36.6893 63.5352 37.3331 62.8473 38.0115C62.1594 38.69 61.5965 39.3323 61.5965 39.4391C61.5965 39.546 60.8729 40.3507 59.9885 41.2277C59.104 42.1046 58.3804 42.9058 58.3804 43.0082C58.3804 43.2513 44.3234 57.3084 44.0802 57.3084C43.9778 57.3084 43.1766 58.032 42.2997 58.9164C41.4228 59.8009 40.6175 60.5245 40.5099 60.5245C40.4024 60.5245 39.841 61.0069 39.2622 61.5965C38.6835 62.1862 38.1207 62.6686 38.0115 62.6686C37.9024 62.6686 37.3395 63.151 36.7608 63.7406C36.1821 64.3303 35.6175 64.8127 35.506 64.8127C35.3945 64.8127 34.9944 65.1343 34.6167 65.5274C34.239 65.9205 33.837 66.2421 33.7233 66.2421C33.6097 66.2421 33.2077 66.5637 32.83 66.9568C32.4523 67.3499 32.0502 67.6715 31.9366 67.6715C31.823 67.6715 31.4209 67.9931 31.0432 68.3862C30.6655 68.7793 30.2619 69.1009 30.1463 69.1009C30.0305 69.1009 29.7105 69.3421 29.4352 69.6369C29.1598 69.9317 28.8382 70.1729 28.7205 70.1729C28.6027 70.1729 28.2811 70.4141 28.0058 70.7089C27.7304 71.0037 27.4088 71.245 27.2911 71.245C27.1733 71.245 26.8517 71.4862 26.5764 71.781C26.301 72.0758 25.9648 72.317 25.8295 72.317C25.6941 72.317 25.4673 72.4778 25.3256 72.6744C25.184 72.8709 24.9572 73.0317 24.8218 73.0317C24.6865 73.0317 24.3503 73.2729 24.0749 73.5677C23.7996 73.8625 23.4633 74.1037 23.3281 74.1037C23.1926 74.1037 22.9659 74.2646 22.8242 74.4611C22.6825 74.6576 22.4413 74.8184 22.2882 74.8184C22.1351 74.8184 21.8939 74.9793 21.7522 75.1758C21.6105 75.3723 21.3837 75.5331 21.2483 75.5331C21.113 75.5331 20.7768 75.7744 20.5014 76.0692C20.2261 76.364 19.9088 76.6052 19.7962 76.6052C19.4955 76.6052 18.7147 77.4378 18.7147 77.7585C18.7147 77.9104 18.6343 78.0346 18.536 78.0346C18.4378 78.0346 18.3573 78.1954 18.3573 78.3919C18.3573 78.5885 18.2769 78.7493 18.1787 78.7493C18.0793 78.7493 18 79.2258 18 79.8213C18 80.4168 18.0793 80.8934 18.1787 80.8934C18.2769 80.8934 18.3573 81.0542 18.3573 81.2507C18.3573 81.4473 18.4378 81.6081 18.536 81.6081C18.6343 81.6081 18.7147 81.7314 18.7147 81.882C18.7147 82.2165 19.8623 83.3948 20.188 83.3948C20.317 83.3948 20.5384 83.5556 20.6801 83.7522C20.8218 83.9487 21.0485 84.1095 21.184 84.1095C21.3192 84.1095 21.6555 84.3507 21.9308 84.6455C22.2062 84.9403 22.5424 85.1816 22.6777 85.1816C22.8131 85.1816 23.0399 85.3424 23.1816 85.5389C23.3232 85.7354 23.55 85.8963 23.6854 85.8963C23.8207 85.8963 24.1569 86.1375 24.4323 86.4323C24.7076 86.7271 25.0292 86.9683 25.147 86.9683C25.2647 86.9683 25.5863 87.2095 25.8617 87.5043C26.137 87.7991 26.4586 88.0403 26.5764 88.0403C26.6941 88.0403 27.0157 88.2816 27.2911 88.5764C27.5664 88.8712 27.888 89.1124 28.0058 89.1124C28.1235 89.1124 28.4451 89.3536 28.7205 89.6484C28.9958 89.9432 29.3174 90.1844 29.4352 90.1844C29.5529 90.1844 29.8745 90.4256 30.1499 90.7205C30.4252 91.0153 30.7452 91.2565 30.861 91.2565C30.9766 91.2565 31.3802 91.5781 31.7579 91.9712C32.1356 92.3643 32.5377 92.6859 32.6513 92.6859C32.7649 92.6859 33.167 93.0075 33.5447 93.4006C33.9224 93.7937 34.3233 94.1153 34.4357 94.1153C34.5479 94.1153 35.0314 94.5173 35.5101 95.0086C35.9888 95.5 36.4712 95.902 36.5821 95.902C36.6931 95.902 37.1755 96.304 37.6542 96.7954C38.1328 97.2867 38.6138 97.6888 38.7232 97.6888C38.8327 97.6888 39.4772 98.2516 40.1556 98.9395C40.834 99.6274 41.4767 100.19 41.5841 100.19C41.6913 100.19 42.4153 100.833 43.1931 101.62C43.9709 102.406 44.6913 103.049 44.794 103.049C45.0379 103.049 59.0951 117.105 59.0951 117.349C59.0951 117.452 59.8187 118.253 60.7032 119.13C61.5876 120.007 62.3112 120.811 62.3112 120.916C62.3112 121.022 63.0349 121.826 63.9193 122.703C64.8037 123.58 65.5274 124.389 65.5274 124.501C65.5274 124.612 65.7686 124.929 66.0634 125.205C66.3582 125.48 66.5994 125.8 66.5994 125.916C66.5994 126.031 66.921 126.435 67.3141 126.813C67.7072 127.19 68.0288 127.594 68.0288 127.71C68.0288 127.825 68.27 128.145 68.5648 128.421C68.8597 128.696 69.1009 129.016 69.1009 129.132C69.1009 129.247 69.4225 129.651 69.8156 130.029C70.2086 130.407 70.5303 130.809 70.5303 130.922C70.5303 131.036 70.8519 131.438 71.245 131.816C71.638 132.193 71.9597 132.597 71.9597 132.713C71.9597 132.828 72.2009 133.148 72.4957 133.424C72.7905 133.699 73.0317 134.021 73.0317 134.138C73.0317 134.256 73.2729 134.578 73.5677 134.853C73.8625 135.128 74.1037 135.465 74.1037 135.6C74.1037 135.735 74.2646 135.962 74.4611 136.104C74.6576 136.245 74.8184 136.487 74.8184 136.64C74.8184 136.793 74.9793 137.034 75.1758 137.176C75.3723 137.317 75.5331 137.559 75.5331 137.712C75.5331 137.865 75.6939 138.106 75.8905 138.248C76.087 138.39 76.2478 138.631 76.2478 138.784C76.2478 138.937 76.4086 139.178 76.6052 139.32C76.8017 139.462 76.9625 139.72 76.9625 139.895C76.9625 140.07 77.0429 140.213 77.1412 140.213C77.2395 140.213 77.3199 140.34 77.3199 140.494C77.3199 140.855 77.7501 141.285 78.1112 141.285C78.2656 141.285 78.3919 141.366 78.3919 141.464C78.3919 141.562 78.6331 141.643 78.928 141.643C79.2228 141.643 79.464 141.723 79.464 141.821C79.464 141.925 80.0309 142 80.8074 142H82.1507L83.3089 140.842C83.9457 140.205 84.4669 139.594 84.4669 139.484C84.4669 139.374 84.7081 139.059 85.0029 138.784C85.2977 138.509 85.5389 138.187 85.5389 138.069C85.5389 137.951 85.7801 137.63 86.0749 137.354C86.3697 137.079 86.611 136.743 86.611 136.608C86.611 136.472 86.7718 136.245 86.9683 136.104C87.1648 135.962 87.3256 135.737 87.3256 135.604C87.3256 135.47 87.6473 135.052 88.0403 134.674C88.4334 134.297 88.755 133.893 88.755 133.777C88.755 133.662 88.9963 133.342 89.2911 133.066C89.5859 132.791 89.8271 132.471 89.8271 132.355C89.8271 132.24 90.1487 131.836 90.5418 131.458C90.9349 131.08 91.2565 130.678 91.2565 130.565C91.2565 130.451 91.5781 130.049 91.9712 129.671C92.3643 129.294 92.6859 128.892 92.6859 128.778C92.6859 128.664 93.0075 128.262 93.4006 127.885C93.7937 127.507 94.1153 127.106 94.1153 126.994C94.1153 126.881 94.5173 126.398 95.0086 125.919C95.5 125.441 95.902 124.96 95.902 124.85C95.902 124.741 96.4648 124.096 97.1527 123.418C97.8406 122.739 98.4035 122.097 98.4035 121.989C98.4035 121.882 99.0467 121.158 99.8329 120.38C100.619 119.603 101.262 118.881 101.262 118.777C101.262 118.672 102.79 117.062 104.657 115.199C106.524 113.335 108.052 111.727 108.052 111.624C108.052 111.381 109.594 109.839 109.837 109.839C109.94 109.839 111.549 108.311 113.412 106.444C115.276 104.577 116.885 103.049 116.989 103.049C117.093 103.049 117.895 102.325 118.772 101.441C119.649 100.556 120.455 99.8329 120.562 99.8329C120.67 99.8329 121.231 99.3504 121.81 98.7608C122.389 98.1712 122.951 97.6888 123.061 97.6888C123.17 97.6888 123.733 97.2063 124.311 96.6167C124.89 96.0271 125.455 95.5447 125.566 95.5447C125.678 95.5447 126.078 95.2231 126.455 94.83C126.833 94.4369 127.235 94.1153 127.349 94.1153C127.462 94.1153 127.864 93.7937 128.242 93.4006C128.62 93.0075 129.022 92.6859 129.135 92.6859C129.249 92.6859 129.651 92.3643 130.029 91.9712C130.407 91.5781 130.81 91.2565 130.926 91.2565C131.042 91.2565 131.362 91.0153 131.637 90.7205C131.912 90.4256 132.232 90.1844 132.348 90.1844C132.464 90.1844 132.867 89.8628 133.245 89.4697C133.623 89.0767 134.026 88.755 134.142 88.755C134.258 88.755 134.578 88.5138 134.853 88.219C135.128 87.9242 135.465 87.683 135.6 87.683C135.735 87.683 135.962 87.5222 136.104 87.3256C136.245 87.1291 136.47 86.9683 136.604 86.9683C136.737 86.9683 137.155 86.6467 137.533 86.2536C137.911 85.8605 138.347 85.5389 138.502 85.5389C138.657 85.5389 138.784 85.4585 138.784 85.3602C138.784 85.262 138.927 85.1816 139.102 85.1816C139.277 85.1816 139.536 85.0208 139.677 84.8242C139.819 84.6277 140.078 84.4669 140.253 84.4669C140.427 84.4669 140.571 84.3865 140.571 84.2882C140.571 84.1899 140.695 84.1095 140.847 84.1095C140.999 84.1095 141.32 83.9121 141.561 83.6709C141.995 83.2376 142 83.194 142 79.9954C142 76.6302 141.919 76.2478 141.209 76.2478C141.054 76.2478 140.928 76.1674 140.928 76.0692C140.928 75.9709 140.799 75.8905 140.642 75.8905C140.485 75.8905 140.131 75.6493 139.856 75.3545C139.581 75.0597 139.244 74.8184 139.109 74.8184C138.974 74.8184 138.747 74.6576 138.605 74.4611C138.464 74.2646 138.222 74.1037 138.069 74.1037C137.916 74.1037 137.675 73.9429 137.533 73.7464C137.391 73.5499 137.165 73.3891 137.029 73.3891C136.894 73.3891 136.558 73.1478 136.282 72.853C136.007 72.5582 135.685 72.317 135.568 72.317C135.45 72.317 135.128 72.0758 134.853 71.781C134.578 71.4862 134.256 71.245 134.138 71.245C134.021 71.245 133.699 71.0037 133.424 70.7089C133.148 70.4141 132.827 70.1729 132.709 70.1729C132.591 70.1729 132.27 69.9317 131.994 69.6369C131.719 69.3421 131.397 69.1009 131.28 69.1009C131.162 69.1009 130.84 68.8597 130.565 68.5648C130.29 68.27 129.97 68.0288 129.854 68.0288C129.738 68.0288 129.334 67.7072 128.957 67.3141C128.579 66.921 128.178 66.5994 128.066 66.5994C127.954 66.5994 127.47 66.1974 126.991 65.7061C126.513 65.2147 126.03 64.8127 125.919 64.8127C125.808 64.8127 125.326 64.4107 124.847 63.9193C124.369 63.428 123.887 63.0259 123.777 63.0259C123.667 63.0259 123.103 62.5435 122.524 61.9539C121.946 61.3643 121.384 60.8818 121.276 60.8818C121.168 60.8818 120.443 60.2386 119.666 59.4525C118.888 58.6663 118.168 58.0231 118.065 58.0231C117.822 58.0231 103.049 43.2524 103.049 43.0098C103.049 42.9083 102.084 41.8652 100.905 40.6916C99.7257 39.5181 98.7608 38.4709 98.7608 38.3642C98.7608 38.2576 98.2784 37.6969 97.6888 37.1182C97.0991 36.5394 96.6167 35.9759 96.6167 35.8656C96.6167 35.7556 96.2147 35.2741 95.7233 34.7954C95.232 34.3167 94.83 33.8332 94.83 33.721C94.83 33.6086 94.5084 33.2077 94.1153 32.83C93.7222 32.4523 93.4006 32.0502 93.4006 31.9366C93.4006 31.823 93.079 31.4209 92.6859 31.0432C92.2928 30.6655 91.9712 30.2635 91.9712 30.1499C91.9712 30.0362 91.6496 29.6342 91.2565 29.2565C90.8634 28.8788 90.5418 28.4767 90.5418 28.3631C90.5418 28.2495 90.2202 27.8475 89.8271 27.4697C89.434 27.092 89.1124 26.6884 89.1124 26.5728C89.1124 26.457 88.8712 26.137 88.5764 25.8617C88.2816 25.5863 88.0403 25.2501 88.0403 25.1148C88.0403 24.9794 87.8795 24.7526 87.683 24.611C87.4865 24.4693 87.3256 24.2425 87.3256 24.1071C87.3256 23.9718 87.0844 23.6356 86.7896 23.3602C86.4948 23.0849 86.2536 22.7486 86.2536 22.6134C86.2536 22.4779 86.0928 22.2512 85.8963 22.1095C85.6997 21.9678 85.5389 21.7411 85.5389 21.6056C85.5389 21.4704 85.2977 21.1341 85.0029 20.8588C84.7081 20.5835 84.4669 20.267 84.4669 20.1557C84.4669 19.8545 83.2703 18.7147 82.954 18.7147C82.8034 18.7147 82.6801 18.6343 82.6801 18.536C82.6801 18.4378 82.5193 18.3573 82.3228 18.3573C82.1262 18.3573 81.9654 18.2769 81.9654 18.1787C81.9654 18.0793 81.4889 18 80.8934 18C80.2979 18 79.8213 18.0793 79.8213 18.1787ZM82.6801 34.2594C82.6801 34.3576 82.9213 34.438 83.2161 34.438C83.511 34.438 83.7522 34.5184 83.7522 34.6167C83.7522 34.715 83.9934 34.7954 84.2882 34.7954C84.583 34.7954 84.8242 34.8758 84.8242 34.9741C84.8242 35.0723 84.985 35.1527 85.1816 35.1527C85.3781 35.1527 85.5389 35.2331 85.5389 35.3314C85.5389 35.4297 85.682 35.5101 85.8568 35.5101C86.0317 35.5101 86.2906 35.6709 86.4323 35.8674C86.574 36.064 86.8152 36.2248 86.9683 36.2248C87.1214 36.2248 87.3626 36.3856 87.5043 36.5821C87.646 36.7787 87.871 36.9395 88.0044 36.9395C88.1379 36.9395 88.556 37.2611 88.9337 37.6542C89.3114 38.0473 89.7151 38.3689 89.8307 38.3689C89.9464 38.3689 90.2665 38.6101 90.5418 38.9049C90.8171 39.1997 91.1361 39.4409 91.2504 39.4409C91.3648 39.4409 91.8499 39.8429 92.3285 40.3343C92.8072 40.8256 93.2896 41.2277 93.4006 41.2277C93.5115 41.2277 93.994 41.6297 94.4726 42.121C94.9513 42.6124 95.4316 43.0144 95.5398 43.0144C95.6483 43.0144 96.4545 43.738 97.3314 44.6225C98.2083 45.5069 99.0145 46.2305 99.123 46.2305C99.2313 46.2305 99.7115 46.6326 100.19 47.1239C100.669 47.6153 101.146 48.0173 101.252 48.0173C101.498 48.0173 110.911 57.4249 110.911 57.6711C110.911 57.7733 111.715 58.6552 112.697 59.6311C113.68 60.607 114.484 61.4931 114.484 61.6003C114.484 61.7073 114.967 62.2685 115.556 62.8473C116.146 63.426 116.628 63.9895 116.628 64.0998C116.628 64.2098 117.03 64.6914 117.522 65.17C118.013 65.6487 118.415 66.1322 118.415 66.2444C118.415 66.3568 118.737 66.7577 119.13 67.1354C119.523 67.5132 119.844 67.9152 119.844 68.0288C119.844 68.1425 120.166 68.5445 120.559 68.9222C120.952 69.2999 121.274 69.7035 121.274 69.8191C121.274 69.9349 121.515 70.2549 121.81 70.5303C122.105 70.8056 122.346 71.1272 122.346 71.245C122.346 71.3627 122.587 71.6843 122.882 71.9597C123.177 72.235 123.418 72.5566 123.418 72.6744C123.418 72.7921 123.659 73.1137 123.954 73.3891C124.249 73.6644 124.49 73.986 124.49 74.1037C124.49 74.2215 124.731 74.5431 125.026 74.8184C125.321 75.0938 125.562 75.4477 125.562 75.6048C125.562 75.762 125.642 75.8905 125.741 75.8905C125.839 75.8905 125.919 76.0336 125.919 76.2084C125.919 76.3833 126.08 76.6422 126.277 76.7839C126.486 76.9352 126.634 77.2465 126.634 77.538C126.634 77.8111 126.714 78.0346 126.813 78.0346C126.911 78.0346 126.991 78.2758 126.991 78.5706C126.991 78.8654 127.072 79.1066 127.17 79.1066C127.272 79.1066 127.349 79.6427 127.349 80.3573C127.349 81.072 127.272 81.6081 127.17 81.6081C127.072 81.6081 126.991 81.7689 126.991 81.9654C126.991 82.162 126.911 82.3228 126.813 82.3228C126.714 82.3228 126.634 82.4836 126.634 82.6801C126.634 82.8767 126.554 83.0375 126.455 83.0375C126.357 83.0375 126.277 83.1983 126.277 83.3948C126.277 83.5914 126.196 83.7522 126.098 83.7522C126 83.7522 125.919 83.913 125.919 84.1095C125.919 84.3061 125.839 84.4669 125.741 84.4669C125.642 84.4669 125.562 84.6277 125.562 84.8242C125.562 85.0208 125.482 85.1816 125.383 85.1816C125.285 85.1816 125.205 85.3247 125.205 85.4994C125.205 85.6743 125.044 85.9332 124.847 86.0749C124.651 86.2166 124.49 86.4578 124.49 86.611C124.49 86.7641 124.329 87.0053 124.133 87.147C123.936 87.2887 123.775 87.5154 123.775 87.6508C123.775 87.7861 123.534 88.1224 123.239 88.3977C122.944 88.673 122.703 88.993 122.703 89.1088C122.703 89.2244 122.382 89.628 121.988 90.0058C121.595 90.3835 121.274 90.7844 121.274 90.8968C121.274 91.009 120.872 91.4925 120.38 91.9712C119.889 92.4499 119.487 92.9314 119.487 93.0414C119.487 93.1517 119.005 93.7152 118.415 94.2939C117.825 94.8727 117.343 95.435 117.343 95.5434C117.343 95.6519 116.78 96.2956 116.092 96.9741C115.404 97.6525 114.842 98.2921 114.842 98.3954C114.842 98.6398 101.143 112.34 100.899 112.34C100.796 112.34 99.9951 113.064 99.1182 113.948C98.2412 114.833 97.4359 115.556 97.3284 115.556C97.2208 115.556 96.6594 116.039 96.0807 116.628C95.502 117.218 94.9374 117.7 94.8259 117.7C94.7144 117.7 94.3143 118.022 93.9366 118.415C93.5589 118.808 93.1569 119.13 93.0432 119.13C92.9296 119.13 92.5276 119.451 92.1499 119.844C91.7721 120.237 91.3685 120.559 91.2529 120.559C91.1371 120.559 90.8171 120.8 90.5418 121.095C90.2665 121.39 89.9448 121.631 89.8271 121.631C89.7093 121.631 89.3877 121.872 89.1124 122.167C88.8371 122.462 88.5154 122.703 88.3977 122.703C88.2799 122.703 87.9583 122.944 87.683 123.239C87.4077 123.534 87.0714 123.775 86.9361 123.775C86.8007 123.775 86.574 123.936 86.4323 124.133C86.2906 124.329 86.0494 124.49 85.8963 124.49C85.7431 124.49 85.5019 124.651 85.3602 124.847C85.2185 125.044 84.9596 125.205 84.7847 125.205C84.61 125.205 84.4669 125.285 84.4669 125.383C84.4669 125.482 84.2256 125.562 83.9308 125.562C83.636 125.562 83.3948 125.642 83.3948 125.741C83.3948 125.839 83.1536 125.919 82.8588 125.919C82.564 125.919 82.3228 126 82.3228 126.098C82.3228 126.202 81.7272 126.277 80.8934 126.277C80.0595 126.277 79.464 126.202 79.464 126.098C79.464 126 79.3032 125.919 79.1066 125.919C78.9101 125.919 78.7493 125.839 78.7493 125.741C78.7493 125.642 78.5885 125.562 78.3919 125.562C78.1954 125.562 78.0346 125.482 78.0346 125.383C78.0346 125.285 77.8915 125.205 77.7167 125.205C77.5418 125.205 77.2829 125.044 77.1412 124.847C76.9995 124.651 76.7406 124.49 76.5657 124.49C76.391 124.49 76.2478 124.41 76.2478 124.311C76.2478 124.213 76.1047 124.133 75.93 124.133C75.7551 124.133 75.4962 123.972 75.3545 123.775C75.2128 123.579 74.9716 123.418 74.8184 123.418C74.6653 123.418 74.4241 123.257 74.2824 123.061C74.1407 122.864 73.914 122.703 73.7786 122.703C73.6433 122.703 73.307 122.462 73.0317 122.167C72.7564 121.872 72.4348 121.631 72.317 121.631C72.1993 121.631 71.8776 121.39 71.6023 121.095C71.327 120.8 71.007 120.559 70.8912 120.559C70.7756 120.559 70.372 120.237 69.9942 119.844C69.6165 119.451 69.2156 119.13 69.1032 119.13C68.991 119.13 68.5075 118.728 68.0288 118.236C67.5502 117.745 67.0695 117.343 66.9607 117.343C66.8519 117.343 66.1265 116.7 65.3487 115.914C64.5709 115.127 63.848 114.484 63.7421 114.484C63.6361 114.484 62.7511 113.68 61.7752 112.697C60.7993 111.715 59.9156 110.911 59.8112 110.911C59.7067 110.911 58.5805 109.865 57.3084 108.588C56.0362 107.31 54.912 106.265 54.8103 106.265C54.5684 106.265 49.4467 101.143 49.4467 100.901C49.4467 100.799 48.4818 99.7557 47.3026 98.5821C46.1233 97.4086 45.1585 96.3614 45.1585 96.2547C45.1585 96.1481 44.6761 95.5874 44.0865 95.0086C43.4968 94.4299 43.0144 93.8664 43.0144 93.7561C43.0144 93.6461 42.6124 93.1645 42.121 92.6859C41.6297 92.2072 41.2277 91.7237 41.2277 91.6115C41.2277 91.4991 40.9061 91.0982 40.513 90.7205C40.1199 90.3427 39.7983 89.9391 39.7983 89.8235C39.7983 89.7077 39.5571 89.3877 39.2622 89.1124C38.9674 88.8371 38.7262 88.5154 38.7262 88.3977C38.7262 88.2799 38.485 87.9583 38.1902 87.683C37.8954 87.4077 37.6542 87.086 37.6542 86.9683C37.6542 86.8506 37.413 86.5289 37.1182 86.2536C36.8233 85.9783 36.5821 85.642 36.5821 85.5067C36.5821 85.3713 36.4213 85.1446 36.2248 85.0029C36.0282 84.8612 35.8674 84.62 35.8674 84.4669C35.8674 84.3137 35.7066 84.0725 35.5101 83.9308C35.3135 83.7891 35.1527 83.5302 35.1527 83.3553C35.1527 83.1806 35.0723 83.0375 34.9741 83.0375C34.8758 83.0375 34.7954 82.8767 34.7954 82.6801C34.7954 82.4836 34.715 82.3228 34.6167 82.3228C34.5149 82.3228 34.438 81.7917 34.438 81.0869C34.438 80.273 34.3617 79.8156 34.2147 79.7468C34.036 79.6636 34.036 79.6217 34.2147 79.5385C34.3376 79.4811 34.438 79.1997 34.438 78.9131C34.438 78.6265 34.5184 78.3919 34.6167 78.3919C34.715 78.3919 34.7954 78.1507 34.7954 77.8559C34.7954 77.5611 34.8758 77.3199 34.9741 77.3199C35.0723 77.3199 35.1527 77.1591 35.1527 76.9625C35.1527 76.766 35.2331 76.6052 35.3314 76.6052C35.4297 76.6052 35.5101 76.4444 35.5101 76.2478C35.5101 76.0513 35.5905 75.8905 35.6888 75.8905C35.787 75.8905 35.8674 75.7474 35.8674 75.5726C35.8674 75.3977 36.0282 75.1388 36.2248 74.9971C36.4213 74.8554 36.5821 74.6287 36.5821 74.4933C36.5821 74.358 36.8233 74.0217 37.1182 73.7464C37.413 73.4711 37.6542 73.1511 37.6542 73.0353C37.6542 72.9197 37.9758 72.516 38.3689 72.1383C38.762 71.7606 39.0836 71.357 39.0836 71.2414C39.0836 71.1256 39.3248 70.8056 39.6196 70.5303C39.9144 70.2549 40.1556 69.936 40.1556 69.8216C40.1556 69.7073 40.5576 69.2222 41.049 68.7435C41.5403 68.2648 41.9424 67.7833 41.9424 67.6733C41.9424 67.563 42.4248 66.9995 43.0144 66.4208C43.604 65.842 44.0865 65.2808 44.0865 65.1738C44.0865 65.0666 44.8905 64.1805 45.8732 63.2046C46.8559 62.2287 47.6599 61.3468 47.6599 61.2447C47.6599 61.0025 58.1431 50.5187 58.3854 50.5187C58.4873 50.5187 59.4498 49.6343 60.5245 48.5533C61.5992 47.4723 62.5646 46.5879 62.6698 46.5879C62.7749 46.5879 63.5784 45.8643 64.4553 44.9798C65.3323 44.0954 66.1395 43.3718 66.2492 43.3718C66.3589 43.3718 66.7577 43.0501 67.1354 42.6571C67.5132 42.264 67.9141 41.9424 68.0265 41.9424C68.1387 41.9424 68.6222 41.5403 69.1009 41.049C69.5795 40.5576 70.0646 40.1556 70.179 40.1556C70.2933 40.1556 70.6123 39.9144 70.8876 39.6196C71.1629 39.3248 71.4846 39.0836 71.6023 39.0836C71.7201 39.0836 72.0417 38.8424 72.317 38.5476C72.5923 38.2527 72.914 38.0115 73.0317 38.0115C73.1494 38.0115 73.4711 37.7703 73.7464 37.4755C74.0217 37.1807 74.3433 36.9395 74.4611 36.9395C74.5788 36.9395 74.9005 36.6983 75.1758 36.4035C75.4511 36.1086 75.7874 35.8674 75.9227 35.8674C76.0581 35.8674 76.2848 35.7066 76.4265 35.5101C76.5682 35.3135 76.8271 35.1527 77.002 35.1527C77.1768 35.1527 77.3199 35.0723 77.3199 34.9741C77.3199 34.8758 77.4807 34.7954 77.6772 34.7954C77.8738 34.7954 78.0346 34.715 78.0346 34.6167C78.0346 34.5184 78.1954 34.438 78.3919 34.438C78.5885 34.438 78.7493 34.3576 78.7493 34.2594C78.7493 34.1511 79.5235 34.0807 80.7147 34.0807C81.9059 34.0807 82.6801 34.1511 82.6801 34.2594ZM79.8213 37.1182C79.8213 37.2164 79.5801 37.2968 79.2853 37.2968C78.9905 37.2968 78.7493 37.3772 78.7493 37.4755C78.7493 37.5738 78.6062 37.6542 78.4314 37.6542C78.2565 37.6542 77.9976 37.815 77.8559 38.0115C77.7142 38.2081 77.4875 38.3689 77.352 38.3689C77.2168 38.3689 76.8805 38.6101 76.6052 38.9049C76.3299 39.1997 75.9936 39.4409 75.8583 39.4409C75.7229 39.4409 75.4962 39.6017 75.3545 39.7983C75.2128 39.9948 74.986 40.1556 74.8506 40.1556C74.7153 40.1556 74.3791 40.3968 74.1037 40.6916C73.8284 40.9865 73.5068 41.2277 73.3891 41.2277C73.2713 41.2277 72.9497 41.4689 72.6744 41.7637C72.399 42.0585 72.079 42.2997 71.9632 42.2997C71.8476 42.2997 71.444 42.6213 71.0663 43.0144C70.6886 43.4075 70.2865 43.7291 70.1729 43.7291C70.0593 43.7291 69.6573 44.0507 69.2795 44.4438C68.9018 44.8369 68.5009 45.1585 68.3885 45.1585C68.2763 45.1585 67.7928 45.5605 67.3141 46.0519C66.8355 46.5432 66.3545 46.9452 66.2451 46.9452C66.1356 46.9452 65.4911 47.5081 64.8127 48.196C64.1343 48.8839 63.4921 49.4467 63.3856 49.4467C63.2793 49.4467 62.3938 50.2507 61.4179 51.2334C60.4419 52.2161 59.56 53.0202 59.4576 53.0202C59.2148 53.0202 51.2334 61.0016 51.2334 61.2444C51.2334 61.3468 50.4294 62.2287 49.4467 63.2046C48.464 64.1805 47.6599 65.066 47.6599 65.1724C47.6599 65.2788 47.0971 65.921 46.4092 66.5994C45.7213 67.2779 45.1585 67.9223 45.1585 68.0319C45.1585 68.1412 44.7565 68.6222 44.2651 69.1009C43.7738 69.5795 43.3718 70.063 43.3718 70.1752C43.3718 70.2876 43.0501 70.6886 42.6571 71.0663C42.264 71.444 41.9424 71.846 41.9424 71.9597C41.9424 72.0733 41.6207 72.4753 41.2277 72.853C40.8346 73.2307 40.513 73.6344 40.513 73.75C40.513 73.8658 40.2718 74.1858 39.9769 74.4611C39.6821 74.7364 39.4409 75.0727 39.4409 75.208C39.4409 75.3434 39.2801 75.5701 39.0836 75.7118C38.887 75.8535 38.7262 76.0947 38.7262 76.2478C38.7262 76.401 38.5654 76.6422 38.3689 76.7839C38.1723 76.9256 38.0115 77.1845 38.0115 77.3594C38.0115 77.5341 37.9311 77.6772 37.8329 77.6772C37.7346 77.6772 37.6542 77.9988 37.6542 78.3919C37.6542 78.785 37.5738 79.1066 37.4755 79.1066C37.3772 79.1066 37.2968 79.5086 37.2968 80C37.2968 80.4914 37.3772 80.8934 37.4755 80.8934C37.5738 80.8934 37.6542 81.215 37.6542 81.6081C37.6542 82.0012 37.7346 82.3228 37.8329 82.3228C37.9311 82.3228 38.0115 82.4836 38.0115 82.6801C38.0115 82.8767 38.0919 83.0375 38.1902 83.0375C38.2885 83.0375 38.3689 83.1806 38.3689 83.3553C38.3689 83.5302 38.5297 83.7891 38.7262 83.9308C38.9228 84.0725 39.0836 84.2993 39.0836 84.4347C39.0836 84.57 39.3248 84.9062 39.6196 85.1816C39.9144 85.4569 40.1556 85.7758 40.1556 85.8902C40.1556 86.0045 40.5576 86.4896 41.049 86.9683C41.5403 87.447 41.9424 87.9321 41.9424 88.0464C41.9424 88.1608 42.1836 88.4797 42.4784 88.755C42.7732 89.0304 43.0144 89.3504 43.0144 89.4662C43.0144 89.5818 43.336 89.9854 43.7291 90.3631C44.1222 90.7408 44.4438 91.1409 44.4438 91.2524C44.4438 91.3639 44.9262 91.9285 45.5159 92.5072C46.1055 93.0859 46.5879 93.6473 46.5879 93.7549C46.5879 93.8625 47.3115 94.6677 48.196 95.5447C49.0804 96.4216 49.804 97.2228 49.804 97.3252C49.804 97.569 61.3596 109.124 61.6035 109.124C61.7064 109.124 62.4268 109.767 63.2046 110.553C63.9824 111.339 64.7071 111.983 64.815 111.983C64.9229 111.983 65.4847 112.465 66.0634 113.055C66.6421 113.644 67.2057 114.127 67.3159 114.127C67.426 114.127 67.9075 114.529 68.3862 115.02C68.8648 115.512 69.3473 115.914 69.4582 115.914C69.5692 115.914 70.0516 116.316 70.5303 116.807C71.0089 117.298 71.494 117.7 71.6084 117.7C71.7227 117.7 72.0417 117.942 72.317 118.236C72.5923 118.531 72.9123 118.772 73.0281 118.772C73.1437 118.772 73.5474 119.094 73.9251 119.487C74.3028 119.88 74.7064 120.202 74.822 120.202C74.9378 120.202 75.2578 120.443 75.5331 120.738C75.8085 121.033 76.1447 121.274 76.28 121.274C76.4154 121.274 76.6422 121.435 76.7839 121.631C76.9256 121.828 77.1668 121.988 77.3199 121.988C77.473 121.988 77.7142 122.149 77.8559 122.346C77.9976 122.542 78.2565 122.703 78.4314 122.703C78.6062 122.703 78.7493 122.784 78.7493 122.882C78.7493 122.991 79.5832 123.061 80.8934 123.061C82.2036 123.061 83.0375 122.991 83.0375 122.882C83.0375 122.784 83.1983 122.703 83.3948 122.703C83.5914 122.703 83.7522 122.623 83.7522 122.524C83.7522 122.426 83.913 122.346 84.1095 122.346C84.3061 122.346 84.4669 122.265 84.4669 122.167C84.4669 122.069 84.61 121.988 84.7847 121.988C84.9596 121.988 85.2185 121.828 85.3602 121.631C85.5019 121.435 85.7431 121.274 85.8963 121.274C86.0494 121.274 86.2906 121.113 86.4323 120.916C86.574 120.72 86.7989 120.559 86.9324 120.559C87.0659 120.559 87.484 120.237 87.8617 119.844C88.2394 119.451 88.643 119.13 88.7586 119.13C88.8744 119.13 89.1944 118.888 89.4697 118.594C89.7451 118.299 90.0667 118.058 90.1844 118.058C90.3022 118.058 90.6238 117.816 90.8991 117.522C91.1745 117.227 91.4945 116.986 91.6103 116.986C91.7259 116.986 92.1295 116.664 92.5072 116.271C92.8849 115.878 93.2859 115.556 93.3983 115.556C93.5105 115.556 93.994 115.154 94.4726 114.663C94.9513 114.171 95.4319 113.769 95.5407 113.769C95.6496 113.769 96.375 113.126 97.1527 112.34C97.9305 111.554 98.6509 110.911 98.7537 110.911C99.0004 110.911 113.769 96.1379 113.769 95.8909C113.769 95.7861 114.171 95.3086 114.663 94.83C115.154 94.3513 115.556 93.8689 115.556 93.7579C115.556 93.647 115.958 93.1645 116.45 92.6859C116.941 92.2072 117.343 91.7248 117.343 91.6138C117.343 91.5029 117.745 91.0205 118.236 90.5418C118.728 90.0631 119.13 89.578 119.13 89.4637C119.13 89.3493 119.371 89.0304 119.666 88.755C119.961 88.4797 120.202 88.1597 120.202 88.0439C120.202 87.9283 120.523 87.5247 120.916 87.147C121.31 86.7693 121.631 86.3512 121.631 86.2177C121.631 86.0842 121.792 85.8593 121.988 85.7176C122.185 85.5759 122.346 85.3347 122.346 85.1816C122.346 85.0284 122.507 84.7872 122.703 84.6455C122.9 84.5038 123.061 84.2626 123.061 84.1095C123.061 83.9564 123.221 83.7152 123.418 83.5735C123.614 83.4318 123.775 83.1729 123.775 82.998C123.775 82.8232 123.856 82.6801 123.954 82.6801C124.052 82.6801 124.133 82.3585 124.133 81.9654C124.133 81.5723 124.213 81.2507 124.311 81.2507C124.41 81.2507 124.49 80.9291 124.49 80.536C124.49 80.1429 124.41 79.8213 124.311 79.8213C124.213 79.8213 124.133 79.4193 124.133 78.928C124.133 78.4366 124.052 78.0346 123.954 78.0346C123.856 78.0346 123.775 77.8738 123.775 77.6772C123.775 77.4807 123.695 77.3199 123.597 77.3199C123.498 77.3199 123.418 77.1768 123.418 77.002C123.418 76.8271 123.257 76.5682 123.061 76.4265C122.864 76.2848 122.703 76.0581 122.703 75.9227C122.703 75.7874 122.462 75.4511 122.167 75.1758C121.872 74.9005 121.631 74.5642 121.631 74.4289C121.631 74.2935 121.47 74.0668 121.274 73.9251C121.077 73.7834 120.916 73.5566 120.916 73.4212C120.916 73.286 120.675 72.9497 120.38 72.6744C120.086 72.399 119.844 72.079 119.844 71.9632C119.844 71.8476 119.523 71.444 119.13 71.0663C118.737 70.6886 118.415 70.2865 118.415 70.1729C118.415 70.0593 118.093 69.6573 117.7 69.2795C117.307 68.9018 116.986 68.5009 116.986 68.3885C116.986 68.2763 116.584 67.7928 116.092 67.3141C115.601 66.8355 115.199 66.3539 115.199 66.2439C115.199 66.1336 114.716 65.5701 114.127 64.9914C113.537 64.4126 113.055 63.8516 113.055 63.7447C113.055 63.6381 112.17 62.6713 111.089 61.5965C110.008 60.5218 109.124 59.5589 109.124 59.4567C109.124 59.2143 103.645 53.7349 103.403 53.7349C103.301 53.7349 102.257 52.77 101.084 51.5908C99.91 50.4115 98.8637 49.4467 98.7585 49.4467C98.6531 49.4467 97.9305 48.8035 97.1527 48.0173C96.375 47.2311 95.6496 46.5879 95.5407 46.5879C95.4319 46.5879 94.9513 46.1859 94.4726 45.6945C93.994 45.2032 93.5115 44.8012 93.4006 44.8012C93.2896 44.8012 92.8072 44.3991 92.3285 43.9078C91.8499 43.4164 91.3664 43.0144 91.2542 43.0144C91.1418 43.0144 90.7408 42.6928 90.3631 42.2997C89.9854 41.9066 89.5818 41.585 89.4662 41.585C89.3504 41.585 89.0304 41.3438 88.755 41.049C88.4797 40.7542 88.1581 40.513 88.0403 40.513C87.9226 40.513 87.601 40.2718 87.3256 39.9769C87.0503 39.6821 86.714 39.4409 86.5788 39.4409C86.4434 39.4409 86.2166 39.2801 86.0749 39.0836C85.9332 38.887 85.692 38.7262 85.5389 38.7262C85.3858 38.7262 85.1446 38.5654 85.0029 38.3689C84.8612 38.1723 84.6023 38.0115 84.4274 38.0115C84.2526 38.0115 84.1095 37.9311 84.1095 37.8329C84.1095 37.7346 83.9487 37.6542 83.7522 37.6542C83.5556 37.6542 83.3948 37.5738 83.3948 37.4755C83.3948 37.3772 83.1536 37.2968 82.8588 37.2968C82.564 37.2968 82.3228 37.2164 82.3228 37.1182C82.3228 37.0161 81.7867 36.9395 81.072 36.9395C80.3573 36.9395 79.8213 37.0161 79.8213 37.1182ZM80.8934 46.9452C80.8934 47.1418 80.9738 47.3026 81.072 47.3026C81.1703 47.3026 81.2507 47.5438 81.2507 47.8386C81.2507 48.1334 81.3311 48.3746 81.4294 48.3746C81.5277 48.3746 81.6081 48.5354 81.6081 48.732C81.6081 48.9285 81.6885 49.0893 81.7867 49.0893C81.885 49.0893 81.9654 49.3305 81.9654 49.6254C81.9654 49.9202 82.0458 50.1614 82.1441 50.1614C82.2424 50.1614 82.3228 50.4026 82.3228 50.6974C82.3228 50.9922 82.4032 51.2334 82.5014 51.2334C82.5997 51.2334 82.6801 51.4746 82.6801 51.7695C82.6801 52.0643 82.7605 52.3055 82.8588 52.3055C82.9571 52.3055 83.0375 52.5467 83.0375 52.8415C83.0375 53.1363 83.1179 53.3775 83.2161 53.3775C83.3144 53.3775 83.3948 53.6187 83.3948 53.9135C83.3948 54.2084 83.4752 54.4496 83.5735 54.4496C83.6718 54.4496 83.7522 54.6104 83.7522 54.8069C83.7522 55.0035 83.8326 55.1643 83.9308 55.1643C84.0291 55.1643 84.1095 55.4055 84.1095 55.7003C84.1095 55.9951 84.1899 56.2363 84.2882 56.2363C84.3865 56.2363 84.4669 56.4775 84.4669 56.7723C84.4669 57.0671 84.5473 57.3084 84.6455 57.3084C84.7438 57.3084 84.8242 57.5496 84.8242 57.8444C84.8242 58.1392 84.9046 58.3804 85.0029 58.3804C85.1012 58.3804 85.1816 58.5412 85.1816 58.7378C85.1816 58.9343 85.262 59.0951 85.3602 59.0951C85.4585 59.0951 85.5389 59.3363 85.5389 59.6311C85.5389 59.9259 85.6193 60.1671 85.7176 60.1671C85.8159 60.1671 85.8963 60.4084 85.8963 60.7032C85.8963 60.998 85.9767 61.2392 86.0749 61.2392C86.1732 61.2392 86.2536 61.4 86.2536 61.5965C86.2536 61.7931 86.334 61.9539 86.4323 61.9539C86.5305 61.9539 86.611 62.1951 86.611 62.4899C86.611 62.7847 86.6914 63.0259 86.7896 63.0259C86.8879 63.0259 86.9683 63.2671 86.9683 63.562C86.9683 63.8568 87.0487 64.098 87.147 64.098C87.2452 64.098 87.3256 64.2588 87.3256 64.4553C87.3256 64.6519 87.4061 64.8127 87.5043 64.8127C87.6026 64.8127 87.683 65.0539 87.683 65.3487C87.683 65.6435 87.7634 65.8847 87.8617 65.8847C87.9599 65.8847 88.0403 66.0455 88.0403 66.2421C88.0403 66.5825 87.9212 66.5994 85.5389 66.5994H83.0375V70.3516C83.0375 72.7339 83.1027 74.1037 83.2161 74.1037C83.3303 74.1037 83.3948 75.6523 83.3948 78.3919C83.3948 81.1315 83.4593 82.6801 83.5735 82.6801C83.6777 82.6801 83.7522 83.2756 83.7522 84.1095C83.7522 85.4197 83.7223 85.5389 83.3948 85.5389C83.1983 85.5389 83.0375 85.6193 83.0375 85.7176C83.0375 85.8275 82.1441 85.8963 80.7147 85.8963C79.2853 85.8963 78.3919 85.8275 78.3919 85.7176C78.3919 85.6193 78.2311 85.5389 78.0346 85.5389C77.6885 85.5389 77.6772 85.4197 77.6772 81.7867C77.6772 79.4045 77.7425 78.0346 77.8559 78.0346C77.9695 78.0346 78.0346 76.6052 78.0346 74.1037C78.0346 71.6023 78.0996 70.1729 78.2133 70.1729C78.3205 70.1729 78.3919 69.4582 78.3919 68.3862V66.5994H76.0692C73.8656 66.5994 73.7464 66.581 73.7464 66.2421C73.7464 66.0455 73.8268 65.8847 73.9251 65.8847C74.0233 65.8847 74.1037 65.6435 74.1037 65.3487C74.1037 65.0539 74.1842 64.8127 74.2824 64.8127C74.3807 64.8127 74.4611 64.6519 74.4611 64.4553C74.4611 64.2588 74.5415 64.098 74.6398 64.098C74.738 64.098 74.8184 63.8568 74.8184 63.562C74.8184 63.2671 74.8988 63.0259 74.9971 63.0259C75.0954 63.0259 75.1758 62.7847 75.1758 62.4899C75.1758 62.1951 75.2562 61.9539 75.3545 61.9539C75.4527 61.9539 75.5331 61.7127 75.5331 61.4179C75.5331 61.1231 75.6135 60.8818 75.7118 60.8818C75.8101 60.8818 75.8905 60.6406 75.8905 60.3458C75.8905 60.051 75.9709 59.8098 76.0692 59.8098C76.1674 59.8098 76.2478 59.5686 76.2478 59.2738C76.2478 58.979 76.3282 58.7378 76.4265 58.7378C76.5248 58.7378 76.6052 58.4965 76.6052 58.2017C76.6052 57.9069 76.6856 57.6657 76.7839 57.6657C76.8821 57.6657 76.9625 57.4245 76.9625 57.1297C76.9625 56.8349 77.0429 56.5937 77.1412 56.5937C77.2395 56.5937 77.3199 56.4329 77.3199 56.2363C77.3199 56.0398 77.4003 55.879 77.4986 55.879C77.5968 55.879 77.6772 55.6378 77.6772 55.3429C77.6772 55.0481 77.7576 54.8069 77.8559 54.8069C77.9542 54.8069 78.0346 54.5657 78.0346 54.2709C78.0346 53.9761 78.115 53.7349 78.2133 53.7349C78.3115 53.7349 78.3919 53.4937 78.3919 53.1988C78.3919 52.904 78.4723 52.6628 78.5706 52.6628C78.6689 52.6628 78.7493 52.4216 78.7493 52.1268C78.7493 51.832 78.8297 51.5908 78.928 51.5908C79.0262 51.5908 79.1066 51.3496 79.1066 51.0548C79.1066 50.7599 79.187 50.5187 79.2853 50.5187C79.3836 50.5187 79.464 50.2775 79.464 49.9827C79.464 49.6879 79.5444 49.4467 79.6427 49.4467C79.7409 49.4467 79.8213 49.2055 79.8213 48.9107C79.8213 48.6159 79.9017 48.3746 80 48.3746C80.0983 48.3746 80.1787 48.1334 80.1787 47.8386C80.1787 47.5438 80.2591 47.3026 80.3573 47.3026C80.4556 47.3026 80.536 47.1418 80.536 46.9452C80.536 46.7487 80.6164 46.5879 80.7147 46.5879C80.813 46.5879 80.8934 46.7487 80.8934 46.9452ZM67.1354 70.5303C67.2771 70.7268 67.5183 70.8876 67.6715 70.8876C67.8246 70.8876 68.0658 71.0484 68.2075 71.245C68.3492 71.4415 68.5904 71.6023 68.7435 71.6023C68.8966 71.6023 69.1379 71.7631 69.2795 71.9597C69.4212 72.1562 69.6801 72.317 69.8551 72.317C70.0298 72.317 70.1729 72.3974 70.1729 72.4957C70.1729 72.5939 70.316 72.6744 70.4908 72.6744C70.6657 72.6744 70.9246 72.8352 71.0663 73.0317C71.208 73.2282 71.4304 73.3891 71.5605 73.3891C71.7885 73.3891 72.6744 74.1641 72.6744 74.3637C72.6744 74.4173 72.3527 74.4611 71.9597 74.4611C71.5666 74.4611 71.245 74.5415 71.245 74.6398C71.245 74.738 70.9233 74.8184 70.5303 74.8184C70.1372 74.8184 69.8156 74.8988 69.8156 74.9971C69.8156 75.0954 69.5744 75.1758 69.2795 75.1758C68.9847 75.1758 68.7435 75.2562 68.7435 75.3545C68.7435 75.4527 68.5023 75.5331 68.2075 75.5331C67.9127 75.5331 67.6715 75.6135 67.6715 75.7118C67.6715 75.8101 67.5107 75.8905 67.3141 75.8905C67.1176 75.8905 66.9568 75.9709 66.9568 76.0692C66.9568 76.1674 66.796 76.2478 66.5994 76.2478C66.4029 76.2478 66.2421 76.3282 66.2421 76.4265C66.2421 76.5248 66.099 76.6052 65.9242 76.6052C65.7493 76.6052 65.4904 76.766 65.3487 76.9625C65.207 77.1591 64.9846 77.3199 64.8545 77.3199C64.5477 77.3199 63.7406 78.127 63.7406 78.4337C63.7406 78.5638 63.5798 78.7863 63.3833 78.928C63.1867 79.0696 63.0259 79.3285 63.0259 79.5035C63.0259 79.6782 62.9455 79.8213 62.8473 79.8213C62.749 79.8213 62.6686 80.2233 62.6686 80.7147C62.6686 81.2061 62.749 81.6081 62.8473 81.6081C62.9455 81.6081 63.0259 81.7305 63.0259 81.88C63.0259 82.0296 63.4664 82.5924 64.0047 83.1307C64.5431 83.6691 65.1059 84.1095 65.2554 84.1095C65.405 84.1095 65.5274 84.1899 65.5274 84.2882C65.5274 84.3865 65.7686 84.4669 66.0634 84.4669C66.3582 84.4669 66.5994 84.5473 66.5994 84.6455C66.5994 84.7438 66.7602 84.8242 66.9568 84.8242C67.1533 84.8242 67.3141 84.9046 67.3141 85.0029C67.3141 85.1012 67.5553 85.1816 67.8501 85.1816C68.145 85.1816 68.3862 85.262 68.3862 85.3602C68.3862 85.4585 68.7078 85.5389 69.1009 85.5389C69.4939 85.5389 69.8156 85.6193 69.8156 85.7176C69.8156 85.8159 70.1372 85.8963 70.5303 85.8963C70.9233 85.8963 71.245 85.9767 71.245 86.0749C71.245 86.1732 71.647 86.2536 72.1383 86.2536C72.6297 86.2536 73.0317 86.334 73.0317 86.4323C73.0317 86.5343 73.5677 86.611 74.2824 86.611C74.9971 86.611 75.5331 86.6876 75.5331 86.7896C75.5331 86.9051 77.6177 86.9683 81.4294 86.9683C85.2411 86.9683 87.3256 86.9051 87.3256 86.7896C87.3256 86.6876 87.8617 86.611 88.5764 86.611C89.2911 86.611 89.8271 86.5343 89.8271 86.4323C89.8271 86.334 90.2291 86.2536 90.7205 86.2536C91.2118 86.2536 91.6138 86.1732 91.6138 86.0749C91.6138 85.9767 91.9354 85.8963 92.3285 85.8963C92.7216 85.8963 93.0432 85.8159 93.0432 85.7176C93.0432 85.6193 93.3648 85.5389 93.7579 85.5389C94.151 85.5389 94.4726 85.4585 94.4726 85.3602C94.4726 85.262 94.7138 85.1816 95.0086 85.1816C95.3035 85.1816 95.5447 85.1012 95.5447 85.0029C95.5447 84.9046 95.7859 84.8242 96.0807 84.8242C96.3755 84.8242 96.6167 84.7438 96.6167 84.6455C96.6167 84.5473 96.8402 84.4669 97.1133 84.4669C97.4048 84.4669 97.7161 84.3193 97.8674 84.1095C98.0091 83.913 98.268 83.7522 98.4429 83.7522C98.6177 83.7522 98.7608 83.6718 98.7608 83.5735C98.7608 83.4752 98.8832 83.3948 99.0328 83.3948C99.1823 83.3948 99.7451 82.9544 100.283 82.416L101.262 81.4371V80.0933C101.262 79.3164 101.187 78.7493 101.084 78.7493C100.985 78.7493 100.905 78.626 100.905 78.4754C100.905 78.1409 99.7573 76.9625 99.4316 76.9625C99.3025 76.9625 99.0812 76.8017 98.9395 76.6052C98.7978 76.4086 98.5389 76.2478 98.364 76.2478C98.1892 76.2478 98.0461 76.1674 98.0461 76.0692C98.0461 75.9709 97.8049 75.8905 97.5101 75.8905C97.2153 75.8905 96.9741 75.8101 96.9741 75.7118C96.9741 75.6135 96.8133 75.5331 96.6167 75.5331C96.4202 75.5331 96.2594 75.4527 96.2594 75.3545C96.2594 75.2562 96.0986 75.1758 95.902 75.1758C95.7055 75.1758 95.5447 75.2562 95.5447 75.3545C95.5447 75.4527 95.1427 75.5331 94.6513 75.5331C94.1599 75.5331 93.7579 75.6135 93.7579 75.7118C93.7579 75.9859 92.5151 75.9239 92.2265 75.6352C92.0861 75.4949 91.9712 75.1733 91.9712 74.9205C91.9712 74.6678 91.8908 74.4611 91.7925 74.4611C91.6942 74.4611 91.6138 74.2199 91.6138 73.9251C91.6138 73.6303 91.5334 73.3891 91.4352 73.3891C91.3369 73.3891 91.2565 73.1478 91.2565 72.853C91.2565 72.5582 91.1761 72.317 91.0778 72.317C90.9795 72.317 90.8991 72.1562 90.8991 71.9597C90.8991 71.7631 90.8187 71.6023 90.7205 71.6023C90.6222 71.6023 90.5418 71.4415 90.5418 71.245C90.5418 71.0068 90.661 70.8876 90.8991 70.8876C91.0957 70.8876 91.2565 70.968 91.2565 71.0663C91.2565 71.1646 91.5781 71.245 91.9712 71.245C92.3643 71.245 92.6859 71.3254 92.6859 71.4236C92.6859 71.5219 93.0075 71.6023 93.4006 71.6023C93.7937 71.6023 94.1153 71.6827 94.1153 71.781C94.1153 71.8793 94.4369 71.9597 94.83 71.9597C95.2231 71.9597 95.5447 72.0401 95.5447 72.1383C95.5447 72.2366 95.8663 72.317 96.2594 72.317C96.6525 72.317 96.9741 72.3974 96.9741 72.4957C96.9741 72.5939 97.2957 72.6744 97.6888 72.6744C98.0818 72.6744 98.4035 72.7548 98.4035 72.853C98.4035 72.9513 98.8055 73.0317 99.2968 73.0317C99.7882 73.0317 100.19 73.1121 100.19 73.2104C100.19 73.3086 100.592 73.3891 101.084 73.3891C101.575 73.3891 101.977 73.4695 101.977 73.5677C101.977 73.666 101.816 73.7464 101.62 73.7464C101.423 73.7464 101.262 73.8268 101.262 73.9251C101.262 74.0233 100.941 74.1037 100.548 74.1037C99.952 74.1037 99.8329 74.1632 99.8329 74.4611C99.8329 74.6993 99.952 74.8184 100.19 74.8184C100.387 74.8184 100.548 74.8988 100.548 74.9971C100.548 75.0954 100.691 75.1758 100.865 75.1758C101.04 75.1758 101.299 75.3366 101.441 75.5331C101.583 75.7297 101.803 75.8905 101.93 75.8905C102.255 75.8905 104.836 78.5063 104.836 78.8358C104.836 78.9848 104.916 79.1066 105.014 79.1066C105.116 79.1066 105.193 79.6427 105.193 80.3573C105.193 81.072 105.116 81.6081 105.014 81.6081C104.916 81.6081 104.836 81.7689 104.836 81.9654C104.836 82.162 104.755 82.3228 104.657 82.3228C104.559 82.3228 104.478 82.4452 104.478 82.5947C104.478 82.9258 102.614 84.8242 102.288 84.8242C102.16 84.8242 101.94 84.985 101.798 85.1816C101.657 85.3781 101.398 85.5389 101.223 85.5389C101.048 85.5389 100.905 85.6193 100.905 85.7176C100.905 85.8159 100.744 85.8963 100.548 85.8963C100.351 85.8963 100.19 85.9767 100.19 86.0749C100.19 86.1732 100.029 86.2536 99.8329 86.2536C99.6363 86.2536 99.4755 86.334 99.4755 86.4323C99.4755 86.5305 99.2343 86.611 98.9395 86.611C98.6447 86.611 98.4035 86.6914 98.4035 86.7896C98.4035 86.8879 98.2427 86.9683 98.0461 86.9683C97.8496 86.9683 97.6888 87.0487 97.6888 87.147C97.6888 87.2452 97.3671 87.3256 96.9741 87.3256C96.581 87.3256 96.2594 87.4061 96.2594 87.5043C96.2594 87.6026 96.0182 87.683 95.7233 87.683C95.4285 87.683 95.1873 87.7634 95.1873 87.8617C95.1873 87.9599 94.7853 88.0403 94.2939 88.0403C93.8026 88.0403 93.4006 88.1208 93.4006 88.219C93.4006 88.3173 93.079 88.3977 92.6859 88.3977C92.2928 88.3977 91.9712 88.4781 91.9712 88.5764C91.9712 88.6757 91.4947 88.755 90.8991 88.755C90.3036 88.755 89.8271 88.8344 89.8271 88.9337C89.8271 89.0357 89.2911 89.1124 88.5764 89.1124C87.8617 89.1124 87.3256 89.189 87.3256 89.2911C87.3256 89.4002 86.4918 89.4697 85.1816 89.4697C83.8713 89.4697 83.0375 89.5392 83.0375 89.6484C83.0375 89.7604 81.9059 89.8271 80 89.8271C78.0941 89.8271 76.9625 89.7604 76.9625 89.6484C76.9625 89.5392 76.1287 89.4697 74.8184 89.4697C73.5082 89.4697 72.6744 89.4002 72.6744 89.2911C72.6744 89.189 72.1383 89.1124 71.4236 89.1124C70.7089 89.1124 70.1729 89.0357 70.1729 88.9337C70.1729 88.8354 69.7709 88.755 69.2795 88.755C68.7882 88.755 68.3862 88.6746 68.3862 88.5764C68.3862 88.4781 67.9842 88.3977 67.4928 88.3977C67.0014 88.3977 66.5994 88.3173 66.5994 88.219C66.5994 88.1208 66.2778 88.0403 65.8847 88.0403C65.4916 88.0403 65.17 87.9599 65.17 87.8617C65.17 87.7634 64.9288 87.683 64.634 87.683C64.3392 87.683 64.098 87.6026 64.098 87.5043C64.098 87.4061 63.8568 87.3256 63.562 87.3256C63.2671 87.3256 63.0259 87.2452 63.0259 87.147C63.0259 87.0487 62.7847 86.9683 62.4899 86.9683C62.1951 86.9683 61.9539 86.8879 61.9539 86.7896C61.9539 86.6914 61.7127 86.611 61.4179 86.611C61.1231 86.611 60.8818 86.5305 60.8818 86.4323C60.8818 86.334 60.6406 86.2536 60.3458 86.2536C60.051 86.2536 59.8098 86.1732 59.8098 86.0749C59.8098 85.9767 59.649 85.8963 59.4525 85.8963C59.2559 85.8963 59.0951 85.8159 59.0951 85.7176C59.0951 85.6193 58.9343 85.5389 58.7378 85.5389C58.5412 85.5389 58.3804 85.4585 58.3804 85.3602C58.3804 85.262 58.2196 85.1816 58.0231 85.1816C57.8265 85.1816 57.6657 85.1012 57.6657 85.0029C57.6657 84.9046 57.5226 84.8242 57.3478 84.8242C57.1729 84.8242 56.914 84.6634 56.7723 84.4669C56.6306 84.2703 56.4102 84.1095 56.2824 84.1095C55.957 84.1095 54.0922 82.2111 54.0922 81.88C54.0922 81.7305 54.0118 81.6081 53.9135 81.6081C53.8153 81.6081 53.7349 81.3669 53.7349 81.072C53.7349 80.7772 53.6545 80.536 53.5562 80.536C53.4579 80.536 53.3775 80.2144 53.3775 79.8213C53.3775 79.4282 53.4579 79.1066 53.5562 79.1066C53.6545 79.1066 53.7349 78.8654 53.7349 78.5706C53.7349 78.2758 53.8153 78.0346 53.9135 78.0346C54.0118 78.0346 54.0922 77.8738 54.0922 77.6772C54.0922 77.4807 54.1726 77.3199 54.2709 77.3199C54.3692 77.3199 54.4496 77.1975 54.4496 77.0479C54.4496 76.7169 56.3144 74.8184 56.6398 74.8184C56.7675 74.8184 56.988 74.6576 57.1297 74.4611C57.2714 74.2646 57.5126 74.1037 57.6657 74.1037C57.8188 74.1037 58.06 73.9429 58.2017 73.7464C58.3434 73.5499 58.6023 73.3891 58.7772 73.3891C58.952 73.3891 59.0951 73.3086 59.0951 73.2104C59.0951 73.1121 59.2559 73.0317 59.4525 73.0317C59.649 73.0317 59.8098 72.9513 59.8098 72.853C59.8098 72.7548 59.9706 72.6744 60.1671 72.6744C60.3637 72.6744 60.5245 72.5939 60.5245 72.4957C60.5245 72.3974 60.6853 72.317 60.8818 72.317C61.0784 72.317 61.2392 72.2366 61.2392 72.1383C61.2392 72.0401 61.4 71.9597 61.5965 71.9597C61.7931 71.9597 61.9539 71.8793 61.9539 71.781C61.9539 71.6827 62.1147 71.6023 62.3112 71.6023C62.5078 71.6023 62.6686 71.5219 62.6686 71.4236C62.6686 71.3254 62.9098 71.245 63.2046 71.245C63.4994 71.245 63.7406 71.1646 63.7406 71.0663C63.7406 70.968 63.9818 70.8876 64.2767 70.8876C64.5715 70.8876 64.8127 70.8072 64.8127 70.7089C64.8127 70.6107 65.2147 70.5303 65.7061 70.5303C66.1974 70.5303 66.5994 70.4499 66.5994 70.3516C66.5994 70.0605 66.8592 70.147 67.1354 70.5303ZM83.8542 91.1545C84.055 91.3551 84.1095 92.0427 84.1095 94.3706C84.1095 96.2254 84.1763 97.3314 84.2882 97.3314C84.4018 97.3314 84.4669 98.7608 84.4669 101.262C84.4669 103.764 84.5319 105.193 84.6455 105.193C84.7561 105.193 84.8242 106.146 84.8242 107.695C84.8242 110.077 84.8072 110.196 84.4669 110.196C84.2703 110.196 84.1095 110.276 84.1095 110.375C84.1095 110.486 83.0375 110.553 81.2507 110.553C79.464 110.553 78.3919 110.486 78.3919 110.375C78.3919 110.276 77.9899 110.196 77.4986 110.196H76.6052V107.873C76.6052 106.444 76.674 105.55 76.7839 105.55C76.8982 105.55 76.9625 103.942 76.9625 101.084C76.9625 98.2248 77.0269 96.6167 77.1412 96.6167C77.2529 96.6167 77.3199 95.5447 77.3199 93.7579V90.8991H80.4594C82.9422 90.8991 83.6525 90.9526 83.8542 91.1545Z" fill="black"/>
</svg>
