<svg width="160" height="160" viewBox="0 0 160 160" fill="none" xmlns="http://www.w3.org/2000/svg">
<path fill-rule="evenodd" clip-rule="evenodd" d="M58.5721 49.665C58.5721 54.9216 54.6154 59.1276 48.2622 59.1276H48.1458C42.0288 59.1276 38.0742 54.9216 38.0742 49.665C38.0742 44.2973 42.1492 40.209 48.3823 40.209C54.6154 40.209 58.4539 44.2973 58.5721 49.665ZM57.3724 66.5996V121.344H39.152V66.5996H57.3724ZM123.085 121.346L123.086 89.957C123.086 73.1418 114.097 65.3157 102.107 65.3157C92.4331 65.3157 88.1019 70.6292 85.6837 74.3568V66.6026H67.461C67.7012 71.7396 67.461 121.348 67.461 121.348H85.6837V90.7735C85.6837 89.1373 85.8019 87.5052 86.2837 86.3337C87.6005 83.0651 90.5988 79.6809 95.6326 79.6809C102.228 79.6809 104.865 84.7009 104.865 92.0575V121.346H123.085Z" fill="black"/>
</svg>
