<svg width="160" height="160" viewBox="0 0 160 160" fill="none" xmlns="http://www.w3.org/2000/svg">
<path fill-rule="evenodd" clip-rule="evenodd" d="M48.83 46.8397C37.79 48.6921 29.1841 54.9158 24.2924 64.5833C21.5589 69.9849 20.6465 73.7872 20.6224 79.8694C20.5854 89.3833 24.1438 97.7908 30.9185 104.199C49.5767 121.845 80.035 113.166 86.4954 88.3629C91.4462 69.3563 78.2195 49.635 58.6213 46.8006C53.2481 46.024 53.7018 46.0219 48.83 46.8397ZM103.453 49.6848C95.9226 53.4118 91.5024 64.7042 91.5024 80.21C91.5024 93.0007 94.403 102.624 99.9219 108.143C103.581 111.803 107.23 112.777 111.364 111.198C128.332 104.718 128.964 57.7865 112.193 49.6678C108.421 47.8423 107.171 47.8445 103.453 49.6848ZM132.057 53.4025C131.436 54.3504 130.391 57.49 129.736 60.3792C128.06 67.7677 128.069 92.5392 129.75 100.041C133.723 117.768 139.417 106.705 139.472 81.1501C139.518 59.8381 136.135 47.1789 132.057 53.4025Z" fill="black"/>
</svg>
