<svg width="160" height="160" viewBox="0 0 160 160" fill="none" xmlns="http://www.w3.org/2000/svg">
<path d="M126.973 56.6715C125.858 52.4709 122.571 49.1627 118.397 48.0401C110.833 46 80.5 46 80.5 46C80.5 46 50.1674 46 42.6027 48.0401C38.4294 49.1629 35.1425 52.4709 34.0269 56.6715C32 64.2852 32 80.1704 32 80.1704C32 80.1704 32 96.0557 34.0269 103.669C35.1425 107.87 38.4294 111.04 42.6027 112.163C50.1674 114.203 80.5 114.203 80.5 114.203C80.5 114.203 110.833 114.203 118.397 112.163C122.571 111.04 125.858 107.87 126.973 103.669C129 96.0557 129 80.1704 129 80.1704C129 80.1704 129 64.2852 126.973 56.6715ZM70.5795 94.5931V65.7478L95.9316 80.1708L70.5795 94.5931Z" fill="black"/>
</svg>
