<svg width="922" height="1062" viewBox="0 0 922 1062" fill="none" xmlns="http://www.w3.org/2000/svg">
<path fill-rule="evenodd" clip-rule="evenodd" d="M127.983 2.47517C123.308 3.78317 118.358 5.49516 116.983 6.27916C115.608 7.06316 111.333 9.39116 107.483 11.4532C103.633 13.5142 99.3582 15.8102 97.9832 16.5552C96.6082 17.3002 94.6572 17.9122 93.6462 17.9162C92.6362 17.9192 89.0362 20.5522 85.6462 23.7662C82.2572 26.9802 76.9392 31.4622 73.8292 33.7272C70.2302 36.3472 67.0642 39.7662 65.1202 43.1332C63.1972 46.4632 58.8342 51.1972 53.3382 55.9162C38.5802 68.5872 31.5932 72.9042 25.7732 72.9462C19.9862 72.9882 14.5442 74.7462 12.3572 77.2812C11.1882 78.6362 9.27418 82.8982 8.10318 86.7522C6.93218 90.6072 4.62718 96.6092 2.98018 100.091C-2.10282 110.835 -0.77582 114.591 7.67118 113.365C10.3172 112.981 13.3832 112.204 14.4832 111.639C17.2212 110.232 30.9832 98.8202 30.9832 97.9562C30.9832 97.5732 32.0412 96.6932 33.3352 96.0012C37.0042 94.0382 44.0872 96.9442 51.0992 103.289C59.5042 110.895 68.2282 114.922 76.3022 114.922C84.9452 114.922 98.3692 110.244 105.184 104.858C107.985 102.643 110.998 100.976 111.88 101.152C114.403 101.657 113.91 111.259 111.045 117.403C109.011 121.766 108.797 123.355 109.325 130.201C109.843 136.918 110.389 138.66 113.205 142.582C117.394 148.415 130.771 158.877 139.061 162.804C143.912 165.102 147.119 167.656 152.168 173.242C157.269 178.884 160.137 181.158 164.269 182.835C168.854 184.696 170.052 185.753 172.083 189.727L174.483 194.422L174.12 229.422C173.751 264.973 174.587 279.444 177.558 288.922C178.333 291.397 179.455 296.122 180.051 299.422C180.647 302.722 182.72 308.743 184.658 312.801C187.542 318.839 187.986 320.566 187.101 322.301C186.464 323.549 185.887 332.863 185.698 344.922C185.421 362.605 181.738 402.836 179.526 412.349C179.279 413.41 179.554 426.235 180.137 440.849C180.72 455.464 181.305 472.597 181.438 478.922C181.679 490.476 182.504 494.725 187.262 508.922C188.644 513.047 190.527 519.572 191.447 523.422C192.366 527.272 193.538 532.049 194.05 534.038C194.563 536.027 194.983 541.503 194.983 546.206V554.759L191.58 556.862C183.859 561.634 177.81 571.238 173.592 585.422C172.611 588.722 170.497 595.319 168.896 600.082C167.294 604.845 165.983 609.908 165.983 611.332C165.983 612.757 164.603 618.084 162.916 623.172C160.198 631.368 159.729 634.568 158.793 651.265C157.693 670.896 158.509 683.928 162.594 711.922C167.67 746.701 172.418 765.808 180.984 785.922C182.038 788.397 184.265 793.797 185.933 797.922C187.601 802.047 191.401 808.616 194.376 812.519C197.352 816.422 200.785 821.574 202.006 823.967C203.227 826.361 205.716 830.592 207.536 833.371C209.356 836.149 210.959 839.097 211.097 839.922C211.614 843.003 206.839 861.989 204.936 864.422C204.506 864.972 202.95 868.572 201.479 872.422C199.142 878.535 198.864 880.457 199.278 887.591C199.875 897.888 204.21 908.033 210.483 913.815C218.174 920.905 219.803 924.125 221.916 936.422C223.019 942.838 229.745 968.6 230.884 970.769C231.362 971.678 232.734 976.022 233.934 980.422C236.122 988.447 237.804 1011.41 238.365 1040.95C238.485 1047.28 238.925 1053.02 239.343 1053.7C240.303 1055.25 247.626 1055.31 248.577 1053.77C248.968 1053.14 248.545 1052.08 247.636 1051.41C246.272 1050.41 245.983 1048.28 245.983 1039.21C245.983 1033.16 245.518 1019.04 244.949 1007.82C243.964 988.373 243.735 986.839 240.03 974.922C233.2 952.956 228.681 933.922 230.295 933.922C231.646 933.922 240.666 939.071 247.208 943.577C257.211 950.467 267.688 955.306 280.483 958.947C285.983 960.512 293.004 962.911 296.084 964.279C300.859 966.398 304.253 966.933 319.084 967.9L336.482 969.034L339.662 972.406C345.698 978.805 345.972 979.641 344.42 986.922C342.773 994.653 341.083 1008.46 340.012 1022.92C339.28 1032.82 336.383 1044.88 332.278 1055.14C330.853 1058.71 330.852 1059.22 332.267 1060.63C335.898 1064.27 338.706 1060.32 343.468 1044.89C346.293 1035.74 347.202 1030.7 347.971 1019.92C349.259 1001.9 350.87 988.635 351.896 987.609C353.093 986.412 362.713 989.478 367.311 992.52C369.453 993.938 373.518 995.907 376.345 996.895C385.204 999.994 396.214 1004.57 403.483 1008.17C422.41 1017.55 421.176 1017.17 441.09 1019.82C444.724 1020.3 448.632 1021.2 449.775 1021.81C450.917 1022.42 452.704 1022.92 453.746 1022.92C454.789 1022.92 457.961 1024.61 460.796 1026.67C470.013 1033.38 483.086 1043.29 491.147 1049.67C495.485 1053.11 499.822 1055.92 500.786 1055.92C503.314 1055.92 506.985 1053.09 506.407 1051.59C505.766 1049.91 515.063 1048.04 529.014 1047.04C534.772 1046.62 540.49 1045.74 541.721 1045.07C542.952 1044.41 546.828 1042.98 550.333 1041.9C553.839 1040.81 557.782 1039.11 559.095 1038.11C562.45 1035.55 575.824 1030.91 579.816 1030.92C583.816 1030.92 583.682 1028.9 579.587 1027.46C576.151 1026.24 566.235 1028.69 556.983 1033.04C543.384 1039.43 531.922 1042.92 524.483 1042.94C517.781 1042.96 504.369 1044.92 500.774 1046.4C498.929 1047.16 493.363 1043.42 476.123 1029.82C470.821 1025.64 465.133 1021.52 463.483 1020.67C459.094 1018.42 445.783 1015.15 435.63 1013.83C428.068 1012.85 425.006 1011.81 414.63 1006.69C407.949 1003.39 396.858 998.53 389.983 995.884C383.108 993.237 374.413 989.463 370.66 987.497C366.908 985.531 362.952 983.922 361.87 983.922C358.763 983.922 351.983 980.046 351.983 978.269C351.983 976.893 344.074 968.102 332.391 956.494C330.69 954.805 327.562 951.172 325.439 948.422C323.316 945.672 317.229 938.922 311.912 933.422C306.595 927.922 300.738 920.722 298.897 917.422C294.527 909.592 283.621 898.878 270.78 889.801C258.005 880.769 256.387 879.417 241.158 865.05C228.801 853.392 221.836 847.922 219.352 847.922C218.353 847.922 218.173 846.815 218.63 843.479C219.135 839.797 218.793 838.296 216.637 834.729C212.079 827.185 202.61 812.287 198.74 806.57C193.943 799.483 181.676 768.96 178.96 757.353C169.282 715.994 163.621 664.377 166.798 646.479L167.498 642.536L169.9 650.979C173.669 664.226 175.73 670.53 177.294 673.591C178.089 675.148 179.226 678.719 179.82 681.527C184.69 704.551 197.828 725.405 211.605 731.98C214.995 733.598 218.605 734.924 219.626 734.926C220.647 734.929 223.508 736.277 225.983 737.922C228.785 739.785 231.779 740.915 233.917 740.918C237.25 740.922 246.374 742.945 252.483 745.035C258.229 747 264.535 748.687 272.483 750.385C276.883 751.325 282.468 752.728 284.894 753.502C292.737 756.006 314.663 758.201 325.483 757.565C349.835 756.134 372.122 750.351 388.976 741.089C393.648 738.522 402.535 734.332 408.726 731.778C424.209 725.39 436.675 718.288 449.025 708.821C464.751 696.766 488.239 679.171 499.483 671.023C523.616 653.536 557.035 621.524 567.968 605.422C569.835 602.672 574.371 596.372 578.047 591.422C581.724 586.472 586.188 579.524 587.967 575.983C589.747 572.442 592.059 568.386 593.105 566.97C596.826 561.937 601.121 549.268 604.13 534.451C611.718 497.072 610.119 453.309 600.658 439.422C594.777 430.791 583.057 417.239 575.048 409.809L566.007 401.422L568.979 392.021C570.614 386.85 572.138 382.434 572.364 382.207C573.087 381.484 583.272 387.203 589.483 391.82C592.783 394.273 598.441 399.012 602.057 402.351C605.673 405.69 612.423 411.682 617.057 415.667C629.872 426.684 640.283 437.713 644.675 444.922C648.412 451.055 651.233 459.452 655.54 477.258C656.449 481.018 658.229 486.644 659.495 489.76C662.957 498.279 665.182 509.978 663.683 511.783C662.9 512.727 662.425 517.948 662.316 526.825C662.224 534.304 661.608 543.572 660.948 547.422C660.287 551.272 659.374 562.522 658.918 572.422C657.815 596.401 656.412 612.651 655.077 616.915C653.63 621.537 653.652 621.674 656.047 622.956C662.075 626.182 663.792 617.366 665.988 571.922C666.507 561.197 667.36 549.947 667.884 546.922C668.408 543.897 668.87 536.402 668.91 530.266C668.981 519.403 669.039 519.124 671.105 519.664C672.273 519.969 675.985 522.771 679.355 525.89C682.726 529.008 688.487 534.083 692.16 537.167C695.832 540.251 711.395 555.295 726.744 570.598C748.037 591.827 755.649 600.081 758.86 605.422C761.175 609.272 764.411 614.222 766.052 616.422C769.993 621.707 781.113 643.721 783.985 651.922C785.237 655.497 787.323 660.84 788.622 663.796C789.921 666.752 790.983 670.524 790.983 672.178C790.983 673.833 791.837 676.589 792.882 678.304C796.451 684.166 797.449 692.234 797.199 713.214C796.857 741.94 795.007 748.197 778.682 775.835C775.907 780.534 771.631 786.522 769.18 789.142C765.459 793.121 764.931 794.154 765.976 795.414C767.803 797.615 768.56 797.353 773.479 792.819C777.462 789.148 780.986 783.895 793.202 763.422C799.267 753.259 804.665 733.491 803.673 725.083C803.37 722.52 803.566 717.151 804.109 713.153C805.223 704.939 803.247 686.884 800.52 680.356C799.675 678.333 798.983 676.341 798.983 675.929C798.983 674.593 811.271 675.652 819.483 677.696C840.403 682.903 848.257 685.748 855.98 690.916C860.474 693.924 861.581 695.233 862.045 698.087C862.357 700.008 864.405 704.694 866.596 708.501C868.786 712.307 871.864 718.797 873.436 722.922C876.143 730.028 876.317 731.451 876.752 750.024C877.342 775.248 875.774 787.491 868.249 816.422C865.004 828.895 861.321 838.117 857.181 844.135C855.422 846.691 853.983 849.061 853.983 849.402C853.983 849.742 849.554 855.511 844.14 862.221C835.042 873.498 797.21 911.294 784.483 921.821C777.058 927.962 759.42 939.665 751.786 943.516C748.103 945.374 742.028 948.856 738.286 951.254C734.544 953.653 729.008 956.745 725.983 958.126C722.958 959.507 716.821 962.839 712.346 965.53C707.871 968.22 702.808 971.189 701.096 972.125C697.774 973.944 696.852 977.551 699.455 978.55C700.265 978.861 702.853 977.918 705.205 976.455C721.692 966.204 727.38 962.947 730.7 961.859C732.781 961.177 735.875 959.562 737.577 958.27C739.279 956.979 741.037 955.922 741.483 955.922C741.929 955.922 743.687 954.873 745.389 953.591C747.091 952.308 751.408 949.738 754.983 947.879C764.356 943.006 780.066 932.751 787.27 926.804C793.206 921.905 809.511 906.802 829.788 887.422C842.092 875.662 863.034 849.572 867.983 839.838C876.806 822.483 884.983 783.736 884.983 759.283C884.983 752.484 885.34 746.922 885.775 746.922C886.678 746.922 892.388 756.528 896.773 765.422C898.4 768.722 901.779 775.15 904.282 779.707C908.225 786.883 910.436 792.03 915.233 805.193C916.522 808.73 917.459 809.273 919.962 807.933C922.651 806.494 922.528 803.415 919.457 795.256C916.582 787.619 901.844 758.911 895.414 748.422C893.053 744.572 890.154 738.947 888.971 735.922C887.787 732.897 884.431 725.922 881.513 720.422C878.595 714.922 875.682 708.765 875.04 706.74C874.398 704.715 872.548 701.391 870.928 699.353C869.308 697.315 867.983 695.051 867.983 694.323C867.983 692.499 864.565 689.373 857.522 684.757C848.189 678.64 822.565 671.076 807.51 669.995L799.536 669.422L797.276 665.422C796.034 663.222 793.815 657.822 792.347 653.422C786.937 637.212 776.815 618.786 760.472 595.399C756.671 589.959 705.736 539.68 697.364 533.104C694.549 530.893 689.618 526.598 686.406 523.56C683.194 520.523 678.886 517.28 676.833 516.354C672.536 514.417 672.549 514.443 669.945 502.752C668.866 497.907 666.88 491.126 665.532 487.682C664.185 484.239 661.434 474.897 659.42 466.922C654.19 446.21 650.304 439.425 634.65 423.664C623.573 412.512 617.018 406.59 598.704 391.191C592.468 385.947 581.679 379.692 576.968 378.59L574.453 378.002L574.83 363.435C575.055 354.724 574.759 347.09 574.094 344.447C571.98 336.053 555.976 303.313 550.918 297.036C543.158 287.406 542.601 285.883 544.569 279.656C547.202 271.324 547.657 246.814 545.42 233.842C543.272 221.386 542.593 202.519 544.187 199.542C544.798 198.399 546.948 195.377 548.964 192.827C554.031 186.416 555.625 182.401 553.919 180.345C552.836 179.04 552.858 178.614 554.047 177.861C554.837 177.361 555.766 176.946 556.111 176.937C556.457 176.929 558.683 174.334 561.057 171.172C563.431 168.01 565.882 164.972 566.502 164.422C568.59 162.57 572.983 151.709 572.983 148.398C572.983 146.593 574.556 140.596 576.479 135.071C578.402 129.547 580.415 121.966 580.953 118.225C581.841 112.048 585.634 99.3932 589.043 91.2342C590.344 88.1192 590.222 87.8202 583.725 78.2342C576.433 67.4732 574.876 62.0672 576.867 54.4222C581.581 36.3252 583.119 33.3622 588.304 32.3902C591.637 31.7642 604.044 35.5532 617.966 41.4452C621.601 42.9842 627.157 44.4072 630.612 44.6842C635.984 45.1162 636.909 44.9302 637.815 43.2352C638.441 42.0672 638.538 39.9212 638.06 37.8572C635.907 28.5592 631.715 23.4652 621.834 18.1432C613.342 13.5692 610.925 11.9252 605.776 7.22217C602.671 4.38617 600.118 2.90217 598.276 2.86417C596.74 2.83217 592.108 2.61417 587.983 2.38017C577.334 1.77517 570.272 3.39817 563.474 8.01217C556.35 12.8472 533.447 24.5472 527.178 26.5542C520.416 28.7182 506.019 31.9212 503.034 31.9262C497.106 31.9342 485.31 37.5482 477.844 43.9142C473.796 47.3662 469.549 51.3222 468.408 52.7062C466.364 55.1832 466.267 55.1982 461.908 53.6852C455.495 51.4592 447.782 49.3402 437.016 46.8462C428.604 44.8982 425.962 44.7312 413.307 45.3462C405.473 45.7272 397.594 46.4602 395.799 46.9752C394.003 47.4902 387.797 47.7382 382.008 47.5272C372.271 47.1712 370.65 46.8032 360.359 42.6142C354.24 40.1232 347.49 37.5932 345.359 36.9912C334.039 33.7932 315.24 29.9222 311.033 29.9222C308.39 29.9222 304.492 29.1972 302.371 28.3112C296.922 26.0342 283.157 26.7982 276.831 29.7282C273.052 31.4782 270.614 31.8382 263.831 31.6452C256.483 31.4362 254.564 30.9602 247.811 27.6652C243.592 25.6062 239.531 23.9222 238.787 23.9222C238.043 23.9222 233.845 21.8702 229.459 19.3622C225.072 16.8542 218.333 13.9492 214.483 12.9062C207.158 10.9222 188.36 7.92217 183.251 7.92217C181.615 7.92217 174.853 6.12217 168.226 3.92217C157.287 0.291166 155.269 -0.0698341 146.33 0.00916592C139.224 0.0721659 134.117 0.758166 127.983 2.47517ZM161.018 7.50617C172.19 11.3742 177.206 12.5042 191.483 14.3752C209.295 16.7092 216.566 18.6252 222.46 22.5372C225.223 24.3712 230.825 27.0082 234.909 28.3972C238.993 29.7862 243.268 31.5112 244.409 32.2312C251.306 36.5832 264.057 38.8582 269.156 36.6462C276.6 33.4182 278.713 32.6472 283.795 31.3122C289.552 29.7982 291.987 30.0662 299.168 33.0052C301.968 34.1502 306.235 34.9222 309.769 34.9222C313.023 34.9222 316.989 35.3162 318.584 35.7972C320.178 36.2792 323.958 37.2222 326.983 37.8922C339.98 40.7742 354.324 45.5672 362.983 49.9222C364.908 50.8902 368.439 52.0082 370.829 52.4062C373.862 52.9112 374.858 53.4472 374.126 54.1792C372.843 55.4622 373.941 57.7992 378.468 63.4222C380.239 65.6222 382.455 68.9122 383.393 70.7342C384.661 73.1962 385.661 73.9662 387.291 73.7342C389.194 73.4632 389.556 72.6322 390.034 67.4222C390.337 64.1222 390.292 59.7742 389.934 57.7602C389.371 54.5882 389.565 54.0292 391.383 53.5862C411.759 48.6172 421.025 48.6012 440.941 53.4972C448.939 55.4632 456.383 57.4522 457.483 57.9172C460.406 59.1532 466.522 59.8552 468.91 59.2312C470.249 58.8812 470.983 57.8752 470.983 56.3882C470.983 54.6942 473.163 52.3862 479.263 47.6232C488.412 40.4782 497.144 36.9672 510.983 34.8662C525.595 32.6482 550.518 22.2932 566.938 11.6182L573.393 7.42217L584.863 7.57317C596.209 7.72217 596.363 7.75516 598.909 10.6472C601.601 13.7052 609.329 18.9062 616.983 22.8112C619.458 24.0742 622.55 26.0782 623.854 27.2652C626.084 29.2952 629.983 36.8422 629.983 39.1302C629.983 40.7782 624.622 39.3082 614.904 34.9942C597.488 27.2642 585.715 25.4772 579.2 29.5752C576.414 31.3282 572.838 38.8952 570.057 48.9222C565.978 63.6292 567.391 68.6592 580.692 86.7842C581.676 88.1242 581.195 90.4802 578.106 99.4382C576.02 105.492 574.047 112.915 573.724 115.933C573.4 118.952 571.526 126.521 569.559 132.754C567.592 138.986 565.983 145.566 565.983 147.376C565.983 154.131 557.251 168.43 549.528 174.32C545.899 177.088 545.081 179.62 547.148 181.687C548.035 182.574 547.618 183.976 545.398 187.557C540.616 195.276 539.982 194.595 539.994 181.755C540.011 163.761 532.995 114.713 529.412 107.785C528.626 106.265 527.98 104.211 527.977 103.222C527.973 102.232 527.298 100.133 526.477 98.5582C525.655 96.9822 524.983 95.3212 524.983 94.8662C524.983 94.4112 527.19 91.5162 529.888 88.4332C537.858 79.3252 543.324 65.8852 542.266 57.9972C540.93 48.0322 545.049 42.3192 561.37 31.5022C568.887 26.5212 570.543 25.7902 572.107 26.7672C576.317 29.3972 578.547 27.3082 575.328 23.7512C572.013 20.0872 569.218 21.3182 548.558 35.5392C546.867 36.7032 543.908 39.8532 541.983 42.5392C538.628 47.2202 538.479 47.7952 538.396 56.4222C538.349 61.3722 537.956 66.5472 537.523 67.9222C535.721 73.6522 530.722 82.3972 526.48 87.2422C519.891 94.7672 518.915 100.431 522.539 110.115C524.087 114.251 525.68 122.726 527.013 133.922C527.504 138.047 528.65 146.372 529.559 152.422C530.469 158.472 531.572 170.397 532.011 178.922C532.45 187.447 533.316 197.347 533.936 200.922C534.556 204.497 535.479 211.922 535.987 217.422C536.495 222.922 537.377 230.122 537.947 233.422C539.774 244.007 539.606 269.523 537.661 276.922C534.159 290.24 529.147 300.076 521.027 309.563C519.078 311.841 516.609 315.441 515.54 317.563C514.471 319.686 512.558 322.854 511.29 324.605C508.59 328.331 508.315 331.452 510.61 332.332C513.247 333.344 517.564 329.178 520.88 322.422C521.959 320.222 523.887 317.027 525.163 315.323C526.439 313.618 529.226 309.887 531.357 307.03C533.488 304.174 535.36 301.969 535.517 302.13C535.895 302.517 534.404 311.111 531.824 323.422C527.794 342.653 519.924 368.197 518.476 366.749C518.212 366.484 516.815 361.578 515.372 355.845C513.929 350.112 511.444 342.834 509.85 339.67C508.256 336.507 506.056 331.645 504.961 328.866C503.866 326.088 500.904 320.801 498.378 317.118C493.424 309.893 487.983 298.757 487.983 295.843C487.983 294.851 487.533 293.762 486.983 293.422C486.433 293.082 485.983 292.111 485.983 291.264C485.983 286.743 482.595 282.752 475.891 279.376C465.966 274.377 457.471 265.966 451.557 255.28C442.968 239.762 441.807 236.74 438.353 220.923C436.491 212.397 433.886 200.697 432.562 194.922C429.635 182.144 427.447 167.782 425.53 148.761C424.735 140.875 423.135 127.222 421.974 118.422C420.137 104.497 419.401 101.482 416.304 95.1722C412.584 87.5952 410.666 86.3292 408.871 90.2682C408.003 92.1742 408.272 93.5332 410.309 97.5182C412.185 101.188 413.089 105.189 413.905 113.422C414.504 119.472 415.658 129.822 416.468 136.422C417.278 143.022 417.943 150.222 417.946 152.422C417.953 158.289 421.748 182.816 424.521 194.922C430.47 220.886 430.726 222.776 430.602 239.922L430.483 256.422L423.692 268.84C419.957 275.671 417.032 281.922 417.192 282.733C417.352 283.544 418.233 284.68 419.149 285.257C421.652 286.833 423.286 284.952 427.957 275.113C430.226 270.333 432.593 265.522 433.217 264.422C436.442 258.734 437.223 256.326 437.29 251.87C437.384 245.649 438.148 246.299 444.459 257.962C449.753 267.747 458.127 276.639 465.664 280.479C473.718 284.583 476.962 287.187 477.894 290.297C479.915 297.04 487.332 312.576 492.015 319.878C494.727 324.104 497.64 329.533 498.49 331.942C499.34 334.35 501.185 338.369 502.59 340.872C508.852 352.026 513.518 380.442 511.103 392.718C508.729 404.785 497.594 435.131 493.653 440.272C489.997 445.043 485.861 448.922 484.43 448.922C483.726 448.922 483 449.259 482.816 449.672C482.278 450.883 475.28 455.874 472.781 456.829C469.98 457.9 465.571 455.545 458.983 449.461C453.086 444.015 445.907 438.431 443.812 437.66C442.279 437.096 442.266 436.649 443.647 432.234C444.475 429.587 445.564 426.075 446.068 424.429C446.571 422.782 446.983 420.247 446.983 418.795C446.983 415.8 448.885 414.958 455.696 414.936C464.207 414.908 477.106 407.904 479.006 402.279C479.927 399.553 479.73 398.638 477.525 395.389C476.127 393.329 474.983 390.325 474.983 388.714V385.785L483.083 386.491C490.658 387.152 491.159 387.076 490.822 385.325C490.572 384.027 489.237 383.235 486.472 382.745C480.201 381.633 473.495 381.81 472.183 383.122C470.211 385.094 470.728 392.328 473.052 395.282C475.622 398.55 474.944 401.108 470.665 404.289C466.271 407.556 459.709 409.692 451.772 410.44C445.224 411.057 444.944 410.986 440.272 407.519C433.723 402.66 430.188 398.949 429.08 395.769C427.871 392.301 428.364 391.922 434.091 391.922C436.717 391.922 439.147 391.466 439.492 390.908C439.837 390.35 441.824 389.024 443.908 387.96C448.521 385.607 450.812 381.036 449.177 377.447C447.931 374.713 440.174 370.922 435.824 370.922C434.226 370.922 431.375 371.567 429.489 372.355C427.603 373.143 424.087 374.084 421.677 374.445C417.478 375.075 417.167 374.942 414.267 371.262C409.906 365.729 406.267 358.072 405.686 353.205C405.269 349.715 405.639 348.4 407.833 345.572C409.29 343.694 411.833 341.658 413.483 341.049C415.133 340.44 418.058 338.949 419.983 337.736C421.908 336.523 428.94 333.641 435.609 331.331C445.486 327.91 449.658 327.003 458.109 326.441C468.157 325.773 468.687 325.844 474.983 328.688C478.558 330.302 482.721 332.131 484.233 332.751C486.093 333.514 486.984 334.615 486.987 336.151C486.989 337.4 487.923 339.952 489.064 341.823C493.561 349.2 495.766 374.271 492.373 379.449C490.324 382.576 491.207 384.922 494.431 384.922C503.054 384.922 503.245 356.277 494.736 339.125C491.168 331.932 491.591 332.255 476.713 325.362L468.942 321.763L457.213 322.174C446.807 322.538 443.975 323.065 432.125 326.843C424.778 329.185 416.634 332.359 414.027 333.896C411.42 335.433 408.404 336.971 407.324 337.314C406.244 337.656 403.872 339.473 402.051 341.351L398.742 344.766L400.362 349.522C401.254 352.138 401.983 355.439 401.983 356.858C401.983 362.928 412.74 377.212 418.144 378.318C419.43 378.581 421.702 379.054 423.193 379.368C425.235 379.799 426.162 379.456 426.955 377.974C428.546 375.002 434.367 374.275 438.547 376.526C443.14 379 442.876 381.211 437.549 384.877C433.828 387.437 432.282 387.892 427.947 387.703C420.126 387.363 417.998 391.277 421.96 398.712C424.491 403.461 427.232 406.639 430.161 408.219C431.438 408.907 434.399 410.81 436.742 412.447C440.682 415.2 440.958 415.684 440.43 418.922C440.116 420.847 439.1 424.781 438.171 427.665L436.483 432.908L421.888 432.915C409.761 432.921 406.295 433.269 401.388 434.976C384.312 440.916 382.782 440.992 365.693 436.736C354.362 433.915 352.503 433.694 349.431 434.805C346.52 435.857 345.464 435.81 342.852 434.506C341.14 433.653 339.364 433.186 338.905 433.47C337.001 434.647 339.519 436.978 344.826 438.951C347.937 440.107 351.485 441.703 352.711 442.496C355.628 444.385 366.802 448.562 374.983 450.82C384.38 453.415 396.932 454.911 410.035 454.998C416.72 455.043 422.939 455.611 424.983 456.365L428.483 457.656L424.369 458.791C422.107 459.415 412.657 460.037 403.369 460.174C384.762 460.447 389.397 461.29 349.983 450.473C345.308 449.19 337.911 446.54 333.546 444.585C326.472 441.417 325.33 441.169 323.046 442.31C321.636 443.013 317.817 444.885 314.559 446.469C311.301 448.053 306.126 451.656 303.059 454.477C295.101 461.795 289.054 465.922 286.29 465.922C284.822 465.922 281.977 464.126 278.93 461.275C274.857 457.466 272.327 453.366 264.887 438.525C259.896 428.568 254.661 419.205 253.255 417.718C249.697 413.957 244.96 411.922 239.762 411.922C231.17 411.922 224.042 402.671 218.186 383.922C217.069 380.347 214.569 372.472 212.63 366.422C210.691 360.372 208.342 352.047 207.41 347.922C206.479 343.797 203.331 335.472 200.417 329.422C191.078 310.041 188.967 304.759 186.851 295.496C181.323 271.291 180.978 266.786 181.994 232.055C183.01 197.317 182.697 193.961 177.724 186.27C175.999 183.604 174.698 180.853 174.832 180.159C175.221 178.152 172.077 177.527 170.19 179.234C168.628 180.648 168.094 180.591 164.327 178.606C162.047 177.405 157.885 173.762 155.078 170.511C149.598 164.165 145.534 161.015 139.663 158.562C134.142 156.255 119.686 144.582 116.629 139.963C112.658 133.962 112.037 125.856 115.052 119.382C118.154 112.72 118.889 101.953 116.49 98.2922C114.912 95.8852 114.365 95.7172 109.845 96.2522C104.352 96.9032 104.351 97.2582 109.852 89.5652C113.136 84.9712 123.393 73.4412 129.089 67.9392C131.702 65.4152 146.108 56.9142 153.198 53.7132C156.741 52.1132 158.086 49.7222 156.123 48.5092C155.651 48.2172 151.606 48.3952 147.135 48.9052C140.128 49.7042 138.211 50.3722 133.245 53.7492C125.883 58.7542 113.244 72.9352 99.3022 91.8322C96.7012 95.3572 91.9902 100.082 88.8322 102.332C85.6742 104.581 83.0672 106.996 83.0372 107.697C82.9722 109.237 78.8582 110.922 75.1682 110.921C70.7352 110.92 60.9032 105.558 53.8642 99.3042C49.5072 95.4322 45.6582 92.9562 42.6022 92.0582C40.0492 91.3082 37.7532 90.3582 37.4992 89.9472C36.9332 89.0312 40.6212 78.2212 42.4932 75.3072C43.4282 73.8522 43.5302 72.8692 42.8202 72.1592C42.1102 71.4492 42.8532 70.3922 45.1982 68.7742C54.1262 62.6152 65.3062 52.0102 68.9112 46.2802C71.5602 42.0702 74.6172 38.8752 78.6292 36.1252C81.8492 33.9182 86.4892 30.0442 88.9412 27.5172C91.3932 24.9902 93.9452 22.9222 94.6122 22.9222C95.2792 22.9222 101.598 19.9332 108.654 16.2802C130.843 4.79317 145.894 2.27117 161.018 7.50617ZM387.14 59.4342L386.796 64.9492L382.89 60.0422C380.741 57.3442 378.983 54.8632 378.983 54.5292C378.983 54.1952 380.896 53.9212 383.233 53.9212L387.483 53.9192L387.14 59.4342ZM39.0732 74.7542C38.5332 75.7622 37.3502 77.2022 36.4432 77.9552C34.6162 79.4722 29.9832 88.5472 29.9832 90.6092C29.9832 91.3312 29.4212 91.9272 28.7332 91.9342C28.0462 91.9402 25.4582 93.8682 22.9832 96.2172C18.0212 100.926 9.46218 107.255 6.73318 108.232C4.32618 109.094 4.52518 107.79 7.81518 101.143C9.37218 97.9972 11.6412 92.1992 12.8572 88.2592C14.0732 84.3202 15.7052 80.5672 16.4852 79.9212C17.2642 79.2742 21.0652 78.3482 24.9332 77.8622C28.8002 77.3762 33.6562 76.0862 35.7242 74.9952C40.3812 72.5362 40.2552 72.5452 39.0732 74.7542ZM128.555 93.5952C128.158 94.6292 129.263 97.4572 131.448 100.996C133.392 104.146 134.983 106.975 134.983 107.283C134.983 107.59 132.733 109.946 129.983 112.519C126.295 115.969 124.983 117.928 124.983 119.986C124.983 124.888 133.122 129.33 134.677 125.277C135.057 124.287 134.611 123.123 133.555 122.351C131.088 120.547 132.279 117.647 137.037 113.879C142.288 109.72 142.268 106.493 136.938 98.1722C132.875 91.8292 129.864 90.1852 128.555 93.5952ZM559.481 95.1722C559.081 96.9592 558.599 103.503 558.411 109.713C557.821 129.19 554.962 138.741 549.905 138.128C543.105 137.304 542.543 137.422 541.347 139.922C539.605 143.567 539.323 146.158 540.619 146.614C541.244 146.833 542.258 145.573 542.871 143.814C543.924 140.793 544.088 140.707 545.813 142.268C549.842 145.914 552.93 144.065 557.264 135.413C559.945 130.059 561.141 122.209 561.448 107.944C561.549 103.257 561.995 97.7352 562.438 95.6722C563.092 92.6322 562.957 91.9222 561.727 91.9222C560.832 91.9222 559.912 93.2532 559.481 95.1722ZM237.59 126.504C236.396 129.616 237.018 138.892 239.069 148.575C240.217 153.991 241.574 160.897 242.086 163.922C243.383 171.599 248.917 182.402 255.719 190.538C258.889 194.331 262.447 198.764 263.625 200.39C265.456 202.917 265.996 203.156 267.347 202.035C268.736 200.882 268.758 200.32 267.536 197.394C266.771 195.563 263.707 191.11 260.729 187.499C253.832 179.137 250.343 171.978 248.518 162.444C247.722 158.279 246.816 154.461 246.506 153.959C245.283 151.981 241.883 130.257 242.392 127.672C242.86 125.294 242.613 124.922 240.565 124.922C239.263 124.922 237.924 125.634 237.59 126.504ZM308.983 158.913C305.958 159.922 302.338 160.997 300.938 161.302C295.652 162.455 286.438 169.53 281.925 175.901C279.482 179.35 276.471 183.179 275.233 184.411C272.207 187.424 272.401 190.495 275.867 194.443C277.454 196.25 278.916 198.109 279.117 198.575C279.318 199.041 282.636 202.347 286.49 205.922C294.967 213.786 311.639 222.567 320.706 223.943C323.883 224.425 328.129 225.302 330.141 225.892C333.19 226.787 334.675 226.62 339.059 224.892C341.953 223.752 345.551 221.942 347.056 220.87C348.561 219.799 350.224 218.922 350.753 218.922C351.282 218.922 355.006 222.093 359.03 225.968C367.331 233.961 369.474 234.441 372.231 228.922C374.392 224.598 374.537 211.918 372.553 200.798C370.325 188.305 358.987 171.115 348.15 163.802C338.158 157.058 320.979 154.914 308.983 158.913ZM334.555 162.586C344.851 166.063 350.016 170.858 359.149 185.422C364.733 194.324 365.77 196.993 367.98 208.144C369.291 214.758 368.105 227.922 366.199 227.922C365.788 227.922 362.616 225.223 359.149 221.924C351.589 214.73 349.142 213.891 344.146 216.781C335.862 221.573 331.812 223.096 329.144 222.421C327.681 222.05 324.042 221.347 321.058 220.858C317.977 220.354 311.117 217.703 305.177 214.721C296.918 210.576 293.223 207.984 287.602 202.393C283.686 198.498 279.416 193.849 278.111 192.061L275.739 188.811L277.734 186.616C278.832 185.409 281.604 181.642 283.895 178.243C288.956 170.738 295.818 165.93 305.483 163.118C314.442 160.511 327.692 160.269 334.555 162.586ZM304.399 168.409C298.548 170.257 295.022 172.307 290.614 176.424C286.9 179.894 286.762 180.249 287.183 185.318C287.677 191.275 291.32 197.285 296.432 200.578C310.951 209.93 342.057 213.259 346.004 205.883C347.567 202.963 347.141 192.033 345.108 182.871C342.529 171.247 341.39 169.13 337.074 167.931C331.993 166.519 309.334 166.851 304.399 168.409ZM334.611 173.374C336.14 174.445 337.028 176.84 337.998 182.51C339.469 191.11 339.893 205.34 338.713 206.523C337.409 207.83 325.818 207.231 319.281 205.518C307.466 202.421 304.55 200.67 302.239 195.28C299.069 187.887 297.522 177.535 299.366 176.042C299.98 175.544 302.508 174.435 304.983 173.577C311.121 171.45 331.663 171.309 334.611 173.374ZM304.504 177.543C302.374 179.674 302.927 182.086 305.885 183.561C308.938 185.082 310.843 184.329 311.603 181.299C312.752 176.722 307.895 174.153 304.504 177.543ZM294.35 188.422L295.001 192.422L293.492 189.057C292.662 187.207 292.012 184.507 292.046 183.057C292.102 180.725 292.201 180.652 292.904 182.422C293.341 183.522 293.992 186.222 294.35 188.422ZM508.483 194.704C503.652 195.146 498.871 198.587 495.213 204.253C493.733 206.546 490.841 210.693 488.787 213.468C483.545 220.548 480.698 227.347 481.481 230.913C482.528 235.681 487.74 241.932 492.302 243.892C494.602 244.88 499.408 245.938 502.983 246.244L509.483 246.799L514.786 241.213C526.876 228.479 530.068 219.655 525.923 210.422C525.429 209.322 524.903 206.194 524.754 203.472C524.517 199.141 524.108 198.312 521.483 196.844C517.929 194.857 513.96 194.203 508.483 194.704ZM518.955 198.558C522.154 200.154 522.221 200.319 521.688 205.308C521.387 208.121 520.452 211.997 519.609 213.922L518.077 217.422L518.654 210.896C519.184 204.897 519.021 204.12 516.635 201.285C515.207 199.588 514.326 197.912 514.678 197.561C515.495 196.743 515.16 196.665 518.955 198.558ZM512.421 200.313C512.091 201.628 512.307 203.004 512.902 203.372C515.144 204.758 513.222 216.098 508.961 226.624C507.527 230.167 502.445 232.208 496.321 231.7C493.386 231.457 490.686 230.958 490.32 230.592C489.953 230.226 490.403 227.232 491.318 223.939C492.234 220.646 492.983 217.148 492.983 216.164C492.983 215.181 494.604 211.636 496.585 208.287C500.442 201.768 505.441 197.985 510.252 197.945C512.676 197.925 512.946 198.22 512.421 200.313ZM504.233 201.584C503.533 201.867 502.983 203.804 502.983 205.986C502.983 209.339 503.343 209.974 505.556 210.53C508.663 211.309 510.233 209.956 510.233 206.5C510.233 202.243 507.714 200.18 504.233 201.584ZM521.286 226.201C520.294 228.109 517.079 232.652 514.142 236.296L508.8 242.922H503.342C497.192 242.922 493.139 241.207 490.071 237.307C487.19 233.645 487.447 232.908 491.226 233.992C493.01 234.503 497.19 234.922 500.514 234.922C505.765 234.922 507.013 234.534 510.021 231.963C511.925 230.335 513.99 228.985 514.611 228.963C516.137 228.908 518.221 226.277 518.42 224.154C518.51 223.201 519.46 220.661 520.533 218.509L522.483 214.596L522.786 218.663C522.972 221.164 522.394 224.068 521.286 226.201ZM487.441 226.416C486.496 229.421 485.331 231.637 484.853 231.342C483.456 230.478 483.83 228.29 486.212 223.387C489.025 217.597 489.695 219.249 487.441 226.416ZM606.391 252.672C603.708 254.735 599.854 257.547 597.829 258.922C578.073 272.333 574.011 275.516 574.241 277.412C574.539 279.859 577.712 280.624 579.309 278.632C579.954 277.827 584.706 274.3 589.868 270.795C595.03 267.29 600.105 263.797 601.145 263.032C604.17 260.81 604.266 262.266 601.537 268.982C600.132 272.438 598.983 275.702 598.983 276.233C598.983 276.765 597.183 280.953 594.983 285.541C590.753 294.362 590.24 296.779 592.183 298.722C594.448 300.987 597.103 299.912 604.077 293.91C611.552 287.476 618.765 282.37 619.433 283.038C619.658 283.264 617.184 289.372 613.936 296.613C610.687 303.854 607.738 311.601 607.382 313.828C606.777 317.615 606.921 317.948 609.609 318.977C613.332 320.403 615.11 319.259 616.859 314.313C620.025 305.36 627.608 288.108 630.185 283.995C633.534 278.65 634.62 273.616 633.13 270.345C631.655 267.108 628.003 267.196 624.907 270.544C622.138 273.539 607.947 283.219 607.289 282.561C606.802 282.074 611.657 268.045 614.912 260.534C617.094 255.498 616.957 253.039 614.346 250.428C612.256 248.338 611.899 248.439 606.391 252.672ZM202.943 251.996C201.856 254.029 202.935 258.392 209.603 278.904C211.372 284.35 217.796 293.922 219.681 293.922C222.11 293.922 222.075 291.487 219.571 286.296C218.222 283.501 216.37 278.786 215.455 275.818C209.767 257.369 206.758 249.922 204.993 249.922C204.476 249.922 203.554 250.856 202.943 251.996ZM248.975 260.936C248.383 262.044 248.149 264.406 248.457 266.186C248.764 267.966 249.875 278.933 250.926 290.557C252.569 308.732 253.182 312.373 255.301 316.557C256.656 319.233 259.345 324.653 261.276 328.602C264.158 334.493 265.517 336.154 268.846 337.852C273.753 340.355 274.583 340.407 275.407 338.259C275.806 337.22 275.136 335.626 273.621 334.009C272.288 332.586 268.828 326.727 265.932 320.988L260.666 310.554L258.834 292.488C255.813 262.708 254.974 258.922 251.396 258.922C250.657 258.922 249.568 259.828 248.975 260.936ZM313.623 291.425C312.796 292.252 310.209 296.414 307.874 300.675C305.539 304.936 302.635 309.772 301.42 311.422C300.205 313.072 298.2 316.447 296.964 318.922C295.728 321.397 293.38 325.12 291.747 327.196C289.325 330.274 289.003 331.241 290.003 332.446C290.677 333.258 291.795 333.922 292.489 333.922C294.504 333.922 300.614 326.544 302.924 321.323C304.089 318.688 306.077 315.157 307.342 313.477C311.371 308.123 318.353 293.33 317.68 291.575C316.892 289.521 315.575 289.473 313.623 291.425ZM549.681 307.114C551.753 311.175 555.752 319.645 563.753 336.922C567.01 343.953 567.258 345.229 567.728 357.317C568.187 369.151 568.006 371.003 565.53 379.817C560.899 396.297 550.69 414.943 540.286 425.922C537.941 428.397 533.876 434.674 531.253 439.872C528.164 445.991 524.778 450.99 521.647 454.055C516.758 458.839 516.049 461.305 519.022 463.176C520.187 463.91 521.4 463.308 524.022 460.694C525.925 458.796 528.014 457.059 528.663 456.833C529.312 456.607 532.707 450.938 536.208 444.236C540.38 436.247 544.403 430.114 547.888 426.429C550.811 423.338 553.387 420.993 553.612 421.218C554.156 421.762 551.515 440.403 549.472 450.434C548.578 454.828 546.752 460.839 545.414 463.793C544.077 466.747 542.983 469.752 542.983 470.47C542.983 471.189 541.338 474.847 539.327 478.599C537.316 482.352 533.772 489.268 531.452 493.968C523.577 509.919 507.658 530.225 484.494 553.863C448.024 591.081 435.962 601.291 406.983 619.474C399.008 624.478 389.108 630.754 384.983 633.422C373.588 640.792 366.543 644.641 354.483 650.086C348.433 652.817 341.458 656.318 338.983 657.866C336.019 659.72 332.468 660.902 328.578 661.328C325.33 661.684 319.489 663.314 315.597 664.949C310.612 667.043 306.875 667.922 302.952 667.922C299.889 667.922 296.889 668.416 296.285 669.02C294.391 670.914 284.872 669.433 276.483 665.938C257.502 658.033 240.507 648.942 234.225 643.334C226.525 636.461 210.616 615.542 206.912 607.422C196.173 583.877 196.526 584.941 196.642 576.422C196.842 561.734 196.935 561.183 199.5 559.503C200.93 558.566 202.155 556.523 202.55 554.416L203.211 550.895L207.1 554.408C210.316 557.315 211.756 557.922 215.427 557.922C217.868 557.922 220.107 557.531 220.402 557.053C220.697 556.576 222.724 555.899 224.906 555.55C227.306 555.167 229.467 554.07 230.373 552.775L231.872 550.635L240.178 553.892C244.746 555.684 249.906 557.748 251.646 558.478C253.386 559.209 260.136 561.208 266.646 562.921C273.156 564.633 282.396 567.159 287.18 568.534C291.963 569.909 296.513 570.896 297.292 570.728C298.07 570.56 300.264 572.447 302.168 574.922L305.628 579.422L313.986 579.308C321.428 579.207 322.548 578.942 324.207 576.894C325.473 575.33 325.88 573.728 325.476 571.892C324.884 569.194 324.894 569.189 332.183 568.482C338.443 567.875 360.907 562.705 363.055 561.378C363.453 561.132 369.562 559.782 376.631 558.378C383.699 556.974 393.083 554.732 397.483 553.397C401.883 552.062 408.899 550.319 413.074 549.524C417.956 548.595 423.487 546.582 428.574 543.884C432.924 541.576 440.758 537.403 445.983 534.609C451.208 531.816 457.174 528.67 459.241 527.618L463 525.705L466.932 529.257C469.094 531.211 472.422 533.101 474.327 533.459C477.572 534.068 478.569 533.49 490.137 524.302C503.009 514.077 514.378 503.487 518.545 497.838C519.99 495.88 520.983 493.165 520.983 491.173C520.983 487.51 515.619 473.946 513.683 472.716C511.088 471.066 508.062 472.119 502.317 476.672C499.021 479.285 494.334 482.885 491.903 484.673C489.472 486.461 485.233 489.719 482.483 491.914C471.466 500.705 452.81 507.666 426.075 512.96C411.143 515.917 409.11 516.107 403.46 515.066C393.285 513.191 372.938 513.589 366.201 515.794C358.027 518.471 348.016 519.81 327.602 520.96C317.767 521.513 309.372 522.182 308.946 522.445C307.078 523.599 293.106 519.917 288.441 517.042C282.451 513.351 273.539 510.922 265.981 510.922C261.109 510.922 259.285 511.561 251.639 515.945C235.632 525.123 231.529 525.694 221.395 520.155C215.976 517.193 213.485 515.003 209.733 509.905C207.109 506.339 202.937 501.19 200.461 498.463C197.985 495.736 195.024 491.573 193.882 489.213C192.5 486.359 191.158 484.922 189.876 484.922C188.099 484.922 187.958 484.192 188.094 475.672C188.175 470.585 187.899 454.813 187.482 440.624C186.691 413.698 187.21 404.163 191.06 374.922C192.113 366.924 193.007 353.92 193.055 345.922L193.141 331.422L195.319 335.956C196.517 338.449 198.474 341.73 199.666 343.246C200.859 344.763 202.336 348.347 202.949 351.213C204.49 358.415 211.427 380.485 215.744 391.922C220.425 404.321 223.588 409.281 229.494 413.48C233.487 416.319 235.228 416.922 239.431 416.922C247.61 416.922 250.001 419.61 260.452 440.558C274.69 469.097 281.998 474.932 295.483 468.528C298.233 467.222 302.733 463.822 305.483 460.973C312.797 453.397 321.191 447.922 325.494 447.922C327.437 447.922 331.953 449.249 335.53 450.871C341.953 453.783 348.783 455.851 360.483 458.428C363.783 459.154 370.431 460.901 375.257 462.31C380.083 463.719 386.833 465.147 390.257 465.484C397.697 466.215 419.143 464.671 430.983 462.55C463.699 456.691 464.588 456.647 466.47 460.763C467.621 463.28 468.872 463.392 474.983 461.526C479.732 460.076 487.983 455.137 487.983 453.744C487.983 453.292 488.642 452.922 489.448 452.922C491.568 452.922 497.805 447.163 500.774 442.464C503.312 438.449 509.455 423.453 512.876 412.922C517.394 399.013 518.339 394.865 518.78 387.005C519.203 379.453 519.578 378.159 522.436 374.416C527.235 368.129 534.52 347.234 537.538 331.098C538.328 326.876 539.395 321.378 539.91 318.88C540.424 316.382 541.17 310.33 541.568 305.432L542.29 296.527L544.887 299.667C546.315 301.393 548.472 304.745 549.681 307.114ZM639.483 319.878C634.616 321.017 631.569 323.106 626.682 328.654C621.448 334.597 619.141 340.627 620.56 344.66C621.584 347.572 629.212 352.719 632.686 352.843C633.898 352.887 636.047 353.45 637.463 354.095C639.377 354.967 640.327 354.978 641.168 354.137C642.688 352.617 641.209 350.931 634.39 346.404C630.299 343.688 628.983 342.22 628.983 340.369C628.983 336.766 632.335 333.922 636.582 333.922C641.492 333.922 646.771 331.233 648.527 327.837C650.313 324.382 650.408 320.99 648.733 320.474C645.394 319.445 642.21 319.24 639.483 319.878ZM644.983 324.767C644.983 326.033 641.785 328.593 639.233 329.371C635.837 330.406 636.473 328.203 640.233 325.911C643.771 323.754 644.983 323.462 644.983 324.767ZM662.983 348.505C657.097 351.853 653.245 355.556 650.891 360.132C647.462 366.799 648.369 369.604 655.465 374.292C658.608 376.368 660.663 376.922 665.215 376.922C672.377 376.922 672.926 375.041 666.649 372.002C660.712 369.128 657.971 366.012 659.006 363.312C659.691 361.526 660.864 361.128 666.657 360.713C674.888 360.124 679.269 358.061 680.961 353.975C682.03 351.395 681.972 350.554 680.579 348.428C679.141 346.233 678.226 345.923 673.21 345.934C668.92 345.943 666.354 346.588 662.983 348.505ZM302.961 353.599C297.57 359.74 296.74 362.95 296.627 378.091C296.537 390.259 296.737 391.993 298.449 393.885C299.507 395.054 301.297 395.878 302.428 395.716C304.39 395.435 304.486 394.764 304.552 380.922C304.643 361.836 304.472 362.882 308.481 356.924C310.406 354.065 311.729 351.32 311.422 350.824C310.128 348.73 306.067 350.063 302.961 353.599ZM675.968 351.672C675.923 353.87 673.717 355.192 669.357 355.632L664.483 356.125L667.983 353.573C671.291 351.16 676.001 350.039 675.968 351.672ZM708.203 355.672C707.149 357.184 704.546 361.572 702.419 365.422C700.291 369.272 696.173 375.506 693.267 379.275C690.361 383.045 687.983 386.753 687.983 387.517C687.983 388.28 690.902 391.882 694.469 395.52L700.955 402.135L708.948 401.772C721.647 401.195 724.079 397.076 717.996 386.445C714.751 380.772 712.149 378.922 707.418 378.922C706.079 378.922 704.983 378.763 704.983 378.57C704.983 378.376 707.501 373.626 710.578 368.014C714.739 360.425 716.015 357.185 715.558 355.367C714.693 351.917 710.704 352.083 708.203 355.672ZM249.379 360.331C249.082 361.106 249.975 364.144 251.363 367.081C254.031 372.726 257.948 384.446 257.97 386.847C257.996 389.655 269.785 413.553 274.397 420.146C279.577 427.55 283.254 430.922 286.149 430.922C288.962 430.922 289.657 427.959 287.293 426.044C282.043 421.792 264.983 390.991 264.983 385.765C264.983 383.746 260.649 371.129 258.491 366.863C255.094 360.152 250.666 356.977 249.379 360.331ZM709.784 389.449C712.499 395.038 712.514 394.77 709.427 395.943C706.425 397.085 702.825 395.549 699.062 391.521C696.37 388.639 696.324 388.801 700.483 386.594C705.575 383.892 707.349 384.437 709.784 389.449ZM784.297 412.824C781.099 417.72 776.458 425.237 773.983 429.529C771.508 433.821 768.583 438.836 767.483 440.673L765.483 444.013L768.246 446.431C769.766 447.761 771.642 448.606 772.414 448.31C773.955 447.719 782.7 434.17 788.155 423.922C790.058 420.347 793.104 415.079 794.922 412.214C798.831 406.059 798.484 403.922 793.578 403.922C790.317 403.922 789.765 404.451 784.297 412.824ZM730.199 407.427C726.217 409.157 723.739 414.15 725.094 417.713C725.591 419.02 725.74 420.506 725.426 421.015C722.777 425.3 732.789 430.897 743.129 430.912C749.491 430.922 749.909 430.77 752.879 427.387C758.802 420.641 756.224 409.194 748.285 406.989C742.978 405.515 734.105 405.73 730.199 407.427ZM572.046 412.974C575.567 415.882 590.97 433.224 595.115 438.946C599.321 444.751 600.712 448.385 603.015 459.576C608.71 487.257 601.731 544.672 590.379 563.524C588.53 566.596 585.699 571.702 584.088 574.871C582.477 578.041 578.177 584.544 574.531 589.322C570.885 594.101 566.357 600.353 564.469 603.216C558.473 612.311 541.862 629.999 526.933 643.186C512.322 656.093 505.819 661.244 480.483 679.979C472.783 685.672 459.958 695.352 451.983 701.488C435.67 714.041 423.371 721.405 409.302 727.044C404.033 729.156 395.038 733.386 389.314 736.443C370.666 746.401 356.151 750.727 333.983 752.936C323.197 754.011 319.632 753.955 307.983 752.533C294.866 750.932 275.427 746.843 261.781 742.816C250.095 739.367 243.645 737.781 237.853 736.932C234.078 736.38 230.814 735.088 227.952 733.015C225.604 731.314 222.768 729.922 221.649 729.922C217.109 729.922 210.722 725.547 204.339 718.066C196.489 708.865 190.927 697.81 187.485 684.565C186.076 679.144 184.258 673.421 183.445 671.849C182.632 670.277 179.94 661.926 177.461 653.292C172.884 637.343 171.816 634.922 169.361 634.922C167.425 634.922 167.646 631.815 170.017 625.683C171.136 622.789 172.679 616.907 173.447 612.611C174.214 608.315 175.727 602.465 176.809 599.611C177.89 596.757 179.783 591.047 181.014 586.922C183.631 578.154 187.079 570.563 190.238 566.617L192.483 563.811L192.507 575.117C192.53 586.079 192.644 586.659 196.257 594.245C198.306 598.548 199.983 602.273 199.983 602.523C199.983 604.83 208.304 618.68 214.983 627.489C228.739 645.632 233.84 649.856 253.983 659.782C261.958 663.712 268.933 666.928 269.483 666.928C270.033 666.929 273.785 668.275 277.821 669.919C285.402 673.008 297.997 675.165 300.219 673.755C300.914 673.314 304.083 672.946 307.262 672.937C311.74 672.925 314.44 672.213 319.262 669.772C323.611 667.57 327.632 666.41 332.628 665.915C337.185 665.464 340.806 664.489 342.628 663.223C345.552 661.189 346.488 660.704 367.983 650.093C374.858 646.699 387.566 639.309 396.223 633.672C404.88 628.034 415.206 621.397 419.171 618.922C427.655 613.625 444.788 600.92 453.983 593.105C457.558 590.067 471.877 576.07 485.804 562.002C506.851 540.739 513.033 533.806 522.434 520.922C529.465 511.286 535.888 501.107 539.413 494.016C542.532 487.742 545.961 481.494 547.033 480.131C548.106 478.768 548.983 477 548.983 476.204C548.983 475.407 550.372 471.305 552.07 467.089C556.754 455.458 559.233 441.647 559.477 425.815C559.593 418.332 559.936 411.807 560.239 411.315C561.363 409.494 569.158 410.589 572.046 412.974ZM743.733 412.552C745.667 413.071 745.983 413.824 745.983 417.916C745.983 423.914 744.452 425.346 739.018 424.428C735.949 423.909 734.983 423.288 734.983 421.834C734.983 420.782 734.549 419.922 734.018 419.922C732.21 419.922 730.735 415.926 731.986 414.418C733.681 412.376 739.579 411.439 743.733 412.552ZM567.65 426.589C567.283 426.955 566.983 427.536 566.983 427.878C566.983 429.289 583.727 445.792 586.683 447.295C595.27 451.66 593.596 447.494 582.101 435.894C573.033 426.743 569.664 424.574 567.65 426.589ZM438.277 440.49C443.966 443.33 455.983 451.755 455.983 452.903C455.983 454.066 454.291 454.566 445.623 455.964C440.275 456.827 437.212 456.899 435.687 456.2C430.762 453.94 423.807 452.706 410.983 451.816C393.309 450.589 381.248 449.098 375.298 447.405C368.3 445.414 355.865 440.706 356.342 440.229C356.567 440.004 360.516 440.827 365.117 442.058C378.925 445.75 392.108 445.091 402.983 440.164C408.344 437.735 411.143 437.394 422.754 437.759C431.634 438.038 434.309 438.508 438.277 440.49ZM756.733 454.002C754.365 455.381 754.522 458.605 757.021 459.942C759.593 461.319 762.669 460.378 764.053 457.79C766.098 453.97 761.168 451.419 756.733 454.002ZM563.983 462.703C563.983 463.133 566.728 466.171 570.084 469.453C573.439 472.736 578.633 478.46 581.626 482.172C587.405 489.34 590.983 491.007 590.983 486.532C590.983 481.875 578.036 467.197 570.299 463.083C567.815 461.763 563.983 461.532 563.983 462.703ZM511.483 481.922C511.843 483.559 512.552 485.156 513.06 485.47C513.568 485.783 513.983 487.882 513.983 490.134C513.983 493.988 513.413 494.79 504.233 503.841C498.87 509.129 490.658 516.477 485.983 520.169C481.308 523.861 476.939 527.341 476.275 527.902C474.417 529.472 473.622 529.178 470.243 525.672C467.758 523.093 461.387 509.184 462.282 508.29C462.395 508.177 463.626 507.799 465.019 507.449C467.433 506.843 467.652 507.16 469.738 514.25C472.343 523.104 473.987 524.221 478.401 520.136C480.096 518.568 484.633 515.298 488.483 512.87C497.103 507.434 507.608 499.34 508.265 497.629C508.766 496.324 507.595 487.426 506.446 483.806C506.044 482.538 506.449 481.065 507.527 479.874C509.642 477.536 510.632 478.049 511.483 481.922ZM502.398 487.172C503.588 493.08 503.796 495.595 503.167 496.483C501.984 498.154 492.617 505.57 489.483 507.318C487.833 508.237 484.359 510.304 481.763 511.909C479.167 513.515 476.833 514.488 476.576 514.073C475.925 513.018 473.026 504.522 473.277 504.403C477.168 502.563 488.931 494.811 491.281 492.538C494.938 489.001 500.133 485.044 501.214 484.971C501.616 484.944 502.149 485.935 502.398 487.172ZM565.65 486.589C563.989 488.249 565.55 491.145 573.452 501.066C582.263 512.126 590.546 520.234 592.404 519.616C594.924 518.776 593.531 515.873 586.227 506.738C581.968 501.412 576.503 494.549 574.084 491.488C570.058 486.394 567.392 484.846 565.65 486.589ZM194.598 503.482C193.764 505.657 193.171 505.065 191.961 500.844L191 497.495L193.13 499.625C194.485 500.98 195.02 502.384 194.598 503.482ZM205.524 515.383C207.196 517.59 211.021 520.768 214.024 522.446C218.917 525.181 219.453 525.804 219.193 528.46C219.033 530.089 219.814 535.022 220.927 539.422C223.725 550.476 223.724 550.481 218.307 552.327C214.202 553.726 213.36 553.744 211.421 552.473C207.828 550.119 205.075 542.966 203.483 531.85C202.011 521.568 200.92 515.302 199.579 509.422L198.895 506.422L200.689 508.896C201.676 510.257 203.851 513.176 205.524 515.383ZM550.65 507.589C549.004 509.234 550.576 511.721 559.233 521.169C573.821 537.09 574.883 538.122 576.22 537.677C580.078 536.392 575.773 529.031 564.14 517.02C555.719 508.325 552.302 505.936 550.65 507.589ZM460.074 516.662C461.459 520.305 461.175 522.922 459.395 522.922C458.521 522.922 448.059 527.825 436.145 533.817C419.93 541.973 412.849 545.002 407.983 545.866C404.408 546.5 398.783 547.857 395.483 548.882C387.798 551.267 378.222 553.553 369.983 554.968C366.408 555.582 358.79 557.399 353.053 559.005C340.717 562.459 326.692 564.848 322.463 564.215C319.107 563.712 318.912 563.421 308.464 543.422C299.661 526.572 299.733 527.088 306.194 527.156C309.103 527.186 313.958 526.884 316.983 526.484C320.008 526.084 329.233 525.367 337.483 524.891C353.473 523.969 364.682 522.192 371.983 519.422C375.738 517.998 378.553 517.818 388.983 518.341C395.858 518.685 404.183 519.301 407.483 519.71C410.783 520.119 415.058 520.121 416.983 519.715C438.483 515.179 453.403 511.835 453.767 511.472C454.648 510.59 459.185 514.323 460.074 516.662ZM278.4 517.988C280.92 519.103 282.983 520.252 282.983 520.541C282.983 521.268 259.942 519.811 257.514 518.93C255.709 518.275 255.793 518.076 258.514 516.546C262.313 514.411 271.88 515.104 278.4 517.988ZM269.961 524.383C275.724 524.747 280.651 525.256 280.909 525.514C281.167 525.772 280.593 527.311 279.635 528.934C277.21 533.039 278.879 538.152 285.208 546.006C290.455 552.517 297.576 564.662 296.676 565.562C295.98 566.259 276.12 560.973 259.983 555.797C250.447 552.738 235.548 546.717 229.218 543.365C229.072 543.288 228.316 540.794 227.539 537.823C226.762 534.853 225.831 531.662 225.471 530.733C224.945 529.378 225.573 528.925 228.649 528.442C236.115 527.27 244.662 524.773 247.436 522.953C249.96 521.297 250.721 521.242 254.865 522.415C257.405 523.133 264.198 524.019 269.961 524.383ZM293.065 524.922C294.12 524.922 294.983 525.597 294.983 526.422C294.983 527.413 293.992 527.922 292.065 527.922C290.46 527.922 288.435 528.195 287.565 528.529C286.584 528.905 285.983 528.601 285.983 527.729C285.983 525.717 288.188 523.787 289.787 524.4C290.535 524.687 292.01 524.922 293.065 524.922ZM300.784 542.672C309.847 560.998 314.026 567.988 316.474 568.918C322.333 571.146 318.414 576.322 311.309 575.737C307.505 575.424 307.449 575.355 301.668 563.922C298.469 557.597 293.471 549.272 290.56 545.422C282.579 534.865 282.535 534.733 286.299 532.714C288.05 531.774 290.718 530.987 292.228 530.964C294.746 530.925 295.451 531.891 300.784 542.672ZM529.369 546.359C529.021 547.266 528.904 548.13 529.109 548.279C529.315 548.427 534.208 551.619 539.983 555.372C545.758 559.125 552.331 563.884 554.589 565.946C561.116 571.909 564.983 573.241 564.983 569.527C564.983 567.143 551.519 555.349 543.483 550.693C533.844 545.109 530.27 544.012 529.369 546.359ZM513.983 563.442C513.983 566.912 541.323 595.515 547.303 598.302C549.404 599.281 551.801 599.822 552.629 599.504C554.235 598.888 549.416 593.434 529.363 573.172C521.637 565.366 518.595 562.922 516.601 562.922C515.161 562.922 513.983 563.156 513.983 563.442ZM496.389 597.074C495.998 597.707 496.421 598.769 497.33 599.434C498.239 600.099 498.983 600.926 498.983 601.274C498.983 601.621 500.603 604.027 502.584 606.622C504.564 609.216 508.631 616.308 511.62 622.381C517.663 634.654 519.048 636.495 521.527 635.543C523.973 634.605 522.916 630.533 517.103 618.484C511.41 606.686 507.163 600.612 502.703 597.893C499.016 595.645 497.402 595.435 496.389 597.074ZM467.65 607.589C467.283 607.955 466.983 609.067 466.983 610.059C466.983 612.199 481.096 639.988 486.289 648.075C489.748 653.46 494.216 657.922 496.149 657.922C497.853 657.922 498.22 654.842 496.72 653.135C495.892 652.193 490.627 642.647 485.021 631.922C473.999 610.839 470 605.238 467.65 607.589ZM188.354 614.706C181.836 621.077 176.806 633.959 180.052 635.965C182.074 637.214 183.731 635.374 187.695 627.48C189.644 623.598 192.563 618.742 194.181 616.69C199.353 610.128 194.668 608.533 188.354 614.706ZM432.659 634.58C431.264 635.974 432.072 640.865 434.798 647.534C436.347 651.323 438.828 658.922 440.312 664.422C445.868 685.01 447.135 687.732 449.618 684.422C450.743 682.922 450.954 681.072 450.46 677.023C449.536 669.448 444.68 652.643 441.182 644.922C438.27 638.493 433.967 633.271 432.659 634.58ZM202.668 649.61C201.88 651.157 200.904 653.547 200.498 654.922C199.138 659.527 193.767 671.403 192.277 673.1C189.846 675.868 192.747 681.053 195.622 679.079C199.639 676.321 208.243 656.601 207.793 651.182C207.398 646.412 204.714 645.589 202.668 649.61ZM388.289 658.016C387.177 659.128 388.281 665.27 389.981 667.422C390.701 668.334 393.312 676.424 400.471 699.927C403.571 710.103 404.291 711.402 406.382 710.599C408.736 709.696 408.422 703.515 405.422 691.68C401.008 674.267 396.891 663.751 392.696 659.172C390.357 656.62 389.825 656.48 388.289 658.016ZM225.432 666.39C224.635 668.297 223.983 671.373 223.983 673.225C223.983 678.102 220.336 688.527 216.291 695.213C213.46 699.893 212.521 700.783 211.397 699.851C209.426 698.215 208.381 701.305 209.83 704.486C212.218 709.726 217.911 706.326 223.869 696.102C228.024 688.973 231.983 677.595 231.983 672.785C231.983 669.14 229.461 662.922 227.983 662.922C227.377 662.922 226.229 664.483 225.432 666.39ZM250.233 682.07C249.439 682.865 248.983 686.275 248.983 691.412C248.983 699.457 247.878 705.157 243.771 718.303C241.67 725.031 241.664 725.215 243.512 726.567C244.552 727.327 245.87 727.806 246.443 727.631C250.011 726.541 255.985 705.739 255.978 694.429C255.974 687.634 255.633 685.998 253.728 683.62C251.93 681.376 251.234 681.067 250.233 682.07ZM285.019 684.378C284.355 685.179 284.039 686.203 284.317 686.653C284.595 687.104 285.284 691.736 285.847 696.947C286.806 705.816 286.445 714.219 284.348 731.778C283.867 735.8 284.054 737.353 285.096 738.013C288.887 740.414 290.173 738.332 292.542 725.952C295.298 711.549 293.877 691.988 289.6 685.46C287.695 682.553 286.724 682.324 285.019 684.378ZM313.638 687.172C313.329 688.409 313.488 691.222 313.993 693.422C314.497 695.622 315.454 706.131 316.119 716.774C317.075 732.078 317.678 736.559 319 738.191C320.125 739.581 321.263 740.028 322.482 739.561C324.168 738.914 324.247 737.686 323.634 721.644C322.672 696.443 320.1 684.922 315.436 684.922C314.756 684.922 313.947 685.935 313.638 687.172ZM342.331 690.458C342.007 691.303 342.672 697.715 343.809 704.708C344.947 711.701 346.186 720.245 346.562 723.694C347.287 730.337 347.842 731.297 350.393 730.318C353.741 729.033 351.31 697.123 347.411 691.172C345.711 688.578 343.188 688.223 342.331 690.458ZM658.483 772.82C657.383 773.321 652.883 774.734 648.483 775.961C644.083 777.188 638.008 779.419 634.983 780.918C631.958 782.417 627.169 784.401 624.34 785.328C613.802 788.778 605.303 795.143 578.467 819.681C562.606 834.184 553.664 843.883 550.911 849.572C547.971 855.643 545.897 871.771 546.985 880.09C549.05 895.884 551.224 906.268 554.091 914.029C557.904 924.351 558.537 927.02 559.905 938.557C561.284 950.177 562.562 953.093 569.419 960.251C572.491 963.457 574.765 966.466 574.473 966.938C574.182 967.409 574.39 970.861 574.937 974.609C575.483 978.356 576.621 986.597 577.465 992.922C579.198 1005.9 580.178 1011.14 583.547 1025.42C584.845 1030.92 586.16 1037.06 586.47 1039.07C586.78 1041.07 588.342 1044.36 589.94 1046.37C591.539 1048.38 593.154 1051.47 593.53 1053.22C594.383 1057.21 595.72 1058.92 597.983 1058.92C603.026 1058.92 602.595 1053.21 596.902 1044.61C595.125 1041.93 593.536 1037.82 592.997 1034.51C592.497 1031.44 591.212 1025.66 590.141 1021.67C588.024 1013.79 586.917 1008.03 584.423 991.922C582.08 976.788 580.374 967.686 579.493 965.612C578.933 964.295 579.235 963.65 580.603 963.242C581.637 962.934 585.783 958.906 589.815 954.292C595.501 947.786 599.094 944.754 605.815 940.792C610.583 937.981 615.608 934.886 616.983 933.913C618.358 932.94 625.108 929.604 631.983 926.499C645.393 920.444 648.789 918.76 656.306 914.44C659.883 912.385 661.421 911.96 662.256 912.795C664.176 914.715 666.513 914.049 668.825 910.922C670.045 909.272 671.501 907.922 672.062 907.922C672.622 907.922 673.949 909.835 675.01 912.172C676.541 915.544 676.944 918.728 676.961 927.583C676.978 936.251 677.539 940.832 679.471 948.093C680.84 953.236 682.612 961.713 683.409 966.932C685.522 980.779 689.385 996.167 693.324 1006.43C696.221 1013.97 696.955 1017.58 697.88 1028.82C698.487 1036.18 698.983 1044.81 698.983 1047.99C698.983 1054.4 700.733 1057.24 704.358 1056.73C706.372 1056.44 706.467 1055.95 706.168 1047.42C705.373 1024.74 704.118 1015.8 700.061 1003.92C695.669 991.064 692.531 978.25 690.943 966.688C690.359 962.435 688.554 953.52 686.932 946.878C684.656 937.557 683.983 932.49 683.983 924.677C683.983 916.339 683.601 913.764 681.817 910.079L679.651 905.604L682.373 903.263C685.911 900.219 688.529 900.3 690.637 903.516C692.011 905.614 692.35 908.669 692.41 919.475C692.478 931.878 692.305 933.164 690.009 937.371C687.777 941.46 687.686 942.054 689.082 943.449C691.547 945.915 693.454 944.346 699.406 934.957C708.604 920.448 710.966 910.912 711.014 888.084C711.052 870.094 712.133 861.309 715.482 851.765C719.673 839.823 724.983 818.533 724.983 813.669C724.983 809.954 724.539 808.861 722.483 807.514C721.108 806.613 719.983 805.152 719.983 804.267C719.983 801.346 716.189 796.452 711.959 793.917C709.668 792.545 703.592 788.194 698.455 784.248C685.962 774.652 681.817 772.921 669.983 772.36C664.758 772.112 659.583 772.319 658.483 772.82ZM682.483 778.712C684.683 779.566 690.308 783.243 694.983 786.883C699.658 790.522 705.509 794.673 707.984 796.107C710.46 797.541 713.238 799.549 714.157 800.568C716.138 802.766 718.948 810.459 718.968 813.743C718.985 816.362 711.944 841.616 708.933 849.737C705.394 859.283 704.768 864.108 703.98 887.922C703.245 910.153 702.101 918.922 699.936 918.922C699.412 918.922 698.98 916.784 698.977 914.172C698.97 907.589 697.272 902.12 694.32 899.168C692.003 896.851 691.29 896.703 684.508 897.139C676.839 897.631 671.113 900.117 665.353 905.455C663.889 906.812 662.273 907.922 661.761 907.922C661.25 907.922 657.828 909.664 654.157 911.793C650.487 913.921 641.021 918.671 633.122 922.347C619.785 928.555 613.632 931.974 600.302 940.589C597.452 942.431 592.291 947.121 588.834 951.011C580.102 960.836 579.382 961.116 575.246 956.311C569.937 950.144 569.019 947.637 567.878 936.192C567.287 930.268 565.914 922.947 564.826 919.922C560.231 907.144 558.911 902.097 556.893 889.602C555.246 879.399 554.922 874.421 555.458 867.56C556.62 852.689 559.478 847.465 574.179 833.339C579.283 828.435 585.896 822.06 588.873 819.172C591.851 816.284 594.588 813.922 594.956 813.922C595.324 813.922 597.843 811.793 600.554 809.191C610.197 799.936 624.803 789.922 628.66 789.922C629.419 789.922 633.29 788.385 637.261 786.507C645.277 782.717 655.586 778.93 657.948 778.907C658.792 778.899 660.608 778.25 661.983 777.464C665.067 775.701 676.528 776.399 682.483 778.712ZM663.602 799.11C660.627 803.667 658.282 833.198 659.996 844.505C661.482 854.311 668.077 873.329 671.111 876.558C673.056 878.629 673.567 878.767 674.782 877.552C675.997 876.337 675.518 874.074 671.338 861.281L666.483 846.422V830.922C666.483 822.397 666.708 811.418 666.983 806.524C667.518 797.005 666.472 794.712 663.602 799.11ZM693.867 805.927C690.056 808.154 684.983 824.767 684.983 835.02C684.983 841.315 689.097 865.461 691.041 870.573C692.048 873.223 695.713 873.79 696.617 871.435C696.93 870.617 695.947 863.304 694.432 855.185C690.819 835.824 690.923 827.882 694.947 815.871C698.422 805.499 698.193 803.399 693.867 805.927ZM623.571 818.78C622.771 820.074 624.312 824.432 629.281 834.922C631.756 840.147 635.632 849.815 637.893 856.406C642.352 869.397 644.838 873.149 647.747 871.277C650.037 869.803 649.808 868.179 645.722 856.922C636.227 830.769 626.506 814.03 623.571 818.78ZM589.396 844.289C589.107 845.041 590.245 847.691 591.924 850.179C593.602 852.666 598.624 862.208 603.083 871.383C607.542 880.558 611.853 888.319 612.664 888.63C613.475 888.941 614.743 888.571 615.483 887.809C616.61 886.647 616.586 885.693 615.334 881.922C612.364 872.977 600.819 850.834 597.07 846.892C593.207 842.832 590.329 841.855 589.396 844.289ZM223.717 856.103C226.698 858.402 230.789 862.198 232.81 864.537C237.764 870.272 256.018 886.194 265.108 892.707C280.687 903.869 287.154 910.422 293.45 921.422C295.024 924.172 299.91 930.022 304.308 934.422C308.706 938.822 316.053 947.034 320.636 952.672L328.969 962.922H325.469C321.204 962.922 303.622 960.306 299.483 959.055C297.833 958.557 292.883 956.465 288.483 954.407C284.083 952.349 277.783 949.876 274.483 948.912C266.902 946.697 251.194 938.962 239.328 931.601C234.293 928.478 229.568 925.91 228.828 925.896C228.088 925.882 226.644 924.052 225.619 921.83C224.594 919.608 221.392 915.232 218.505 912.106C215.617 908.98 211.999 903.947 210.464 900.922C208.06 896.182 207.661 894.179 207.579 886.422C207.481 877.214 207.686 876.393 213.074 864.422C214.56 861.122 216.083 856.96 216.459 855.172C216.834 853.384 217.402 851.922 217.72 851.922C218.038 851.922 220.737 853.803 223.717 856.103ZM214.57 874.693C211.516 882.686 211.442 883.501 213.692 884.364C215.941 885.227 218.39 881.938 220.506 875.211C222.271 869.598 221.927 867.922 219.011 867.922C217.644 867.922 216.479 869.698 214.57 874.693ZM574.95 872.984C573.736 875.252 573.335 874.304 583.39 892.922C588.867 903.063 595.527 910.922 598.643 910.922C601.001 910.922 601.35 907.947 599.265 905.621C597.163 903.276 592.663 895.802 586.501 884.422C582.151 876.388 578.291 870.922 576.967 870.922C576.465 870.922 575.557 871.85 574.95 872.984ZM232.013 881.104C230.901 882.929 229.989 884.824 229.987 885.314C229.985 885.805 228.339 890.035 226.329 894.715C222.876 902.753 222.773 903.295 224.467 904.534C227.397 906.677 229.446 904.621 233.263 895.709C237.405 886.036 238.45 878.681 235.76 878.135C234.663 877.913 233.301 878.991 232.013 881.104ZM245.503 898.172C245.217 899.409 244.871 905.822 244.733 912.422L244.483 924.422H246.942C248.941 924.422 249.543 923.767 250.159 920.922C251.133 916.429 251.338 899.96 250.449 897.672C249.463 895.135 246.125 895.473 245.503 898.172ZM267.183 914.122C266.438 914.867 265.983 918.541 265.983 923.808C265.983 931.06 266.289 932.619 268.089 934.535C271.707 938.387 272.49 936.76 272.398 925.582C272.351 919.907 271.987 914.737 271.589 914.093C270.656 912.585 268.708 912.597 267.183 914.122ZM291.684 934.554C290.437 935.801 290.936 939.647 292.957 944.36C296.289 952.135 300.589 951.566 298.796 943.587C297.093 936.006 294.071 932.167 291.684 934.554Z" fill="currentColor"/>
</svg>
