<svg width="1310" height="1157" viewBox="0 0 1310 1157" fill="none" xmlns="http://www.w3.org/2000/svg">
<path fill-rule="evenodd" clip-rule="evenodd" d="M681.516 1.34601L673.143 2.69101L670.516 4.823C669.07 5.995 665.887 8.292 663.442 9.927L658.996 12.899H650.157H641.318L633.603 15.323C629.36 16.656 622.65 18.48 618.693 19.376C614.735 20.272 608.66 22.132 605.193 23.511L598.888 26.017L592.735 25.389L586.582 24.761L578.828 27.988L571.075 31.216L564.71 36.034C556.451 42.285 556.049 42.48 548.388 43.939L541.888 45.178L536.417 47.788L530.946 50.399L517.917 62.935C510.751 69.83 503.391 76.693 501.561 78.185L498.235 80.899H495.279C491.272 80.899 485.491 83.434 482.043 86.702L479.197 89.399L475.883 95.945C474.059 99.546 470.737 104.808 468.5 107.638L464.432 112.784L461.068 114.381C459.218 115.259 455.842 117.821 453.566 120.074L449.428 124.171L448.889 127.785C446.918 141 441.619 153.92 431.822 169.399C424.192 181.454 423.279 183.678 417.88 203.348L413.227 220.298L405.377 241.366L397.527 262.435L396.486 268.917C395.914 272.482 394.949 283.499 394.343 293.399L393.24 311.399L392.471 312.191L391.703 312.984L390.553 311.598C389.921 310.836 388.529 306.714 387.461 302.439L385.518 294.666L383.279 292.283L381.039 289.899H379.164C378.133 289.899 376.058 290.536 374.553 291.314L371.817 292.728L370.478 295.232C369.741 296.608 369.138 298.848 369.138 300.208V302.682L374.416 312.04C377.319 317.188 381.65 325.416 384.041 330.326L388.388 339.254L388.366 341.826C388.354 343.241 387.494 346.271 386.455 348.56L384.566 352.721L380.965 354.429L377.365 356.138L374.876 359.095C373.508 360.722 372.388 362.361 372.388 362.739C372.388 363.116 371.376 363.869 370.138 364.412L367.888 365.399L365.638 369.861L363.388 374.323V389.598V404.874L365.914 414.595L368.439 424.316L369.033 432.857L369.627 441.399L368.529 450.399C367.926 455.349 366.254 465.024 364.814 471.899L362.195 484.399L357.542 498.399L352.888 512.399V528.899V545.399L355.993 551.899C357.7 555.474 360.023 559.524 361.155 560.899L363.214 563.399L368.07 563.331L372.927 563.263L378.375 559.594L383.823 555.925L384.502 557.162C384.875 557.842 385.928 566.499 386.843 576.399C389.19 601.828 391.138 616.565 393.981 630.399C395.337 636.999 397.771 649.409 399.391 657.977C404.258 683.728 411.04 705.255 417.777 716.34C419.763 719.608 421.375 722.758 421.358 723.34C421.342 723.923 419.517 726.424 417.303 728.899C403.113 744.765 374.423 788.887 363.334 811.899C361.876 814.924 359.734 820.324 358.574 823.899C356.396 830.614 349.021 859.54 347.233 868.385L346.219 873.399L345.399 898.399L344.578 923.399L343.383 928.728L342.188 934.057L339.151 937.516C335.011 942.232 333.573 942.851 324.324 943.906L316.301 944.821L311.426 947.475L306.551 950.128L301.115 955.31C298.125 958.16 293.936 963.116 291.807 966.323L287.935 972.155L286.558 968.78L285.181 965.406L285.618 960.902L286.055 956.399L290.276 946.531L294.497 936.663L295.848 930.031C296.591 926.383 297.706 919.452 298.325 914.628L299.451 905.857L306.365 878.128L313.28 850.399L318.736 834.399C327.144 809.747 331.166 800.37 344.688 773.899C357.925 747.986 362.876 738.885 371.538 724.54L376.888 715.68L384.595 706.421C388.834 701.328 394.601 695.094 397.411 692.568L402.52 687.974L402.204 684.687L401.888 681.399L399.39 681.681L396.891 681.963L392.056 686.681C385.415 693.16 375.179 705.406 367.304 716.295L360.719 725.399L355.304 726.095C348.052 727.028 328.98 733.205 299.888 744.044L275.888 752.986L264.388 758.852C246.914 767.766 229.459 776.467 201.388 790.258L175.888 802.786L149.373 818.632C134.79 827.348 120.72 835.95 118.107 837.749L113.355 841.018L110.737 838.958C109.296 837.826 107.675 836.899 107.133 836.899C105.419 836.899 97.311 842.24 92.511 846.532C89.968 848.804 79.483 856.299 69.21 863.185C41.658 881.656 30.995 889.39 25.078 895.198L19.779 900.399L13.024 911.399C9.309 917.449 4.859 924.573 3.135 927.23L0 932.061L1.051 933.73C1.629 934.648 2.802 935.537 3.657 935.705L5.212 936.012L11.176 928.177C14.456 923.868 19.108 916.796 21.514 912.46L25.888 904.578L30.669 899.314L35.45 894.051L45.669 887.025C51.289 883.161 59.561 877.39 64.051 874.2C71.345 869.016 82.417 861.841 92.388 855.836L95.888 853.729L91.388 857.481C88.913 859.544 82.47 865.77 77.07 871.316L67.252 881.399L62.92 887.899C60.537 891.474 57.59 896.46 56.371 898.979L54.155 903.558L59.359 911.979C62.221 916.61 66.994 923.641 69.965 927.603C72.936 931.566 76.442 936.741 77.756 939.103L80.146 943.399L86.604 948.399C90.157 951.149 99.886 959.958 108.226 967.975L123.388 982.55V984.212V985.874L119.138 988.558C116.801 990.034 107.688 994.689 98.888 998.902C90.088 1003.11 79.904 1008.55 76.257 1010.98C72.61 1013.41 67.467 1016.75 64.828 1018.4C62.19 1020.05 59.177 1022.56 58.133 1023.99L56.235 1026.58L54.816 1036.73C54.036 1042.32 52.931 1052.17 52.361 1058.64L51.325 1070.4L52.457 1097.64L53.59 1124.87L51.479 1131.83L49.368 1138.78L47.903 1140.24L46.439 1141.71L40.657 1139.91C37.476 1138.92 30.722 1137.6 25.648 1136.98C15.031 1135.69 12.246 1134.8 8.172 1131.37C4.615 1128.38 3.774 1128.31 2.388 1130.9L1.318 1132.9L2.318 1134.77L3.319 1136.64L6.634 1138.21L9.95 1139.79L22.804 1141.37L35.659 1142.95L42.988 1146.01L50.317 1149.06L52.312 1148.42L54.306 1147.79L57.353 1143.94L60.401 1140.1L59.812 1138.56L59.224 1137.03L60.91 1130.09L62.597 1123.15L62 1113.78C61.672 1108.62 61.125 1095.1 60.784 1083.73L60.164 1063.06L61.796 1050.23C62.694 1043.17 63.671 1035.49 63.968 1033.15L64.509 1028.91L67.079 1025.86L69.649 1022.8L74.268 1020.45C76.809 1019.16 80.688 1016.66 82.888 1014.9L86.888 1011.7L106.911 1001.94L126.934 992.182L129.689 988.571L132.443 984.96L137.597 983.43C140.432 982.588 144.606 981.899 146.874 981.899H150.997L163.942 978.302L176.888 974.705L184.603 970.709L192.319 966.712L196.894 962.685L201.469 958.658L213.36 952.029L225.251 945.399L231.882 939.899L238.512 934.399L252.7 926.065C260.503 921.482 268.548 916.874 270.577 915.826L274.266 913.92L275.624 915.278C276.37 916.024 278.014 916.963 279.277 917.364L281.572 918.092L281.223 916.281L280.874 914.469L277.483 912.184L274.092 909.899H271.437H268.782L260.835 913.749C249.112 919.43 234.031 928.626 224.388 935.975C219.713 939.539 211.296 945.015 205.683 948.145C200.07 951.276 192.737 955.855 189.387 958.321C186.036 960.787 180.954 964.121 178.092 965.728L172.888 968.651L161.888 971.873L150.888 975.094L145.102 975.639L139.316 976.183L137.922 974.291L136.528 972.399L132.984 975.82L129.44 979.241L112.656 962.82C103.425 953.788 94.235 945.298 92.235 943.951L88.597 941.504L85.295 936.451C83.48 933.673 78.647 926.899 74.557 921.399C70.467 915.899 66.21 909.525 65.097 907.236L63.074 903.072L64.428 899.804C66.284 895.321 75.331 884.203 85.992 873.302L94.888 864.205L104.888 857.061C110.388 853.131 117.566 847.789 120.839 845.188C124.112 842.588 139.412 832.88 154.839 823.616L182.888 806.771L202.388 796.936C213.113 791.527 226.388 785.106 231.888 782.666C237.388 780.227 248.863 774.412 257.388 769.743C271.35 762.096 287.702 754.436 294.388 752.41C295.763 751.993 304.313 748.827 313.388 745.373C322.463 741.92 335.854 737.179 343.146 734.837L356.403 730.581L357.008 731.186L357.613 731.79L353.545 739.095C351.308 743.112 343.441 758.324 336.063 772.899L322.648 799.399L317.074 813.399C309.22 833.126 301.926 858.363 292.538 898.287L290.448 907.175L288.8 908.997L287.151 910.818L287.924 913.609C288.349 915.143 288.603 917.524 288.49 918.899C288.06 924.106 284.212 937.328 281.262 943.736C279.575 947.4 277.384 952.698 276.393 955.508C275.403 958.318 270.537 968.893 265.579 979.008C252.777 1005.13 244.971 1022.16 241.564 1031.4C239.942 1035.8 236.137 1045.47 233.109 1052.9C230.082 1060.32 226.408 1070.45 224.946 1075.4C223.484 1080.35 219.38 1092.97 215.826 1103.44L209.365 1122.49L208.727 1133.64L208.089 1144.79L210.893 1145.49L213.698 1146.19L215.285 1145.19L216.873 1144.19L217.539 1141.3C217.906 1139.7 218.73 1136.07 219.371 1133.22L220.536 1128.04L219.493 1126.1L218.451 1124.15L224.417 1106.77C227.698 1097.22 231.736 1084.35 233.389 1078.19L236.396 1066.97L241.02 1056.19C243.564 1050.25 247.361 1040.79 249.458 1035.17C252.912 1025.9 257.495 1015.64 271.144 986.649C273.668 981.287 276.106 976.899 276.561 976.899C278.156 976.899 277.36 979.551 274.331 984.328L271.274 989.149L273.474 991.49L275.674 993.832L278.389 991.898C279.882 990.835 283.224 986.913 285.816 983.182C288.407 979.451 292.061 974.465 293.934 972.102C295.808 969.738 297.774 967.038 298.302 966.102L299.263 964.399L300.295 965.418L301.327 966.438L298.834 971.818C297.463 974.778 294.108 980.897 291.378 985.416L286.414 993.633L281.994 1005.07C279.564 1011.36 274.435 1023.23 270.598 1031.45L263.622 1046.4L259.979 1058.59C257.976 1065.29 253.673 1078.57 250.417 1088.09L244.497 1105.4L242.388 1116.4C241.228 1122.45 239.549 1130.55 238.657 1134.4L237.035 1141.4L236.962 1147.86L236.888 1154.32L239.643 1155.3L242.398 1156.29L243.49 1155.2L244.582 1154.11L246.969 1142.25C248.282 1135.73 250.239 1125.22 251.318 1118.9L253.279 1107.39L258.388 1092.9C261.199 1084.93 265.979 1070.35 269.011 1060.5L274.525 1042.59L279.83 1032C282.748 1026.17 286.807 1016.9 288.851 1011.4C293.128 999.891 297.533 990.456 300.245 986.996L302.127 984.593L306.25 992.496L310.373 1000.4L326.651 1017.72C335.604 1027.25 344.112 1035.77 345.559 1036.65L348.189 1038.24L343.777 1046.82L339.365 1055.4L337.68 1061.9L335.996 1068.4L336.386 1089.4C336.601 1100.95 336.795 1113.57 336.819 1117.45L336.862 1124.49L333.681 1130.95L330.5 1137.4L326.944 1141.28C324.988 1143.41 323.388 1145.68 323.388 1146.33C323.388 1148.19 325.595 1149.9 328.01 1149.9H330.233L334.702 1144.79C337.16 1141.98 340.339 1137.37 341.767 1134.54L344.363 1129.4L345.55 1123.47L346.737 1117.54L345.553 1107.97L344.369 1098.4L344.398 1086.4L344.428 1074.4L345.435 1067.43L346.442 1060.46L348.96 1054.93C350.345 1051.89 352.921 1047 354.683 1044.08L357.888 1038.76L362.388 1039.03C364.863 1039.19 367.788 1038.99 368.888 1038.61L370.888 1037.9L373.348 1034.28L375.808 1030.66L376.207 1024.4L376.606 1018.13L374.95 1006.26C370.878 977.083 362.958 950.273 354.744 937.861L352.122 933.899H350.126H348.13L348.732 929.149C349.374 924.088 349.809 917.449 351.459 887.585L352.498 868.771L356.886 851.085C364.227 821.492 366.786 815.049 380.113 792.591C388.727 778.077 409.952 746.03 415.868 738.606L420.485 732.813L422.937 731.881L425.388 730.949L425.424 729.174L425.46 727.399L427.896 730.38C429.236 732.02 432.45 736.745 435.038 740.88C439.972 748.764 444.714 755.257 460.612 775.899C474.776 794.289 480.893 800.993 501.538 820.75C527.589 845.682 548.53 862.925 564.868 872.898C573.975 878.457 615.375 897.251 626.797 901.011L635.706 903.944L644.979 905.115L654.251 906.286L680.07 905.14L705.888 903.993L717.888 901.016C724.488 899.378 734.729 896.449 740.646 894.508L751.405 890.977L771.646 880.824C782.779 875.24 795.367 868.617 799.62 866.105C807.737 861.312 831.723 843.76 836.936 838.799C838.612 837.204 840.239 835.899 840.551 835.899C840.863 835.899 841.357 841.412 841.648 848.149L842.178 860.399L843.868 867.399L845.558 874.399L844.867 880.899C843.943 889.603 841.127 900.321 837.495 908.967L834.511 916.068L825.035 931.233L815.56 946.399L809.493 953.399C806.156 957.249 801.534 962.979 799.223 966.131C796.911 969.284 794.819 971.664 794.575 971.42C793.358 970.202 799.067 933.535 803.035 917.086L805.613 906.399L806.314 893.399L807.016 880.399L809.816 874.899C811.356 871.874 813.322 868.597 814.185 867.618L815.754 865.837L814.167 864.25L812.58 862.662L811.457 863.356C810.84 863.738 808.486 867.729 806.228 872.225C800.198 884.229 796.639 889.379 787.45 899.399C782.911 904.349 776.033 912.62 772.167 917.778C763.014 929.99 752.961 940.507 742.305 949.018L733.722 955.873L727.159 963.636C712.723 980.711 700.469 990.706 683.049 999.617L672.064 1005.24L664.102 1011.24C652.677 1019.85 643.487 1024.8 626.146 1031.71L610.888 1037.79L599.388 1039.54L587.888 1041.29L574.388 1041.28L560.888 1041.27L551.388 1038.95C523.814 1032.23 497.609 1019.61 476.888 1003.08C473.038 1000 460.052 988.02 448.031 976.445L426.173 955.399L418.754 944.196C414.674 938.035 408.459 928.25 404.943 922.452L398.551 911.911L397.033 905.155C396.198 901.439 395.046 894.799 394.471 890.399C392.512 875.392 388.888 831.418 388.99 823.899L389.091 816.399L391.835 802.899L394.579 789.399L397.479 781.899C399.074 777.774 400.381 773.582 400.383 772.583L400.388 770.766L397.638 771.083L394.888 771.399L392.203 776.408C388.649 783.04 384.764 796.631 382.201 811.399L380.118 823.399L381.273 834.399C381.908 840.449 383.096 854.174 383.914 864.899C386.286 896.019 388.247 907.679 392.566 916.339C395.05 921.32 410.335 945.38 415.792 952.899C420.062 958.784 425.021 963.86 449.494 987.399C474.068 1011.03 482.102 1016.85 506.888 1028.94L520.888 1035.77L529.971 1038.76C534.967 1040.4 542.617 1042.51 546.971 1043.44L554.888 1045.13L571.888 1045.19L588.888 1045.25L600.978 1043.11L613.069 1040.98L627.978 1034.91L642.888 1028.84L650.888 1024.25C655.288 1021.72 662.038 1017.26 665.888 1014.35L672.888 1009.06L684.388 1002.88C703.757 992.483 714.723 983.595 729.123 966.622L736.573 957.841L743.731 952.519L750.888 947.198L759.411 938.298C764.099 933.404 772.091 923.999 777.172 917.399C782.253 910.799 790.049 901.574 794.496 896.899L802.583 888.399L802.034 897.899L801.485 907.399L797.551 926.399C795.387 936.849 793.295 948.662 792.901 952.649L792.185 959.899H791.409C790.982 959.899 790.073 959.224 789.388 958.399C788.703 957.574 787.516 956.899 786.749 956.899H785.356L783.945 960.149C783.169 961.936 781.223 966.324 779.62 969.899L776.705 976.399L762.69 997.399C754.982 1008.95 747.095 1020.87 745.165 1023.9C743.234 1026.92 738.677 1032.77 735.037 1036.9C731.397 1041.02 723.855 1050.02 718.276 1056.9L708.132 1069.4L698.721 1083.77C687.517 1100.87 686.647 1102.52 679.706 1119.81L674.324 1133.22L673.729 1138.91L673.134 1144.6L674.304 1148.14L675.473 1151.69L677.681 1152.28C678.895 1152.61 680.566 1152.88 681.395 1152.89L682.903 1152.9L682.547 1145.07L682.192 1137.25L686.854 1125.32C691.732 1112.84 698.566 1098.49 700.852 1095.91C701.589 1095.08 704.904 1090.04 708.218 1084.7C715.547 1072.91 727.292 1057.64 738.829 1044.9C743.56 1039.67 749.033 1032.92 750.992 1029.9C752.95 1026.87 761.258 1014.19 769.454 1001.71C777.649 989.223 785.581 976.511 787.08 973.455C788.578 970.399 790.099 967.899 790.46 967.899H791.115L790.229 972.774L789.343 977.65L790.341 980.274L791.338 982.899H793.205H795.071L801.229 976.486C804.617 972.958 807.388 969.679 807.388 969.198C807.388 968.717 811.002 964.291 815.42 959.361L823.452 950.399L832.855 935.399C844.598 916.667 850.399 903.813 852.936 890.899C853.314 888.974 853.805 887.088 854.028 886.709L854.432 886.018L857.442 887.068L860.453 888.117L863.107 891.758C864.567 893.761 869.687 899.224 874.487 903.899L883.212 912.399L883.938 916.292L884.664 920.185L882.546 925.199C881.381 927.956 878.056 934.041 875.158 938.72L869.888 947.227L858.888 958.107L847.888 968.988L841.138 973.52C837.426 976.013 834.388 978.474 834.388 978.989C834.388 979.505 834.916 980.772 835.561 981.805L836.735 983.684L833.171 993.041C831.211 998.188 828.384 1007.57 826.889 1013.9C825.394 1020.22 823.082 1029.81 821.752 1035.19L819.333 1044.98L818.383 1057.19C817.861 1063.91 817.423 1074.85 817.411 1081.51L817.388 1093.62L807.799 1122.01L798.21 1150.39L799.158 1151.9L800.106 1153.4H802.311H804.515L808.517 1143.9C810.717 1138.67 815.415 1125.6 818.956 1114.85L825.394 1095.3L826.335 1071.85L827.276 1048.4L830.842 1032.93C835.946 1010.79 838.098 1003.21 842.864 990.579L847.082 979.399L855.485 976.065L863.888 972.732L869.388 968.595C872.413 966.319 879.928 959.495 886.088 953.428L897.288 942.399L903.815 928.82L910.342 915.241L911.992 908.82L913.642 902.399L912.924 879.015L912.206 855.63L908.229 842.515L904.253 829.399L902.704 804.45L901.156 779.501L902.272 777.713C903.784 775.292 903.792 775.309 900.388 773.899C898.738 773.216 897.388 772.281 897.388 771.822C897.388 771.363 898.775 768.635 900.469 765.761C902.164 762.887 905.544 756.567 907.979 751.717C910.415 746.867 912.652 742.899 912.95 742.899C913.248 742.899 915.156 743.773 917.19 744.841C919.224 745.909 924.263 748.315 928.388 750.187L935.888 753.591L948.388 761.954L960.888 770.316L966.888 776.541C970.188 779.965 975.138 785.176 977.888 788.12L982.888 793.473L990.814 797.808L998.739 802.144L1004.81 808.445C1008.16 811.911 1012.91 816.936 1015.39 819.61L1019.89 824.474L1027.9 829.236L1035.91 833.998L1048.9 847.976C1056.04 855.665 1065.46 864.98 1069.82 868.677C1074.18 872.374 1080.53 877.874 1083.94 880.899C1087.34 883.924 1092.77 887.932 1096 889.805C1099.24 891.678 1103.57 894.271 1105.63 895.565L1109.38 897.919L1111.96 902.019C1113.39 904.275 1117.78 909.574 1121.72 913.795C1131.77 924.56 1137.12 931.095 1143.87 940.846L1149.71 949.292L1148.65 949.647C1148.06 949.842 1144.73 951.795 1141.24 953.988C1137.74 956.181 1132.57 959.097 1129.73 960.47L1124.56 962.965L1111.66 965.875C1104.56 967.475 1087.54 970.666 1073.82 972.965L1048.89 977.146L1026.33 977.932C1013.93 978.365 999.302 979.245 993.832 979.889L983.888 981.06L977.888 983.593C974.588 984.986 968.063 987.751 963.388 989.738L954.888 993.349L949.888 993.314L944.888 993.278L939.328 991.088C936.27 989.883 931.095 987.258 927.828 985.254C924.561 983.25 915.85 978.506 908.471 974.712L895.054 967.813L893.721 968.325L892.388 968.836V970.722V972.607L894.888 975.304C896.263 976.788 897.388 978.428 897.388 978.948C897.388 979.468 899.076 981.76 901.138 984.042C903.201 986.324 906.239 990.254 907.889 992.775L910.89 997.359L914.263 999.379C916.117 1000.49 919.763 1003.31 922.365 1005.65C927.644 1010.39 928.388 1010.69 928.388 1008.1V1006.3L924.638 1002.71C922.576 1000.74 919.467 998.405 917.731 997.532L914.574 995.944L910.192 989.671C907.782 986.222 905.463 982.837 905.04 982.149L904.27 980.899H905.679C906.453 980.899 908.897 982.136 911.11 983.649L915.133 986.399L920.383 992.752L925.632 999.105L934.456 1005.56L943.279 1012.01L946.791 1016.9L950.302 1021.78L957.095 1027.42C960.831 1030.52 965.238 1033.76 966.888 1034.62C968.538 1035.48 974.184 1040.29 979.435 1045.32C990.033 1055.47 1000.25 1063.04 1008 1066.48L1013.12 1068.76L1013.67 1070.2L1014.23 1071.65L1007.22 1092.33L1000.21 1113.01L997.821 1126.21C996.507 1133.46 994.635 1142.25 993.66 1145.74L991.888 1152.08L994.231 1153.97L996.574 1155.87L998.442 1154.87L1000.31 1153.87L1002.75 1146.14L1005.19 1138.4L1006.86 1127.4L1008.53 1116.4L1015.51 1095.57L1022.49 1074.75L1022.19 1070.08L1021.89 1065.41L1014.81 1061.91C1006.66 1057.87 996.34 1050.29 984.888 1039.94C980.488 1035.96 973.854 1030.68 970.145 1028.22L963.402 1023.73L955.836 1015.56C951.674 1011.07 946.383 1005.89 944.079 1004.04C941.774 1002.2 938.807 999.829 937.485 998.78C934.181 996.155 935.157 995.709 940.314 997.486L944.663 998.984L950.275 997.825C956.315 996.578 966.835 992.627 974.888 988.583L979.888 986.071L985.829 984.984L991.77 983.896L1018.33 982.857L1044.89 981.817L1063.39 978.857C1116.84 970.305 1126.28 967.789 1141.19 958.122C1144.65 955.875 1148.78 953.753 1150.35 953.407L1153.22 952.777L1153.76 951.361L1154.31 949.946L1147.33 939.673C1138.79 927.082 1130.31 916.787 1124.68 912.176L1120.44 908.704L1116.45 902.377L1112.45 896.05L1109.17 893.616C1107.36 892.277 1103.57 889.947 1100.74 888.438C1095.69 885.742 1093.11 883.735 1075.93 869.085L1067.35 861.772L1052.71 845.944L1038.07 830.115L1030.79 825.975L1023.51 821.834L1019.55 817.616C1017.37 815.297 1012.05 809.79 1007.74 805.379L999.888 797.359L993.657 794.081C985.855 789.975 982.221 786.932 977.425 780.484C971.046 771.91 967.237 768.656 950.602 757.573L934.563 746.886L927.276 743.921L919.99 740.955L917.601 738.567L915.213 736.178L917.678 731.289C921.035 724.63 930.722 698.405 933.856 687.493C935.263 682.595 938.426 668.87 940.885 656.993L945.357 635.399L953.444 608.463L961.531 581.527L963.51 577.963L965.49 574.399L964.976 577.399C964.693 579.049 963.745 583.755 962.868 587.856L961.275 595.313L961.851 597.606L962.426 599.899H964.907C966.272 599.899 967.388 599.678 967.388 599.407C967.388 599.136 968.564 592.949 970 585.657L972.613 572.399L974 571.599L975.388 570.8L975.381 569.099C975.378 568.164 974.481 566.049 973.388 564.399L971.401 561.399L971.395 556.117L971.388 550.834L974.385 543.063C976.034 538.788 978.963 532.666 980.895 529.458L984.407 523.624L986.905 515.512C988.279 511.05 989.791 506.792 990.265 506.05L991.128 504.701L994.14 510.05C995.796 512.992 999.506 521.924 1002.39 529.899C1005.26 537.874 1008.27 545.664 1009.06 547.211L1010.5 550.023L1012.2 549.701L1013.89 549.379L1014.19 547.276L1014.49 545.173L1010.36 532.786C1008.09 525.973 1003.82 515.224 1000.88 508.899C997.944 502.574 995.057 495.599 994.469 493.399L993.399 489.399L993.493 481.399C993.545 476.999 993.88 472.363 994.238 471.096L994.888 468.793L999.798 482.096C1002.5 489.413 1005.32 496.636 1006.07 498.149L1007.44 500.899H1008.81H1010.17L1010.74 499.438L1011.29 497.977L1009.96 493.188C1009.23 490.554 1007.03 483.899 1005.07 478.399C1003.11 472.899 1000.1 463.242 998.393 456.939L995.283 445.48L995.951 441.524C997.739 430.944 1004.99 415.126 1013.89 402.399L1018.09 396.399L1018.63 384.899L1019.17 373.399L1018.49 367.754L1017.81 362.109L1015.16 358.254L1012.52 354.399L1009.93 344.399L1007.35 334.399L1004.85 315.399C1003.47 304.949 1001.68 292.124 1000.86 286.899C1000.05 281.674 998.938 271.587 998.387 264.485L997.385 251.57L995.366 243.07L993.347 234.57L989.484 226.85C987.359 222.605 983.758 216.389 981.483 213.038L977.345 206.946L975.968 197.134L974.592 187.322L973.137 183.86L971.683 180.399L967.286 176.389C964.867 174.184 961.634 171.477 960.101 170.375L957.314 168.37L955.895 164.384L954.476 160.399L954.415 153.399L954.354 146.399L952.531 139.399C950.524 131.694 948.809 127.963 943.731 120.263L940.345 115.127L935.616 113.141C933.016 112.049 929.625 110.857 928.082 110.494L925.275 109.833L925.92 105.532L926.565 101.231L922.227 97.094C919.84 94.818 915.767 91.481 913.175 89.678C906.931 85.333 889.388 69.961 889.388 68.834C889.388 68.345 887.098 66.135 884.298 63.922L879.208 59.899L874.048 59.855L868.888 59.811L864.888 58.274C862.688 57.428 859.988 56.516 858.888 56.246L856.888 55.756L853.851 50.157L850.813 44.559L848.351 42.724L845.888 40.889L837.604 39.435L829.32 37.981L821.604 34.535L813.888 31.089L806.638 30.392L799.388 29.696V25.732C799.388 23.551 798.955 20.959 798.426 19.97L797.464 18.173L794.676 17.118C793.143 16.538 789.009 15.801 785.489 15.481L779.09 14.899L768.989 11.464C763.434 9.575 755.513 6.99599 751.388 5.73199L743.888 3.436L732.388 3.603L720.888 3.77L712.94 5.84401L704.992 7.918L701.318 4.33101L697.644 0.742996L693.766 0.372009L689.888 0L681.516 1.34601ZM693.831 9.423L695.728 12.946L698.234 13.575L700.74 14.204L711.314 11.552L721.888 8.899H730.423H738.957L744.648 10.899C747.777 11.999 751.137 12.91 752.113 12.923C753.089 12.936 756.588 14.1 759.888 15.51C766.581 18.37 774.757 20.354 784.159 21.402L790.43 22.1L789.799 26.859L789.168 31.619L790.313 33.759L791.458 35.899H800.542H809.626L815.547 39.496L821.467 43.092L828.178 44.114C831.868 44.677 836.664 45.646 838.835 46.268L842.783 47.399L845.522 52.975C847.028 56.042 849.616 60.002 851.272 61.774L854.283 64.998L864.309 64.307L874.335 63.617L883.715 73.008C888.874 78.173 895.748 84.936 898.991 88.038L904.888 93.676L908.388 95.164L911.888 96.653L914.779 99.728L917.67 102.803L916.438 105.777L915.206 108.752L915.894 110.917L916.581 113.082L919.952 114.49C921.807 115.265 924.861 115.899 926.74 115.899H930.155L933.654 119.772L937.153 123.645L940.755 131.022L944.357 138.399L945.437 147.899C947.883 169.415 948.446 170.839 956.66 176.292L961.975 179.819L964.304 183.964L966.633 188.108L967.535 196.163L968.436 204.219L970.285 208.309C971.302 210.558 974.665 216.169 977.758 220.776L983.381 229.154L985.779 236.776C988.559 245.617 989.855 253.514 991.378 270.899C991.98 277.774 994.042 294.874 995.96 308.899L999.447 334.399L1002.05 343.74L1004.66 353.082V356.989V360.896L1002.27 364.302C1000.96 366.175 996.063 372.258 991.388 377.82L982.888 387.933L982.663 386.166C982.539 385.194 981.992 372.699 981.446 358.399L980.453 332.399L977.971 319.068L975.489 305.736L972.027 294.568C970.123 288.425 967.116 278.224 965.345 271.899C962.32 261.097 953.233 234.072 941.471 200.899L936.33 186.399L931.109 175.923L925.888 165.447L919.942 159.086C916.671 155.587 909.48 149.092 903.96 144.653L893.925 136.581L886.407 133.119C882.271 131.215 871.913 126.384 863.388 122.384C846.565 114.49 833.118 109.234 820.771 105.726L812.888 103.487L792.388 103.46C781.113 103.445 766.89 103.827 760.781 104.309L749.673 105.184L742.022 102.541C737.813 101.088 733.639 99.899 732.746 99.899C731.852 99.899 724.319 96.519 716.005 92.388L700.888 84.877L694.891 83.379L688.895 81.88L671.891 80.767L654.888 79.654L640.388 80.19L625.888 80.727L613.888 83.904C607.288 85.651 598.288 87.946 593.888 89.005C583.377 91.533 581.36 92.349 571.888 97.902C567.488 100.481 560.121 104.798 555.516 107.495L547.145 112.399L539.435 119.899L531.725 127.399L527.157 136.899C524.645 142.124 521.022 150.899 519.108 156.399C517.193 161.899 514.43 169.24 512.968 172.713C511.505 176.186 507.865 186.223 504.879 195.016L499.449 211.005L496.174 217.202L492.899 223.399L482.893 233.439C477.39 238.961 469.863 246.067 466.167 249.229L459.445 254.978L451.037 266.188C435.949 286.304 428.91 299.873 423.449 319.372L420.655 329.345L411.772 331.431C406.886 332.578 401.833 334.091 400.544 334.793L398.2 336.07L396.214 340.56L394.228 345.049L393.672 350.434L393.117 355.818L395.7 356.995L398.283 358.172L407.211 356.539C412.121 355.641 419.888 353.82 424.47 352.492L432.802 350.079L435.23 351.989C436.565 353.04 438.11 353.899 438.663 353.899C439.215 353.899 445.754 356.661 453.192 360.037L466.716 366.175L468.552 365.029L470.388 363.882L470.397 371.141C470.401 375.133 470.859 383.53 471.414 389.802L472.424 401.206L474.457 409.302C475.575 413.755 477.637 421.224 479.039 425.899L481.588 434.399L485.9 440.901C490.532 447.886 499.673 458.771 510.85 470.612L517.812 477.988L526.643 483.56L535.474 489.132L546.181 493.606C552.07 496.066 559.363 498.707 562.388 499.473L567.888 500.868L578.992 500.883L590.096 500.899L603.492 498.875C619.546 496.45 623.031 495.362 632.57 489.797L639.888 485.527L644.962 480.735C655.177 471.086 664.467 456.335 675.827 431.726L682.6 417.054L685.535 415.838C687.149 415.17 689.576 413.752 690.929 412.688L693.388 410.754V409.268C693.388 408.45 692.055 406.121 690.426 404.09L687.463 400.399L686.316 395.399L685.168 390.399L686.312 386.166L687.456 381.933L689.172 381.032C690.116 380.537 692.706 379.83 694.929 379.463L698.97 378.794L705.929 379.888C714.885 381.296 744.429 387.833 746.388 388.84L747.888 389.611L748.674 397.44L749.459 405.269L744.105 410.834L738.751 416.399L739.426 438.899L740.1 461.399L741.711 466.899L743.321 472.399L750.684 484.519L758.047 496.639L766.467 506.501C771.099 511.926 776.688 518.107 778.888 520.237C788.793 529.826 801.54 536.973 819.428 542.966L828.644 546.053L838.21 547.032L847.777 548.011L859.657 546.997L871.538 545.982L882.475 541.539C888.491 539.096 897.785 534.689 903.128 531.748L912.844 526.399L931.07 508.558L949.296 490.718L952.282 486.058L955.267 481.399L958.362 469.899L961.456 458.399L963.277 455.899C965.21 453.244 971.146 449.324 971.977 450.155C972.444 450.622 969.522 480.65 967.427 496.899C966.895 501.024 965.751 515.813 964.884 529.762L963.307 555.126L960.975 559.762C958.178 565.324 948.159 595.749 942.479 615.932C940.23 623.925 936.157 641.146 933.429 654.202C930.701 667.258 927.099 683.179 925.424 689.583L922.379 701.227L917.781 712.813C915.252 719.185 908.167 734.524 902.038 746.899L890.894 769.399L884.448 777.899C877.93 786.493 853.851 815.149 848.654 820.497C838.698 830.743 807.761 855.564 796.888 862.03C791.63 865.156 767.493 877.944 751.388 886.135C746.567 888.587 726.912 894.899 724.098 894.899C723.531 894.899 727.352 890.677 732.588 885.516L742.109 876.134L752.607 862.179C758.381 854.504 764.946 845.114 767.196 841.312L771.287 834.399L772.543 829.655L773.8 824.911L772.661 823.772L771.522 822.633L769.984 823.224L768.447 823.814L765.453 830.416C761.563 838.994 751.779 853.842 741.74 866.399L733.745 876.399L726.107 883.516L718.469 890.634L710.679 894.672L702.888 898.71L695.388 899.814C691.263 900.42 680.606 901.346 671.707 901.871L655.525 902.825L646.721 901.824L637.917 900.824L627.833 897.45C610.298 891.582 574.132 874.815 560.877 866.408C549.34 859.091 524.784 838.053 497.859 812.42L481.829 797.16L473.676 786.78C453.748 761.407 446.928 752.289 439.26 740.767L431.071 728.464L428.724 722.687C427.433 719.51 425.033 714.727 423.391 712.058L420.405 707.206L416.973 696.728C408.409 670.586 397.348 613.413 394.853 582.399C394.499 577.999 393.575 569.707 392.799 563.973L391.387 553.547L389.801 551.125L388.214 548.704L387.328 539.551C386.841 534.518 386.43 525.038 386.415 518.485L386.388 506.571L389.874 490.985C391.791 482.413 393.946 473.374 394.664 470.899L395.968 466.399L398.428 466.053C401.907 465.564 403.243 464.19 403.961 460.361L404.587 457.024L406.987 457.937L409.387 458.849L412.455 458.236L415.523 457.622L417.042 455.304L418.56 452.987L417.998 452.078C417.689 451.578 415.783 450.9 413.762 450.572L410.088 449.976L407.238 452.006L404.388 454.035V448.595V443.154L407.876 422.777C409.795 411.569 412.945 393.881 414.876 383.471C416.808 373.061 418.388 363.709 418.388 362.69V360.836L419.888 360.261C421.957 359.467 421.765 358.171 419.388 356.899L417.388 355.829L415.303 356.944L413.219 358.06L411.907 361.229C410.276 365.174 400.957 415.045 397.966 435.842L395.745 451.286L395.178 450.342C392.862 446.493 390.39 421.833 390.389 402.567L390.388 388.736L386.939 384.526C385.042 382.211 382.346 377.861 380.949 374.858L378.408 369.399L378.398 365.637L378.388 361.874L383.724 358.461L389.06 355.048L391.224 349.84L393.388 344.632V341.593V338.554L388.244 328.204C385.415 322.511 383.341 317.612 383.636 317.318C383.931 317.023 385.85 317.483 387.902 318.34C389.954 319.198 392.647 319.899 393.888 319.899H396.143L397.13 318.649L398.118 317.399L398.772 302.234C399.132 293.893 400.053 281.703 400.819 275.145L402.212 263.222L408.693 246.31C412.257 237.009 416.614 224.674 418.374 218.899C420.135 213.124 423.328 202.774 425.47 195.899L429.365 183.399L436.515 171.399C440.447 164.799 445.18 156.16 447.033 152.2L450.401 145.002L452.471 136.2C455 125.446 456.061 123.723 462.809 119.406L468.123 116.007L472.376 111.203L476.628 106.399L480.093 99.135L483.557 91.872L486.727 89.454L489.898 87.035L495.22 86.569L500.542 86.103L503.209 83.751C504.676 82.457 511.39 76.103 518.129 69.629L530.381 57.86L536.329 54.016L542.277 50.171L547.274 49.508C554.168 48.594 557.92 46.86 568.682 39.614L577.979 33.354L582.083 32L586.187 30.645L588.51 32.272C589.788 33.167 591.834 33.899 593.058 33.899H595.282L600.048 31.365C604.919 28.775 616.934 24.927 625.888 23.089C628.638 22.524 633.588 21.075 636.888 19.868L642.888 17.673L649.388 18.672L655.888 19.671L659.888 17.929C662.088 16.971 666.588 14.148 669.888 11.657C676.722 6.498 677.641 6.174 685.911 6.015L691.933 5.899L693.831 9.423ZM690.386 28.401L689.161 29.877L689.787 33.21L690.412 36.543L692.981 39.971C694.394 41.856 697.096 46.44 698.985 50.156L702.42 56.912L703.969 63.594C704.822 67.268 705.955 71.09 706.489 72.087L707.458 73.899H708.888H710.318L711.226 72.149L712.135 70.399L711.319 63.808L710.504 57.218L708.076 51.808C705.095 45.165 694.767 28.691 692.944 27.67L691.612 26.925L690.386 28.401ZM765.683 28.572L765.041 30.245L766.233 36.822C766.889 40.439 768.401 49.147 769.593 56.172L771.761 68.945L770.18 77.172L768.6 85.399L769.531 86.546L770.462 87.693L772.356 87.197L774.25 86.702L775.92 82.55L777.59 78.399L777.561 68.899L777.532 59.399L774.909 45.399L772.287 31.399L770.814 29.149L769.342 26.899H767.834H766.325L765.683 28.572ZM729.423 33.833L728.388 35.768V40.501C728.388 43.105 728.881 48.065 729.483 51.524L730.578 57.812L731.983 58.978L733.388 60.144L735.012 58.796L736.637 57.448L736.149 48.423L735.661 39.399L734.076 35.649L732.49 31.899H731.474C730.915 31.899 729.993 32.769 729.423 33.833ZM569.015 59.694C568.21 60.995 569.502 62.292 577.019 67.728C580.941 70.565 584.888 74.014 585.792 75.392C586.695 76.771 587.874 77.899 588.411 77.899H589.388V75.595V73.291L586.138 70.24C582.903 67.203 575.869 62.236 571.699 60.044L569.509 58.894L569.015 59.694ZM825.397 70.541C823.602 72.586 820.846 76.981 819.273 80.306L816.413 86.353L817.723 87.663L819.033 88.972L820.672 88.344L822.311 87.715L826.882 80.057L831.453 72.399L831.17 69.976L830.888 67.553L829.775 67.188L828.661 66.823L825.397 70.541ZM680.888 85.891L693.888 86.709L700.712 89.287C704.465 90.705 713.69 95.056 721.212 98.956L734.888 106.048L735.622 108.017L736.356 109.987L738.199 109L740.042 108.014L744.465 109.562L748.888 111.11L760.888 110.321C767.488 109.887 782.338 109.511 793.888 109.484L814.888 109.436L829.388 114.288L843.888 119.139L862.888 128.072C873.338 132.985 884.138 138.066 886.888 139.363L891.888 141.721L900.366 148.56C905.028 152.321 911.328 157.874 914.366 160.899L919.888 166.399L923.581 172.781C927.865 180.182 930.385 186.11 937.449 205.399C956.697 257.961 971.286 306.208 974.944 329.399L976.521 339.399L977.095 367.606L977.669 395.814L974.957 397.049L972.245 398.285L964.164 397.108L956.084 395.93L953.642 394.329L951.199 392.729L953.475 390.306L955.751 387.884L954.141 384.508C949.155 374.051 936.305 365.885 902.386 351.619C884.628 344.15 881.89 343.296 859.388 338.213L842.888 334.485L826.388 334.463L809.888 334.44L802.119 337.169C793.081 340.343 787.754 343.487 784.144 347.777L781.566 350.841L780.477 355.919C779.878 358.712 779.388 364.133 779.388 367.964V374.931L776.138 376.358C774.35 377.142 769.009 378.969 764.267 380.418L755.647 383.052L744.494 379.52C738.361 377.578 728.065 374.815 721.615 373.38C715.165 371.945 706.288 369.849 701.888 368.722C697.488 367.595 690.513 366.378 686.388 366.018L678.888 365.363L679.237 363.881C679.429 363.066 679.975 357.224 680.45 350.899C680.925 344.574 681.76 337.299 682.305 334.733L683.296 330.066L682.366 326.822C680.047 318.737 670.994 314.195 643.888 307.52L633.888 305.058L612.388 302.016C600.563 300.344 584.588 298.449 576.888 297.806L562.888 296.638L549.388 297.275C541.963 297.626 531.405 298.588 525.926 299.413L515.965 300.914L510.426 302.98C507.38 304.117 501.609 306.854 497.602 309.063L490.316 313.079L488.746 315.476L487.175 317.873L489.164 321.245L491.154 324.616L482.117 325.258C477.147 325.61 468.537 325.902 462.984 325.906L452.888 325.913L443.816 327.276C438.827 328.025 433.718 329.187 432.463 329.859L430.182 331.08L430.907 326.739C431.306 324.352 432.479 320.24 433.514 317.601C434.55 314.962 436.593 309.182 438.056 304.757L440.715 296.71L446.875 286.995C450.263 281.651 456.762 272.451 461.318 266.55L469.601 255.821L474.133 252.11C485.41 242.877 488.332 240.159 495.074 232.636L502.259 224.617L505.354 218.811L508.449 213.005L513.879 197.016C516.865 188.223 520.507 178.186 521.972 174.713C523.437 171.24 526.116 164.124 527.925 158.899C529.733 153.674 532.715 145.828 534.551 141.463L537.888 133.528L547.327 123.674L556.766 113.821L563.327 110.7C566.936 108.984 573.797 105.166 578.576 102.217L587.263 96.855L598.576 93.978C604.797 92.396 612.588 90.313 615.888 89.35C619.188 88.387 626.388 86.786 631.888 85.792L641.888 83.985L654.888 84.529C662.038 84.828 673.738 85.441 680.888 85.891ZM901.888 113.063C898.672 114.838 894.325 119.177 892.758 122.178L891.306 124.958L891.906 125.928C892.236 126.462 893.16 126.899 893.96 126.899H895.414L901.388 120.736L907.363 114.573L906.253 113.236C904.929 111.641 904.497 111.624 901.888 113.063ZM482.388 118.203V119.74L485.138 120.29C489.717 121.206 503.344 122.725 512.968 123.393L522.048 124.023L524.718 123.352C527.73 122.596 528.171 121.413 525.782 120.497C524.898 120.158 517.586 119.435 509.532 118.891C501.478 118.347 492.076 117.624 488.638 117.284L482.388 116.666V118.203ZM513.962 138.622C512.902 138.893 506.377 142.627 499.462 146.92C492.546 151.214 484.317 156.316 481.175 158.258L475.462 161.788L469.637 169.645C466.432 173.966 461.603 181.268 458.904 185.871L453.997 194.241L440.116 208.82C432.481 216.838 425.565 224.671 424.746 226.225L423.258 229.051L424.887 231.537L426.515 234.023L427.702 233.652C428.354 233.447 429.629 231.823 430.534 230.043L432.181 226.806L443.606 215.602C455.939 203.51 462.194 195.827 467.385 186.399C471.77 178.434 478.455 169.132 482.562 165.28C484.391 163.565 489.263 160.229 493.388 157.866C497.513 155.503 504.432 151.169 508.764 148.235L516.641 142.899H519.014H521.388V141.956C521.388 140.991 517.368 137.805 516.415 138.015C516.125 138.079 515.021 138.352 513.962 138.622ZM934.617 150.573C933.918 150.852 932.68 152.367 931.867 153.94L930.388 156.8V159.849V162.899H932.368H934.347L936.427 158.822L938.507 154.745L938.197 152.651C937.869 150.425 936.694 149.744 934.617 150.573ZM968.638 259.018L965.388 259.956V260.928V261.899L969.638 261.799C975.078 261.672 978.631 260.671 979.147 259.121L979.555 257.899L975.721 257.989C973.613 258.039 970.426 258.502 968.638 259.018ZM427.849 278.98C425.671 280.125 420.342 282.583 416.009 284.442C407.717 288 404.388 290.323 404.388 292.554V293.899H406.194C409.095 293.899 425.373 287.016 431.728 283.101L437.568 279.504L435.787 278.201C433.398 276.455 432.486 276.544 427.849 278.98ZM378.189 302.649C378.738 305.812 379.032 308.562 378.842 308.762C378.651 308.961 377.573 307.611 376.446 305.762L374.395 302.399L374.392 299.649L374.388 296.899H375.789H377.189L378.189 302.649ZM462.612 299.075L461.436 300.251L462.534 301.575C463.85 303.161 466.022 303.3 466.915 301.855L467.56 300.811L466.352 299.355C464.888 297.592 464.151 297.536 462.612 299.075ZM595.773 304.979C625.25 308.276 651.421 313.483 665.72 318.896L671.552 321.104L674.97 324.105L678.388 327.106L678.387 329.753C678.387 331.208 677.683 335.769 676.824 339.887L675.262 347.375L675.931 354.513L676.6 361.65L675.487 362.338L674.374 363.026L673.809 361.212C673.498 360.215 672.89 358.724 672.457 357.899L671.67 356.399L668.115 355.82C663.987 355.149 662.481 354.24 648.388 343.914C634.267 333.567 626.523 328.784 615.244 323.441L605.768 318.952L597.242 316.927L588.717 314.902L575.942 313.865L563.168 312.827L549.028 313.878C533.678 315.019 527.695 315.892 513.831 319.016L504.774 321.056L501.52 320.213L498.266 319.37L498.313 318.384C498.379 317.017 512.396 309.523 518.688 307.491L523.87 305.818L537.879 304.315C545.584 303.489 552.338 302.612 552.888 302.368C554.717 301.555 577.65 302.951 595.773 304.979ZM554.138 321.588C553.176 321.84 551.6 321.84 550.638 321.588L548.888 321.131H552.388H555.888L554.138 321.588ZM540.888 322.956C538.688 323.411 536.074 323.81 535.079 323.841L533.27 323.899L533.888 322.899L534.506 321.899L539.697 322.014L544.888 322.129L540.888 322.956ZM468.138 331.615C466.626 331.844 464.15 331.844 462.638 331.615L459.888 331.199H465.388H470.888L468.138 331.615ZM584.388 334.174C588.513 335.607 594.793 337.518 598.344 338.42C606.193 340.415 609.666 342.14 614.888 346.64L618.888 350.086L630.388 355.617C636.713 358.659 643.946 362.532 646.461 364.224L651.034 367.301L655.461 373.143C657.896 376.356 662.003 381.42 664.587 384.397L669.286 389.808L670.44 394.093L671.594 398.377L671.017 403.888C670.699 406.919 670.039 412.099 669.55 415.399L668.66 421.399L665.461 429.399C661.32 439.754 654.73 451.97 646.753 464.076L640.377 473.752L636.133 477.399C633.798 479.405 628.738 482.999 624.888 485.385L617.888 489.724L613.888 490.731C611.688 491.284 604.669 492.516 598.29 493.467L586.692 495.197L575.746 494.678L564.8 494.159L551.713 488.612L538.626 483.064L530.257 477.602L521.888 472.139L515.73 465.769C512.343 462.265 508.428 457.682 507.031 455.584L504.49 451.77L505.57 449.398L506.651 447.027L506.051 445.463L505.451 443.899H503.987H502.523L501.888 445.899C501.539 446.999 500.838 447.899 500.33 447.899C499.083 447.899 493.126 439.653 489.493 432.896L486.534 427.394L483.374 416.008L480.214 404.621L480.674 400.01C480.928 397.474 482.123 390.899 483.331 385.399L485.527 375.399L490.632 365.899C493.439 360.674 497.475 353.624 499.6 350.231L503.463 344.064L507.381 340.525C512.335 336.049 518.441 332.919 524.308 331.849L528.888 331.014L552.888 331.292L576.888 331.569L584.388 334.174ZM449.117 332.503C448.785 332.835 447.922 332.871 447.201 332.582L445.888 332.057L447.805 331.978L449.721 331.899L449.117 332.503ZM445.117 333.503C444.785 333.835 443.922 333.871 443.201 333.582L441.888 333.057L443.805 332.978L445.721 332.899L445.117 333.503ZM853.388 342.893C872.001 346.959 880.326 349.348 888.388 352.939C891.963 354.532 900.288 358.12 906.888 360.913C913.488 363.705 923.288 368.499 928.665 371.566L938.442 377.142L941.415 380.748C944.721 384.758 945.134 386.675 942.88 387.54L941.373 388.119L938.909 386.504C937.553 385.616 934.269 382.958 931.61 380.596L926.776 376.303L913.988 370.542L901.199 364.781L887.544 361.44C880.033 359.603 868.383 357.089 861.655 355.855L849.422 353.61L843.513 354.228C833.445 355.28 812.353 361.452 798.227 367.479C794.013 369.276 789.063 370.894 787.227 371.073L783.888 371.399L783.555 367.899C783.372 365.974 783.514 362.059 783.871 359.199L784.519 354L786.704 350.801L788.888 347.603L794.325 344.549C797.315 342.869 801.815 340.91 804.325 340.195L808.888 338.895L823.888 339.311L838.888 339.726L853.388 342.893ZM632.516 344.563L633.888 346.226L631.638 345.028C629.311 343.788 628.738 342.899 630.266 342.899C630.748 342.899 631.761 343.648 632.516 344.563ZM543.888 348.577C541.688 349.372 536.85 350.663 533.136 351.447L526.384 352.872L520.423 355.881L514.463 358.89L513.426 360.829C512.855 361.895 512.388 363.647 512.388 364.722V366.677L514.21 368.927L516.031 371.176L523.539 371.658L531.047 372.14L536.598 370.526C539.652 369.639 543.113 368.122 544.29 367.156L546.43 365.399L546.865 363.082L547.299 360.764L550.344 357.297C552.018 355.39 553.388 353.249 553.388 352.539C553.388 351.305 549.232 346.773 548.324 347.016C548.084 347.08 546.088 347.782 543.888 348.577ZM638.516 348.563L639.888 350.226L637.638 349.028C635.311 347.788 634.738 346.899 636.266 346.899C636.748 346.899 637.761 347.648 638.516 348.563ZM472.571 356.116L471.388 357.299V356.266C471.388 354.931 472.571 353.748 473.238 354.416C473.522 354.7 473.222 355.465 472.571 356.116ZM427.768 360.351L427.211 361.803L427.858 362.851L428.506 363.899H430.888H433.27L433.982 362.747L434.694 361.596L432.85 360.247C430.451 358.494 428.465 358.534 427.768 360.351ZM518.388 364.958V367.017L517.388 366.399C516.838 366.059 516.388 365.133 516.388 364.34V362.899H517.388H518.388V364.958ZM875.765 370.873L881.643 371.836L891.765 376.481C897.333 379.037 904.588 382.207 907.888 383.526C911.188 384.845 915.886 386.931 918.328 388.162L922.769 390.399L923.214 391.804L923.658 393.21L918.526 392.602C915.703 392.267 901.662 389.045 887.323 385.44C859.105 378.345 837.002 373.917 829.571 373.869L824.888 373.838L826.662 372.805C829.498 371.155 839.779 370.162 855.388 370.032L869.888 369.911L875.765 370.873ZM375.768 375.477C376.802 377.991 379.328 382.173 381.381 384.771L385.114 389.493L385.815 405.946C386.719 427.185 387.939 438.181 390.54 448.553L392.642 456.932L390.105 464.666C388.709 468.919 386.157 478.249 384.434 485.399C382.71 492.549 380.792 500.38 380.171 502.801L379.043 507.203L372.761 513.642L366.478 520.081L364.433 524.306L362.388 528.53V534.015V539.499L363.588 540.699L364.788 541.899H367.448H370.109L373.878 539.342L377.646 536.784L378.908 537.268L380.17 537.753L380.888 544.896L381.605 552.039L379.375 554.413C378.149 555.718 375.63 557.505 373.778 558.384L370.411 559.982L368.568 558.996L366.725 558.009L363.307 551.704L359.888 545.399L359.564 530.899L359.24 516.399L363.315 504.079C368.384 488.748 371.661 475.89 374.446 460.399L376.604 448.399L376.105 434.899L375.606 421.399L373.344 413.399L371.083 405.399L370.986 390.899L370.888 376.399L371.657 373.649C372.729 369.814 373.597 370.2 375.768 375.477ZM691.117 372.503C690.785 372.835 689.922 372.871 689.201 372.582L687.888 372.057L689.805 371.978L691.721 371.899L691.117 372.503ZM497.958 373.786L497.41 374.672L498.853 375.87C500.903 377.571 509.102 379.899 513.047 379.899H516.388V378.938V377.976L512.138 376.888C509.801 376.289 505.895 375.147 503.46 374.349C498.227 372.635 498.643 372.678 497.958 373.786ZM1006.87 377.743L1007.53 382.586L1006.38 388.993L1005.24 395.399L1001.44 403.899C999.358 408.574 995.794 417.712 993.523 424.206L989.394 436.013L987.915 447.706C987.101 454.137 986.312 461.649 986.162 464.399L985.888 469.399L983.687 465.284L981.486 461.17L979.961 451.694L978.436 442.219L979.422 438.809C979.964 436.933 980.833 429.503 981.352 422.297L982.296 409.195L983.643 405.285C984.384 403.135 986.767 398.681 988.939 395.387C991.111 392.094 993.77 387.667 994.848 385.551C996.964 381.398 1004.04 372.899 1005.38 372.899H1006.2L1006.87 377.743ZM568.173 377.982C554.399 379.12 548.623 380.314 534.05 385.035L521.212 389.193L520.692 390.548C520.406 391.294 520.432 392.937 520.749 394.201L521.326 396.499L524.607 398.058C526.411 398.915 531.263 400.424 535.388 401.411C539.513 402.397 550.313 405.171 559.388 407.575C568.463 409.979 580.388 412.92 585.888 414.11L595.888 416.275L611.388 416.337L626.888 416.399L631.876 414.1C634.619 412.836 637.839 410.885 639.031 409.765L641.198 407.729L643.623 409.317L646.048 410.906L646.649 410.305L647.25 409.703L646.668 408.187C646.348 407.352 638.616 401.086 629.487 394.261L612.888 381.853L607.888 380.393C596.506 377.07 586.535 376.464 568.173 377.982ZM441.428 379.351L440.223 380.803L440.843 382.759C441.185 383.834 442.179 384.989 443.053 385.324L444.641 385.934L446.015 384.794C446.77 384.167 447.388 382.825 447.388 381.812V379.969L445.454 378.934C442.977 377.608 442.864 377.62 441.428 379.351ZM849.388 380.943C852.963 381.509 869.613 385.298 886.388 389.364C903.163 393.429 919.465 397.044 922.614 397.396L928.339 398.037L932.351 402.594L936.363 407.152L939.389 413.556C941.053 417.079 943.582 423.884 945.008 428.68L947.602 437.399L947.701 446.399L947.8 455.399L946.131 461.585C943.587 471.016 938.842 482.69 934.657 489.818L930.888 496.237L920.085 507.506L909.281 518.775L901.177 523.974C896.719 526.833 888.53 531.342 882.98 533.993L872.888 538.814L867.444 539.981L861.999 541.148L845.944 540.651L829.888 540.154L818.855 535.653C803.947 529.572 798.168 526.545 790.437 520.769L783.888 515.876L776.175 506.638C771.933 501.556 765.295 492.717 761.425 486.995L754.388 476.591V455.85V435.11L756.48 428.254C758.946 420.174 763.691 410.357 766.729 407.049C767.917 405.756 771.813 402.798 775.388 400.475C778.963 398.152 785.88 393.202 790.759 389.476C795.637 385.75 801.037 382.088 802.759 381.339L805.888 379.977L824.388 379.946L842.888 379.914L849.388 380.943ZM601.883 383.002L606.264 384.105L607.326 387.151C607.91 388.827 608.388 391.232 608.388 392.497C608.388 395.238 603.637 410.639 602.607 411.236C601.825 411.69 584.089 407.836 575.943 405.442L570.888 403.956L569.138 400.846C568.176 399.136 567.388 396.64 567.388 395.3V392.862L569.962 387.94L572.536 383.018L575.212 382.608C576.684 382.383 582.301 382.131 587.695 382.049L597.502 381.899L601.883 383.002ZM814.388 383.056C812.463 383.593 807.067 385.465 802.397 387.216L793.906 390.399L790.301 393.995C788.318 395.973 785.247 399.697 783.477 402.27L780.258 406.949L780.073 409.642L779.888 412.336L783.888 413.705L787.888 415.074L793.62 414.583L799.353 414.092L806.821 410.064C810.928 407.848 816.809 404.173 819.89 401.898L825.49 397.76L826.439 395.265C826.961 393.892 827.388 391.638 827.388 390.257V387.745L824.465 384.822L821.542 381.899L819.715 381.989C818.71 382.039 816.313 382.519 814.388 383.056ZM563.388 384.403C563.388 384.68 562.488 386.585 561.388 388.638L559.388 392.369V396.634V400.899H558.704C558.327 400.899 555.515 400.268 552.454 399.496C549.393 398.724 544.413 397.536 541.388 396.857C538.363 396.177 534.763 395.202 533.388 394.69L530.888 393.758L532.665 392.764C539.412 388.988 563.388 382.463 563.388 384.403ZM501.72 386.792C498.328 387.126 495.208 387.744 494.787 388.166L494.021 388.932L495.031 389.942C495.587 390.498 498.257 391.206 500.965 391.517L505.888 392.081L508.711 390.987L511.534 389.893L511.199 388.158L510.865 386.422L509.377 386.303C508.558 386.238 505.113 386.458 501.72 386.792ZM583.388 388.899C582.288 389.999 581.388 391.249 581.388 391.676C581.388 393.095 584.46 396.867 586.506 397.962L588.522 399.041L590.955 397.447L593.388 395.853V393.449V391.044L590.753 388.972C587.459 386.381 585.921 386.366 583.388 388.899ZM814.042 389.033L812.195 390.106L811.092 389.003L809.988 387.899L812.938 387.929L815.888 387.96L814.042 389.033ZM629.12 398.759L636.352 404.308L634.179 406.622L632.005 408.935L627.015 410.417L622.025 411.899H615.803H609.582L612.859 405.385L616.137 398.87L616.779 394.858L617.42 390.846L619.654 392.027C620.883 392.677 625.142 395.706 629.12 398.759ZM507.616 403.281L503.37 409.74L502.793 412.625L502.216 415.511L503.672 416.72L505.129 417.929L508.715 413.959C510.687 411.775 513.248 408.134 514.404 405.867L516.507 401.745L516.197 399.572L515.888 397.399L513.875 397.111L511.863 396.822L507.616 403.281ZM651.424 414.855L649.961 415.781L650.941 418.569L651.921 421.356L654.366 422.575L656.81 423.794L658.099 422.724C660.036 421.117 659.664 419.084 656.933 416.354C654.238 413.658 653.594 413.483 651.424 414.855ZM821.888 417.976L803.888 419.818L796.008 421.874C786.773 424.282 781.759 426.489 780.994 428.483L780.446 429.912L785.167 434.858L789.888 439.803L797.426 443.283C807.586 447.974 829.229 455.326 843.888 459.066L855.888 462.128L864.888 461.612L873.888 461.096L886.419 457.031L898.951 452.965L901.806 449.985L904.661 447.005V442.788V438.572L902.774 437.157C898.989 434.318 874.713 422.779 868.446 420.839C861.824 418.79 845.447 415.818 841.888 416.021C840.788 416.083 831.788 416.963 821.888 417.976ZM453.388 421.34C453.388 422.133 453.877 423.083 454.475 423.453L455.562 424.125L456.717 422.97L457.871 421.816L456.38 420.873C454.269 419.539 453.388 419.676 453.388 421.34ZM428.531 422.768L427.174 423.649L427.867 425.832L428.56 428.015L431.224 427.707L433.888 427.399V424.899V422.399L431.888 422.143C430.788 422.003 429.277 422.284 428.531 422.768ZM702.027 423.593C700.901 424.719 701.342 425.899 702.888 425.899C703.713 425.899 704.388 425.476 704.388 424.958C704.388 423.697 702.826 422.794 702.027 423.593ZM854.388 424.43C857.963 425.256 862.149 426.438 863.69 427.058L866.492 428.185L866.066 429.296C864.046 434.56 859.388 450.334 859.388 451.911V453.899H861.865H864.342L865.751 451.649C866.525 450.412 868.396 445.574 869.908 440.899C871.42 436.224 872.844 432.067 873.073 431.662L873.49 430.925L880.689 434.521C884.648 436.499 889.333 439.202 891.099 440.529L894.309 442.941L893.788 444.3L893.266 445.659L886.51 448.773C882.794 450.486 876.225 452.79 871.911 453.893L864.068 455.899H859.356H854.644L845.266 453.518C840.108 452.208 832.625 450.164 828.638 448.976L821.388 446.814V441.404V435.993L822.557 433.196C823.199 431.658 825.337 428.756 827.307 426.748L830.888 423.097L839.388 423.013L847.888 422.929L854.388 424.43ZM502.638 424.561L501.388 425.066V426.875V428.685L503.015 429.309L504.641 429.934L506.015 428.794C507.851 427.27 507.753 425.253 505.806 424.506C504.936 424.172 504.149 423.935 504.056 423.978C503.964 424.021 503.326 424.284 502.638 424.561ZM816.388 424.277C816.388 424.485 815.713 426.27 814.888 428.245L813.388 431.835V436.808V441.781L812.434 442.371L811.48 442.96L804.897 439.976C801.277 438.334 796.284 435.62 793.801 433.945L789.288 430.899H787.338H785.388V429.977C785.388 428.551 791.736 426.784 801.764 425.417C811.76 424.056 816.388 423.695 816.388 424.277ZM839.455 428.768C836.916 433.744 836.877 435.127 839.217 437.244L841.045 438.899H843.766C845.263 438.899 847.815 438.212 849.438 437.373L852.388 435.848V432.941V430.035L849.577 428.034C848.031 426.933 845.586 425.736 844.144 425.374L841.522 424.716L839.455 428.768ZM719.852 427.958L719.132 429.123L720.51 429.995C721.268 430.476 722.258 430.875 722.711 430.884L723.535 430.899L723.211 429.232C723.033 428.315 722.367 427.391 721.73 427.179L720.571 426.793L719.852 427.958ZM765.835 428.778C764.214 429.766 762.287 431.303 761.552 432.193L760.216 433.811L760.861 434.855L761.506 435.899H763.812H766.118L768.753 433.826C771.654 431.545 772.076 429.715 770.085 428.063L768.782 426.981L765.835 428.778ZM620.888 433.961C618.138 435.527 612.063 438.015 607.388 439.489C598.64 442.248 596.388 443.407 596.388 445.15V446.157L601.551 445.472C604.391 445.095 610.915 443.441 616.049 441.797L625.384 438.806L628.054 436.51L630.723 434.214L630.087 432.557L629.451 430.899L627.669 431.006C626.69 431.065 623.638 432.395 620.888 433.961ZM920.47 436.332L914.051 437.399L913.637 438.648L913.222 439.898L914.855 440.525L916.488 441.151L922.438 439.888L928.388 438.626V437.321C928.388 435.308 927.38 435.182 920.47 436.332ZM441.388 441.399L440.143 442.899L441.388 444.399L442.633 445.899H444.51H446.388V444.099C446.388 442.316 444.617 439.899 443.31 439.899C442.938 439.899 442.073 440.574 441.388 441.399ZM542.72 443.477L542.115 445.054L543.751 446.691L545.388 448.328L547.025 446.691L548.661 445.054L548.056 443.477L547.451 441.899H545.388H543.325L542.72 443.477ZM574.796 447.277L574.211 448.803L574.858 449.851C575.215 450.427 576.411 450.899 577.517 450.899H579.527L579.208 448.659L578.888 446.419L577.135 446.085L575.382 445.751L574.796 447.277ZM471.055 447.566C470.011 448.609 470.258 449.626 471.969 451.337L473.549 452.917L474.469 452.349C474.974 452.037 475.388 450.956 475.388 449.947V448.113L473.806 447.506C471.848 446.754 471.866 446.754 471.055 447.566ZM522.055 447.566C521.013 448.608 521.257 449.626 522.959 451.328L524.531 452.899H526.9H529.27L529.927 451.836L530.584 450.773L528.831 448.836L527.078 446.899H524.9C523.702 446.899 522.421 447.199 522.055 447.566ZM694.898 448.883L694.27 449.899L694.888 450.899C695.228 451.449 695.929 451.899 696.447 451.899C697.664 451.899 697.672 449.192 696.457 448.442L695.526 447.866L694.898 448.883ZM917.388 450.935L915.888 451.94L918.249 453.919L920.61 455.899H923.499H926.388V454.456V453.012L924.165 451.456C921.607 449.664 919.524 449.504 917.388 450.935ZM716.055 454.566C715.688 454.932 715.388 456.057 715.388 457.066V458.899H717.329C718.397 458.899 719.56 458.429 719.915 457.855L720.56 456.811L719.352 455.355C718.031 453.764 717.083 453.537 716.055 454.566ZM791.735 458.436L791.145 459.973L793.017 462.045C794.046 463.185 798.212 465.942 802.274 468.173C806.336 470.404 813.201 474.855 817.53 478.064C821.858 481.273 826.086 483.899 826.925 483.899H828.451L829.046 482.348L829.641 480.797L827.307 478.313C823.548 474.312 795.994 456.899 793.421 456.899C792.818 456.899 792.06 457.591 791.735 458.436ZM587.75 460.399C587.433 461.224 587.433 462.574 587.75 463.399L588.325 464.899H589.665C590.403 464.899 591.84 464.289 592.859 463.544L594.713 462.188L594.082 460.544L593.451 458.899H590.888H588.325L587.75 460.399ZM540.697 461.535L540.07 463.171L541.088 464.785L542.106 466.399H544.983H547.861L548.186 464.707L548.512 463.015L545.5 461.457C541.747 459.516 541.47 459.52 540.697 461.535ZM907.987 461.739L907.468 462.579L909.269 465.937C910.26 467.785 911.755 469.728 912.593 470.257L914.116 471.217L915.752 470.59L917.388 469.962V468.353V466.745L914.465 463.822L911.542 460.899H910.024C909.189 460.899 908.272 461.277 907.987 461.739ZM612.834 465.986L612.162 467.073L613.275 468.186L614.388 469.299L615.501 468.186L616.614 467.073L615.942 465.986C615.572 465.388 614.873 464.899 614.388 464.899C613.903 464.899 613.204 465.388 612.834 465.986ZM687.493 470.272L686.353 471.646L686.963 473.234C687.298 474.108 688.427 475.094 689.471 475.425L691.37 476.028L692.379 475.405C694.687 473.978 692.681 468.899 689.81 468.899C689.163 468.899 688.12 469.517 687.493 470.272ZM567.745 471.412L567.164 472.924L568.439 474.46L569.713 475.996L571.722 475.697C572.827 475.533 573.899 474.889 574.104 474.265L574.477 473.131L572.861 471.515C571.972 470.626 570.588 469.899 569.785 469.899H568.325L567.745 471.412ZM980.244 473.649C981.287 475.712 982.897 480.748 983.82 484.841L985.499 492.282L984.876 496.341C984.014 501.963 978.56 519.641 976.355 523.964C975.354 525.927 973.755 528.178 972.802 528.966L971.069 530.399L971.764 518.745C972.146 512.335 973.096 502.842 973.875 497.649C974.655 492.456 975.604 484.087 975.984 479.053L976.675 469.899H977.511C977.971 469.899 979.201 471.587 980.244 473.649ZM778.912 473.859L778.259 474.917L778.891 476.908L779.523 478.899H780.955H782.388V477.021V475.144L780.977 473.973L779.566 472.802L778.912 473.859ZM464.711 478.5L464.097 480.101L465.492 480.985C466.26 481.471 468.126 481.875 469.638 481.884L472.388 481.899V480.97C472.388 480.46 471.681 479.335 470.817 478.47L469.245 476.899H467.285H465.325L464.711 478.5ZM715.666 486.021L714.544 487.143L715.073 488.521C715.791 490.392 718.034 490.264 718.784 488.309C719.896 485.412 717.807 483.88 715.666 486.021ZM663.498 489.266L662.363 490.634L663.832 491.852L665.3 493.071L666.344 492.426C666.918 492.071 667.388 490.908 667.388 489.84V487.899H666.01C665.253 487.899 664.122 488.514 663.498 489.266ZM718.493 493.703L717.528 495.507L718.422 496.953L719.316 498.399L720.989 496.727L722.661 495.054L722.056 493.477C721.251 491.379 719.683 491.479 718.493 493.703ZM265.388 497.899L263.388 499.899L263.403 503.149C263.422 507.055 264.356 508.699 267.435 510.239L269.753 511.399L272.702 516.399C276.749 523.261 281.388 531.859 286.309 541.618L290.454 549.836L293.913 551.478L297.373 553.12L299.88 552.49L302.388 551.861V549.074V546.288L299.809 542.843C298.391 540.949 296.085 537.149 294.685 534.399C291.155 527.465 281.931 511.714 276.742 503.76L272.41 497.122L270.817 496.51C268.324 495.554 267.531 495.756 265.388 497.899ZM749.055 500.566C747.047 502.574 750.459 523.75 754.127 532.042L756.076 536.448L761.594 542.424C767.498 548.817 770.083 553.248 772.859 561.733L774.604 567.067L773.979 570.233L773.354 573.399L769.743 578.658L766.133 583.916L761.299 587.464L756.466 591.012L752.677 591.594C748.766 592.195 746.388 593.491 746.388 595.021V595.899H753.692H760.996L765.442 593.061C767.887 591.5 771.835 588.098 774.214 585.501L778.539 580.78L780.442 576.589L782.344 572.399L782.366 567.579L782.388 562.76L779.242 555.204L776.097 547.648L769.64 540.023L763.184 532.399L761.284 528.251C760.24 525.97 758.477 519.69 757.367 514.296L755.349 504.488L753.845 502.194L752.342 499.899H751.032C750.311 499.899 749.421 500.199 749.055 500.566ZM786.055 500.566C785.688 500.932 785.388 502.009 785.388 502.959V504.685L787.066 505.329L788.743 505.972L790.202 504.513L791.661 503.054L791.056 501.477L790.451 499.899H788.586C787.56 499.899 786.421 500.199 786.055 500.566ZM887.561 502.558L887.915 504.399H889.402H890.888V502.913V501.426L889.047 501.072L887.206 500.717L887.561 502.558ZM518.931 504.83L518.355 505.761L519.372 506.389L520.388 507.017L521.404 506.389L522.421 505.761L521.845 504.83C521.529 504.318 520.873 503.899 520.388 503.899C519.903 503.899 519.247 504.318 518.931 504.83ZM840.388 507.193L837.888 508.458V510.415V512.372L839.822 512.744L841.756 513.116L843.072 511.317C844.494 509.372 844.859 505.89 843.638 505.914C843.225 505.922 841.763 506.498 840.388 507.193ZM629.741 510.788C620.809 514.313 616.326 517.022 609.561 522.985L604.235 527.68L601.561 528.22C597.756 528.989 587.162 536.072 581.806 541.428L577.25 545.985L577.652 547.192C577.873 547.856 578.791 548.542 579.691 548.717L581.329 549.034L586.109 544.611C592.409 538.78 600.247 532.899 601.715 532.901L602.888 532.902L603.075 538.28C603.301 544.778 605.62 554.078 607.87 557.511L609.514 560.021L611.201 559.688L612.888 559.355L612.771 555.377C612.707 553.189 612.304 546.833 611.876 541.252L611.098 531.106L615.736 526.599L620.373 522.092L630.334 516.976C635.812 514.162 640.598 511.368 640.969 510.767L641.644 509.675L640.266 508.803C638.283 507.547 637.656 507.665 629.741 510.788ZM852.834 511.986L852.162 513.073L853.275 514.186L854.388 515.299L855.501 514.186L856.614 513.073L855.942 511.986C855.572 511.388 854.873 510.899 854.388 510.899C853.903 510.899 853.204 511.388 852.834 511.986ZM813.884 513.906L813.261 514.913L814.777 515.495L816.292 516.076L817.356 515.419L818.421 514.761L817.845 513.83C817.082 512.595 814.665 512.641 813.884 513.906ZM725.452 515.838L724.017 516.747L725.325 518.323C726.649 519.918 729.528 520.425 730.686 519.268L731.318 518.636L730.318 516.768C729.225 514.727 727.676 514.431 725.452 515.838ZM881.076 515.545C880.697 515.923 880.388 516.865 880.388 517.639V519.046L882.138 518.709L883.888 518.372V516.969C883.888 515.39 882.124 514.497 881.076 515.545ZM379.388 521.557V525.214L375.177 530.673L370.965 536.131L370.576 534.962C370.361 534.318 370.462 532.32 370.799 530.522L371.412 527.252L374.378 522.576C376.009 520.003 377.804 517.899 378.366 517.899H379.388V521.557ZM947.388 519.972V522.046L949.127 521.711L950.865 521.376L951.2 519.638L951.535 517.899H949.461H947.388V519.972ZM929.724 531.466L929.122 533.033L930.255 534.166L931.388 535.299L932.521 534.166L933.654 533.033L933.052 531.466C932.721 530.604 931.973 529.899 931.388 529.899C930.803 529.899 930.055 530.604 929.724 531.466ZM793.493 541.272L792.353 542.646L792.963 544.234C793.298 545.108 794.427 546.094 795.471 546.425L797.37 547.028L798.379 546.405C798.934 546.062 799.388 544.923 799.388 543.875V541.969L797.454 540.934C794.989 539.615 794.859 539.626 793.493 541.272ZM758.638 547.561L757.388 548.066L757.364 553.732C757.35 556.849 756.887 561.358 756.335 563.753L755.331 568.107L752.828 571.389C751.451 573.194 748.552 575.9 746.385 577.401L742.445 580.131L739.213 578.085L735.982 576.039L738.685 575.361L741.388 574.682V573.407V572.132L739.521 571.644C736.614 570.884 727.977 572.545 722.685 574.882C720.047 576.047 714.288 579.391 709.888 582.313C700.836 588.323 696.899 589.899 690.935 589.899H686.781L681.533 587.284L676.285 584.669L675.622 585.332L674.959 585.995L676.014 587.697C676.594 588.633 678.828 590.271 680.978 591.338L684.888 593.277L694.135 593.338L703.383 593.399L703.385 594.045C703.39 595.248 696.357 600.874 692.193 602.999L688.053 605.111L681.777 604.711L675.501 604.311L673.557 602.552C672.488 601.585 670.437 598.17 668.998 594.965L666.382 589.136L665.754 584.556L665.127 579.975L667.757 578.777L670.388 577.578V575.272V572.966L666.968 569.546L663.548 566.125L658.971 564.378L654.395 562.63L647.517 563.122L640.64 563.614L636.833 565.506C634.739 566.547 632.555 568.174 631.979 569.121L630.933 570.844L632.214 572.121L633.496 573.399L635.192 571.2C636.125 569.991 638.155 568.529 639.703 567.95L642.518 566.899H647.503H652.487L655.305 568.356L658.122 569.813L658.619 580.106L659.116 590.399L661.179 595.708C662.313 598.628 664.463 602.619 665.956 604.577L668.671 608.137L673.197 610.139L677.722 612.141L684.86 611.682L691.997 611.224L697.618 608.651L703.238 606.078L707.765 601.906L712.292 597.733L714.84 592.62C716.241 589.807 717.388 586.79 717.388 585.914V584.322L722.849 581.012L728.31 577.702L731.585 577.551L734.86 577.399L734.922 580.265L734.984 583.131L736.707 584.39C737.655 585.083 740.222 585.937 742.412 586.287L746.394 586.924L749.641 585.543C751.427 584.784 754.988 582.298 757.554 580.02L762.22 575.877L764.804 570.692L767.388 565.506V559.653V553.8L765.925 550.971C764.091 547.423 761.724 546.316 758.638 547.561ZM923.396 548.873L921.905 549.816L923.073 550.984L924.242 552.153L926.815 551.507L929.388 550.861V549.38V547.899L927.138 547.914C925.901 547.923 924.217 548.354 923.396 548.873ZM308.946 553.149C308.737 553.837 308.066 556.548 307.456 559.175L306.346 563.952L307.428 565.973L308.51 567.995L310.993 568.939C312.359 569.458 314.542 570.151 315.845 570.478L318.215 571.072L320.301 568.986L322.388 566.899V563.943V560.988L319.828 557.215C316.724 552.641 315.694 551.934 312.107 551.914L309.325 551.899L308.946 553.149ZM900.09 555.53L899.458 556.162L900.458 558.03L901.458 559.899H902.864C903.637 559.899 904.56 559.429 904.915 558.855L905.56 557.811L904.352 556.355C903.086 554.83 901.163 554.458 900.09 555.53ZM861.815 558.664C861.225 559.068 860.468 560.143 860.134 561.052L859.525 562.705L860.773 564.411L862.02 566.116L863.954 565.748L865.888 565.379L866.215 563.084L866.542 560.789L865.342 559.344C863.997 557.723 863.367 557.601 861.815 558.664ZM575.388 562.025C566.965 565.957 552.585 571.694 539.388 576.387L528.888 580.12L520.612 585.649L512.336 591.177L509.348 594.95C505.619 599.657 503.388 604.897 503.388 608.944V612.053L506.413 615.078L509.438 618.103L510.913 616.878L512.388 615.654V611.482V607.311L515.638 601.887L518.888 596.463L526.155 590.876L533.422 585.289L537.155 583.984C547.15 580.491 571.65 570.317 577.737 567.131L584.586 563.547L585.133 562.122L585.679 560.697L584.284 559.813C582.443 558.648 582.828 558.552 575.388 562.025ZM197.633 561.149C197.083 561.837 196.321 563.415 195.941 564.657L195.248 566.914L198.39 575.06C200.117 579.54 202.624 585.47 203.959 588.239C205.295 591.008 206.388 593.668 206.388 594.15C206.388 594.632 208.638 599.737 211.388 605.496C214.138 611.254 216.388 616.392 216.388 616.913C216.388 617.435 217.684 620.682 219.268 624.13C220.852 627.578 223.336 633.015 224.788 636.212L227.428 642.025L226.847 642.966L226.265 643.907L224.069 641.153C220.566 636.762 215.388 629.136 215.388 628.369C215.388 627.983 213.813 625.521 211.888 622.899C209.963 620.277 208.388 617.858 208.388 617.525C208.388 616.748 200.396 604.612 196.45 599.399C194.785 597.199 193.108 594.724 192.723 593.899C192.338 593.074 190.679 590.712 189.038 588.649L186.053 584.899H183.199H180.345L179.252 587.297L178.16 589.696L179.666 594.547C180.494 597.216 181.924 602.999 182.843 607.399C183.763 611.799 184.928 616.167 185.433 617.105C185.937 618.044 186.645 620.744 187.006 623.105C187.366 625.467 187.996 627.849 188.406 628.399C188.816 628.949 189.392 630.974 189.686 632.899C190.287 636.827 192.244 644.366 193.449 647.399C193.886 648.499 194.538 651.175 194.898 653.346C195.894 659.355 202.129 677.982 204.371 681.649L206.359 684.899H207.939C208.808 684.899 210.39 684.433 211.454 683.864L213.388 682.829V679.398C213.388 677.511 212.767 674.489 212.008 672.683C210.162 668.291 208.388 662.555 208.388 660.979C208.388 660.276 207.779 658.283 207.035 656.55C205.607 653.222 202.142 641.439 199.641 631.399C198.819 628.099 197.751 624.618 197.267 623.663C196.151 621.458 196.16 620.899 197.313 620.899C198.057 620.899 207.401 633.551 215.319 645.28C218.056 649.335 225.913 657.118 229.772 659.598L233.656 662.093L236.049 660.813L238.442 659.532L239.049 657.113L239.656 654.694L239.012 647.768C238.658 643.958 237.938 640.066 237.412 639.12C236.886 638.173 235.05 633.799 233.333 629.399C231.616 624.999 229.38 619.599 228.365 617.399C227.349 615.199 226.199 612.278 225.809 610.907L225.1 608.415L226.83 609.851C227.781 610.64 229.492 613.337 230.632 615.843C231.772 618.349 234.408 622.709 236.49 625.532L240.275 630.664L243.284 631.713L246.293 632.762L248.84 630.758L251.388 628.754V626.519V624.284L247.138 621.279L242.888 618.274L236.638 606.653C233.201 600.262 230.388 594.553 230.388 593.966C230.388 593.379 230.05 592.891 229.638 592.88C229.226 592.87 227.538 590.628 225.888 587.899C224.238 585.17 222.55 582.928 222.138 582.918C221.726 582.907 221.388 582.423 221.388 581.84C221.388 580.307 215.873 573.347 208.954 566.149L202.946 559.899H200.789H198.633L197.633 561.149ZM799.452 562.322L798.216 563.811L798.861 564.855C799.216 565.429 800.411 565.899 801.517 565.899H803.527L803.208 563.727C803.032 562.533 802.393 561.393 801.788 561.194L800.688 560.832L799.452 562.322ZM877.768 562.351C877.462 563.15 877.476 564.233 877.8 564.757L878.39 565.711L880.389 565.188L882.388 564.666V563.389C882.388 562.687 881.676 561.84 880.806 561.506C878.596 560.658 878.396 560.713 877.768 562.351ZM825.298 564.507L823.963 566.115L825.867 567.507C828.116 569.152 829.054 569.249 829.875 567.92L830.48 566.94L829.399 564.92C828.093 562.479 827.067 562.376 825.298 564.507ZM253.318 568.716C251.904 569.536 249.992 571.525 249.068 573.134L247.388 576.061V585.546V595.03L248.441 596.998L249.494 598.965L248.247 602.412L247.001 605.858L249.369 608.379L251.737 610.899H253.368C254.265 610.899 256.517 612.019 258.372 613.387L261.744 615.875L264.969 616.48L268.194 617.085L271.786 615.38L275.379 613.675L278.948 607.8L282.517 601.926L282.202 598.662L281.888 595.399H277.388H272.888L272.588 597.496L272.289 599.593L269.348 602.996L266.407 606.399L264.331 603.956L262.255 601.514L262.83 599.456C263.145 598.325 264.118 594.024 264.992 589.899L266.58 582.399L265.327 577.162L264.075 571.926L262.48 570.482C261.602 569.688 259.76 568.63 258.386 568.131L255.888 567.224L253.318 568.716ZM907.935 570.823L907.296 571.858L908.377 573.878L909.458 575.899H910.99H912.521L912.204 573.158L911.888 570.416L910.231 570.102L908.574 569.788L907.935 570.823ZM552.896 631.885L552.162 633.073L553.025 633.907C553.5 634.365 560.188 637.511 567.888 640.897L581.888 647.054L585.138 650.173C586.925 651.888 589.584 655.017 591.046 657.128L593.705 660.964L602.978 667.385C608.078 670.916 615.543 675.463 619.567 677.489L626.883 681.173L640.136 685.535L653.39 689.896L662.639 691.342C667.726 692.138 680.581 693.336 691.205 694.006L710.523 695.224L727.705 693.995L744.888 692.767L754.536 690.835C765.688 688.601 783.016 682.826 789.042 679.334C794.765 676.018 803.545 667.819 808.867 660.821L813.315 654.972L812.306 654.348L811.296 653.724L806.481 654.386L801.667 655.048L788.277 653.534C780.913 652.7 769.938 651.515 763.888 650.9C757.838 650.284 750.638 649.141 747.888 648.36C745.138 647.578 737.038 645.987 729.888 644.825L716.888 642.71L708.388 643.449C703.713 643.856 696.063 644.175 691.388 644.16L682.888 644.131L669.516 639.544L656.145 634.957L646.016 633.98L635.888 633.004L597.612 632.421C576.561 632.101 558.053 631.582 556.484 631.268L553.631 630.698L552.896 631.885ZM802.547 632.498L802.911 634.399L813.9 638.632C827.166 643.742 837.426 648.841 838.698 650.956L839.635 652.514L835.963 660.866L832.291 669.217L832.589 671.308L832.888 673.399L835.639 673.716L838.39 674.032L842.889 664.788L847.388 655.544V652.409V649.273L844.638 646.638L841.887 644.003L833.388 640.034C822.704 635.044 813.474 631.933 807.118 631.181L802.183 630.596L802.547 632.498ZM654.14 638.937L660.329 639.933L672.109 644.044L683.888 648.155L693.388 648.224C698.613 648.262 705.588 647.948 708.888 647.525L714.888 646.757L725.888 648.744C731.938 649.837 741.163 651.652 746.388 652.777L755.888 654.822L771.888 656.39C780.688 657.253 789.384 658.226 791.213 658.554L794.537 659.15L793.491 660.196L792.444 661.243L755.166 661.716L717.888 662.188L691.388 661.025C676.813 660.385 659.428 659.404 652.754 658.844L640.619 657.827L626.693 654.962C608.62 651.243 600.405 648.75 587.496 643.064L576.933 638.411L579.91 637.695L582.888 636.979L615.42 637.459L647.951 637.94L654.14 638.937ZM607.692 655.802C613.85 657.398 625.188 659.862 632.888 661.276L646.888 663.848L675.388 665.123L703.888 666.399L744.388 666.329L784.888 666.259L790.374 665.513L795.86 664.767L793.404 667.382C792.053 668.82 788.684 671.494 785.918 673.323L780.888 676.648L771.147 680.287C765.789 682.288 757.689 684.82 753.147 685.914L744.888 687.903L725.595 689.47L706.302 691.036L685.595 689.434C661.427 687.564 651.615 685.942 639.096 681.748C626.22 677.434 620.396 674.701 612.119 669.091C608.142 666.395 603.208 663.192 601.154 661.973C597.484 659.794 593.388 655.464 593.388 653.764C593.388 652.376 595.812 652.722 607.692 655.802ZM672.531 723.931C670.135 724.426 667.537 725.361 666.757 726.008L665.34 727.184L665.948 727.792C666.282 728.126 670.456 728.257 675.222 728.084L683.888 727.769L692.644 728.79L701.399 729.81L704.885 731.465L708.372 733.119L709.88 732.54L711.388 731.962V730.053C711.388 729.003 710.791 727.648 710.061 727.042L708.733 725.941L701.811 725.003C698.003 724.487 690.838 723.832 685.888 723.548L676.888 723.031L672.531 723.931ZM983.055 778.566C982.688 778.932 982.388 779.727 982.388 780.331V781.43L987.138 783.136C989.75 784.074 997.513 788.047 1004.39 791.963C1017.39 799.371 1032.46 806.563 1052.84 815.083C1068.38 821.58 1079.4 827.153 1093.47 835.625C1099.75 839.408 1108.94 844.69 1113.89 847.364C1118.84 850.038 1130.22 856.434 1139.18 861.577C1164.45 876.086 1205.14 895.888 1217.89 899.887C1221.84 901.128 1232.13 906.657 1248.16 916.155C1258.22 922.121 1276.63 930.899 1279.08 930.899C1280.06 930.899 1283.19 932.078 1286.04 933.519L1291.22 936.139L1294.76 939.769L1298.3 943.399L1301.1 950.388L1303.91 957.377L1305.76 957.732L1307.6 958.087L1308.52 957.17L1309.43 956.254L1307.35 949.513L1305.27 942.773L1301.78 938.906C1299.85 936.78 1296.15 933.673 1293.55 932.003L1288.82 928.967L1281.85 926.818C1273.65 924.286 1267.15 921.103 1250.92 911.666C1235.27 902.559 1226.64 898.279 1211.05 891.88C1194.85 885.229 1168.42 871.879 1145.03 858.524C1135.05 852.829 1121.49 845.131 1114.89 841.416C1108.29 837.702 1098.47 831.988 1093.06 828.72C1082.47 822.314 1079.09 820.688 1046.39 806.222L1024.89 796.713L1010.18 788.721C993.617 779.719 985.092 776.528 983.055 778.566ZM891.799 786.649C892.132 789.812 892.856 799.965 893.406 809.211C894.498 827.55 895.019 830.634 899.472 845.127L902.46 854.855L903.49 877.795L904.52 900.736L903.46 906.465L902.401 912.194L897.513 922.427C894.825 928.055 890.827 935.301 888.628 938.529L884.631 944.399L875.26 953.438C865.975 962.394 857.605 968.899 855.368 968.899H854.208L862.424 960.149C875.414 946.315 884.585 932.309 887.331 922.112L888.471 917.876L886.376 913.137L884.282 908.399L876.085 900.157C871.577 895.624 866.044 889.999 863.79 887.657C861.535 885.315 858.745 882.724 857.588 881.899L855.485 880.399L853.867 871.399L852.249 862.399L851.233 845.106L850.218 827.813L855.053 822.337C867.438 808.308 878.96 794.767 884.145 788.149C887.269 784.162 890.133 780.899 890.508 780.899C890.884 780.899 891.465 783.486 891.799 786.649ZM1137.85 914.966C1136.88 916.53 1137.48 916.858 1146.07 919.464C1150.37 920.769 1159.74 923.857 1166.89 926.327L1179.89 930.817L1190.24 931.858L1200.6 932.899H1222.35H1244.09L1254.49 935.499L1264.89 938.099L1269.81 940.749L1274.73 943.399L1278.71 948.399C1280.9 951.149 1283.72 955.649 1284.98 958.399L1287.27 963.399L1288.27 969.899C1288.82 973.474 1289.49 978.031 1289.75 980.025L1290.22 983.651L1281.85 989.336C1277.25 992.463 1271.05 997.451 1268.08 1000.42L1262.69 1005.82L1247.16 1027.61C1227.79 1054.8 1224.8 1059.5 1220.74 1069.13L1217.48 1076.85L1214.49 1089.13C1212.84 1095.88 1210.99 1105.18 1210.37 1109.81L1209.25 1118.21L1209.94 1128.31L1210.63 1138.4L1211.96 1141.65L1213.29 1144.9H1216.09H1218.89L1218.93 1125.15L1218.98 1105.4L1223.14 1089.5L1227.3 1073.61L1229.81 1068.5C1235.5 1056.94 1264.64 1015.08 1274.22 1004.72L1279.55 998.956L1285.58 994.927L1291.62 990.899H1294.44H1297.25L1297.94 988.649C1298.31 987.412 1299.51 985.42 1300.61 984.223L1302.6 982.047L1301.93 980.973C1301.57 980.382 1300.4 979.899 1299.33 979.899C1298.26 979.899 1297.37 979.787 1297.34 979.649C1297.31 979.511 1296.68 975.424 1295.94 970.566L1294.58 961.733L1291.5 955.474L1288.42 949.215L1284.35 944.594L1280.28 939.972L1274.08 936.955L1267.89 933.937L1258.39 931.336L1248.89 928.736L1228.16 928.854L1207.43 928.971L1196.78 927.888L1186.14 926.806L1172.01 922.278C1157.81 917.727 1143.34 913.919 1140.2 913.906C1139.27 913.902 1138.21 914.379 1137.85 914.966ZM350.671 946.149C358.367 963.316 362.625 979.763 366.445 1007.08L368.638 1022.75L368.001 1026.15L367.363 1029.55L365.285 1031.78L363.207 1034.01L360.919 1032.51L358.63 1031.01L354.939 1032.15L351.247 1033.28L347.82 1031.43L344.392 1029.59L340.476 1024.49C338.322 1021.69 331.533 1014 325.39 1007.4L314.221 995.399L311.929 990.899C310.668 988.424 309.131 984.014 308.512 981.1L307.388 975.801V968.003V960.206L308.98 957.016C309.855 955.261 311.599 953.152 312.854 952.329L315.137 950.833L324.05 949.502L332.963 948.17L335.925 946.62C337.555 945.767 340.439 943.456 342.334 941.484C344.23 939.512 346.049 937.899 346.377 937.899C346.704 937.899 348.637 941.612 350.671 946.149ZM146.388 1062.95L140.888 1064.78L123.334 1064.84L105.78 1064.9L101.334 1067.73C98.889 1069.28 96.25 1071.33 95.471 1072.28L94.055 1074.01V1077.11V1080.21L97.237 1083.06C100.814 1086.25 102.574 1086.59 104.378 1084.41L105.613 1082.92L103.751 1082.34C100.641 1081.36 99.073 1080.35 97.96 1078.58L96.898 1076.9L97.987 1075.15C98.586 1074.19 100.525 1072.41 102.296 1071.21L105.516 1069.01L123.202 1069.59L140.888 1070.17L142.094 1071.12L143.3 1072.07L144.594 1071.24C145.306 1070.78 147.645 1069.95 149.792 1069.4L153.696 1068.4L154.787 1066.65L155.878 1064.9L154.811 1063.21C153.342 1060.88 152.663 1060.86 146.388 1062.95ZM885.665 1065.83L882.442 1067.84L881.842 1070.23L881.242 1072.61L882.868 1076.51C884.915 1081.41 888.945 1085.74 893.106 1087.52L896.324 1088.9H901.821H907.318L910.904 1085.75C912.877 1084.02 915.142 1081.34 915.939 1079.8L917.388 1077V1072.6V1068.21L915.286 1066.3L913.184 1064.4L901.036 1064.11L888.888 1063.82L885.665 1065.83ZM156.372 1070.66C152.806 1072.73 146.592 1075.93 142.564 1077.77L135.239 1081.12L123.118 1082.08L110.996 1083.04L107.692 1084.42L104.388 1085.8V1086.96V1088.12L108.138 1087.48C110.201 1087.13 116.838 1086.46 122.888 1085.99L133.888 1085.13L137.888 1083.64C143.844 1081.43 164.743 1070.88 166.348 1069.27C166.808 1068.81 164.453 1066.95 163.372 1066.91C163.088 1066.91 159.938 1068.59 156.372 1070.66ZM907.385 1069.9L909.564 1071.06L908.907 1073.73L908.25 1076.4L905.13 1079.64C903.414 1081.43 901.173 1083.15 900.151 1083.47L898.292 1084.06L896.792 1082.82L895.291 1081.57L895.59 1079.53L895.888 1077.48L898.314 1076.91L900.74 1076.34L901.147 1075.12L901.554 1073.9L899.953 1073.29L898.352 1072.67L895.25 1073.96L892.148 1075.24L890.929 1078.14L889.71 1081.04L888.049 1078.5L886.388 1075.97V1073.09V1070.21L888.638 1069.05L890.888 1067.9L898.047 1068.32L905.206 1068.73L907.385 1069.9ZM735.382 1108.81C730.631 1110.3 726.676 1112.81 723.638 1116.27L720.591 1119.74L719.898 1123.84L719.206 1127.94L719.912 1133.07L720.618 1138.21L723.201 1140.6L725.785 1143L729.297 1142.7L732.809 1142.4L733.371 1139.99L733.933 1137.59L735.411 1136.82C736.223 1136.4 739.047 1135.5 741.685 1134.83L746.482 1133.61L748.935 1131.68L751.388 1129.75V1126.02V1122.29L748.866 1117.23C745.947 1111.37 743.884 1109.26 740.388 1108.54L737.888 1108.03L735.382 1108.81ZM740.015 1117.9C741.184 1120.37 742.437 1123.36 742.799 1124.54L743.456 1126.69L739.106 1128.79C736.714 1129.95 733.933 1130.9 732.926 1130.9H731.096L733.702 1128.48L736.307 1126.07L736.974 1123.41L737.642 1120.75L736.536 1118.33L735.431 1115.9H734.064C733.313 1115.9 731.896 1116.79 730.916 1117.87L729.133 1119.84L729.228 1124.58L729.323 1129.31L727.697 1131.11L726.071 1132.91L727.208 1135.4L728.345 1137.9H726.902H725.458L724.423 1135.97L723.388 1134.03V1127.79V1121.56L727.967 1117.17L732.546 1112.78L735.217 1113.09L737.888 1113.4L740.015 1117.9Z" fill="black"/>
</svg>
