<svg width="567" height="449" viewBox="0 0 567 449" fill="none" xmlns="http://www.w3.org/2000/svg">
<path fill-rule="evenodd" clip-rule="evenodd" d="M148.5 33L198.5 11H232L267 22L302 27L359 47.5L437.5 7.5L476 0L519.5 11H548.5L567 22L548.5 36.5L529.5 42.5L442.5 157.5L417 178L400 184L385.5 254L359 277L342 285.5V350.5L314 379.5L297.5 402.5L281.557 408.333L270.5 434L260 443.5L247.5 448L216.5 449L202 439.5L191 425L185.116 397.682L161 389L134 350.5L127 301L134 272L111.5 254L98 209L103.5 159.5L94.5 156.5L87.5 147L70.5 138.5L55 117L43.5 94.5L40 80.5L30 70L0 77.5L11.5 49.5L30 36.5H71.5L106.5 27L148.5 33ZM423 37.5L473 19L520 32L486.5 59.5L455.5 77.5L476.5 87.5L465 107.5L442 138.5L419 158L401 126V107.5L409 91L399 79.5L411.5 71L398.5 64.5L423 37.5ZM48 80L38 66.5L53.5 74.5L65 66.5L78.5 73L82 87L101 97.5L105 112L90 128.5L73.5 123L66 112.5L75.5 103L51.5 93.5L48 80ZM257 358.5L248 359.5L243.5 363L241.5 368.5L248 373L258 372.5L270 362L262.5 365L261 361.5L257 358.5ZM213.5 354L205.5 353.111L201.5 356.111H199L192.5 353.111L203 362.5L212.5 367.5L219 364.5L218 357.5L213.5 354ZM225 398L229 389.5L232.5 400L252.5 405.5L270 408L264 409.5L231 402.5L228.5 401L224 402.5L207.5 403.5L195 400H221.5L225 398ZM324 189L336 190.5L351 185L349 189L342 193.5L335.5 195.5L326 194.5L319.5 199.5L310 207.5L316.5 197L324 189ZM166 178L170.5 180L176 185L179.5 194.5L174 188.5L166.5 182L159 181.5L153 180L147 177L145 173L155 177L166 178ZM186.5 283.5L229.5 261.5L246 197.5L251 98.5L257.5 75.5L264 98.5L261.5 217L259 264L315.5 315L319 354.5L297.5 382L272 387L279.5 363V332L263.5 319L251 323.5L220 324.5L205.5 315L182 324.5V349.5L194.5 374L165.5 376.5L150 347L157 319L186.5 283.5Z" fill="#D9D9D9"/>
</svg>
