<svg width="1065" height="1126" viewBox="0 0 1065 1126" fill="black" xmlns="http://www.w3.org/2000/svg">
<path fill-rule="evenodd" clip-rule="evenodd" d="M33.853 0.213871C10.3504 1.56255 4.89721 2.73114 2.21774 6.99666C-0.151914 10.7683 -0.63558 93.2902 0.829322 243.99C1.97822 362.271 3.15261 419.201 5.65902 478.172C6.06542 487.737 6.40151 506.17 6.40538 519.135C6.41233 545.68 4.52094 611.652 3.24765 629.27C2.77016 635.87 2.11189 685.138 1.71862 743.656C1.33926 800.192 0.826232 851.349 0.579763 857.337L0.131639 868.224L2.1876 870.669C4.42359 873.327 6.45792 873.777 7.97536 871.948C8.81289 870.939 9.42094 871.223 12.5122 874.073C14.4762 875.883 17.6077 879.103 19.4721 881.229C21.3356 883.354 27.2972 889.788 32.7195 895.527C38.1411 901.266 43.9636 907.7 45.6572 909.825C47.3516 911.951 51.9472 916.994 55.8706 921.032C72.7108 938.366 86.7664 953.71 93.3917 961.995C97.3019 966.883 101.446 971.752 102.603 972.815C103.76 973.878 108.848 979.686 113.91 985.722C118.973 991.759 123.46 996.911 123.882 997.172C124.304 997.433 126.524 1000.15 128.815 1003.2C131.106 1006.25 136.469 1012.29 140.732 1016.62C144.995 1020.95 150.107 1026.51 152.091 1028.99C154.076 1031.46 156.099 1033.83 156.586 1034.26C157.074 1034.68 158.473 1036.37 159.694 1038C163.615 1043.25 171.227 1051.01 176.819 1055.45C179.81 1057.82 185.096 1062.94 188.566 1066.82C192.035 1070.7 196.227 1074.95 197.88 1076.26C199.533 1077.57 201.698 1079.82 202.691 1081.27C203.684 1082.72 207.636 1086.65 211.472 1090C217.884 1095.6 232.377 1109.86 241.633 1119.69C249.712 1128.27 255.996 1128.1 260.227 1119.18C261.75 1115.97 261.216 1114.8 255.455 1108.76C251.367 1104.47 251.336 1104.4 252.49 1102.19C253.132 1100.96 253.658 1098.29 253.661 1096.26C253.666 1092.73 253.742 1092.6 255.3 1093.43C257.434 1094.57 262.439 1093.23 268.732 1089.82C271.281 1088.44 278.163 1085.2 284.025 1082.61C289.887 1080.03 295.45 1077.44 296.387 1076.85C297.324 1076.26 300.004 1075.35 302.341 1074.81C304.678 1074.28 310.955 1071.53 316.29 1068.7C325.45 1063.84 342.879 1056.38 351.403 1053.67C353.528 1053 359.798 1050.91 365.338 1049.03C370.878 1047.16 378.527 1045.04 382.336 1044.33C390.873 1042.74 413.126 1037.27 414.959 1036.31C415.699 1035.92 419.482 1034.87 423.368 1033.96C427.253 1033.06 432.642 1031.49 435.344 1030.47C438.045 1029.46 447.209 1027.03 455.708 1025.08C475.514 1020.54 510.108 1011.5 522.54 1007.63C527.852 1005.97 539.847 1002.49 549.196 999.888C558.545 997.288 571.409 993.558 577.783 991.597C584.157 989.636 591.458 987.517 594.008 986.887C596.558 986.257 601.599 984.921 605.211 983.917C608.823 982.913 615.429 981.216 619.891 980.146C624.353 979.077 630.959 977.472 634.571 976.578C646.407 973.652 654.105 972.053 665.476 970.157C671.638 969.13 682.59 966.677 689.814 964.704C714.9 957.857 730.073 953.51 745.057 948.877C753.343 946.316 763.238 943.674 767.045 943.008C770.853 942.341 779.197 940.111 785.588 938.05C791.98 935.99 799.469 933.73 802.231 933.027C804.994 932.325 811.078 930.571 815.752 929.13C820.427 927.689 829.467 925.094 835.841 923.363C842.215 921.632 853.688 918.48 861.337 916.359C868.986 914.238 878.605 911.813 882.711 910.97C886.819 910.127 893.251 908.44 897.005 907.221C900.76 906.003 905.57 904.764 907.695 904.468C919.538 902.819 959.433 889.634 966.668 884.977C967.657 884.34 970.721 882.97 973.477 881.933C976.233 880.895 980.118 879.232 982.109 878.236C984.101 877.241 986.774 876.175 988.048 875.869C992.118 874.89 1014.89 865.363 1020.5 862.295C1023.47 860.666 1027.99 858.734 1030.54 858.001C1037.58 855.977 1048.61 851.602 1053.08 849.061C1055.55 847.657 1057.27 847.095 1057.57 847.586C1058.25 848.683 1062.86 848.588 1064 847.454C1066.43 845.024 1064.19 839.965 1059.98 838.363C1058.56 837.823 1058.08 836.897 1057.69 833.915C1054.6 810.678 1053.83 739.943 1055.74 654.775C1057 598.187 1055 432.061 1052.55 390.451C1051.08 365.473 1049.41 329.331 1048.94 312.626L1048.48 295.859L1050.17 296.302C1052.6 296.938 1055.65 293.864 1055.65 290.786C1055.65 287.679 1054.11 285.559 1049.63 282.495C1043.34 278.192 1037.15 272.818 1022.82 259.219C1005.69 242.96 992.797 229.917 989.817 225.827C988.578 224.127 978.53 213.477 967.486 202.16C956.444 190.843 946.544 180.409 945.486 178.974C943.307 176.018 928.265 159.204 919.987 150.472C916.964 147.283 912.441 142.213 909.934 139.205C907.428 136.197 903.725 131.812 901.707 129.461C899.688 127.11 898.037 124.784 898.037 124.292C898.037 122.503 893.116 120.336 889.046 120.332C886.863 120.331 876.432 118.542 865.867 116.359C833.15 109.597 821.853 107.747 784.075 102.962C761.962 100.162 753.927 98.994 733.467 95.6049C710.555 91.8109 692.212 89.2333 670.112 86.7037C660.551 85.6093 641.872 83.3339 628.603 81.6475C604.733 78.614 588.622 76.79 550.355 72.7888C539.519 71.6557 523.525 69.7073 514.814 68.4583C463.978 61.1716 422.77 55.4809 409.35 53.895C405.526 53.4421 395.269 52.2194 386.558 51.176C377.846 50.1334 365.851 48.729 359.902 48.0551C340.751 45.8872 307.003 40.909 296.548 38.7094C293.573 38.0834 283.317 36.1814 273.755 34.4826C257.139 31.5302 252.125 30.3639 229.328 24.1453C220.925 21.8529 190.564 15.4094 172.926 12.1742C164.66 10.6578 136.284 6.83899 118.069 4.79009C108.296 3.69105 96.4745 2.26355 91.8001 1.61742C83.7037 0.497518 45.172 -0.435347 33.853 0.213871ZM81.7559 13.6256C88.555 14.5268 102.984 16.2944 113.82 17.5526C139.936 20.5854 157.057 23.1792 172.54 26.4477C179.551 27.9278 189.982 29.9929 195.719 31.0363C204.965 32.7173 229.254 39.1028 235.509 41.4972C238.585 42.6743 253.946 45.7859 262.164 46.8958C265.777 47.3835 275.338 49.1178 283.412 50.7493C291.486 52.3809 303.481 54.4646 310.067 55.3789C316.654 56.294 326.563 57.7223 332.087 58.5523C337.612 59.3824 349.085 60.7612 357.584 61.616C366.083 62.4708 373.558 63.328 374.196 63.5196C374.833 63.7121 378.657 64.2314 382.694 64.6743C386.731 65.1164 401.16 67.0262 414.758 68.9182C428.357 70.8102 446.262 73.2618 454.549 74.3662C462.835 75.4699 476.221 77.4098 484.295 78.6766C502.052 81.462 523.756 84.3487 535.288 85.4593C561.034 87.938 587.366 90.9012 611.779 94.0661C621.127 95.2788 630.862 96.493 633.412 96.7642C635.962 97.0355 641.699 97.7373 646.161 98.3231C650.622 98.9082 659.662 99.9586 666.249 100.656C677.345 101.833 700.774 105.172 730.763 109.852C744.973 112.07 761.656 114.41 771.713 115.595C798.042 118.701 820.961 122.188 835.841 125.352C840.94 126.436 847.894 127.87 851.293 128.538C854.693 129.206 861.299 130.562 865.973 131.552C870.648 132.542 876.486 133.593 878.949 133.889C882.365 134.3 883.928 134.931 885.551 136.554C887.513 138.517 887.973 138.636 891.505 138.09C893.611 137.765 895.736 137.722 896.229 137.995C896.721 138.269 898.924 140.753 901.124 143.516C904.86 148.209 908.792 152.568 926.166 171.273C929.951 175.348 934.86 180.942 937.075 183.705C939.29 186.468 948.838 196.555 958.291 206.119C967.744 215.683 980.083 228.552 985.71 234.715C991.338 240.879 1002.6 252.139 1010.73 259.737C1018.87 267.336 1025.52 273.842 1025.52 274.196C1025.52 274.55 1027.95 276.775 1030.91 279.14L1036.3 283.44L1035.02 286.122C1033.88 288.52 1033.61 288.684 1032.49 287.675C1030.57 285.932 1021.86 283.507 1013.04 282.256C1004.92 281.105 992.894 278.789 976.845 275.285C957.076 270.97 954.815 270.789 918.512 270.616C884.679 270.456 876.515 270.096 839.704 267.146C829.08 266.295 814.304 265.407 806.867 265.174C799.431 264.94 779.96 263.749 763.6 262.527C747.24 261.306 727.943 259.917 720.719 259.443C697.745 257.934 671.578 253.96 649.831 248.678C631.281 244.172 603.049 238.783 580.218 235.391C568.361 233.63 567.937 233.504 566.853 231.405C564.776 227.386 558.885 226.781 555.235 230.212L553.473 231.867L529.314 230.14C516.028 229.19 500.984 227.923 495.884 227.323C490.785 226.723 477.573 225.53 466.525 224.67C435.415 222.251 428.712 221.628 417.076 220.068C411.127 219.27 401.392 218.208 395.443 217.707C389.494 217.207 376.977 215.943 367.628 214.9C358.279 213.857 342.286 212.156 332.087 211.121C301.511 208.016 292.22 206.86 285.73 205.348C282.33 204.556 275.781 203.485 271.175 202.968C266.49 202.442 262.7 201.652 262.571 201.175C262.445 200.706 261.927 198.802 261.42 196.943C260.914 195.085 259.63 192.693 258.567 191.63C256.893 189.955 256.175 189.758 253.218 190.164C251.34 190.421 248.996 190.834 248.009 191.082C246.594 191.437 244.859 190.422 239.785 186.267C236.249 183.37 232.21 180.131 230.811 179.068C229.412 178.005 225.898 175.198 223.002 172.83C220.107 170.462 214.435 166.34 210.398 163.671C206.361 161.001 201.842 157.69 200.354 156.311C198.867 154.933 195.39 152.123 192.628 150.067C183.973 143.624 174.807 135.74 165.2 126.474C160.1 121.556 153.668 115.481 150.906 112.974C148.144 110.467 142.233 104.869 137.771 100.535C129.463 92.4655 112.643 77.8295 109.184 75.6592C108.122 74.993 106.332 73.6103 105.207 72.5878C104.082 71.5645 101.578 69.6277 99.643 68.2844C95.7111 65.5531 89.4775 61.0101 82.5285 55.8094C79.9789 53.9011 75.9805 50.9433 73.6433 49.236C71.3061 47.5288 67.769 44.8275 65.7826 43.2339C55.5422 35.0174 52.7762 32.96 50.7527 32.0526C46.6361 30.2078 40.836 25.9824 33.1584 19.2344L25.5094 12.5127L28.9089 12.1154C30.7779 11.8967 40.6521 11.7785 50.8508 11.8527C64.7094 11.9524 72.5168 12.4006 81.7559 13.6256ZM21.0621 28.3567C25.5225 32.7366 30.1652 36.3429 34.9926 39.177C38.9755 41.515 44.5199 45.5556 47.3145 48.1563C50.1091 50.7571 55.3861 55.1045 59.0399 57.8173C62.6944 60.5301 69.1265 65.3289 73.3335 68.48C77.5412 71.6318 84.2863 76.6833 88.3232 79.7053C92.3602 82.728 96.7063 85.8589 97.9811 86.6635C100.747 88.4094 112.065 98.7954 124.56 111.055C129.543 115.943 136.379 122.333 139.752 125.256C143.124 128.178 147.835 132.792 150.219 135.509C155.25 141.243 165.229 149.893 178.244 159.8C183.294 163.645 188.454 167.819 189.712 169.076C192.845 172.211 198.155 175.783 200.588 176.394C201.696 176.672 204.618 178.624 207.081 180.731C215.964 188.331 221.234 192.659 226.01 196.275C228.685 198.299 233.655 202.132 237.054 204.792L243.235 209.629L243.784 219.274C244.086 224.578 244.739 234.831 245.235 242.058C247.417 273.849 244.78 376.238 240.529 424.844C239.771 433.5 237.087 472.336 236.281 486.288C234.449 517.997 233.495 533.062 233.172 535.365C232.965 536.853 232.265 551.438 231.618 567.777C230.971 584.116 229.942 607.418 229.331 619.56C228.72 631.702 227.979 662.939 227.683 688.975L227.146 736.314L222.442 736.316C214.795 736.319 180.25 739.195 157.633 741.712C136.854 744.024 136.589 744.076 134.62 746.23L132.627 748.409L129.984 746.554C123.919 742.297 121.304 742.453 117.752 747.284C114.842 751.242 114.756 753.248 117.366 756.349C118.466 757.657 118.992 758.727 118.535 758.727C118.079 758.727 116.8 760.095 115.694 761.767C113.75 764.706 113.66 765.37 112.979 781.669C112.592 790.943 111.584 804.617 110.739 812.056C109.893 819.495 109.112 827.668 109 830.219L108.798 834.856L100.685 836.567C95.0637 837.754 89.8136 838.288 83.5878 838.306C78.1578 838.323 71.1269 838.947 65.8174 839.883C60.9854 840.735 52.5722 842.133 47.1221 842.991C34.4185 844.991 14.4005 849.6 11.5936 851.172L9.42326 852.387L9.9162 845.554C10.1874 841.796 10.61 838.199 10.8549 837.561C11.0999 836.924 11.5619 794.319 11.8818 742.883C12.3075 674.358 12.7796 643.995 13.6464 629.27C16.6442 578.349 17.6834 507.74 16.0988 462.715C14.1031 406.035 13.3266 362.298 12.5856 264.858C12.1831 211.935 11.4329 158.402 10.9191 145.896C10.1797 127.924 10.1889 113.505 10.9616 77.1099C12.0517 25.7807 12.4079 18.1138 13.597 20.3373C14.0235 21.1349 17.3829 24.7435 21.0621 28.3567ZM275.299 214.579C279.761 214.962 286.715 216.136 290.752 217.188C294.789 218.241 300.873 219.33 304.273 219.61C307.672 219.889 313.757 220.592 317.794 221.172C321.831 221.751 327.915 222.449 331.315 222.723C341.064 223.509 365.295 226.135 374.196 227.369C378.657 227.988 389.436 229.042 398.147 229.71C406.858 230.38 418.506 231.579 424.03 232.376C438.431 234.453 439.136 234.521 467.971 236.635C482.365 237.69 498.011 239.073 502.739 239.707C513.171 241.106 540.281 243.242 547.423 243.228L552.602 243.217L552.984 245.729C553.194 247.111 553.57 252.001 553.819 256.597C554.069 261.194 555.499 271.801 556.998 280.17C558.497 288.539 560.047 297.299 560.443 299.637C561.691 307.014 561.268 317.226 559.304 327.074C558.287 332.176 557.232 338.784 556.958 341.759C555.745 354.969 553.947 362.312 547.688 379.63C541.367 397.114 539.236 401.111 532.225 408.613C530.041 410.951 526.781 414.826 524.982 417.222C523.183 419.62 520.356 422.52 518.7 423.668C517.044 424.816 509.669 427.779 502.31 430.254C494.952 432.728 486.94 435.478 484.507 436.367C479.223 438.297 473.866 438.41 463.82 436.801C452.026 434.913 449.722 433.889 444.138 428.053C441.432 425.225 437.806 421.13 436.08 418.953C432.259 414.133 429.12 412.594 425.724 413.877C424.423 414.367 423.189 414.599 422.982 414.392C422.775 414.184 423.346 409.234 424.253 403.392C426.805 386.942 427.419 377.336 427.968 345.237C428.507 313.769 427.298 280.267 424.705 254.81C423.383 241.828 422.798 239.531 419.962 236.158C418.302 234.185 417.604 233.943 413.587 233.943C409.636 233.943 408.877 234.195 407.477 235.976C404.809 239.368 404.289 242.877 405.141 251.737C405.569 256.191 406.241 266.268 406.634 274.132C407.028 281.996 407.745 295.56 408.228 304.275C409.566 328.453 408.115 376.655 405.492 395.088C402.506 416.076 397.629 431.298 391.135 439.903C386.529 446.005 376.667 454.181 369.049 458.215C359.013 463.529 352.798 464.652 333.633 464.623C319.393 464.601 317.547 464.436 310.122 462.513C305.69 461.365 300.474 459.637 298.533 458.673C294.535 456.686 293.231 454.445 285.045 435.478C280.306 424.496 277.475 420.199 273.691 418.242C270.616 416.651 268.343 417.436 265.834 420.953C263.128 424.746 263.157 426.597 265.967 429.54C267.209 430.84 270.392 436.836 273.042 442.865C275.69 448.894 278.706 455.703 279.743 457.996C284.006 467.425 290.089 471.427 306.493 475.592C313.151 477.283 316.572 477.636 329.447 477.963C353.672 478.579 373.356 475.878 379.821 471.053C381.189 470.032 383.877 468.61 385.795 467.894C389.511 466.506 395.303 462.126 403.374 454.6C408.365 449.946 410.391 446.476 417.487 430.429L419.29 426.352L422.8 430.429C430.97 439.917 436.277 444.913 439.392 446.048C445.294 448.199 459.844 449.906 472.319 449.91C482.998 449.914 484.797 449.721 488.931 448.124C491.48 447.14 499.536 444.505 506.831 442.269C514.127 440.033 521.746 437.236 523.762 436.054C527.971 433.587 532.723 428.948 541.383 418.856C552.513 405.885 555.701 399.845 563.327 377.276C568.563 361.78 569.213 359.012 570.85 345.229C571.481 339.92 572.549 332.968 573.224 329.78C573.9 326.591 574.624 319.089 574.835 313.109C575.232 301.843 575.228 301.814 570.5 275.292C568.141 262.057 566.536 244.763 567.667 244.763C569.573 244.763 599.087 249.41 614.483 252.135C637.672 256.239 642.562 257.26 655.432 260.685C673.146 265.399 704.647 270.363 725.741 271.766C732.753 272.232 743.357 272.97 749.306 273.405C755.256 273.841 764.643 274.527 770.167 274.931C775.692 275.334 783.341 276.009 787.165 276.43C790.99 276.851 799.02 277.202 805.011 277.21C815.915 277.224 842.852 278.874 855.929 280.329C863.863 281.213 899.759 283.374 907.309 283.423L912.331 283.456L910.206 285.041C907.844 286.804 907.412 290.081 908.893 295.005C910.078 298.941 909.942 307.011 908.594 312.776C907.949 315.539 907.03 322.321 906.552 327.847C905.373 341.476 904.116 346.377 899.155 356.699C896.825 361.547 894.374 367.298 893.71 369.48C891.174 377.796 887.812 386.888 886.666 388.525C884.63 391.432 880.998 392.383 871.928 392.383C860.264 392.383 858.031 391.59 832.21 378.276C829.72 376.992 829.083 376.935 827.261 377.83C826.11 378.395 824.268 380.498 823.165 382.503C821.296 385.903 821.239 386.294 822.32 388.3C822.98 389.524 825.163 391.283 827.389 392.383C829.539 393.445 833.016 395.405 835.115 396.739C840.586 400.213 855.003 404.981 859.792 404.9C861.917 404.865 868.585 404.521 874.61 404.137C891.253 403.076 895.52 400.473 900.497 388.346C901.767 385.253 903.797 379.715 905.009 376.039C906.219 372.364 908.666 366.462 910.445 362.923C916.413 351.048 917.745 346.19 919.321 330.552C919.984 323.964 920.886 317.008 921.325 315.095C923.057 307.535 923.46 302.25 922.707 296.932C921.704 289.844 920.651 286.044 919.322 284.714C918.395 283.787 919.311 283.561 925.717 283.137C944.763 281.875 964.69 282.979 978.004 286.035C999.774 291.029 1005.25 292.169 1012 293.113C1016.25 293.708 1020.34 294.201 1021.09 294.21C1022.35 294.226 1022.32 294.493 1020.76 297.512C1019.47 299.995 1018.93 302.777 1018.55 308.912C1018.05 316.866 1017.92 317.293 1012.21 330.342C1009.01 337.665 1004.66 346.534 1002.56 350.051C1000.45 353.567 998.307 357.712 997.796 359.262C996.652 362.73 991.318 370.46 988.577 372.622C986.216 374.483 980.733 377.986 974.067 381.893C968.604 385.095 966.487 385.263 953.392 383.533C943.067 382.17 938.315 379.668 932.765 372.674C925.527 363.554 921.589 361.369 917.521 364.22C915.246 365.814 913.49 369.322 913.49 372.274C913.49 376.351 915.62 380.034 921.086 385.405C928.258 392.452 933.717 394.678 945.94 395.539C968.483 397.127 970.213 397.158 973.769 396.049C978.7 394.511 995.503 383.585 999.482 379.33C1002.93 375.639 1007.43 368.494 1009.26 363.786C1009.84 362.298 1011.84 358.588 1013.71 355.54C1015.58 352.493 1019.13 345.335 1021.6 339.634C1024.08 333.933 1026.54 328.439 1027.08 327.425C1027.63 326.412 1028.67 323.882 1029.4 321.803L1030.73 318.023L1031.24 323.708C1031.51 326.835 1032.07 341.044 1032.48 355.285C1032.89 369.525 1033.57 390.045 1034 400.884C1035.89 448.698 1037.16 636.199 1035.83 672.697L1035.33 686.615L1027.91 684.323C1023.72 683.026 1017.98 680.507 1014.7 678.518C1005.83 673.141 995.151 667.83 989.387 665.931C982.831 663.772 974.87 659.784 964.423 653.426C959.928 650.691 952.563 646.69 948.058 644.538C940.887 641.111 939.918 640.421 940.29 638.998C940.524 638.106 940.266 636.291 939.717 634.966C938.446 631.897 934.973 630.413 927.833 629.886C922.818 629.517 917.144 630.44 907.623 633.173C906.094 633.612 905.957 633.203 905.111 625.658C904.62 621.269 903.842 612.635 903.384 606.473C902.925 600.31 902.037 591.442 901.411 586.764C900.784 582.087 899.978 574.261 899.62 569.372C899.262 564.484 898.434 553.702 897.781 545.413C897.099 536.758 896.419 515.699 896.183 495.949C895.722 457.362 894.377 418.893 893.344 414.772C892.168 410.078 891.013 409.149 885.888 408.779C881.869 408.487 881.049 408.667 879.679 410.139C876.576 413.471 876.462 416.051 876.881 473.922C877.241 523.712 877.481 532.009 879.163 552.755C880.197 565.508 881.382 578.376 881.797 581.352C883.813 595.805 885.921 617.215 886.974 633.928L887.413 640.905L882.102 642.61C869.902 646.526 841.783 653.476 828.252 655.921C823.228 656.828 815.058 658.448 810.095 659.521C805.133 660.594 796.553 662.314 791.028 663.344C785.504 664.374 775.943 666.244 769.781 667.498C755.382 670.431 747.629 671.79 731.922 674.136C724.911 675.183 715.697 676.725 711.448 677.562C701.377 679.546 695.739 680.402 683.584 681.796C678.087 682.426 669.417 683.465 664.317 684.106C659.218 684.746 651.395 685.624 646.933 686.057C624.158 688.266 607.3 690.097 597.485 691.426C594.298 691.858 589.083 692.552 585.896 692.969C582.708 693.385 575.929 694.277 570.829 694.95C565.73 695.624 553.247 697.041 543.089 698.1C532.931 699.158 521.458 700.533 517.592 701.154C511.131 702.192 503.46 703.123 482.75 705.38C461.003 707.751 446.894 709.455 444.118 710.047C439.16 711.104 414.743 714.516 405.487 715.445C394.889 716.507 360.48 720.727 358.252 721.237C354.963 721.989 354.75 720.444 356.05 705.291C357.222 691.635 360.904 671.775 363.774 663.639C365.34 659.198 371.692 648.884 376.848 642.409C387.176 629.44 400.293 621.388 415.369 618.764C420.023 617.954 424.614 617.291 425.571 617.291C427.43 617.291 433.288 620.277 437.265 623.253C438.596 624.247 441.883 625.924 444.57 626.977C452.275 629.997 454.18 631.457 467.238 644.341C471.945 648.986 483.491 666.035 486.343 672.551C486.901 673.827 488.808 677.139 490.58 679.913C492.353 682.687 494.565 687.466 495.496 690.533C497.489 697.097 500.565 700.404 504.029 699.712C505.168 699.484 507.92 699.056 510.148 698.761C513.558 698.308 514.436 697.844 515.708 695.821C518.58 691.252 517.492 686.845 509.799 671.876C493.286 639.747 480.562 625.626 458.03 614.425C452.504 611.677 447.634 609.148 447.209 608.804C446.784 608.46 444.053 607.446 441.14 606.551C434.293 604.448 426.081 604.439 413.987 606.52C405.801 607.928 403.517 608.698 394.5 613.085C385.814 617.312 383.33 618.951 377.889 624.049C370.128 631.321 364.211 638.636 358.85 647.587C353.838 655.957 352.292 660.348 349.39 674.484C346.285 689.6 345.331 699.894 345.879 712.383L346.337 722.847L329.555 724.22C320.324 724.976 310.338 725.901 307.363 726.277C304.389 726.653 298.826 727.338 295.001 727.799C288.288 728.608 278.319 730.105 258.572 733.266C253.409 734.092 248.803 734.768 248.334 734.768C247.727 734.768 247.488 723.468 247.497 695.158C247.509 657.321 248.028 635.745 249.786 599.901C250.224 590.974 250.94 574.802 251.377 563.962C251.814 553.122 252.676 536.95 253.291 528.023C253.906 519.096 254.95 502.228 255.61 490.538C256.269 478.849 257.674 458.329 258.731 444.939C262.472 397.527 262.9 390.892 264.264 359.149C266.411 309.155 266.001 251.291 263.263 218.191L262.824 212.873L265.005 213.378C266.205 213.655 270.837 214.196 275.299 214.579ZM704.475 274.438C702.161 275.447 700.242 278.394 700.248 280.931C700.249 281.655 700.902 283.317 701.699 284.624C702.853 286.517 703.246 289.193 703.628 297.763C704.798 323.985 705.023 351.875 704.176 365.415C702.544 391.476 700.102 401.531 691.522 417.501C685.529 428.659 683.42 430.518 670.284 436.233C658.922 441.174 660.239 440.799 649.189 442.241C640.703 443.35 639.255 443.35 633.398 442.253C626.163 440.896 611.271 436.064 605.984 433.356C604.072 432.377 600.889 430.148 598.911 428.403C595.855 425.707 584.023 411.884 576.349 402.045C571.7 396.085 565.627 394.548 561.257 398.226C557.584 401.317 557.378 404.523 560.449 410.768C561.852 413.622 564.607 417.695 566.571 419.82C568.536 421.945 571.323 425.249 572.764 427.162C581.876 439.254 589.035 444.654 600.189 447.851C603.164 448.702 609.77 450.702 614.869 452.293C622.762 454.756 625.232 455.192 631.481 455.224C647.141 455.304 662.648 452.444 674.134 447.358C690.753 439.999 694.892 436.693 701.378 425.607C715.141 402.078 718.062 386.022 717.963 334.417C717.894 298.057 717.136 283.165 715.127 278.643C712.815 273.442 709.639 272.188 704.475 274.438ZM816.165 281.325C814.692 281.832 812.979 283.156 812.357 284.267C811.344 286.079 811.396 286.911 812.864 292.382C816.963 307.648 817.684 311.905 817.658 320.67C817.63 329.956 815.511 349.56 813.498 359.149C812.035 366.123 803.21 384.445 797.045 393.312C791.667 401.046 783.752 408.211 778.75 409.873C773.172 411.726 765.445 410.873 756.058 407.367C744.753 403.147 741.492 401.252 735.673 395.522C732.75 392.645 728.989 389.672 727.312 388.916L724.263 387.542L720.36 390.046C715.814 392.965 715.097 394.817 716.528 399.95C717.894 404.846 723.752 410.677 730.589 413.94C733.444 415.303 740.277 417.967 745.773 419.858C755.416 423.177 756.085 423.297 764.898 423.285C775.449 423.269 782.948 421.9 788.231 419.023C793.61 416.095 801.84 408.377 806.984 401.437C811.602 395.207 822.01 376.065 824.094 369.969C827.831 359.038 829.969 343.909 830.537 324.369L830.976 309.298L828.129 296.546C824.504 280.308 823.357 278.848 816.165 281.325ZM398.533 504.971C379.514 506.576 373.172 508.168 358.914 514.921C348.615 519.799 342.596 525.051 336.779 534.238C331.973 541.826 330.693 545.978 331.231 552.224C332.416 565.974 344.252 577.66 364.576 585.145C374.95 588.965 381.909 590.447 386.558 589.825C388.045 589.625 392.739 589.326 396.988 589.159C407.538 588.744 417.56 586.688 424.03 583.613C434.353 578.707 448.117 563.978 452.344 553.312C454.828 547.045 454.831 533.896 452.35 527.55C449.884 521.244 445.814 516.486 439.558 512.599C428.031 505.436 417.103 503.405 398.533 504.971ZM416.255 519.183C418.598 520.06 422.538 522.267 425.011 524.089C429.037 527.054 429.657 527.891 430.924 532.078C433.966 542.127 430.539 552.798 421.217 562.305C415.631 568.001 411.835 570.569 405.927 572.646C401.879 574.069 401.65 574.074 400.689 572.76C399.191 570.71 395.189 571.166 390.259 573.949C387.183 575.687 384.587 576.488 381.051 576.792C376.584 577.177 375.388 576.925 368.144 574.064C357.202 569.742 347.92 562.441 345.261 556.065C342.995 550.63 343.619 547.112 347.983 540.72C353.255 532.997 356.205 530.515 365.31 526.14C378.834 519.644 386.452 517.99 404.105 517.713C410.401 517.614 412.857 517.911 416.255 519.183ZM926.484 643.955C926.968 645.018 927.926 645.887 928.613 645.887C929.301 645.887 930.875 646.608 932.112 647.489C933.348 648.37 938.3 650.963 943.114 653.253C947.929 655.543 955.39 659.508 959.695 662.064C969.826 668.082 979.999 673.147 985.344 674.835C989.356 676.102 1007.76 685 1013.15 688.276L1015.63 689.785L1013.13 690.334C1011.76 690.635 1006.42 692.619 1001.27 694.743C987.112 700.582 963.511 707.261 948.644 709.637C939.048 711.171 913.273 716.026 909.627 716.987C902.863 718.771 882.83 722.731 864.814 725.845C853.978 727.718 837.463 730.646 828.114 732.351C818.766 734.056 804.163 736.684 795.664 738.191C762.682 744.038 750.668 746.552 723.81 753.219C674.714 765.408 661.381 768.15 594.008 779.911C572.79 783.614 552.464 787.778 524.472 794.152C504.784 798.637 492.35 801.223 477.728 803.878C471.991 804.919 456.693 808.076 443.732 810.893C402.336 819.889 391.78 822.097 382.694 823.655C364.889 826.708 354.436 829.218 284.571 847.22C277.559 849.027 269.172 850.748 265.933 851.046L260.043 851.587L259.507 849.45C258.876 846.938 255.666 842.589 250.374 837.079L246.57 833.118L247.139 790.513L247.708 747.907H251.219C253.151 747.907 258.403 747.239 262.891 746.424C289.037 741.672 314.645 738.378 344.063 735.984C352.349 735.31 362.432 734.235 366.469 733.596C370.506 732.957 376.938 732.084 380.763 731.656C384.587 731.228 390.498 730.383 393.898 729.776C397.297 729.169 403.382 728.456 407.419 728.19C417.341 727.536 435.164 725.204 451.072 722.477C458.296 721.239 469.596 719.812 476.182 719.307C482.769 718.803 488.362 718.264 488.611 718.11C488.86 717.956 494.944 717.273 502.132 716.591C509.32 715.908 518.677 714.714 522.926 713.935C530.293 712.586 542.48 711.121 561.944 709.248C566.831 708.777 574.306 707.889 578.556 707.274C582.805 706.659 590.454 705.619 595.553 704.964C600.653 704.308 608.649 703.273 613.324 702.663C617.998 702.052 625.126 701.205 629.163 700.779C633.2 700.353 639.632 699.648 643.456 699.213C647.281 698.777 654.93 698.084 660.454 697.673C665.978 697.262 673.454 696.412 677.066 695.785C680.678 695.157 690.255 693.922 698.349 693.037C706.443 692.153 714.961 690.929 717.279 690.317C719.596 689.705 726.185 688.5 731.922 687.64C737.659 686.779 745.482 685.559 749.306 684.928C753.131 684.298 759.737 683.227 763.986 682.549C768.236 681.872 774.32 680.668 777.507 679.874C780.694 679.081 788.343 677.554 794.505 676.481C800.667 675.407 811.152 673.305 817.805 671.809C824.458 670.312 832.455 668.74 835.576 668.316C841.503 667.509 854.096 664.677 871.768 660.175C891.247 655.213 894.488 654.562 895.95 655.314C898.235 656.49 902.616 654.574 904.344 651.643C905.343 649.949 906.97 648.658 909.097 647.868C914.687 645.793 924.673 642.214 925.148 642.116C925.399 642.065 926 642.892 926.484 643.955ZM1035.61 727.233C1035.68 767.221 1037.32 817.442 1039.08 833.792L1039.63 838.911L1029.78 842.195C1024.36 844.002 1014.84 847.727 1008.62 850.473C995.761 856.155 987.947 859.366 980.708 861.945C971.335 865.284 961.79 869.043 958.689 870.616C944.17 877.982 920.611 886.316 900.355 891.252C859.25 901.267 810.569 914.609 777.507 924.919C772.195 926.575 765.405 928.444 762.416 929.072C756.885 930.235 748.816 932.477 705.653 944.843C674.866 953.663 671.929 954.412 655.046 957.74C638.987 960.905 628.338 963.281 611.006 967.566C604.207 969.247 596.519 971.1 593.922 971.684C591.326 972.268 583.155 974.534 575.766 976.72C568.376 978.904 558.158 981.848 553.059 983.258C536.151 987.938 523.827 991.451 512.496 994.823C501.451 998.111 465.522 1007.54 440.642 1013.67C426.505 1017.16 422.668 1018.2 404.726 1023.37C397.934 1025.33 388.546 1027.81 383.865 1028.88C359.557 1034.44 358.923 1034.61 338.268 1041.65C326.025 1045.82 318.983 1048.74 306.204 1054.96C301.317 1057.34 294.19 1060.55 290.365 1062.1C286.541 1063.65 280.456 1066.25 276.844 1067.88C273.232 1069.5 268.539 1071.59 266.414 1072.52C259.579 1075.51 256.013 1077.4 254.481 1078.83C253.018 1080.19 252.975 1080.15 252.595 1076.95C252.101 1072.81 250.079 1031.46 249.032 1004.12C248.059 978.696 246.694 907.296 246.704 882.292L246.712 864.032L249.126 863.549C250.455 863.283 254.405 863.066 257.907 863.066C265.191 863.066 269.871 862.309 279.162 859.628C292.845 855.68 352.889 841.208 367.242 838.4C371.704 837.526 379.701 836.116 385.012 835.265C396.439 833.433 417.144 829.391 447.981 822.972C460.305 820.406 476.124 817.272 483.136 816.007C498.414 813.251 517.156 809.387 536.061 805.098C557.289 800.281 578.226 796.094 598.258 792.659C608.244 790.947 619.196 789.069 622.595 788.486C658.608 782.307 687.011 776.3 724.969 766.84C752.634 759.945 769.899 756.519 822.32 747.518C833.581 745.585 843.238 743.846 843.779 743.653C844.322 743.461 852.319 742.057 861.55 740.533C878.958 737.66 902.18 733.187 909.716 731.255C914.891 729.928 939.326 725.273 950.19 723.544C966.912 720.882 989.621 714.544 1006.21 707.908C1016.5 703.788 1026.01 701.228 1026.73 702.384C1027.4 703.474 1031.25 703.201 1032.91 701.946C1033.73 701.321 1034.67 700.799 1034.99 700.786C1035.3 700.772 1035.59 712.674 1035.61 727.233ZM227.31 775.151C227.263 789.711 227.001 804.854 226.73 808.804L226.237 815.986L221.602 812.586C219.052 810.717 214.184 806.703 210.785 803.667C201.941 795.77 189.33 786.387 176.403 778.086C170.241 774.129 160.922 767.72 155.693 763.843L146.187 756.795L152.216 756.236C155.533 755.927 161.897 755.166 166.359 754.542C180.39 752.582 197.603 750.928 221.988 749.197C223.9 749.061 225.9 748.889 226.43 748.815C227.188 748.709 227.378 754.378 227.31 775.151ZM138.544 770.714C143.526 775.221 153.067 782.148 161.649 787.487C175.092 795.85 187.172 804.742 194.56 811.71C197.534 814.516 204.836 820.405 210.785 824.795C216.734 829.185 222.764 833.99 224.184 835.473L226.767 838.169L227.427 901.048C227.79 935.631 228.283 968.97 228.523 975.134C228.762 981.297 229.312 997.122 229.744 1010.3C230.177 1023.48 231.021 1042.08 231.619 1051.65C232.218 1061.21 232.925 1073 233.191 1077.85L233.675 1086.65L229.956 1083.52C225.965 1080.16 198.585 1052.04 198.179 1050.88C198.044 1050.5 195.017 1047.73 191.451 1044.72C185.32 1039.56 180.56 1034.44 169.835 1021.48C167.286 1018.4 163.287 1013.92 160.95 1011.52C154.441 1004.84 145.311 994.598 141.14 989.294C139.075 986.667 133.116 979.714 127.896 973.843C119.321 964.195 118.541 963.077 119.784 962.221C122.875 960.094 123.171 959.49 123.051 955.55C122.902 950.709 124.372 914.664 125.435 897.073C125.859 890.059 126.546 877.19 126.961 868.476C128.668 832.663 129.296 822.805 130.453 813.602C131.121 808.288 131.872 795.33 132.122 784.806C132.632 763.321 131.972 764.768 138.544 770.714ZM108.399 847.029C108.392 847.985 107.69 859.897 106.839 873.5C105.295 898.193 103.847 929.737 103.788 939.968L103.757 945.378L95.8378 937.263C91.4817 932.799 81.3201 922.191 73.2562 913.69C51.798 891.068 27.6071 867.129 21.5527 862.527C16.7818 858.9 16.4464 858.472 18.1068 858.132C19.1182 857.925 23.0748 857.034 26.8993 856.152C30.7238 855.271 38.8882 853.836 45.0422 852.964C51.1962 852.092 58.8452 850.878 62.04 850.266C65.411 849.621 72.4967 849.154 78.9227 849.154C87.2925 849.154 91.4439 848.79 95.9205 847.665C107.068 844.863 108.415 844.794 108.399 847.029Z" fill="black"/>
</svg>
