<svg width="1168" height="901" viewBox="0 0 1168 901" fill="none" xmlns="http://www.w3.org/2000/svg">
<path fill-rule="evenodd" clip-rule="evenodd" d="M672.56 0.737597C616.944 4.60486 597.496 5.00639 505.978 4.17424C438.743 3.56406 424.495 3.6289 422.17 4.55748C420.629 5.17265 418.316 5.67642 417.029 5.67642C412.182 5.67642 407.971 12.2563 400.006 32.2784C391.358 54.0114 389.703 58.8513 388.475 65.9665C387.767 70.0707 386.156 79.4138 384.894 86.7294C382.787 98.9372 382.599 101.807 382.599 121.645V143.259L386.753 155.61C389.038 162.404 391.676 168.797 392.615 169.819C393.555 170.841 400.098 173.957 407.155 176.742C421.798 182.524 429.812 184.143 466.342 188.697C485.805 191.123 489.631 191.335 520.517 191.704L553.751 192.101L555.648 194.448L557.546 196.794L551.909 198.538C548.81 199.498 541.413 201.216 535.472 202.356C513.159 206.637 507.703 207.957 494.346 212.302C486.806 214.755 475.403 218.111 469.006 219.76C462.608 221.41 453.635 224.267 449.066 226.111C444.496 227.954 437.018 230.96 432.449 232.792C427.879 234.623 419.28 237.367 413.34 238.889C407.399 240.411 398.8 243.218 394.231 245.127C372.67 254.134 371.71 254.418 360.582 255.089C344.812 256.041 342.161 257.252 341.908 263.623C341.828 265.64 339.811 272.056 337.148 278.763C334.607 285.164 332.268 291.253 331.951 292.296C331.186 294.812 315.275 328 314.212 329.293C313.756 329.849 311.242 334.419 308.626 339.448C303.249 349.787 296.226 362.613 291.557 370.623C289.825 373.595 287.251 379.019 285.838 382.677C284.425 386.334 282.471 390.795 281.496 392.589C280.52 394.384 279.488 396.994 279.202 398.391C278.745 400.631 278.248 401.004 274.975 401.56C272.936 401.907 262.855 404.945 252.573 408.312C242.292 411.68 230.889 415.39 227.233 416.557C223.577 417.724 213.296 421.366 204.385 424.65C186.319 431.308 178.51 434.079 159.105 440.719C151.793 443.22 141.954 446.828 137.239 448.735C132.524 450.643 122.99 454.193 116.053 456.624C109.115 459.054 101.382 461.868 98.8692 462.878C92.9246 465.263 67.2468 474.578 54.0042 479.153C48.2922 481.126 39.0392 484.618 33.4419 486.912C26.3416 489.823 21.1937 491.36 16.4098 491.998C3.63656 493.703 0 495.665 0 500.851C0 503.204 0.461113 503.835 3.2145 505.24L6.42899 506.881L10.8997 505.131C13.5168 504.106 18.4703 503.148 22.8479 502.819C28.4951 502.393 32.3593 501.491 38.6338 499.134C43.2033 497.418 47.7463 495.499 48.7284 494.871C49.7113 494.241 57.5626 491.318 66.1759 488.375C82.7369 482.714 94.7848 478.298 108.424 472.886C112.993 471.072 122.153 467.747 128.779 465.497C135.405 463.247 143.443 460.185 146.642 458.694C149.841 457.201 157.505 454.38 163.674 452.423C178.256 447.797 186.043 445.151 197.738 440.842C202.993 438.906 210.438 436.318 214.281 435.091C218.125 433.864 223.453 431.757 226.121 430.41C228.789 429.062 233.495 427.383 236.58 426.679C241.108 425.645 265.338 417.682 272.024 415.031C273.348 414.506 273.535 414.694 273.151 416.166C272.896 417.136 273.157 418.571 273.73 419.354C274.851 420.888 281.348 422.899 285.376 422.959C286.737 422.979 291.037 424.084 294.93 425.415C306.682 429.433 317.445 432.814 324.025 434.555C340.844 439.006 358.301 443.873 363.905 445.674C367.332 446.775 372.193 448.16 374.706 448.751C377.219 449.343 387.127 451.981 396.723 454.613C406.319 457.245 417.162 459.979 420.817 460.689C445.78 465.533 451.419 467.126 473.015 475.439C484.976 480.043 498.313 485.055 502.654 486.577C506.995 488.098 515.079 491.4 520.619 493.915C526.159 496.431 535.319 499.885 540.974 501.593C546.63 503.299 557.053 507.042 564.136 509.908C571.219 512.775 578.696 515.56 580.753 516.099C584.755 517.146 589.063 520.571 589.059 522.7C589.054 524.312 567.341 536.569 532.98 554.356C525.668 558.14 514.826 563.923 508.886 567.206C502.945 570.488 493.598 575.434 488.115 578.196C482.631 580.959 475.846 584.751 473.037 586.624C467.748 590.151 456.9 596.672 447.915 601.727C436.821 607.969 424.558 615.488 415.417 621.653C401.091 631.317 389.655 636.711 384.517 636.228C383.005 636.086 379.519 634.465 376.77 632.627C374.021 630.788 369.721 628.541 367.215 627.633C357.118 623.975 338.061 618.094 328.711 615.751C323.257 614.385 307.167 609.386 292.954 604.642C278.741 599.899 261.879 594.713 255.481 593.118C240.648 589.421 235.004 587.837 220.171 583.212C213.545 581.146 204.946 578.521 201.062 577.379C194.688 575.505 182.783 571.042 162.843 563.051C158.959 561.494 150.547 558.304 144.15 555.962C137.752 553.619 127.097 549.716 120.471 547.287C113.845 544.858 105.433 541.486 101.777 539.794C90.9538 534.783 77.7104 529.042 63.5588 523.227C59.9031 521.724 49.3424 517.788 40.091 514.48L23.27 508.463L20.5665 510.037C14.4307 513.609 17.4683 518.874 27.8329 522.628C43.5083 528.307 55.8187 533.156 63.9717 536.864C68.7706 539.047 73.5279 541.089 74.5424 541.402C75.5568 541.713 81.9127 544.612 88.6666 547.842C95.4204 551.071 104.689 554.957 109.265 556.476C113.84 557.995 121.691 560.888 126.712 562.907C131.733 564.925 137.939 567.186 140.504 567.931C143.068 568.676 149.356 571.154 154.476 573.436C159.596 575.719 166.098 578.312 168.923 579.198C171.748 580.084 176.637 581.99 179.787 583.433C182.937 584.877 191.283 587.529 198.332 589.329C205.382 591.129 212.152 593.118 213.376 593.749C216.414 595.316 230.418 599.271 245.927 602.941C253.01 604.618 267.03 608.813 277.083 612.264C302.991 621.159 306.577 622.28 318.041 625.061C323.661 626.423 333.318 629.213 339.502 631.259C345.686 633.306 351.287 634.98 351.95 634.98C354.493 634.98 363.658 639.472 367.247 642.478C369.313 644.208 372.865 646.458 375.14 647.476C377.414 648.495 379.884 649.629 380.627 649.995C381.371 650.361 383.354 650.92 385.036 651.235C387.432 651.684 388.486 651.461 389.915 650.198C393.058 647.421 396.015 645.883 400.177 644.862C406.078 643.413 416.153 638.151 427.464 630.611C444.962 618.946 447.996 617.068 460.168 610.371C466.732 606.76 475.005 601.865 478.554 599.494C488.538 592.822 495.193 588.929 499.913 586.996C502.29 586.023 509.019 582.521 514.868 579.213C520.717 575.905 533.524 569.114 543.328 564.121C553.132 559.129 562.169 554.321 563.41 553.437C564.65 552.553 568.593 550.439 572.171 548.739C575.749 547.039 583.153 543.116 588.625 540.02C594.399 536.754 599.558 534.391 600.918 534.391C603.078 534.391 606.61 531.836 607.424 529.683C607.776 528.755 616.847 523.454 638.496 511.522C645.807 507.492 653.845 502.649 656.359 500.76C661.238 497.092 676.156 488.429 690.423 480.98C695.221 478.475 701.951 474.843 705.378 472.908C711.849 469.256 725.321 462.125 742.201 453.417C759.735 444.372 761.625 443.357 762.856 442.335C765.137 440.441 812.022 416.291 815.555 415.19C817.207 414.676 817.413 415.208 819.13 424.431C820.133 429.814 822.606 441.326 824.626 450.013C826.648 458.7 829.069 469.923 830.007 474.952C831.827 484.708 834.037 495.596 838.745 518.005C840.357 525.682 842.608 538.214 843.747 545.854C844.886 553.495 846.346 562.926 846.992 566.812C847.636 570.699 848.392 576.31 848.669 579.282L849.173 584.686L838.55 593.573C827.455 602.855 819.694 608.985 803.001 621.65C781.004 638.339 777.63 640.812 766.302 648.554L754.527 656.6L753.534 653.479C752.553 650.399 745.451 634.344 741.48 626.232C737.318 617.731 728.977 609.481 716.002 601.036C698.446 589.609 695.948 588.159 690.621 586.305C681.878 583.263 671.306 581.677 656.367 581.167C645.829 580.807 643.026 580.488 644.224 579.783C645.082 579.279 648.106 577.304 650.947 575.393C653.786 573.484 661.119 569.242 667.242 565.969C673.366 562.696 678.852 559.622 679.434 559.14C680.017 558.657 680.577 558.409 680.68 558.588C680.783 558.768 681.28 559.663 681.783 560.578C683.181 563.118 688.224 563.289 689.928 560.854C694.486 554.344 685.594 547.513 677.96 551.661C676.361 552.53 670.005 555.965 663.836 559.295C657.667 562.624 650.563 566.73 648.05 568.42C632.078 579.158 623.625 583.583 621.048 582.556C617.743 581.237 593.13 581.742 580.731 583.382C566.271 585.295 559.155 586.875 551.866 589.793C548.868 590.994 544.549 592.107 542.27 592.266C538.969 592.497 536.932 593.364 532.263 596.518C529.037 598.697 524.35 602.385 521.845 604.713C517.911 608.369 517.276 609.388 517.181 612.195C517.098 614.59 515.933 617.192 512.743 622.095C505.595 633.084 503.667 637.75 501.756 648.697C499.325 662.618 498.627 693.764 500.443 707.304C502.967 726.113 511.878 756.619 518.99 770.788C522.433 777.648 529.652 786.035 534.06 788.296C536.208 789.397 539.567 791.81 541.527 793.656C543.486 795.502 547.013 798.059 549.365 799.335C551.718 800.613 553.781 802.096 553.952 802.632C554.207 803.436 539.114 813.837 518.025 827.389C515.74 828.858 508.976 833.264 502.994 837.18C497.012 841.097 490.5 845.128 488.522 846.138C484.436 848.223 445.683 873.923 443.834 875.773C443.169 876.438 439.862 878.848 436.485 881.128C432.339 883.927 430.231 884.925 429.992 884.2C429.798 883.61 429.09 880.508 428.419 877.308C427.747 874.107 426.627 868.87 425.93 865.669C425.233 862.469 424.067 854.613 423.34 848.212C422.025 836.653 416.726 808.683 412.079 788.773C410.744 783.058 409.294 775.95 408.856 772.978C407.202 761.753 400.336 719.005 398.843 710.629C394.354 685.46 392.845 677.685 390.531 667.817C387.172 653.494 386.983 653.101 383.632 653.424C381.581 653.622 380.875 654.125 380.676 655.528C380.531 656.543 381.788 663.276 383.468 670.492C385.148 677.708 387.197 687.54 388.021 692.341C388.844 697.141 390.489 706.307 391.676 712.708C392.862 719.109 394.769 730.519 395.914 738.063C400.172 766.122 402.286 778.612 404.219 787.11C408.534 806.092 415.276 841.089 415.828 847.38C416.584 855.994 418.126 865.113 420.742 876.432C421.897 881.438 422.685 885.691 422.492 885.885C422.299 886.079 420.721 885.133 418.986 883.784C417.251 882.435 413.589 879.894 410.847 878.136C408.105 876.38 404.928 874.099 403.785 873.067C399.437 869.143 364.302 845.474 352.689 838.646C348.576 836.227 341.099 831.623 336.072 828.411C331.046 825.201 325.064 821.389 322.779 819.94C320.494 818.492 315.901 815.546 312.572 813.395C293.076 800.792 253.898 777.813 240.111 770.895C226.14 763.884 215.09 757.669 210.616 754.305C209.245 753.274 206.254 751.442 203.97 750.232C201.685 749.024 198.881 747.339 197.738 746.488C196.596 745.638 192.857 743.337 189.43 741.374C186.003 739.411 180.395 736.011 176.968 733.818C173.54 731.624 167.802 728.495 164.216 726.864C160.629 725.233 156.143 722.846 154.246 721.56C148.838 717.896 139.024 712.781 130.856 709.37C116.636 703.432 111.744 701.281 110.871 700.586C110.389 700.202 105.902 698.072 100.901 695.852C95.899 693.632 89.2988 690.158 86.2339 688.13C83.1689 686.102 77.6273 682.573 73.9201 680.287C70.2129 678 65.2753 674.898 62.9481 673.392C60.6201 671.887 56.2541 669.29 53.2448 667.622C50.2355 665.952 44.3541 661.76 40.175 658.305C34.2237 653.384 32.7299 651.733 33.2857 650.686C33.6845 649.936 33.6621 648.111 33.235 646.529C32.8171 644.978 31.8766 638.097 31.1455 631.239C30.4143 624.381 29.1049 615.216 28.2359 610.872C27.3668 606.528 26.2327 599.421 25.716 595.077C25.1992 590.733 24.0476 583.626 23.157 579.282C20.9545 568.543 14.9525 526.22 15.4485 524.928C16.0251 523.423 12.6212 519.428 10.7618 519.428C9.87612 519.428 8.66809 520.432 8.01173 521.714C7.01224 523.665 7.00642 524.974 7.97019 530.65C8.59082 534.308 10.25 545.157 11.6566 554.758C13.0632 564.36 14.9251 575.77 15.7933 580.113C16.6615 584.457 17.7732 591.378 18.265 595.493C18.7561 599.608 19.8943 606.715 20.7949 611.288C21.6947 615.86 23.1695 626.003 24.0717 633.829C24.974 641.656 26.0774 649.018 26.5227 650.19C26.968 651.362 27.1226 653.61 26.8675 655.186C26.4321 657.87 26.6565 658.223 30.4409 660.797C32.6626 662.309 36.334 665.195 38.6005 667.212C40.867 669.228 44.7927 671.941 47.3243 673.24C49.8558 674.538 54.462 677.216 57.5593 679.191C60.6567 681.165 66.5573 684.838 70.6707 687.353C74.785 689.867 80.4754 693.394 83.3168 695.189C86.1591 696.984 92.2225 700.108 96.7921 702.129C101.362 704.152 105.474 706.11 105.931 706.483C106.784 707.177 114.347 710.517 127.533 716.021C139.926 721.195 154.535 729.589 154.535 731.536C154.535 732.896 162.136 740.548 164.92 741.992C166.291 742.703 168.535 744.226 169.905 745.377C171.276 746.527 174.384 748.351 176.813 749.429C179.241 750.508 183.166 752.822 185.537 754.572C187.906 756.323 192.608 759.319 195.985 761.233C199.361 763.146 203.112 765.544 204.322 766.562C205.531 767.58 215.667 773.045 226.847 778.707C238.026 784.369 248.855 790.175 250.912 791.609C254.202 793.904 258.683 796.62 269.19 802.686C278.877 808.278 295.182 818.283 298.979 820.963C301.425 822.69 305.616 825.413 308.292 827.013C319.126 833.492 325.539 837.569 330.672 841.244C333.642 843.37 338.502 846.402 341.473 847.981C349.302 852.142 358.982 858.289 368.475 865.125C373.044 868.415 379.3 872.797 382.375 874.861C385.451 876.925 389.748 880.156 391.924 882.041C394.1 883.926 397.235 886.074 398.889 886.815C400.544 887.556 403.538 889.381 405.542 890.869C412.924 896.351 420.792 901 422.689 901C425.708 901 429.381 898.733 430.795 895.998C431.499 894.634 432.606 893.518 433.254 893.518C433.902 893.518 435.014 892.676 435.727 891.648C436.439 890.619 439.732 887.826 443.044 885.442C454.091 877.489 485.955 856.14 490.858 853.405C496.539 850.237 509.785 841.728 538.169 823.014C549.481 815.556 559.802 808.886 561.106 808.192C564.001 806.651 565.499 807.177 575.759 813.335C579.648 815.668 586.324 819.121 590.595 821.005C597.927 824.242 598.601 824.389 602.664 823.637C607.054 822.825 617.002 824.39 626.449 827.38C628.505 828.031 633.552 829.172 637.665 829.915C641.777 830.659 648.083 832.024 651.676 832.948C658.704 834.754 661.533 834.527 664.316 831.929C665.677 830.659 667.616 830.238 673.455 829.943C689.391 829.139 693.279 827.393 707.753 814.544C712.646 810.2 718.772 804.836 721.367 802.623C723.962 800.411 727.487 796.487 729.202 793.903C730.916 791.318 734.202 787.094 736.503 784.515C745.336 774.616 748.125 770.619 752.091 762.171C754.345 757.37 757.001 751.759 757.992 749.701C758.982 747.644 763.539 742.032 768.116 737.231C772.694 732.431 778.911 725.51 781.934 721.852C784.956 718.194 790.839 712.083 795.007 708.273C799.175 704.461 802.585 700.701 802.585 699.918C802.585 697.959 800.952 696.497 798.762 696.497C796.69 696.497 781.034 711.565 768.963 725.177C764.909 729.75 761.36 733.589 761.077 733.709C760.794 733.83 760.834 731.211 761.167 727.89C762.583 713.755 761.541 690.085 758.852 675.299C756.62 663.024 755.404 665.037 771.946 653.629C792.157 639.691 829.724 610.98 844.467 598.203C852.606 591.149 856.057 589.273 860.904 589.263C863.544 589.257 865.729 586.578 865.729 583.35C865.729 581.941 866.441 580.669 867.69 579.85C868.769 579.142 877.385 572.364 886.837 564.786C905.15 550.105 928.974 532.079 940.396 524.263L947.35 519.504L952.086 521.897C956.333 524.041 958.203 524.391 970.161 525.279C982.014 526.159 984.136 526.114 989.211 524.875C994.724 523.53 1002.96 520.701 1009.88 517.777C1011.71 517.004 1014.32 516.023 1015.69 515.597C1017.33 515.087 1018.28 514.187 1018.45 512.968C1018.6 511.948 1019.16 511.119 1019.7 511.124C1020.24 511.13 1024.54 509.924 1029.26 508.445C1035.19 506.589 1038.83 504.914 1041.02 503.04C1043.52 500.897 1044.29 500.586 1044.66 501.563C1045.56 503.91 1049.79 502.979 1054.03 499.497C1056.25 497.679 1059.64 494.967 1061.55 493.47C1063.47 491.973 1069.08 487.476 1074.02 483.477C1090.91 469.792 1094.58 467.125 1101.46 463.492C1103.89 462.21 1104.24 461.64 1104.02 459.335C1103.77 456.786 1103.6 456.667 1100.32 456.728C1097.81 456.776 1096.02 457.477 1093.68 459.32C1091.91 460.709 1088.97 462.653 1087.15 463.641C1085.32 464.627 1081.03 467.841 1077.63 470.782C1074.22 473.723 1071.28 475.979 1071.1 475.796C1070.91 475.613 1071.56 474.35 1072.52 472.99C1074.93 469.609 1079 459.867 1080.63 453.559C1082.38 446.828 1082.37 433.574 1080.6 425.643C1079.86 422.298 1079.25 419.257 1079.25 418.884C1079.25 418.513 1082.63 415.45 1086.75 412.081C1093.96 406.194 1098.65 402.681 1111.82 393.34C1115.16 390.974 1119.94 387.327 1122.45 385.235C1124.96 383.141 1127.44 381.43 1127.96 381.43C1128.48 381.43 1129.54 382.382 1130.3 383.546C1131.06 384.71 1132.59 386.075 1133.7 386.58C1135.39 387.354 1136.23 387.149 1139.07 385.27L1142.44 383.042L1141.92 377.455C1141.63 374.383 1140.85 369.438 1140.18 366.466C1139.51 363.494 1138.26 356.573 1137.41 351.087C1136.55 345.6 1134.91 336.622 1133.76 331.135C1132.61 325.649 1131.3 318.354 1130.86 314.925C1130.41 311.496 1128.73 299.525 1127.13 288.323C1125.52 277.121 1123.77 264.422 1123.25 260.104C1122.49 253.832 1121.86 251.68 1120.12 249.406C1118 246.623 1117.84 246.568 1113.16 246.992C1110.44 247.24 1107.17 248.173 1105.57 249.16C1104.03 250.112 1102.54 250.664 1102.27 250.386C1101.99 250.108 1097.72 249.204 1092.79 248.378C1087.86 247.551 1076.56 245.539 1067.69 243.907C1058.82 242.274 1050.89 240.938 1050.08 240.938C1048.68 240.938 1048.69 240.692 1050.22 236.227C1052.54 229.487 1056.58 212.297 1057.23 206.438C1057.53 203.695 1057.96 200.662 1058.19 199.7C1058.62 197.866 1056.64 195.216 1054.84 195.216C1052.45 195.216 1050.17 198.578 1050.17 202.106C1050.15 209.021 1043.15 237.553 1041.16 238.781C1040.36 239.277 1017.47 234.803 1014.06 233.483C1012.71 232.96 1004.86 230.858 996.615 228.813C982.074 225.205 953.755 216.135 940.694 210.9C937.162 209.484 928.22 206.313 920.821 203.851C906.462 199.073 904.296 198.937 902.286 202.697C901.551 204.07 901.672 205.083 902.859 207.499C904.19 210.21 904.887 210.673 908.932 211.543C915.2 212.89 921.769 215.113 933.026 219.695C938.281 221.834 946.319 224.695 950.889 226.052C955.459 227.408 962.015 229.603 965.459 230.929C968.902 232.255 976.753 234.496 982.906 235.908C989.058 237.322 999.327 239.914 1005.72 241.669C1012.12 243.423 1021.47 245.511 1026.49 246.308C1031.52 247.105 1035.94 248.046 1036.32 248.401C1036.95 248.987 1034.36 254.527 1028.96 264.137C1026.62 268.325 1026.4 270.237 1028.11 271.658C1031.53 274.5 1033.95 271.718 1041.26 256.525L1044.76 249.251L1047.67 249.741C1049.28 250.011 1056.01 251.289 1062.64 252.58C1069.26 253.872 1077.3 255.343 1080.5 255.849C1083.7 256.355 1087.62 257.069 1089.22 257.434L1092.13 258.1L1087.71 260.534C1085.27 261.872 1073.34 268.525 1061.18 275.317C1039.34 287.521 1039.03 287.66 1035.1 287.138C1031.05 286.601 1018.46 281.95 1008.63 277.363C1005.66 275.977 996.502 272.125 988.277 268.804C980.051 265.483 969.957 261.177 965.844 259.235C961.731 257.293 956.404 254.818 954.005 253.735C951.606 252.653 948.181 250.842 946.392 249.712C944.604 248.583 939.837 246.361 935.799 244.775C931.761 243.189 925.466 240.513 921.81 238.828C918.154 237.143 913.79 235.272 912.111 234.67C909.422 233.705 895.771 227.286 883.592 221.26C881.307 220.129 878.867 219.427 878.169 219.698C877.471 219.969 875.423 219.472 873.617 218.593L870.335 216.996L874.055 216.035C883.676 213.549 889.58 210.907 893.354 207.396C895.988 204.946 896.479 200.332 894.334 198.186C891.499 195.349 889.325 195.689 880.014 200.426C875.082 202.936 869.383 205.264 867.35 205.6C862.574 206.389 861.574 207.271 861.574 210.696C861.574 212.241 861.383 213.505 861.15 213.505C860.917 213.505 854.081 210.176 845.96 206.108C837.838 202.04 828.401 197.746 824.99 196.565C821.578 195.384 814.861 192.886 810.063 191.013C805.265 189.141 795.068 185.436 787.403 182.78C774.393 178.272 773.669 177.913 776.501 177.381C784.567 175.867 794.813 168.841 798.116 162.559C800.03 158.919 802.308 150.884 805 138.271C806.367 131.87 808.829 121.769 810.471 115.825C814.288 102.007 814.86 91.9916 813.102 69.6875C811.416 48.3061 808.013 36.6445 799.854 24.2995C793.393 14.5224 789.771 10.9503 783.194 7.86361C777.907 5.38297 775.534 4.87421 761.874 3.2864C753.421 2.30462 741.717 1.13081 735.866 0.678574C723.802 -0.252496 686.3 -0.218413 672.56 0.737597ZM734.872 11.8722C758.226 13.9812 767.729 15.5649 771.711 18.0106C777.237 21.404 786.117 35.2745 789.33 45.5304C792.917 56.9776 793.516 62.1857 793.699 83.4881L793.862 102.524L789.954 116.657C787.805 124.429 785.067 135.652 783.871 141.596C782.673 147.54 781.006 153.967 780.165 155.879C778.453 159.769 773.31 163.961 768.614 165.294C763.377 166.782 742.499 169.57 738.611 169.3C736.555 169.157 733.751 169.487 732.38 170.032C729.356 171.235 685.484 174.437 672.065 174.435C664.752 174.434 661.763 174.1 659.663 173.052C657.368 171.907 656.177 171.82 652.68 172.543C650.159 173.065 647.903 173.119 647.066 172.677C644.729 171.443 643.251 171.826 640.284 174.433C638.723 175.805 637.151 176.927 636.79 176.927C635.547 176.927 633.095 179.682 633.095 181.078C633.095 182.564 631.53 184.855 623.534 195.073C620.789 198.58 616.957 203.508 615.02 206.023C613.081 208.537 610.407 211.896 609.077 213.486L606.657 216.378L601.806 212.174C599.137 209.863 594.898 206.643 592.384 205.02C589.871 203.397 585.509 199.764 582.69 196.946C576.063 190.321 566.418 183.222 562.121 181.807C559.486 180.94 552.289 180.75 529.656 180.949C491.947 181.281 466.118 179.434 432.033 173.966C421.569 172.287 417.365 171.174 409.601 168.023C404.346 165.89 399.772 163.748 399.437 163.263C399.101 162.776 397.232 157.703 395.282 151.987L391.738 141.596L391.741 122.06C391.746 101.562 391.741 101.596 397.674 68.0623C398.874 61.2796 401.316 54.1153 408.737 35.6037C415.546 18.62 415.333 18.9774 418.609 18.9774C421.481 18.9774 424.556 17.0837 424.556 15.3155C424.556 14.6604 449.043 14.4775 512.001 14.6621C599.085 14.919 620.216 14.4676 657.605 11.5538C671.861 10.4423 721.302 10.646 734.872 11.8722ZM700.074 30.2716C694.72 31.975 691.552 34.4041 688.985 38.7735C687.232 41.7612 686.961 43.0356 687.361 46.4182C688.044 52.1934 689.972 55.3615 694.35 57.9078C696.449 59.129 699.689 61.5573 701.55 63.3055L704.934 66.4828L714.918 66.1552C725.607 65.8036 729.473 64.6007 733.363 60.4159C740.959 52.2449 736.364 37.3195 724.268 30.8777C720.489 28.8651 705.663 28.4935 700.074 30.2716ZM714.858 43.9808C717.474 47.0899 718.356 50.1907 717.068 51.7436C715.747 53.3356 711.971 54.1719 710.907 53.107C710.425 52.6248 709.151 52.2299 708.075 52.2299C707 52.2299 704.831 51.2016 703.257 49.9438C698.404 46.0699 699.812 43.3515 707.231 42.2691C709.639 41.9175 711.856 41.5833 712.158 41.5268C712.461 41.4694 713.675 42.5742 714.858 43.9808ZM436.449 47.3268C434.479 47.8971 433.059 49.3203 430.881 52.9074C428.421 56.9584 425.648 60.8806 422.246 65.1153C413.753 75.6921 412.093 78.7214 412.093 83.6477C412.093 85.2704 411.455 87.3038 410.676 88.1659C409.712 89.2308 409.173 91.5153 408.992 95.2977C408.846 98.3578 408.135 107.132 407.413 114.797C406.21 127.574 406.211 128.901 407.435 130.771C408.169 131.891 408.77 133.319 408.77 133.945C408.77 135.8 411.946 136.802 422.479 138.271C439.022 140.578 443.479 140.876 458.205 140.659C465.973 140.544 473.55 140.44 475.044 140.427C478.416 140.397 480.44 138.317 484.752 130.446C486.527 127.206 488.258 124.554 488.6 124.554C490.503 124.554 497.764 113.97 501.145 106.265C503.883 100.026 504.316 98.8117 504.316 97.3694C504.316 96.5006 504.685 95.4216 505.136 94.9702C506.191 93.9144 506.306 78.2425 505.333 67.9135L504.579 59.9046L499.95 55.236C495.474 50.7211 495.174 50.5673 490.866 50.5673C485.585 50.5673 474.247 49.3029 467.551 47.9678C463.933 47.2462 460.65 47.2537 454.036 47.9977C446.428 48.8548 445.065 48.8157 443.467 47.6959C441.427 46.2661 440.315 46.2079 436.449 47.3268ZM450.809 63.2448C446.067 73.6811 444.969 75.653 442.824 77.5866C441.811 78.5002 440.642 80.1388 440.225 81.2278C439.533 83.0384 439.139 83.1639 435.635 82.6826C433.527 82.3941 430.717 82.1572 429.39 82.1572H426.979L429.254 78.2084C430.505 76.0371 432.297 73.4616 433.235 72.4865C434.709 70.9552 436.611 68.468 443.758 58.7291C444.675 57.4788 446.377 56.7265 449.159 56.3408C451.392 56.0307 453.463 55.7273 453.761 55.6666C454.059 55.6051 452.73 59.0151 450.809 63.2448ZM480.893 58.5795L485.962 59.109L484.738 61.4775C484.065 62.7801 482.362 65.1585 480.955 66.7621C479.547 68.3665 476.657 73.1416 474.531 77.373C470.267 85.864 469.711 86.2132 462.249 85.0934L458.718 84.5638L463.464 75.2556C466.074 70.1356 468.932 64.1692 469.816 61.9979C471.605 57.6027 471.592 57.6069 480.893 58.5795ZM492.164 82.8222C492.079 85.8856 492.399 90.3215 492.877 92.6799L493.745 96.9678L488.26 104.734C485.243 109.005 482.026 113.435 481.111 114.578L479.446 116.657L479.81 112.5C480.009 110.214 480.371 104.819 480.614 100.51C480.888 95.6394 481.486 92.1811 482.195 91.3656C482.822 90.6449 484.819 87.0278 486.633 83.3285C491.125 74.1666 491.2 74.0577 491.814 75.8109C492.092 76.6032 492.25 79.7588 492.164 82.8222ZM601.889 80.0706C597.741 85.5124 600.75 89.1984 609.094 88.8975C613.629 88.7337 620.342 89.9624 629.558 92.6434L633.948 93.9194L625.836 102.534C621.375 107.272 615.108 113.011 611.909 115.288C603.449 121.311 599.03 125.671 599.035 127.991C599.038 129.073 599.899 131.033 600.951 132.348C604.253 136.477 607.659 135.343 616.21 127.27C617.957 125.62 621.424 122.965 623.914 121.371C628.973 118.131 646.398 101.453 648.916 97.4384C652.308 92.0332 649.589 85.4824 643.953 85.4824C642.572 85.4824 639.076 84.5921 636.186 83.5031C633.117 82.3467 627.146 81.1122 621.835 80.5353C616.833 79.9916 611.681 79.0115 610.388 78.3581C606.553 76.4203 604.33 76.8675 601.889 80.0706ZM700.393 78.2949C695.027 79.7489 684.612 85.7235 679.632 90.2035C677.281 92.3183 673.968 96.1423 672.268 98.702C667.419 106.007 661.966 118.369 661.512 123.087C661.268 125.63 660.501 127.891 659.565 128.828C658.523 129.87 658.02 131.575 658.02 134.067C658.02 139.246 659.818 140.341 668.383 140.378C680.299 140.431 696.484 141.907 704.131 143.639C714.917 146.082 727.839 146.653 733.626 144.943C736.139 144.201 739.852 143.235 741.877 142.799C751.948 140.628 752.474 137.916 747.667 112.916C742.906 88.1476 737.524 81.6567 719.085 78.4396C710.515 76.944 705.52 76.9049 700.393 78.2949ZM719.158 91.3291C721.637 92.2718 724.919 97.2347 726.57 102.536C727.279 104.815 728.962 112.276 730.308 119.114C732.19 128.677 732.519 131.697 731.737 132.195C729.116 133.86 716 132.835 703.301 129.972C700.102 129.25 691.877 128.31 685.022 127.881C678.168 127.453 672.506 127.09 672.439 127.075C671.765 126.923 674.254 120.055 676.697 115.333C682.468 104.174 686.696 99.4767 695.694 94.2303C702.423 90.3057 705.232 89.5733 711.507 90.1062C714.65 90.373 718.093 90.9234 719.158 91.3291ZM436.003 98.7834C435.884 103.127 436.121 112.242 436.532 119.038L437.279 131.395L434.033 130.91C432.248 130.643 428.242 130.18 425.129 129.881C421.182 129.502 419.589 129.031 419.861 128.323C420.074 127.765 420.481 121.732 420.763 114.917C421.046 108.101 421.487 99.7993 421.744 96.4682L422.211 90.4113L429.216 90.649L436.222 90.886L436.003 98.7834ZM463.465 93.7864L467.063 93.7956L466.562 108.967C466.286 117.311 465.956 126.193 465.826 128.704L465.591 133.27L462.395 133.789C458.541 134.416 455.895 133.841 456.414 132.489C456.623 131.944 456.283 125.618 455.657 118.432C455.033 111.246 454.301 102.524 454.032 99.0495L453.544 92.7315L456.705 93.2544C458.444 93.542 461.486 93.7814 463.465 93.7864ZM572.444 96.3843C563.077 96.7983 550.178 97.9272 543.781 98.894C537.383 99.86 529.765 100.651 526.852 100.652C520.294 100.654 518.209 102.237 518.601 106.917C518.988 111.546 521.061 112.271 532.149 111.658C537.175 111.379 543.663 110.787 546.567 110.341C549.471 109.896 560.313 109.287 570.661 108.989C591.096 108.399 590.947 108.398 602.023 109.221C611.806 109.947 613.16 109.305 613.143 103.95C613.135 101.794 612.789 99.4917 612.373 98.8325C611.611 97.6279 605.59 96.6428 594.877 95.9703C591.907 95.784 581.812 95.9703 572.444 96.3843ZM881.238 121.906C880.488 122.736 879.491 124.514 879.023 125.857C878.494 127.373 876.681 129.227 874.236 130.748C872.07 132.096 868.762 134.435 866.883 135.947C865.006 137.459 861.454 139.395 858.991 140.249C856.528 141.104 850.774 143.487 846.204 145.546C841.634 147.604 835.279 150.323 832.08 151.588C828.881 152.853 822.338 156.151 817.54 158.916C812.742 161.681 806.667 164.992 804.039 166.273C799.19 168.636 798.499 169.791 800.122 172.825C801.742 175.854 805.48 174.527 821.279 165.315C825.392 162.917 832.808 159.302 837.759 157.283C842.71 155.264 848.131 152.924 849.806 152.084C851.481 151.244 855.468 149.721 858.667 148.701C862.184 147.579 866.616 145.285 869.883 142.896C879.771 135.666 883.042 133.699 885.176 133.699C887.683 133.699 889.686 131.03 890.377 126.77C890.811 124.094 890.595 123.662 888.054 122.113C884.601 120.006 883.001 119.958 881.238 121.906ZM944.153 133.483C943.647 133.83 941.654 136.92 939.724 140.349C937.794 143.778 934.79 148.479 933.048 150.795C928.293 157.116 903.478 180.463 900.447 181.467C896.666 182.719 895.621 186.307 898.227 189.084C901.066 192.107 903.227 191.155 911.402 183.273C915.299 179.516 921.997 173.091 926.286 168.995C934.259 161.383 942.621 151.006 945.646 144.971C946.576 143.115 948.113 140.749 949.062 139.713C950.464 138.183 950.637 137.406 949.992 135.557C949.183 133.245 946.098 132.149 944.153 133.483ZM1081.91 143.009C1080.47 144.452 1080.69 147.305 1082.41 149.589C1085.66 153.882 1091.67 164.273 1093.29 168.393C1094.23 170.784 1096.27 175.272 1097.81 178.367C1103.79 190.348 1109.99 214.381 1109.99 225.608C1109.99 230.586 1111.38 232.899 1114.11 232.496C1117.54 231.99 1117.9 230.251 1116.81 219.581C1115.34 205.256 1110.15 186.357 1104.65 175.327C1103.16 172.32 1101.24 167.99 1100.41 165.704C1098.8 161.303 1088.7 143.683 1087.2 142.648C1085.84 141.707 1083.02 141.9 1081.91 143.009ZM758.148 183.487C775.268 187.301 781.782 189.342 807.57 198.977C813.282 201.111 820.078 203.526 822.671 204.344C825.264 205.163 834.984 209.368 844.272 213.689C853.56 218.011 862.272 222.012 863.633 222.582C865.857 223.513 865.956 223.702 864.607 224.458C862.479 225.649 836.886 232.894 827.045 235.091C812.029 238.442 780.276 248.085 758.136 256.016C751.738 258.307 733.044 264.787 716.594 270.413C700.143 276.04 684.897 281.459 682.713 282.454C677.011 285.056 667.515 286.865 662.901 286.23C660.467 285.895 658.824 286.03 658.476 286.594C657.707 287.84 652.734 287.714 645.026 286.254C634.891 284.335 597.287 280.101 582.249 279.186C574.8 278.733 562.466 278.359 554.84 278.354C543.911 278.349 538.457 277.914 529.084 276.302C522.544 275.176 512.894 273.863 507.639 273.382C493.817 272.117 479.851 270.296 466.098 267.963C453.213 265.778 403.323 258.409 401.362 258.4C399.281 258.392 401.042 257.434 409.126 254.18C413.477 252.427 419.195 250.603 421.835 250.124C428.645 248.889 445.667 243.301 451.558 240.368C460.151 236.091 474.336 231.359 484.923 229.239C486.822 228.858 495.047 226.296 503.201 223.545C520.111 217.84 523.917 216.879 541.571 213.863C548.582 212.665 557.487 210.613 561.361 209.303L568.404 206.921L573.726 211.875C576.654 214.6 579.526 216.835 580.109 216.84C580.691 216.846 583.95 219.556 587.349 222.863C596.161 231.433 602.486 234.997 609.067 235.099C611.551 235.137 618.276 229.878 621.689 225.229C623.57 222.667 626.021 219.562 627.137 218.329C628.253 217.097 630.891 213.679 633 210.734C637.249 204.8 641.72 199.037 648.016 191.382L652.194 186.301L674.84 185.84C694.411 185.443 741.582 182.514 744.011 181.546C745.696 180.875 747.587 181.134 758.148 183.487ZM884.084 234.173C886.555 235.024 892.03 237.457 896.253 239.58C900.474 241.703 906.269 244.331 909.131 245.421C911.991 246.512 917.136 248.705 920.564 250.295C923.991 251.885 927.73 253.463 928.872 253.801C930.014 254.137 938.114 257.913 946.871 262.19C955.628 266.466 969.461 272.623 977.612 275.872C985.762 279.122 996.356 283.397 1001.15 285.375C1005.95 287.352 1013.06 289.975 1016.94 291.206C1020.82 292.435 1024.55 293.616 1025.21 293.83C1027.86 294.684 1006.6 306.431 988.692 314.014C974.676 319.949 958.854 327.82 940.028 338.224C933.597 341.778 925.185 346.26 921.334 348.186C917.483 350.111 913.772 352.157 913.086 352.733C912.401 353.31 906.979 356.308 901.039 359.397C895.099 362.485 886.873 366.809 882.761 369.007C878.648 371.204 870.61 375.122 864.898 377.714C859.186 380.306 852.269 383.482 849.527 384.772C839.252 389.608 831.404 393.083 831.234 392.871C830.776 392.3 823.832 354.438 820.445 334.045C816.012 307.356 813.752 292.031 812.966 283.335C812.515 278.345 810.479 266.88 808.079 255.814C807.847 254.748 810.228 253.804 819.935 251.113C826.615 249.262 834.884 247.113 838.311 246.34C841.738 245.566 848.657 243.675 853.687 242.139C858.716 240.602 864.698 238.94 866.98 238.446C870.044 237.781 878.451 233.937 879.515 232.714C879.558 232.665 881.614 233.321 884.084 234.173ZM1162.34 245.7C1159.9 246.515 1159.21 248.299 1159.92 251.958C1161.49 260.077 1160.16 293.1 1157.72 306.612C1157.01 310.498 1155.48 316.296 1154.31 319.497C1153.15 322.697 1151.3 327.748 1150.22 330.72C1147.2 338.985 1147.83 344.021 1151.88 344.021C1154.42 344.021 1155.37 342.711 1155.91 338.472C1156.15 336.563 1157.85 331.139 1159.69 326.418C1165.26 312.117 1167.02 300.59 1167.81 273.359C1168.36 254.187 1167.77 247.917 1165.24 246.328C1164.33 245.754 1163.02 245.47 1162.34 245.7ZM792.202 267.914C792.932 271.549 794.077 280.242 794.746 287.232C795.416 294.222 796.721 304.341 797.648 309.719C801.223 330.464 802.547 338.127 804.223 347.762C805.177 353.248 807.816 367.015 810.088 378.353C812.358 389.691 814.217 399.536 814.217 400.229C814.217 400.995 811.688 402.642 807.778 404.425C796.553 409.541 760.093 427.848 752.32 432.271C740.965 438.732 729.895 444.639 708.701 455.548C700.704 459.664 692.853 463.885 691.254 464.929C689.654 465.973 680.681 471.057 671.314 476.228C661.946 481.397 649.952 488.342 644.66 491.659C632.531 499.262 613.95 509.694 613.442 509.185C612.78 508.522 616.516 498.202 622.611 483.861C623.832 480.988 625.574 475.377 626.481 471.392C628.054 464.481 629.489 459.026 635.931 435.465C637.494 429.75 639.789 420.21 641.032 414.267C642.275 408.323 644.193 400.467 645.294 396.809C648.269 386.928 657.02 352.498 659.343 341.536C663.633 321.293 664.585 316.8 665.911 310.56C667.125 304.85 667.143 303.839 666.063 301.674C665.392 300.329 665.053 299.02 665.309 298.764C665.565 298.508 668.679 298.298 672.228 298.298C680.536 298.298 688.76 296.545 695.012 293.442C697.743 292.086 702.034 290.411 704.547 289.72C707.06 289.029 713.977 286.714 719.917 284.576C725.858 282.438 737.074 278.517 744.842 275.861C752.611 273.206 761.21 270.088 763.952 268.932C766.693 267.775 773.61 265.462 779.322 263.79C785.034 262.118 789.887 260.571 790.105 260.352C790.592 259.865 790.568 259.778 792.202 267.914ZM1107.89 266.085C1108.13 267.114 1108.69 270.948 1109.15 274.606C1109.6 278.264 1110.93 287.616 1112.09 295.389C1113.25 303.162 1114.58 312.514 1115.05 316.172C1115.51 319.829 1116.84 327.311 1118 332.798C1119.74 341.089 1122.45 356.547 1124.63 370.623C1125.06 373.413 1124.85 373.702 1119.53 377.689C1116.48 379.975 1111.12 383.991 1107.62 386.613C1104.13 389.235 1098.77 393.052 1095.71 395.096C1092.66 397.139 1088.17 400.609 1085.74 402.805C1083.32 405.002 1080.15 407.638 1078.71 408.663L1076.09 410.527L1074.78 406.703C1072.52 400.054 1066.13 389.256 1062.53 386.002C1056.34 380.411 1037.98 373.331 1024.98 371.525C1016.59 370.36 1002.07 370.367 997.422 371.539C994.48 372.28 993.456 372.225 992.063 371.248C990.415 370.094 990.734 369.766 999.319 363.788C1004.26 360.35 1009.59 356.874 1011.17 356.065C1012.74 355.255 1014.97 353.863 1016.11 352.972C1017.25 352.081 1019.4 350.843 1020.89 350.222C1023.89 348.966 1024.33 347.108 1022.29 344.206C1020.81 342.08 1017.63 341.777 1016.1 343.614C1015.53 344.305 1012.21 346.623 1008.73 348.767C998.867 354.839 986.243 363.92 981.142 368.611C977.965 371.534 975.493 373.07 973.308 373.48C966.576 374.743 945.76 384.303 938.6 389.419C932.829 393.542 925.974 400.148 922.927 404.524C917.394 412.469 911.682 430.63 911.338 441.37C910.925 454.27 913.244 468.626 917.702 480.772C919.381 485.344 921.578 491.703 922.587 494.904C924.807 501.95 927.604 506.517 933.296 512.388L937.596 516.823L926.795 524.784C909.292 537.684 894.489 549.078 879.481 561.203C871.736 567.46 865.32 572.498 865.223 572.397C865.125 572.297 863.678 563.238 862.007 552.264C860.336 541.291 857.673 526.14 856.089 518.596C854.507 511.052 851.707 497.211 849.867 487.838C848.029 478.465 845.419 465.933 844.068 459.989C840.15 442.747 834.163 412.015 834.159 409.127C834.157 406.579 834.503 406.313 843.504 401.932C848.645 399.431 858.459 394.916 865.313 391.899C872.168 388.882 880.954 384.811 884.838 382.853C900.6 374.905 920.224 364.571 921.394 363.602C922.08 363.034 928.623 359.464 935.934 355.667C943.245 351.87 951.967 347.101 955.314 345.071C958.662 343.041 963.431 340.481 965.913 339.383C968.395 338.285 971.825 336.462 973.535 335.332C975.246 334.203 978.309 332.692 980.342 331.977C982.376 331.262 984.623 330.149 985.334 329.504C986.046 328.86 989.659 327.214 993.365 325.847C997.069 324.481 1001.93 322.422 1004.16 321.274C1006.39 320.126 1012.33 317.266 1017.36 314.917C1022.38 312.568 1027.28 309.912 1028.24 309.014C1029.2 308.115 1033.5 305.581 1037.8 303.38C1042.09 301.181 1055.32 293.783 1067.21 286.941C1079.09 280.1 1089.47 274.255 1090.27 273.953C1091.08 273.651 1094.26 271.77 1097.33 269.774C1107.16 263.398 1107.28 263.36 1107.89 266.085ZM363.28 266.99C364.668 268.379 366.613 269.097 370.094 269.506C374.401 270.012 375.189 269.869 376.888 268.273L378.809 266.467L392.751 268.73C400.419 269.975 409.684 271.51 413.34 272.143C416.995 272.775 424.549 273.879 430.126 274.595C435.703 275.312 444.302 276.64 449.235 277.548C462.616 280.01 472.119 281.428 482.299 282.483C502.845 284.611 514.134 286.08 518.856 287.238C522.261 288.073 533.846 288.809 555.412 289.56C575.359 290.254 592.185 291.286 601.108 292.364C626.098 295.381 629.284 295.793 633.511 296.558C637.845 297.342 642.381 298.095 647.081 298.81C649.188 299.131 649.729 299.548 649.344 300.554C649.065 301.282 647.558 307.899 645.997 315.259C644.436 322.619 641.846 334.814 640.241 342.358C638.637 349.902 635.432 363.182 633.121 371.87C630.81 380.557 627.193 394.585 625.084 403.044C622.976 411.502 618.831 427.401 615.875 438.375C612.919 449.348 609.63 461.89 608.566 466.246C607.501 470.602 604.41 479.767 601.696 486.613C598.982 493.459 596.055 501.118 595.191 503.633C593.806 507.664 593.326 508.238 591.133 508.486C589.765 508.641 588.231 509.11 587.725 509.529C586.609 510.452 577.237 507.501 565.908 502.659C561.506 500.779 552.11 497.289 545.027 494.905C537.944 492.52 527.475 488.425 521.763 485.804C516.052 483.182 506.518 479.224 500.577 477.007C494.637 474.79 482.486 470.034 473.575 466.437C464.664 462.841 455.878 459.465 454.051 458.935C450.192 457.818 431.832 453.599 420.409 451.205C416.072 450.296 406.352 447.715 398.808 445.469C391.264 443.223 382.1 440.658 378.445 439.77C374.789 438.881 366.751 436.639 360.582 434.787C354.413 432.936 344.318 430.06 338.149 428.395C323.823 424.529 303.332 418.411 297.438 416.239C292.356 414.366 288.562 413.345 284.001 412.621L280.949 412.137L282.871 410.213C284.18 408.904 284.67 407.638 284.406 406.254C284.162 404.977 284.988 402.381 286.631 399.268C288.068 396.544 290.84 390.761 292.791 386.418C294.742 382.074 299.078 373.844 302.427 368.129C305.775 362.413 311.021 353 314.084 347.211C317.147 341.423 320.467 335.544 321.46 334.147C324.353 330.081 338.714 299.738 343.541 287.491C349.657 271.977 349.803 271.696 351.718 271.696C354.046 271.696 356.428 269.32 356.428 266.995C356.428 265.39 356.861 265.046 358.883 265.046C360.347 265.046 362.121 265.829 363.28 266.99ZM1020.29 384.781C1027.79 385.694 1041.2 390.586 1046.17 394.223C1049.66 396.779 1059.68 419.307 1059.15 423.423C1059.03 424.345 1059.66 426.59 1060.53 428.411C1061.79 431.03 1062.12 433.554 1062.12 440.453C1062.12 450.494 1061.29 454.001 1056.63 463.581C1053.42 470.187 1052.69 471.009 1040.43 481.87C1033.38 488.124 1026.13 494.117 1024.32 495.186C1017.73 499.105 998.411 501.763 996.169 499.06C994.642 497.22 991.382 497.539 987.307 499.929L983.7 502.045L980.172 500.482C975.795 498.543 964.879 487.935 961.834 482.662C960.587 480.501 958.805 475.637 957.876 471.855C956.946 468.072 955.429 462.545 954.504 459.573C952.002 451.536 952.093 439.065 954.698 432.951C957.068 427.385 972.065 400.564 974.847 396.914C977.504 393.429 983.8 390.086 994.042 386.724C1003.27 383.693 1008.3 383.321 1020.29 384.781ZM961.074 393.276C957.525 398.708 943.722 425.788 942.233 430.243C939.953 437.059 939.898 450.842 942.119 458.742C946.439 474.113 949.623 483.016 952.484 487.729C958.662 497.902 969.345 506.713 979.81 510.262C982.639 511.222 985.882 512.521 987.018 513.149L989.082 514.291L985.877 514.893C984.115 515.224 979.291 515.239 975.158 514.927C967.881 514.377 961.704 512.398 950.583 507.055C947.173 505.417 942.679 499.751 941.063 495.053C940.406 493.142 937.961 486.341 935.632 479.94C931.284 467.997 929.169 458.386 928.31 446.668C927.903 441.126 928.191 438.519 930.004 431.273C933.087 418.953 937.045 410.078 941.479 405.538C946.971 399.916 952.792 395.358 957.049 393.345C961.973 391.017 962.557 391.007 961.074 393.276ZM1002.47 409.78C993.988 412.698 987.564 417.969 983.838 425.067C981.97 428.627 981.656 430.253 981.672 436.296C981.695 444.561 983.65 449.676 989.524 456.831C995.799 464.473 1002.19 465.921 1014.5 462.483C1024.93 459.569 1033.61 454.101 1036.26 448.766C1038.91 443.455 1038.81 432.176 1036.05 425.077C1033.18 417.681 1026.65 411.138 1020.39 409.38C1014.02 407.594 1008.46 407.718 1002.47 409.78ZM1015.78 422.788C1017.13 424.503 1018.7 426.973 1019.27 428.278C1020.57 431.254 1021.48 439.624 1020.8 442.342C1020.21 444.683 1013.18 449.762 1008.49 451.224C1006.81 451.748 1004.99 452.718 1004.44 453.381C1002.52 455.694 1000.39 454.715 997.539 450.221C994.061 444.731 992.846 441.19 992.846 436.547C992.846 432.042 994.338 429.035 998.297 425.557C1002.1 422.212 1004.14 421.401 1012.86 419.762C1013.12 419.711 1014.44 421.073 1015.78 422.788ZM71.0363 579.689C62.9232 582.537 58.3137 592.53 59.2426 605.261C60.0975 616.989 63.1974 622.962 71.17 628.246C75.4272 631.067 79.7309 631.616 81.44 629.554C82.3647 628.439 82.6065 628.513 83.4273 630.162C87.3381 638.009 103.945 633.617 109.262 623.328C114.538 613.12 110.766 597.846 100.564 588.11C92.1021 580.034 79.9395 576.566 71.0363 579.689ZM597.348 593.207C594.38 594.922 590.862 596.885 589.53 597.571C588.199 598.257 586.39 600.033 585.511 601.52C584.631 603.006 583.668 604.253 583.371 604.29C583.073 604.329 582.074 604.447 581.151 604.553C578.779 604.827 568.587 611.676 564.098 616.014C560.141 619.838 557.505 624.018 554.239 631.655C553.164 634.169 550.421 640.155 548.143 644.956C545.867 649.757 543.181 656.931 542.175 660.898C541.169 664.865 539.925 668.619 539.41 669.239C537.842 671.13 536.732 680.539 536.725 691.997C536.715 707.993 541.896 734.93 546.143 740.972C547.108 742.344 550.745 746.501 554.226 750.21C558.281 754.531 565.234 764.017 573.585 776.626C588.141 798.601 589.829 800.3 605.241 808.499C611.125 811.63 612.281 812.524 610.727 812.747C609.643 812.902 607.118 812.57 605.116 812.009C603.114 811.448 601.271 811.194 601.02 811.445C600.359 812.105 592.977 808.676 585.464 804.22C581.888 802.099 575.719 798.68 571.756 796.624C562.228 791.679 556.898 788.342 553.216 785.019C551.551 783.516 548.173 780.997 545.71 779.42C537.716 774.303 535.857 771.189 527.977 749.701C522.947 735.987 519.061 720.157 517.098 705.382C515.304 691.874 515.994 663.825 518.473 649.544C520.23 639.415 522.657 633.748 529.764 623.181C531.248 620.975 532.906 617.957 533.448 616.476C534.066 614.783 536.142 612.545 539.032 610.456C545.683 605.649 549.181 602.13 549.181 600.245C549.181 599.338 549.836 598.388 550.635 598.133C551.434 597.879 554.699 596.719 557.888 595.556C561.183 594.355 568.177 592.864 574.089 592.104C579.81 591.368 584.648 590.614 584.838 590.427C585.028 590.241 589.135 590.089 593.964 590.089H602.743L597.348 593.207ZM84.7135 595.701C88.6225 600.422 92.2225 608.176 92.2225 611.877C92.2225 613.656 91.6501 616.219 90.9505 617.573C89.9228 619.56 89.2972 619.939 87.7045 619.539C84.8738 618.828 82.2525 620.494 82.2525 623.004C82.2525 625.883 81.3203 625.079 76.8413 618.337C73.3427 613.072 72.9414 611.956 72.5152 606.315C72.1546 601.55 72.3806 599.217 73.4789 596.34C74.8747 592.682 75.0077 592.583 78.5221 592.583C81.6801 592.583 82.4544 592.973 84.7135 595.701ZM668.406 593.844C679.526 595.953 685.357 598.26 689.594 602.225C691.695 604.192 695.129 606.537 697.226 607.435C702.336 609.628 717.222 621.694 720.779 626.528C722.349 628.662 724.752 633.273 726.12 636.776C727.486 640.279 730.096 645.977 731.918 649.44C736.149 657.479 739.184 667.16 737.881 668.464C736.409 669.938 736.793 672.911 738.618 674.158C741.987 676.462 744.487 706.737 742.819 725.036C740.726 747.999 735.661 760.462 721.983 776.303C719.416 779.275 716.033 783.533 714.463 785.764C711.332 790.216 689.627 810.136 683.963 813.755C679.453 816.638 671.509 818.18 660.928 818.226C652.903 818.261 652.322 818.136 643.896 814.54C630.89 808.99 603.865 793.993 597.75 788.93C596.09 787.556 585.411 772.078 576.419 758.014C573.934 754.128 568.423 747.073 564.171 742.337C555.56 732.743 555.427 732.45 552.016 715.621C549.453 702.983 548.471 689.625 549.97 687.819C550.641 687.01 550.805 685.437 550.444 683.294C549.698 678.878 550.716 672.389 552.154 672.389C555.039 672.389 555.001 666.326 552.109 665.216C551.413 664.948 550.843 664.081 550.843 663.289C550.843 662.496 554.767 654.025 559.563 644.465C567.099 629.445 568.871 626.545 572.6 623.134C574.973 620.962 577.419 619.185 578.033 619.185C578.649 619.185 581.368 616.94 584.076 614.197C586.784 611.454 589.449 609.209 589.999 609.209C590.548 609.209 594.768 607.195 599.377 604.734C609.219 599.475 620.138 595.457 628.9 593.869C637.681 592.278 660.073 592.264 668.406 593.844ZM140.639 610.658C137.515 613.579 137.392 614.248 136.253 634.564C135.767 643.252 135.171 652.043 134.931 654.1C134.509 657.696 134.656 658.009 138.699 662.173C141.674 665.239 142.911 667.183 142.93 668.824C142.965 671.924 144.492 673.759 148.389 675.387C150.17 676.13 152.936 677.763 154.535 679.015C156.134 680.267 160.06 682.298 163.259 683.53C172.882 687.236 175.661 688.447 176.968 689.506C177.653 690.061 182.002 692.578 186.63 695.098C191.26 697.619 196.766 700.995 198.868 702.6C200.97 704.205 203.538 705.787 204.576 706.115C205.613 706.444 207.584 707.555 208.955 708.586C210.326 709.616 216.681 713.16 223.079 716.46C229.476 719.76 236.21 723.335 238.043 724.404C239.875 725.474 243.988 727.333 247.182 728.536C250.376 729.739 253.452 731.108 254.019 731.579C255.112 732.485 265.8 734.735 269.025 734.737C271.543 734.738 273.893 729.556 272.787 726.439C272.186 724.743 272.356 724.188 273.688 723.513C274.591 723.055 276.098 721.372 277.037 719.772C278.504 717.275 278.745 715.455 278.745 706.889C278.745 701.402 278.06 690.394 277.223 682.427C276.385 674.46 275.637 664.773 275.561 660.903C275.432 654.423 275.256 653.746 273.344 652.379C269.927 649.938 228.508 635.761 210.616 630.91C199.607 627.925 188.904 623.694 179.705 618.69C170.279 613.563 162.631 610.767 155.781 609.945C152.583 609.561 148.451 609.019 146.599 608.74C143.662 608.299 142.902 608.544 140.639 610.658ZM158.142 622.726C159.305 623.578 159.42 624.239 158.757 626.26C158.307 627.626 157.534 636.141 157.036 645.18C156.539 654.219 155.925 662.155 155.672 662.814C155.275 663.849 154.947 663.84 153.276 662.744C151.486 661.57 151.421 661.277 152.413 658.827C153.09 657.154 153.67 650.115 153.986 639.72C154.262 630.668 154.706 622.905 154.975 622.47C155.631 621.409 156.429 621.474 158.142 622.726ZM180.537 633.958C185.899 636.247 185.923 636.272 184.469 638.069C183.483 639.288 182.815 642.126 182.42 646.78C181.755 654.631 178.859 674.93 178.328 675.461C178.136 675.654 176.575 675.226 174.861 674.508L171.742 673.205L172.287 660.951C173.222 639.921 173.848 631.655 174.507 631.655C174.856 631.655 177.569 632.691 180.537 633.958ZM638.911 640.544C629.861 642.066 618.993 646.324 611.508 651.28C607.673 653.819 600.575 664.563 598.111 671.558C594.876 680.745 595.571 694.09 600.355 714.656C604.24 731.363 619.07 746.687 640.659 756.302C642.668 757.196 644.782 758.696 645.357 759.634C647.956 763.873 657.339 760.998 677.453 749.798C689.938 742.844 693.287 739.56 697.289 730.341L700.393 723.191L700.392 709.637C700.391 698.062 700.09 694.842 698.336 687.598C694.679 672.492 688.837 661.146 680.302 652.569C675.06 647.302 666.554 642.049 661.344 640.861C657.729 640.037 643.15 639.831 638.911 640.544ZM208.955 642.849C211.541 643.607 212.216 644.179 211.996 645.429C211.84 646.312 211.374 651.149 210.959 656.178C210.545 661.208 209.417 669.064 208.455 673.636C207.492 678.208 206.69 683.902 206.672 686.288L206.64 690.626L201.151 687.602C198.131 685.939 195.604 684.547 195.533 684.51C195.463 684.473 196.289 677.148 197.371 668.232C198.452 659.317 199.351 649.48 199.368 646.373L199.4 640.724L202.516 641.3C204.23 641.616 207.127 642.314 208.955 642.849ZM232.854 650.51C235.703 651.278 238.116 651.953 238.217 652.009C238.6 652.222 235.907 678.961 234.776 686.168C234.126 690.317 233.329 696.397 233.006 699.677C232.683 702.957 232.098 705.642 231.705 705.642C230.845 705.642 216.107 696.682 214.385 695.112C213.351 694.17 213.675 694.003 216.541 694.003C218.745 694.003 220.387 693.48 221.279 692.493C222.091 691.595 223.68 685.776 225.193 678.153C227.219 667.952 227.688 663.662 227.486 657.217C227.347 652.758 227.332 649.111 227.453 649.112C227.574 649.112 230.005 649.741 232.854 650.51ZM654.276 650.043C656.101 650.55 658.864 651.951 660.416 653.156C676.684 665.791 684.701 684.318 684.924 709.798C685.02 720.731 684.956 721.162 682.435 726.484C679.539 732.599 676.182 735.732 666.576 741.282C658.213 746.115 648.815 750.532 646.895 750.532C644.69 750.532 631.856 743.538 627.368 739.892C621.901 735.448 613.488 724.319 611.119 718.398C608.654 712.238 605.678 694.222 605.678 685.462C605.678 677.585 607.081 673.031 611.881 665.325C615.549 659.436 616.092 658.948 622.551 655.748C629.411 652.349 641.121 649.281 647.635 649.175C649.463 649.146 652.451 649.536 654.276 650.043ZM260.155 661.698C259.566 663.833 260.053 676.969 261.09 686.937C262.103 696.677 262.234 703.725 261.606 714.892C261.253 721.18 262.035 721.027 252.366 716.698C247.322 714.439 247.038 714.042 248.515 711.283C249.024 710.33 249.774 705.211 250.181 699.906C250.589 694.603 251.277 687.644 251.712 684.443C252.146 681.243 252.748 673.888 253.049 668.099L253.595 657.575L257.031 659.071C259.098 659.97 260.342 661.017 260.155 661.698ZM320.302 682.862C313.99 685.174 308.676 691.775 305.908 700.743C301.809 714.022 301.907 727.614 306.161 735.853C307.304 738.068 308.239 740.564 308.239 741.401C308.239 743.625 312.133 747.891 315.609 749.472C317.747 750.445 321.062 750.857 327.009 750.887L335.394 750.93L343.551 746.782C348.038 744.501 352.733 741.615 353.984 740.369C364.944 729.454 361.408 705.846 346.556 690.778C341.954 686.108 340.064 684.816 335.668 683.331C329.569 681.27 325.028 681.131 320.302 682.862ZM332.188 699.947C340.253 708.923 343.934 723.623 339.809 730.391C335.66 737.2 325.468 740.262 321.193 735.984C320.05 734.841 318.556 733.906 317.87 733.906C314.886 733.906 313.986 721.98 316.228 712.121C317.912 704.713 319.23 701.544 321.991 698.26C325.225 694.415 327.564 694.802 332.188 699.947Z" fill="#19184d"/>
</svg>
