<svg width="1274" height="1146" viewBox="0 0 1274 1146" fill="black" xmlns="http://www.w3.org/2000/svg">
<path fill-rule="evenodd" clip-rule="evenodd" d="M1104.32 1.14314C1069.77 2.35294 1043.96 4.4951 1037.61 6.68033C1020.63 12.5266 1008.87 27.6003 1004.74 48.8293C1003.25 56.4504 1003.11 56.6619 999.741 55.9905C994.77 54.9961 989.148 58.3645 983.177 65.9121C976.935 73.803 966.865 90.7084 963.51 98.9262C962.161 102.234 960.772 104.938 960.423 104.937C959.447 104.935 953.808 83.7208 953.088 77.3412C952.624 73.2291 953.442 68.566 956.065 60.3648C960.209 47.4079 959.679 45.0061 952.542 44.393L948.085 44.0091L944.555 55.1608C939.809 70.1457 939.41 76.8864 942.579 88.4801C947.592 106.811 954.204 134.361 953.828 135.358C953.62 135.912 949.457 134.784 944.576 132.852C939.695 130.919 930.747 128.61 924.693 127.719C909.677 125.513 901.592 127.15 892.35 134.276C883.878 140.807 881.342 144.327 876.008 156.966C865.209 182.554 865.4 212.963 876.611 253.05C883.81 278.784 898.182 294.862 926.194 308.514C940.838 315.652 946.346 316.094 956.62 310.953C960.455 309.035 964.951 305.752 966.611 303.656C972.809 295.834 977.008 296.329 992.403 306.695C1006.91 316.464 1019.93 317.995 1037.84 312.041C1050.45 307.852 1052.9 305.9 1059.29 294.969C1064.88 285.4 1076.93 245.011 1078.19 231.629L1078.96 223.394L1085.93 222.99C1094.44 222.497 1115.32 224.76 1126.5 227.386C1137.04 229.861 1158.47 231.551 1190.63 232.442C1211.81 233.03 1217.88 232.78 1226.76 230.956C1232.63 229.75 1239.14 228.806 1241.23 228.859C1249 229.056 1250.07 227.142 1252.56 208.622C1254.35 195.326 1254.54 190.63 1253.43 186.651C1252.66 183.868 1252.02 179.18 1252.02 176.235C1252.01 169.126 1248.59 166.616 1241.23 168.32C1234.19 169.952 1234.12 169.932 1235 166.436C1235.46 164.597 1234.6 159.788 1232.91 154.719C1231.22 149.636 1229.74 141.326 1229.3 134.4L1228.56 122.682L1232.36 122.557C1249.63 121.993 1250.74 121.381 1250.74 112.454C1250.74 109.088 1250.1 104.926 1249.32 103.205C1248.21 100.776 1239.64 94.0832 1229.33 87.5883C1229.05 87.416 1229.5 86.4659 1230.32 85.4778C1232.7 82.6187 1233.45 71.6266 1231.78 64.2336C1230.26 57.5309 1223.68 39.4296 1219.17 29.5739C1217.9 26.7857 1216.46 22.7953 1215.99 20.7063C1215.51 18.6161 1214.44 16.0268 1213.6 14.9525C1210.98 11.598 1203.38 7.59749 1196.84 6.13434C1190.15 4.63445 1139.41 -0.313675 1134.11 0.0156928C1132.36 0.123371 1118.96 0.631357 1104.32 1.14314ZM650.453 3.64127C633.365 5.77837 603.777 18.7618 582.383 33.5086C567.319 43.8926 565.591 45.6813 554.985 61.8773C546.195 75.2991 530.669 104.918 530.656 108.29C530.652 109.083 529.158 114.784 527.335 120.958C525.512 127.133 523.219 136.663 522.238 142.135C521.256 147.608 519.916 153.091 519.258 154.317C518.542 155.656 518.513 158.011 519.185 160.201C519.801 162.21 520.791 165.565 521.384 167.655C522.811 172.679 528.145 174.459 542.059 174.552L552.835 174.623L552.771 206.98C552.725 229.826 553.133 239.693 554.16 240.543C556.85 242.774 562.896 243.248 565.363 241.42C567.591 239.77 567.749 237.525 567.737 207.847C567.726 181.989 568.051 175.916 569.471 175.371C571.911 174.436 571.65 170.336 568.999 167.957C567.308 166.438 563.166 165.865 551.567 165.543C538.218 165.173 535.765 164.755 531.546 162.134C527.219 159.446 526.954 158.989 528.898 157.566C530.207 156.611 530.74 155.152 530.25 153.875C528.315 148.837 538.66 113.022 546.761 96.7143C549.876 90.4437 557.225 77.839 563.094 68.7041C572.263 54.4324 574.788 51.425 581.048 47.3256C585.054 44.7021 589.474 41.5376 590.868 40.2936C595.388 36.2626 616.634 25.4138 630.47 20.0742C651.252 12.0528 677.931 10.2666 694.085 15.814C703.236 18.9582 712.728 29.9641 721.81 47.9641C735.096 74.2958 739.167 102.647 738.182 161.955C737.74 188.56 736.796 205.711 734.907 221.494C733.135 236.289 732.247 251.304 732.239 266.634C732.222 292.92 733.158 291.112 719.547 291.155C709.177 291.19 690.25 294.515 674.82 299.015C665.307 301.789 660.75 302.597 659.827 301.675C659.097 300.945 657.165 292.591 655.532 283.109C652.187 263.677 650.339 256.97 647.772 254.92C646.8 254.145 645.489 250.755 644.86 247.389C643.665 240.995 641 237.961 636.583 237.964C635.146 237.965 619.425 239.099 601.644 240.483C583.864 241.868 568.577 243.008 567.674 243.016C564.652 243.041 559.808 249.119 559.808 252.885C559.808 258.538 564.417 262.032 571.877 262.032C577.626 262.032 621.825 258.9 632.219 257.755L636.806 257.251L639.391 269.459C640.812 276.173 642.659 286.225 643.497 291.796C645.505 305.166 648.004 311.252 651.887 312.225C655.596 313.155 656.795 312.896 675.175 307.205C694.567 301.2 731.303 296.158 734.246 299.1C734.761 299.614 737.052 300.036 739.337 300.036C746.78 300.036 747.438 297.624 747.44 270.3C747.442 253.552 748.252 239.626 750.096 224.661C753.45 197.445 754.857 130.872 752.594 106.45C749.916 77.5591 746.066 62.8591 735.608 41.6085C726.697 23.4996 716.564 12.7749 703.066 7.16551C694.245 3.49812 692.322 3.18903 676.443 2.87233C667.03 2.68484 655.334 3.03068 650.453 3.64127ZM1151.71 11.2357C1190.65 14.6675 1197.41 16.5462 1200.08 24.6892C1200.96 27.376 1202.6 30.9611 1203.71 32.6561C1206.25 36.5223 1212.12 52.0672 1215.52 63.9701C1218.84 75.5385 1218.06 79.0171 1211.75 80.9553C1205.22 82.9594 1162.75 85.0826 1103.05 86.3899C1100.26 86.4507 1078.77 86.015 1055.3 85.4208L1012.62 84.3402L1013.32 77.5527C1013.81 72.8504 1013.38 69.0892 1011.94 65.3066C1009.93 60.0481 1009.96 59.4729 1012.91 49.6185C1014.6 43.9926 1016.94 37.5282 1018.12 35.253C1020.97 29.75 1030.81 20.5885 1037.11 17.5685C1043.27 14.6219 1064.09 12.5709 1101.15 11.2623C1115.44 10.7569 1129.35 10.2527 1132.06 10.1412C1134.78 10.0298 1143.62 10.5225 1151.71 11.2357ZM263.784 20.1413C259.6 20.7051 240.488 21.7831 221.313 22.5394C174.474 24.3864 155.383 26.6261 128.225 33.4617C119.297 35.709 114.051 36.3918 110.175 35.8104C98.9924 34.1344 98.2419 35.0072 90.9941 58.0769C84.6413 78.3014 80.7834 88.1394 73.566 102.518C69.7602 110.102 66.6453 117.51 66.6453 118.98C66.6453 121.468 66.1445 121.604 59.3556 120.958C55.3469 120.578 51.4954 120.183 50.7981 120.082C50.1009 119.982 44.9664 121.067 39.3882 122.496C33.81 123.925 24.1128 125.727 17.8387 126.498C4.98473 128.078 1.49202 130.216 0.15706 137.323C-0.285392 139.683 0.239465 153.458 1.32341 167.935C2.99053 190.212 3.89445 196.205 7.19952 206.926C13.6677 227.903 14.138 228.403 25.5999 226.528C29.6974 225.858 36.2112 225.306 40.0766 225.302L47.1026 225.295L48.61 230.924C50.1009 236.497 56.7757 245.563 59.3873 245.563C60.1315 245.563 61.7276 246.456 62.9345 247.547C67.373 251.56 82.8284 255.698 93.3813 255.698C101.911 255.698 105.131 255.014 115.129 251.078C121.583 248.535 128.424 245.019 130.328 243.26C134.693 239.234 138.123 230.424 137.358 225.207L136.771 221.212L144.02 222.031C148.008 222.482 156.334 222.278 162.522 221.578C181.361 219.444 245.973 217.472 265.917 218.421L284.702 219.314V223.644C284.702 232.824 287.453 239.565 293.778 245.886C298.802 250.905 300.606 251.938 304.016 251.74C306.428 251.602 310.136 252.692 312.9 254.352C328.889 263.96 365.678 253.994 374.168 237.755C375.139 235.899 376.299 231.264 376.748 227.454L377.562 220.529L383.287 219.745C386.437 219.314 392.214 218.952 396.126 218.942C405.636 218.917 408.89 217.016 413.233 208.948C417.208 201.569 420.233 186.936 423.526 159.157C424.577 150.303 426.346 139.186 427.456 134.455C429.757 124.661 429.319 110.89 426.568 106.488C424.34 102.923 421.878 102.15 411.528 101.771C399.061 101.314 344.426 97.5035 338.265 96.6624C333.428 96.0011 332.877 95.573 332.877 92.4832C332.877 89.9142 330.755 86.9587 324.521 80.8426C319.095 75.5195 310.704 64.4021 300.588 49.1346C292.019 36.2044 283.186 24.09 280.956 22.2151C276.677 18.6174 275.854 18.5186 263.784 20.1413ZM279.059 41.2918C282.912 47.3889 289.446 57.8362 293.579 64.5085C297.959 71.5798 305.08 80.65 310.647 86.2493C315.9 91.5331 320.199 96.1911 320.199 96.6016C320.199 97.012 307.79 97.3718 292.625 97.4022C264.412 97.4579 220.977 99.1871 211.692 100.625L206.508 101.427L205.656 82.6022C204.858 64.9759 204.222 59.1119 201.214 41.6085C200.556 37.7765 200.152 34.4967 200.316 34.3194C200.481 34.1433 215.684 33.3781 234.101 32.6206C252.518 31.8643 267.825 31.0105 268.116 30.7255C270.06 28.8164 272.924 31.5818 279.059 41.2918ZM188.126 36.4324C186.944 38.3212 186.987 42.024 188.322 53.2175C190.13 68.3836 190.841 100.336 189.403 101.78C188.937 102.25 182.661 103.401 175.458 104.338C168.256 105.274 144.699 108.622 123.113 111.775C101.525 114.928 83.6626 117.307 83.4153 117.06C83.1681 116.813 85.2321 112.107 88.0021 106.603C93.2532 96.1671 105.405 61.2731 106.779 52.6816C107.319 49.3119 108.428 47.3623 110.246 46.5934C114.859 44.6425 150.35 38.1033 164.264 36.6414C171.585 35.8725 179.287 35.0503 181.378 34.8147C189.942 33.8519 189.765 33.8088 188.126 36.4324ZM997.687 68.9486C1000.22 75.5436 995.978 87.4021 985.084 104.18C980.277 111.582 973.83 120.056 970.757 123.012L965.171 128.384L965.936 122.419C967.373 111.199 978.26 89.0515 989.935 73.5952C995.3 66.4923 996.474 65.7892 997.687 68.9486ZM612.32 73.7409C606.748 76.2631 604.781 81.908 604.977 94.8141C605.122 104.351 605.669 106.721 609.766 115.545C616.608 130.285 620.705 134.688 647.459 156.046C653.942 161.222 655.083 161.687 659.755 161.061C665.928 160.234 667.575 158.024 677.962 136.619C688.656 114.579 691.656 105.253 691.656 94.0427C691.656 88.0203 690.95 83.19 689.724 80.8211C685.448 72.559 669.083 70.617 657.872 77.0422C654.283 79.0995 649.945 82.573 648.231 84.7608L645.115 88.7386L642.428 84.3947C637.106 75.7906 620.655 69.9684 612.32 73.7409ZM628.851 83.9577C632.198 85.6501 636.615 89.0705 638.667 91.5584C641.611 95.127 643.307 96.0809 646.71 96.0809C650.202 96.0809 651.39 95.3703 652.955 92.3464C657.102 84.3352 668.935 78.8094 675.001 82.0537C677.394 83.3331 677.711 84.5974 677.711 92.8835C677.711 104.021 674.506 113.883 664.197 134.46L657.346 148.136L653.901 145.671C647.516 141.108 633.024 127.817 629.889 123.65C625.837 118.266 620.633 106.917 619.28 100.515C617.901 93.9882 619.212 80.8793 621.244 80.8793C622.081 80.8793 625.505 82.2639 628.851 83.9577ZM1219.05 92.8975C1219.05 93.935 1221.19 96.1341 1223.8 97.7873C1230.65 102.115 1236.8 108.167 1236.8 110.582C1236.8 112.432 1235.4 112.57 1224.37 111.811C1207.09 110.62 1201.3 113.749 1201.3 124.284V128.584L1192.74 127.422C1177.06 125.29 1167.07 127.957 1167.07 134.277C1167.07 139.21 1131.88 134.826 1123.58 128.858C1118.44 125.169 1107.3 120.177 1104.17 120.163C1102.7 120.155 1100.08 121.255 1098.36 122.605C1093.96 126.067 1090.3 126.677 1080.86 125.52C1076.33 124.964 1070.54 124.855 1068 125.277C1064.05 125.931 1062.57 125.415 1057.86 121.753C1041.61 109.128 1015.5 102.816 1001.8 108.202C999.829 108.976 1000.03 108.2 1002.99 103.556C1004.95 100.489 1007.29 97.3566 1008.18 96.5927C1009.83 95.1967 1066.87 95.2246 1089.1 96.6333C1106.2 97.7151 1210.58 93.5651 1212.41 91.7307C1213.97 90.1814 1219.05 91.0745 1219.05 92.8975ZM365.205 109.403C380.545 110.44 397.232 111.65 402.287 112.089L411.479 112.89V118.633C411.479 121.792 410.866 127.889 410.118 132.182L408.758 139.989L403.463 139.052C400.551 138.536 395.367 137.208 391.944 136.099C380.33 132.341 375.981 134.022 375.981 142.272C375.981 150.5 393.758 176.162 400.657 177.891C403.293 178.552 403.461 179.049 402.479 183.272C401.884 185.83 401.384 189.761 401.367 192.007C401.351 194.253 400.108 198.617 398.607 201.705C395.552 207.989 393.487 208.826 381.047 208.826C374.124 208.826 373.673 208.631 372.164 204.993C369.798 199.286 359.11 190.332 351.539 187.715C341.635 184.292 320.783 184.588 310.741 188.296C300.259 192.166 290.837 198.725 287.883 204.206C286.513 206.747 284.81 208.849 284.097 208.878C283.383 208.907 265.115 209.139 243.499 209.395C221.884 209.651 194.215 210.552 182.012 211.396C169.81 212.241 154.015 213.026 146.912 213.138L133.996 213.345L131.473 208.859C127.824 202.373 124.068 199.273 114.795 195.098C104.549 190.483 95.629 188.557 84.5018 188.557C77.1411 188.557 74.5308 189.222 66.8823 193.046C57.1687 197.901 52.3803 202.624 48.6366 211.043C47.3194 214.004 45.5559 216.484 44.7166 216.555C42.0898 216.774 37.0492 216.794 31.7271 216.607C26.8183 216.435 26.5394 216.2 25.1714 211.076C24.3854 208.133 24.0152 205.283 24.3499 204.742C25.2247 203.329 29.5883 203.53 30.5138 205.026C31.831 207.156 36.963 206.437 39.3641 203.786C41.3938 201.545 41.4623 200.665 40.0132 195.492C39.1207 192.308 37.2533 188.26 35.8638 186.494C33.502 183.493 32.8452 183.338 25.9029 184.144C19.6985 184.863 18.47 184.685 18.47 183.067C18.47 180.94 19.4639 180.546 30.1525 178.429C38.2865 176.819 42.8327 172.716 44.9423 165.082C46.5067 159.418 44.6064 152.327 41.0084 150.403C37.735 148.652 20.4021 149.693 17.8703 151.791C16.4657 152.956 16.079 151.719 15.7291 144.926C15.2448 135.566 15.4197 135.377 24.5959 135.306C27.8502 135.282 33.9368 134.436 38.1204 133.426C42.3041 132.417 48.2943 131.586 51.432 131.579C54.5698 131.573 65.6944 129.88 76.1535 127.819C86.6127 125.758 111.429 121.96 131.302 119.381C151.174 116.801 170.571 114.256 174.406 113.726C178.241 113.197 183.802 112.715 186.767 112.656L192.155 112.549V149.287C192.155 184.335 192.271 186.14 194.69 188.557C197.832 191.696 205.599 191.937 208.852 188.994C211.001 187.051 211.171 184.094 211.171 148.62V110.343L218.461 109.52C222.469 109.067 246.847 108.388 272.633 108.009C298.419 107.63 319.813 107.012 320.174 106.635C320.537 106.257 324.541 106.3 329.074 106.731C333.606 107.163 349.865 108.364 365.205 109.403ZM1035.72 124.357C1049.26 130.554 1058.28 139.84 1063.01 152.457C1068.56 167.285 1068.96 218.208 1063.69 239.863C1058.13 262.74 1051.52 283.704 1047.89 290.005C1043.88 296.95 1043.62 297.139 1033.12 300.626C1018.78 305.388 1013.03 304.72 1000.34 296.814C979.319 283.724 971.231 283.242 959.134 294.355C948.946 303.714 945.346 304.26 934.15 298.147C917.701 289.164 904.515 276.923 898.545 265.099C892.757 253.634 885.189 217.272 885.117 200.592C885.015 177.01 892.454 154.793 904.208 143.576L910.346 137.717L920.549 138.422C926.47 138.832 934.575 140.462 939.859 142.306C944.868 144.056 949.832 145.486 950.891 145.486C951.951 145.486 952.817 146.234 952.817 147.148C952.817 148.063 954.613 150.138 956.809 151.759C961.898 155.519 966.493 154.228 969.521 148.187C973.576 140.096 977.006 137.419 999.41 124.853C1007.73 120.186 1008.25 120.068 1018.3 120.587C1025.86 120.977 1030.55 121.993 1035.72 124.357ZM297.379 123.526C287.407 125.227 274.989 128.239 273.684 129.274C271.28 131.179 273.251 134.089 276.914 134.039C278.757 134.015 283.688 133.169 287.871 132.159C292.055 131.15 297.94 130.315 300.95 130.305C306.168 130.286 306.403 130.122 306.021 126.801C305.601 123.158 303.72 122.444 297.379 123.526ZM1132.33 143.453C1136.57 144.553 1148.55 146.008 1158.95 146.687L1177.85 147.922L1180.7 144.734C1182.27 142.979 1183.55 140.429 1183.55 139.066C1183.55 136.382 1184.05 136.388 1201.6 139.313C1206.49 140.128 1209.68 140.093 1211.34 139.205C1215 137.248 1215.24 137.458 1215.26 142.636C1215.27 145.249 1216.12 150.185 1217.16 153.605C1220.69 165.239 1220.81 165.095 1206.05 166.801C1186.75 169.032 1128.99 168.74 1112.52 166.328C1105.16 165.249 1094.88 164.536 1089.68 164.744L1080.23 165.122L1078.69 157.687C1077.85 153.597 1075.48 146.669 1073.43 142.293L1069.7 134.333L1073.69 135.476C1080.06 137.303 1102.55 136.806 1106.22 134.759C1109.12 133.136 1110.02 133.339 1116.99 137.222C1121.18 139.549 1128.08 142.353 1132.33 143.453ZM141.541 136.521C138.155 139.905 138.208 142.319 141.726 144.781C145.191 147.206 148.955 147.299 152.254 145.041C153.63 144.1 156.362 142.94 158.324 142.464C161.07 141.796 161.8 140.961 161.494 138.843C161.147 136.453 160.259 136.076 154.755 135.993C151.269 135.94 147.462 135.444 146.295 134.892C144.859 134.213 143.326 134.737 141.541 136.521ZM397.647 145.396C401.309 147.034 403.804 147.467 405.22 146.71C407.121 145.693 407.269 146.482 406.709 154.719C405.842 167.503 405.202 168.078 399.838 160.898C395.673 155.324 389.927 145.315 389.927 143.637C389.927 142.415 392.081 142.906 397.647 145.396ZM31.1477 159.227C31.1477 160.54 30.0105 163.058 28.6198 164.824C26.0754 168.057 19.3219 171.252 17.9439 169.875C17.5357 169.467 17.206 166.52 17.2111 163.326L17.22 157.521L24.1838 157.181C30.2793 156.882 31.1477 157.138 31.1477 159.227ZM1158.83 177.662C1183.93 177.676 1211.97 177.363 1221.15 176.965L1237.82 176.244L1238.63 187.151C1239.36 197.099 1237.25 216.395 1235.21 218.44C1234.83 218.812 1229.2 219.974 1222.68 221.022C1212.77 222.617 1207.09 222.703 1188 221.551C1153.59 219.475 1136.49 217.953 1131.57 216.526C1123.27 214.116 1101.2 211.36 1090.21 211.36H1079.26L1080.05 206.609C1080.48 203.997 1080.84 195.933 1080.85 188.69L1080.86 175.521L1097.03 176.578C1105.92 177.161 1133.73 177.648 1158.83 177.662ZM342.62 196.232C349.087 198.66 356.892 207.562 359.048 214.966C363.642 230.748 356.991 240.429 337.601 246.183C328.885 248.768 324.004 248.595 315.414 245.389C311.421 243.899 306.476 242.617 304.423 242.538C294.412 242.158 290.459 215.681 299.04 206.486C307.124 197.826 331.559 192.078 342.62 196.232ZM94.6224 199.445C111.428 204.377 119.506 212.186 120.804 224.756C121.461 231.121 121.261 231.781 117.657 235.075C112.478 239.812 97.9085 245.78 91.2793 245.88C82.4379 246.013 74.3394 243.188 73.4532 239.66C72.3908 235.428 68.8588 233.786 64.7943 235.637C62.0065 236.906 61.2661 236.768 59.7068 234.692C58.704 233.355 57.2435 229.255 56.4625 225.578C55.1935 219.609 55.3317 218.295 57.7455 213.313C59.5838 209.519 62.4363 206.457 66.6567 203.751C77.079 197.069 83.2733 196.115 94.6224 199.445ZM731.25 412.829C729.668 413.465 723.305 415.173 717.109 416.627C707.186 418.954 705.675 419.68 704.415 422.719C703.298 425.415 703.399 427.343 704.883 431.544C705.926 434.499 707.677 441.321 708.773 446.702C709.869 452.082 711.042 457.398 711.379 458.512C711.878 460.168 709.614 459.777 698.971 456.365C691.809 454.07 677.108 449.369 666.301 445.918C655.493 442.467 639.523 436.45 630.812 432.547C622.101 428.643 614.018 425.449 612.85 425.449C608.883 425.449 606.715 426.979 606.715 429.78C606.715 432.876 611.419 436.872 618.588 439.864C623.658 441.981 623.859 442.462 621.472 446.76C620.112 449.212 620.216 451.649 622.101 461.328C623.345 467.723 624.699 477.229 625.111 482.455C625.522 487.68 626.128 493.737 626.456 495.915C627.03 499.709 626.543 500.21 614.667 508.037C600.193 517.577 579.595 530.771 561.71 541.959C554.737 546.321 545.894 552.567 542.059 555.839C533.872 562.824 523.765 569.864 521.923 569.864C518.635 569.864 514.182 573.069 513.079 576.23C512.274 578.537 507.861 582.506 500.021 587.974C482.508 600.19 479.005 604.957 483.032 611.097C486.188 615.912 491.862 615.309 496.844 609.629C499.051 607.114 504.088 602.85 508.04 600.153L515.222 595.251L515.922 599.976C516.306 602.575 516.965 609.262 517.386 614.836C517.807 620.409 518.96 632.666 519.949 642.072C520.938 651.478 521.753 662.769 521.761 667.162C521.774 674.317 522.155 675.508 525.42 678.563C527.424 680.441 529.725 683.259 530.535 684.826C531.947 687.562 537.513 688.888 538.468 686.714C539.17 685.115 586.183 677.801 621.916 673.732C640.386 671.629 663.491 668.53 673.261 666.845C683.029 665.162 697.298 662.866 704.968 661.744C712.638 660.621 725.474 658.582 733.492 657.21C754.318 653.646 772.715 651.734 787.716 651.57C805.388 651.378 805.101 651.731 803.297 632.417C798.199 577.817 789.283 521.895 784.841 516.659C783.099 514.605 778.581 493.985 779.641 492.926C779.994 492.572 783.44 494.061 787.295 496.236C795.358 500.783 795.996 500.893 798.693 498.2C804.134 492.763 797.265 487.446 778.43 482.517C772.987 481.093 766.212 478.855 763.375 477.544C760.536 476.232 757.171 474.806 755.894 474.374C754.067 473.756 753.75 472.794 754.398 469.843C754.925 467.447 754.053 461.848 751.982 454.323C750.2 447.848 747.572 437.107 746.142 430.454C744.261 421.699 742.665 417.411 740.368 414.936C736.983 411.286 735.783 411.01 731.25 412.829ZM733.433 435.851C734.991 443.663 737.345 453.496 738.666 457.703C742.073 468.558 741.918 470.268 737.613 469.404C728.245 467.524 727.582 466.811 725.389 456.256C724.257 450.808 721.998 441.399 720.369 435.345L717.408 424.34L721.965 423.126C730.688 420.798 730.36 420.435 733.433 435.851ZM1102.41 438.873C1065.41 444.448 1057.39 445.801 1045.75 448.431C1028.44 452.342 1028.77 451.536 1034.37 476.355C1036.91 487.625 1038.84 496.999 1038.65 497.187C1038.46 497.374 1031.77 498.941 1023.77 500.668C1002.32 505.298 982.391 507.791 966.809 507.791C952.169 507.791 950.053 508.555 947.832 514.638C947.299 516.097 947.264 540.379 947.752 568.597C948.527 613.275 948.987 621.655 951.313 633.459C952.783 640.915 954.368 654.597 954.838 663.862C955.308 673.129 956.255 681.422 956.945 682.293C958.991 684.877 965.067 684.156 985.931 678.852C1041.07 664.835 1046.41 664.232 1132.84 662.267C1164.57 661.546 1195.09 660.409 1200.67 659.741C1206.24 659.073 1221.65 658.61 1234.9 658.711C1259.7 658.899 1264.75 658.135 1267 653.85C1269.61 648.888 1274.01 618.36 1274 605.335C1273.99 592.237 1273.61 589.748 1262.02 527.426C1260.6 519.762 1257.72 509.216 1255.62 503.991C1253.53 498.765 1250.7 489.074 1249.34 482.455C1244.77 460.195 1243.45 458.383 1231.85 458.391C1222.62 458.397 1194.04 463.664 1166.07 470.514C1156.12 472.953 1147.5 474.659 1146.92 474.306C1146.35 473.951 1145.55 470.937 1145.14 467.607C1143.79 456.497 1139.2 444.222 1134.74 439.76C1129.75 434.776 1129.63 434.773 1102.41 438.873ZM682.782 463.435C691.498 466.113 703.478 470.08 709.405 472.248C715.332 474.417 722.748 477.108 725.886 478.228C733.039 480.783 756.94 487.473 762.017 488.342C765.586 488.952 765.828 489.358 765.936 494.908C765.999 498.162 767.89 511.085 770.135 523.626C772.38 536.167 774.724 549.849 775.345 554.029C778.639 576.193 780.444 591.205 781.667 606.601C782.795 620.819 783.426 624.024 785.413 625.603C787.046 626.901 787.936 629.513 788.222 633.838L788.641 640.172L781.668 640.93C777.833 641.347 770.087 642.134 764.455 642.677L754.214 643.667L751.344 626.083C749.766 616.414 746.58 599.951 744.263 589.5C741.947 579.048 739.087 565.226 737.909 558.785C736.596 551.607 734.772 545.808 733.198 543.81C730.655 540.578 730.511 540.555 717.8 541.37C710.742 541.823 701.641 543.004 697.575 543.994C693.51 544.984 689.096 545.795 687.768 545.795C686.174 545.795 684.673 547.414 683.36 550.545C681.504 554.975 681.543 555.851 683.939 563.53C687.352 574.46 691.031 590.434 695.464 613.569C699.455 634.4 699.608 635.649 699.403 646.025L699.263 653.146L691.339 654.039C686.982 654.531 678.022 656.041 671.43 657.394C664.838 658.748 642.588 661.841 621.987 664.27C591.728 667.835 559.59 672.795 540.157 676.901C537.797 677.4 537.651 676.876 538.045 669.299C538.398 662.514 534.877 624.894 530.775 591.609L529.786 583.585L534.2 580.208C536.628 578.35 542.955 573.263 548.261 568.901C559.211 559.898 575.555 548.592 587.699 541.62C592.231 539.016 599.466 534.474 603.778 531.523C608.09 528.573 615.866 523.438 621.059 520.112C626.25 516.785 632.137 512.635 634.137 510.891C636.139 509.146 638.571 507.066 639.543 506.268C641.963 504.281 640.598 478.685 637.158 461.553C635.759 454.585 634.613 448.482 634.61 447.989C634.608 447.495 641.88 449.674 650.77 452.83C659.661 455.985 674.066 460.757 682.782 463.435ZM1125.69 454.902C1127.95 462.783 1130.66 477.451 1129.99 478.125C1129.17 478.948 1053.28 495.122 1050.24 495.123C1049.29 495.123 1047.36 486.842 1045.38 474.221C1044.61 469.344 1043.73 464.478 1043.41 463.407C1042.74 461.15 1053.03 458.634 1077.06 455.186C1090.01 453.327 1120.66 448.794 1122.92 448.401C1123.4 448.318 1124.64 451.245 1125.69 454.902ZM1237.63 483.722C1239.15 491.038 1242.11 501.299 1244.19 506.524C1248.08 516.257 1249.68 523.475 1257.95 568.597C1260.96 585.049 1262.72 598.513 1262.75 605.335C1262.79 615.983 1258.9 644.2 1256.96 647.337C1256.2 648.564 1251.25 648.877 1236.55 648.625C1225.32 648.432 1209.41 649.116 1198.76 650.25C1188.65 651.327 1159.84 652.752 1134.74 653.416C1044.6 655.801 1042.74 655.981 1002.89 666.206C988.948 669.783 976.254 673.008 974.686 673.373C971.875 674.027 971.833 673.852 971.833 661.539C971.833 654.481 970.669 642.42 969.161 633.838C965.906 615.322 965.633 610.242 965.151 559.413L964.769 519.192H975.283C981.065 519.192 991.354 518.34 998.148 517.297C1018.04 514.244 1126.58 491.875 1155.66 484.835C1191.75 476.098 1223.24 469.877 1229.81 470.185L1234.86 470.42L1237.63 483.722ZM200.233 478.515C190.345 481.885 178.355 492.303 173.594 501.66L171.236 506.295L162.362 500.489C139.835 485.749 108.231 479.402 86.3845 485.229C78.788 487.256 67.913 496.414 67.913 500.786C67.913 504.713 69.0705 505.461 84.3941 511.436C91.7154 514.291 100.973 518.95 104.966 521.789L112.225 526.951L104.855 533.081C90.1307 545.325 82.0385 557.781 80.8633 570.014C80.1736 577.185 80.3245 577.124 60.5625 578.284C48.4629 578.994 46.0453 579.488 44.988 581.462C44.2869 582.772 42.3497 583.799 40.5837 583.799C35.4467 583.799 34.3045 588.168 36.0388 601.198C39.0738 624.008 43.0673 646.564 44.3756 648.285C45.1185 649.265 47.578 650.838 49.8397 651.783C53.354 653.25 56.0277 653.198 68.2224 651.422C76.0711 650.278 83.6118 648.933 84.9798 648.43C86.974 647.699 88.1948 648.613 91.1221 653.028C93.1315 656.06 95.2322 658.54 95.7913 658.54C96.3504 658.54 98.5741 661.292 100.734 664.655C106.594 673.78 117.021 680.995 125.64 681.89C129.451 682.286 135.628 682.926 139.368 683.312L146.169 684.015L146.975 691.733C147.419 695.977 147.791 703.214 147.802 707.815C147.813 712.416 148.288 716.915 148.859 717.814C149.634 719.032 156.644 719.592 176.414 720.015L202.931 720.582L206.956 716.822C211.133 712.92 211.232 712.607 216.148 687.706C218.153 677.556 218.475 676.916 222.011 676.028C227.576 674.632 262.242 668.595 262.497 668.977C262.617 669.16 264.5 674.724 266.679 681.343C271.41 695.716 275.744 706.329 278.753 710.918C281.541 715.17 285.454 715.232 291.041 711.112C293.404 709.37 296.225 707.955 297.308 707.968C299.504 707.993 321.984 701.062 329.391 698.076L334.145 696.159V686.391C334.145 677.219 332.793 666.849 330.992 662.191C330.184 660.105 334.135 656.987 344.206 651.763C349.963 648.777 354.186 644.903 356.473 640.51C357.464 638.606 362.223 632.662 367.05 627.3C374.902 618.575 376.207 616.351 379.47 606.119C382.911 595.333 383.356 594.624 387.327 593.595C392.224 592.327 411.124 574.14 414.675 567.279C417.923 561.004 418.581 547.8 416.076 539.189C411.675 524.065 399.879 518.916 396.889 530.815C396.202 533.553 396.659 534.593 399.312 536.329C403.305 538.945 405.547 546.294 403.996 551.696C402.755 556.021 395.551 569.594 393.129 572.172C390.812 574.637 382.615 572.792 380.822 569.4C378.673 565.335 368.847 554.03 358.729 543.98C345.423 530.759 334.16 525.216 309.338 519.667C298.49 517.242 284.395 514.559 278.016 513.707L266.418 512.154L262.928 503.015C258.581 491.633 255.127 486.88 248.289 482.865C237.741 476.672 212.375 474.375 200.233 478.515ZM236.584 488.818C239.224 490.163 242.585 492.95 244.053 495.01C246.741 498.781 250.472 508.04 250.472 510.936C250.472 512.814 241.859 513.937 215.608 515.485C205.149 516.102 193.053 516.97 188.729 517.415C181.048 518.203 180.849 518.146 180.042 514.939C178.068 507.079 190.224 492.644 203.258 487.371C211.011 484.235 229.135 485.021 236.584 488.818ZM128.398 497.465C131.335 498.964 134.82 500.19 136.146 500.19C137.471 500.19 140.631 501.615 143.168 503.357C145.706 505.099 149.874 507.959 152.431 509.715C154.989 511.47 157.709 514.167 158.479 515.707C159.247 517.248 161.283 519.21 163.003 520.066C165.576 521.348 166.66 521.279 169.11 519.674C172.538 517.429 172.404 517.355 174.013 522.359C175.538 527.103 179.776 527.77 190.602 524.966C195.591 523.674 200.746 523.256 205.635 523.746C209.855 524.171 219.63 523.621 228.233 522.476C247.149 519.96 259.864 519.924 274.891 522.349C291.711 525.062 319.841 531.564 324.478 533.811C334.621 538.725 346.73 548.443 355.985 559.096C373.182 578.893 373.295 579.314 366.941 599.772C363.271 611.587 362.282 613.35 354.136 622.574C349.282 628.072 344.519 634.091 343.553 635.949C341.561 639.776 328.186 648.406 324.245 648.406C320.846 648.406 317.282 652.038 318.154 654.612C318.532 655.728 320.246 660.63 321.963 665.508C323.681 670.385 325.463 678.366 325.926 683.243L326.768 692.11L317.461 694.825C312.343 696.317 305.874 698.391 303.084 699.431C300.295 700.472 296.302 701.687 294.21 702.132C289.873 703.053 289.821 702.952 281.329 677.542C275.846 661.136 274.452 659.381 267.619 660.295C258.223 661.55 241.068 664.688 229.952 667.183C220.469 669.312 218.841 669.399 218.23 667.809C217.828 666.762 216.308 666.138 214.716 666.369C212.104 666.746 211.707 668.154 208.979 686.711C207.368 697.677 205.472 708.163 204.768 710.015C203.487 713.382 203.486 713.382 193.066 712.572C187.336 712.126 178.059 711.757 172.452 711.753L162.258 711.746L160.882 697.134C159.45 681.91 157.633 677.542 152.732 677.542C151.487 677.542 150.169 677.057 149.801 676.465C149.434 675.872 144.91 675.03 139.745 674.594C134.581 674.158 128.994 673.284 127.331 672.652C123.137 671.059 116.414 664.655 107.195 653.473C98.1202 642.464 96.836 641.549 91.8752 642.54C89.119 643.091 88.1974 642.798 88.1974 641.367C88.1974 638.273 85.62 638.085 71.7468 640.166C62.0268 641.626 58.3642 641.765 57.705 640.699C57.2143 639.906 56.1519 635.188 55.3444 630.213C50.8869 602.774 48.9649 591.781 48.3323 590.104C47.7416 588.534 49.9906 588.169 62.3196 587.843C78.4241 587.414 83.0413 586.296 84.0125 582.588C84.3649 581.242 85.8786 579.967 87.3758 579.753C89.7364 579.417 90.1066 578.523 90.1586 573.031C90.1992 568.77 91.2971 564.625 93.5157 560.363C97.3152 553.06 109.848 539.762 117.449 534.969C122.013 532.091 122.554 531.262 121.822 528.288C121.364 526.42 120.155 523.606 119.137 522.034C115.737 516.781 102.883 507.795 92.9312 503.713C87.5166 501.492 83.2835 499.084 83.5256 498.361C84.498 495.443 94.0786 493.889 108.482 494.312C120.333 494.661 124.06 495.251 128.398 497.465ZM213.825 532.064C211.103 533.071 210.91 533.735 211.398 540.471L211.928 547.785L206.678 551.051C203.059 553.303 200.382 556.414 198.059 561.073C192.375 572.471 194.295 580.275 203.93 584.937C206.958 586.401 210.042 587.599 210.782 587.599C213.849 587.599 214.802 591.64 215.665 608.296L216.573 625.828L209.119 624.923C205.017 624.425 200.598 623.465 199.296 622.787C197.564 621.885 196.388 622.098 194.904 623.579C193.127 625.355 193.107 625.822 194.736 627.395C196.85 629.437 208.893 633.204 213.303 633.204C215.882 633.204 216.242 633.819 216.242 638.227C216.242 641.896 216.903 643.603 218.694 644.561C224.995 647.931 228.92 644.828 228.92 636.48C228.92 632.524 229.517 631.684 233.936 629.432C239.97 626.356 245.491 617.66 246.268 610.01C246.969 603.115 243.962 598.292 234.703 591.457C230.825 588.595 227.604 585.559 227.546 584.708C225.723 558.246 225.766 554.661 227.903 554.661C229.088 554.663 231.596 556.088 233.478 557.83C237.471 561.529 238.201 561.659 240.361 559.058C242.883 556.022 240.081 551.58 233.692 548.491C230.626 547.007 227.222 545.795 226.126 545.795C224.816 545.795 223.841 544.163 223.288 541.044C221.579 531.408 219.904 529.818 213.825 532.064ZM723.799 561.313C725.014 567.757 727.931 581.582 730.281 592.033C734.883 612.496 739.831 638.854 739.831 642.908C739.831 644.97 738.22 645.786 730.64 647.557C725.585 648.739 719.615 649.698 717.377 649.689L713.303 649.672L714.04 641.755C715.01 631.327 707.768 592.205 699.719 564.389C697.942 558.244 696.807 552.894 697.2 552.501C697.592 552.109 702.638 551.376 708.413 550.874C714.188 550.371 719.515 549.878 720.252 549.778C720.988 549.678 722.585 554.869 723.799 561.313ZM214.881 573.981C214.99 579.473 214.33 579.759 210.301 575.978C206.655 572.555 206.641 570.881 210.199 563.614L213.031 557.83L213.908 563.53C214.391 566.665 214.829 571.369 214.881 573.981ZM611.153 565.044C608.364 565.646 599.73 568.116 591.966 570.533C573.605 576.249 573.05 576.986 574.992 593.066C577.217 611.473 579.547 618.003 583.896 618.003C585.119 618.003 586.896 618.937 587.845 620.079C589.366 621.909 591.667 622.041 607.334 621.191C617.105 620.66 627.886 620.154 631.295 620.065C636.471 619.929 637.918 619.331 640.091 616.43L642.692 612.957L639.14 600.595C631.638 574.483 629.463 568.607 626.624 566.787C622.836 564.359 617.249 563.729 611.153 565.044ZM616.858 576.087C616.858 577.418 618.823 585.257 621.225 593.505C623.627 601.753 625.197 608.868 624.711 609.316C624.227 609.765 616.984 610.335 608.617 610.583L593.404 611.035L591.25 600.267C590.066 594.345 588.925 587.579 588.714 585.23L588.333 580.961L599.743 577.457C613.94 573.098 616.858 572.864 616.858 576.087ZM232.017 603.083C233.102 604.631 233.991 606.929 233.991 608.191C233.991 611.277 230.342 619.846 229.421 618.925C229.018 618.522 228.389 614.159 228.025 609.23C227.321 599.711 228.443 597.983 232.017 603.083ZM1080.23 827.013C1042.22 832.645 1012.18 849.959 990.579 878.672C979.592 893.278 975.194 902.555 971.703 918.486C969.75 927.397 969.326 932.43 969.961 939.136C973.095 972.22 986.027 1009.4 1001.41 1029.54C1013.81 1045.79 1043.83 1066.45 1055.03 1066.45C1056.94 1066.45 1059.69 1067.51 1061.13 1068.81C1067.24 1074.31 1090.68 1076.84 1110.02 1074.1C1114.55 1073.46 1125.23 1072.3 1133.74 1071.53C1146.88 1070.34 1151.56 1069.27 1164.8 1064.41C1182.03 1058.1 1197.45 1050.33 1203.06 1045.13C1210.63 1038.12 1222.11 1021 1229.91 1005.05C1241.1 982.172 1243.67 969.579 1242.72 942.303C1241.88 918.357 1239.38 907.704 1230.24 889.098C1224.62 877.662 1222.18 874.279 1212.82 864.979C1202.83 855.049 1200.42 853.416 1183.55 845.08C1149.84 828.427 1138.83 825.67 1107.03 825.916C1095.77 826.002 1083.71 826.496 1080.23 827.013ZM734.126 835.137C727.154 835.767 708.403 836.163 692.457 836.018C660.184 835.724 642.687 837.022 615.781 841.709C605.776 843.452 593.924 845.022 589.442 845.197C582.609 845.464 580.767 846.044 578.014 848.793C574.766 852.039 574.747 852.172 576.123 862.034C579.035 882.911 582.744 901.158 584.414 902.827C586.685 905.095 593.451 903.665 595.712 900.438C598.275 896.782 624.038 894.191 658.06 894.169C673.4 894.159 689.339 893.596 693.479 892.918C706.273 890.824 702.682 892.391 685.051 896.595C661.483 902.213 616.212 909.043 592.136 910.614C570.161 912.047 556.301 914.464 554.59 917.161C553.397 919.042 552.661 936.365 553.146 951.171C553.451 960.538 555.732 974.28 559.24 987.908C562.884 1002.06 569.803 1031.92 571.717 1041.75C575.286 1060.06 580.034 1101.62 580.067 1114.82C580.095 1125.64 581.37 1130.3 584.808 1132.13C588.827 1134.28 619.406 1130.84 655.352 1124.2C674.72 1120.62 701.622 1116.43 717.011 1114.6C728.387 1113.25 741.372 1110.24 768.255 1102.71C780.144 1099.38 787.136 1098.12 793.755 1098.12C805.068 1098.12 815.875 1096.15 818.396 1093.63C819.873 1092.16 820.506 1086.77 821.185 1069.9C822.28 1042.73 820.687 1018.37 815.972 990.128C813.966 978.108 811.956 964.282 811.507 959.405C808.922 931.295 804.898 902.742 801.918 891.346C801.139 888.368 799.578 885.219 798.449 884.347C795.183 881.828 757.708 882.387 738.564 885.242C729.848 886.541 722.577 887.469 722.406 887.303C721.891 886.8 763.335 873.896 765.463 873.896C766.551 873.896 768.691 872.885 770.219 871.65C772.7 869.641 773.07 867.833 773.706 854.598C774.312 842.02 774.097 839.301 772.274 836.522C770.191 833.346 769.79 833.261 758.466 833.621C752.053 833.825 741.099 834.508 734.126 835.137ZM215.23 835.954C202.96 840.874 193.284 859.158 198.894 866.825C201.781 870.77 205.036 868.798 206.743 862.073C207.597 858.707 209.406 854.466 210.763 852.651C214.035 848.273 219.774 844.067 220.919 845.209C222.107 846.396 222.018 858.672 220.709 874.27C219.924 883.614 219.166 886.938 217.637 887.732C213.783 889.734 187.838 898.112 179.55 900.031C170.619 902.1 170.052 902.134 162.362 901.085C159.573 900.704 156.15 900.352 154.755 900.301C153.176 900.244 146.563 905.637 137.213 914.606C128.96 922.523 118.29 931.567 113.505 934.703C94.3258 947.267 76.7633 960.809 75.0151 964.382C72.4681 969.589 73.8855 973.108 90.4679 1002.78C92.7626 1006.88 98.3864 1014.48 102.967 1019.66C107.546 1024.84 113.229 1032.09 115.595 1035.76C120.911 1044.01 124.811 1046.14 129.282 1043.21C131.016 1042.07 133.298 1041.47 134.351 1041.88C135.467 1042.3 140.867 1039.61 147.315 1035.41C161.737 1026.02 163.826 1025.23 164.693 1028.84C165.372 1031.66 168.252 1055.57 170.672 1078.48C171.409 1085.45 172.569 1095.43 173.25 1100.65C173.93 1105.88 174.847 1117.23 175.287 1125.88C175.946 1138.85 176.5 1142.02 178.452 1143.97C180.717 1146.23 183.379 1146.3 239.417 1145.63C271.645 1145.24 300.205 1144.64 302.884 1144.29C308.969 1143.5 315.978 1139.98 321.233 1135.08L325.27 1131.31V1113.01C325.27 1092.11 322.055 1030.26 320.184 1015.18C318.08 998.208 317.332 999.421 328.757 1001.29C344.709 1003.9 356.843 1004.32 358.835 1002.33C359.783 1001.38 361.488 996.52 362.624 991.527C363.761 986.535 366.33 978.12 368.333 972.828C377.425 948.808 384.548 926.063 383.952 922.948C382.935 917.632 380.095 916.201 362.036 911.906C352.623 909.668 337.582 905.614 328.611 902.901C319.642 900.186 311.571 897.965 310.677 897.965C309.783 897.965 304.716 895.908 299.417 893.393C288.747 888.33 285.044 888.343 280.485 893.458L277.838 896.427L273.795 893.347C267.631 888.648 256.001 885.01 244.924 884.314L234.939 883.686L235.742 876.574C236.184 872.662 236.902 865.972 237.338 861.707C239.148 843.998 234.35 834.549 223.629 834.705C220.612 834.749 216.833 835.312 215.23 835.954ZM1136.11 838.362C1145.87 841.064 1170.64 851.878 1183.38 858.997C1206.27 871.784 1221.92 897.512 1226.19 929.359C1230.07 958.317 1226.46 979.621 1213.26 1005.64C1204.45 1023.01 1194.49 1036.17 1185.42 1042.4C1173.84 1050.37 1144.66 1061.37 1135.08 1061.39C1132.1 1061.4 1122.54 1062.25 1113.82 1063.28C1085.96 1066.59 1072.74 1065.24 1068.02 1058.61C1065.14 1054.58 1063.6 1054.29 1058.66 1056.85C1055.97 1058.24 1054.44 1058.33 1051.86 1057.24C1044.2 1054 1030.31 1043.76 1019.3 1033.24C1009.48 1023.86 1006.55 1020.1 1001.59 1010.5C995.063 997.879 987.388 976.46 983.731 960.672C980.112 945.041 980.436 922.882 984.465 910.651C989.645 894.922 1003.36 876.492 1019.36 863.776C1027.34 857.431 1041.13 848.56 1043.01 848.56C1043.55 848.56 1043.15 850.913 1042.14 853.787C1041.12 856.661 1040.29 862.975 1040.29 867.819C1040.29 875.862 1040.61 876.945 1044 880.328C1047.06 883.384 1048.77 884.036 1053.82 884.061C1057.19 884.077 1064.9 884.433 1070.96 884.853C1083.92 885.748 1087.17 885.115 1091.85 880.78C1096.3 876.653 1094.73 872.898 1088.96 873.896C1083.67 874.811 1064.35 874.533 1060.28 873.484C1057.99 872.893 1056.53 871.479 1055.99 869.308C1054.96 865.219 1057.5 853.542 1060.97 846.41C1063.49 841.215 1063.9 840.961 1072.54 839.131C1086 836.281 1086.35 836.251 1107.51 836.064C1123.51 835.924 1128.85 836.354 1136.11 838.362ZM758.836 847.927C758.83 850.017 758.475 854.645 758.047 858.211L757.267 864.694L734.275 871.831C698.885 882.817 698.512 882.874 653.623 884.139C631.659 884.76 609.98 885.756 605.448 886.354C600.915 886.952 597.016 887.29 596.781 887.105C596.223 886.664 590.724 864.461 589.696 858.498L588.897 853.868L598.124 852.415C603.197 851.617 612.484 850.145 618.759 849.147C643.278 845.242 655.798 844.468 684.049 845.108C699.738 845.463 715.997 845.323 720.181 844.798C724.365 844.271 734.775 843.905 743.318 843.983L758.847 844.126L758.836 847.927ZM255.262 896.687C260.811 899.081 266.953 904.617 266.953 907.223C266.953 908.402 247.334 920.322 241.889 922.451C235.649 924.891 222.246 925.214 209.955 923.221C202.241 921.971 178.209 911.329 178.209 909.164C178.209 908.677 181.49 907.608 185.499 906.786C189.507 905.965 200.225 902.845 209.314 899.853C218.402 896.861 227.245 894.117 228.964 893.755C235.548 892.367 248.631 893.827 255.262 896.687ZM791.672 898.915C793.251 905.035 797.833 936.517 798.814 948.004C799.95 961.303 803.047 984.274 805.816 999.943C807.17 1007.61 808.798 1021.29 809.433 1030.35C810.824 1050.18 809.81 1084.41 807.793 1085.75C807.021 1086.26 801.938 1086.69 796.497 1086.7C785.25 1086.72 776.479 1088.51 748.963 1096.37C737.824 1099.55 722.985 1102.75 714.099 1103.9C696.007 1106.22 666.157 1110.94 642.847 1115.17C621.66 1119.01 601.568 1122.23 598.983 1122.21C597.307 1122.19 596.823 1119.93 596.194 1109.2C594.178 1074.79 587.046 1034.06 572.958 976.507C570.486 966.404 569.544 958.602 569.044 944.062L568.383 924.918L571.796 924.061C573.672 923.591 583.927 922.682 594.583 922.04C617.008 920.69 663.626 913.612 686.585 908.071C731.784 897.162 748.683 894.489 773.695 894.295L790.444 894.165L791.672 898.915ZM1137.91 900.499C1134.58 903.831 1134.71 907.029 1138.31 910.413C1142.06 913.933 1144.4 913.89 1147.83 910.235C1151.13 906.73 1151.25 905.211 1148.54 901.088C1146.04 897.267 1141.4 897.01 1137.91 900.499ZM298.647 906.023C315.923 911.747 332.916 916.58 348.464 920.194C358.082 922.43 366.275 924.581 366.669 924.975C367.064 925.37 366.191 929.287 364.731 933.681C363.269 938.075 358.358 952.791 353.814 966.385C349.272 979.978 345.555 991.999 345.555 993.097C345.555 994.846 343.757 994.704 330.97 991.943C317.376 989.006 316.227 988.934 314.072 990.884C312.801 992.034 310.876 992.975 309.796 992.975C304.067 992.975 303.57 998.52 306.052 1034.78C308.502 1070.57 310.096 1103.26 310.076 1117.29L310.057 1130.75L306.06 1132.4C303.144 1133.61 292.78 1134.1 267.71 1134.22C248.816 1134.3 224.143 1134.85 212.881 1135.44L192.407 1136.51L191.633 1126.5C190.937 1117.5 189.552 1105.73 185.756 1076.58C185.075 1071.36 183.941 1061.95 183.236 1055.68C181.576 1040.93 178.501 1023.7 176.725 1019.21C174.555 1013.74 170.982 1012.43 166.958 1015.64C165.127 1017.11 161.029 1019.69 157.85 1021.37C154.672 1023.06 148.681 1026.67 144.538 1029.39C140.397 1032.11 136.316 1034.74 135.47 1035.24C134.487 1035.81 133.018 1034.34 131.394 1031.16C129.997 1028.42 124.813 1021.42 119.875 1015.6C111.48 1005.7 97.7082 984.473 92.6574 973.648C90.1066 968.184 90.7253 966.883 98.3205 961.749C107.763 955.367 116.267 948.924 118.71 946.303C120.112 944.8 121.98 943.57 122.861 943.57C125.138 943.57 134.258 936.652 141.218 929.645C144.48 926.363 149.855 921.242 153.164 918.266L159.18 912.857L163.306 916C167.144 918.921 176.566 924.378 187.083 929.77C193.307 932.959 213.378 936.215 227.652 936.351C237.432 936.442 241.096 935.912 247.142 933.533C257.092 929.618 279.828 914.294 284.993 908.024C287.439 905.054 289.919 903.225 291.041 903.562C292.087 903.878 295.51 904.985 298.647 906.023ZM1055.58 912.446C1053.21 915.302 1053.52 922.178 1056.11 924.069C1059.69 926.685 1065.69 923.111 1065.4 918.527C1065.01 911.971 1059.04 908.28 1055.58 912.446ZM664.471 942.586C662.038 946.056 662.024 952.006 664.424 961.939C666.635 971.091 670.506 998.063 669.721 998.848C669.413 999.155 660.389 1001.36 649.666 1003.75C634.797 1007.06 628.584 1007.91 623.492 1007.33C618.113 1006.71 616.326 1007 614.3 1008.83C611.481 1011.38 611.009 1015.76 613.308 1018.06C615.731 1020.48 627.854 1019.84 646.163 1016.31C655.495 1014.52 665.208 1012.74 667.746 1012.37L672.361 1011.68L673.24 1018.48C675.039 1032.4 684.792 1067.69 687.606 1070.47C691.93 1074.74 697.665 1073.88 699.856 1068.64C701.451 1064.83 701.19 1063.09 696.574 1046.79C693.816 1037.05 690.996 1025.94 690.306 1022.11C689.617 1018.28 688.782 1013.9 688.45 1012.38C687.704 1008.96 687.769 1008.94 709.405 1005.74C734.867 1001.98 746.48 999.542 748.497 997.528C750.803 995.223 749.529 989.704 746.289 987.971C744.587 987.061 740.686 987.389 732.676 989.117C721.217 991.588 686.432 997.044 685.848 996.463C685.672 996.285 684.915 990.725 684.169 984.106C682.029 965.161 676.944 946.024 673.144 942.62C669.137 939.03 666.969 939.021 664.471 942.586ZM1161.36 962.553C1124.46 967.741 1055.15 971.276 1047.07 968.384C1045.07 967.671 1043.61 968.127 1041.68 970.056C1038.39 973.342 1038.36 974.578 1041.52 977.728C1042.9 979.117 1043.46 980.548 1042.78 980.97C1042.11 981.384 1041.56 983.087 1041.56 984.751C1041.56 988.324 1046.33 992.232 1057.52 997.818C1061.77 999.939 1070.74 1005.4 1077.46 1009.95C1098.18 1023.99 1098.26 1024.02 1115.73 1023.97C1128.97 1023.92 1132.23 1023.47 1140.89 1020.45C1157.85 1014.53 1169.82 1007.94 1173.7 1002.37C1179.86 993.558 1183.15 969.975 1179.04 964.121C1176.92 961.095 1173.74 960.814 1161.36 962.553ZM1164.52 976.824C1164.5 983.533 1161.43 993.896 1158.5 997.141C1155.43 1000.55 1138.99 1008.62 1128.59 1011.83C1111.9 1016.98 1105.14 1015.46 1085.59 1002.17C1077.76 996.848 1066.83 990.181 1061.3 987.351C1055.77 984.522 1051.04 981.55 1050.78 980.747C1050.24 979.092 1056.77 978.583 1105.58 976.464C1123.01 975.706 1141.84 974.346 1147.42 973.44C1164.77 970.621 1164.54 970.574 1164.52 976.824Z" fill="black"/>
</svg>
