<svg width="1115" height="1246" viewBox="0 0 1115 1246" fill="none" xmlns="http://www.w3.org/2000/svg">
<path fill-rule="evenodd" clip-rule="evenodd" d="M252.893 0.687331C237.182 2.49942 222.765 7.08288 204.235 16.1587C180.313 27.8738 161.608 40.4187 150.454 52.2274C135.506 68.0515 120.939 98.2915 111.932 132.198C108.885 143.669 108.597 146.578 109.204 159.771C110.228 182.024 117.048 199.188 133.676 221.364C150.271 243.495 167.84 256.857 185.798 261.003C194.685 263.055 213.79 262.664 220.754 260.287C225.066 258.816 227.245 258.608 228.211 259.575C229.746 261.113 229.368 261.225 212.502 264.241C206.484 265.317 198.114 267.55 193.903 269.203C186.488 272.114 165.441 284.195 153.656 292.306C143.981 298.964 127.116 316.04 113.794 332.664C98.0546 352.308 92.5588 360.387 82.2382 379.061C72.7256 396.275 70.2479 401.915 60.9875 427.447C57.2076 437.87 52.0883 451.302 49.6106 457.297C43.4758 472.147 22.5606 535.753 18.618 551.557C0.72858 623.242 -0.909141 632.445 0.884798 651.163C1.58265 658.45 1.66974 664.961 1.07688 665.63C0.485303 666.301 0 668.45 0 670.409C0 675.168 6.84156 681.361 17.0495 685.844C23.6874 688.759 26.8348 689.331 36.4934 689.376C42.8317 689.406 53.2036 690.29 59.5419 691.343C72.7102 693.531 117.499 697.09 132.043 697.104L141.802 697.114L142.833 737.191C144.207 790.526 144.076 821.487 142.333 855.496C141.539 871.014 140.306 899.292 139.596 918.336C138.884 937.38 137.056 981.817 135.533 1017.08C133.009 1075.51 132.903 1085.02 134.324 1124.17C135.182 1147.8 136.35 1169.98 136.921 1173.46C138.19 1181.21 141.803 1184.62 148.407 1184.3C150.942 1184.18 155.897 1185 159.419 1186.13C176.345 1191.55 224.65 1193.21 246.743 1189.13C253.221 1187.93 264.169 1185.2 271.072 1183.06C277.976 1180.92 290.251 1177.76 298.35 1176.04C306.449 1174.32 318.436 1171.36 324.989 1169.47C335.459 1166.44 337.435 1166.22 341.307 1167.62C346.556 1169.52 348.288 1168.73 348.288 1164.42C348.288 1158.03 333.181 1155.12 321.652 1159.3C318.622 1160.39 309.115 1162.77 300.524 1164.58C291.933 1166.39 278.278 1169.85 270.179 1172.26C253.304 1177.29 238.664 1180.02 222.162 1181.24C208.539 1182.24 177.299 1178.45 163.688 1174.15L155.152 1171.45L154.438 1160.95C151.55 1118.58 151.262 1076.86 153.532 1029.91C154.283 1014.39 155.482 986.979 156.198 968.992C156.914 951.006 158.507 913.495 159.74 885.633C162.096 832.329 162.342 794.221 160.73 731.74C159.694 691.559 159.096 687.863 153.27 685.658C151.722 685.072 149.485 685.102 148.299 685.724C143.605 688.185 94.1799 685.427 65.4064 681.099C58.3165 680.032 48.0471 679.155 42.5846 679.147C31.2512 679.133 21.6143 675.536 14.5039 668.667C10.957 665.24 10.6177 664.352 11.8341 661.678C13.0032 659.109 12.7535 658.11 10.2886 655.482C5.55213 650.432 5.45993 638.654 9.99535 617.603C20.8333 567.293 40.0134 504.103 59.3485 455.007C64.5472 441.807 70.9637 425.317 73.6079 418.362C79.6427 402.492 91.6125 379.029 100.587 365.476C117.427 340.046 144.515 309.996 159.695 299.904C169.635 293.296 189.018 282.244 196.408 278.97C203.636 275.768 239.691 268.778 248.984 268.778C267.689 268.778 287.37 276.288 307.016 290.922C319.796 300.442 341.637 321.037 348.332 329.882C351.457 334.011 356.131 339.986 358.717 343.16C365.188 351.098 370.995 362.147 380.96 385.481C385.63 396.413 390.802 408.254 392.454 411.792C411.037 451.597 413.529 459.776 422.475 510.333C425.238 525.953 427.858 543.061 428.298 548.351C429.154 558.655 431.914 585.017 434.191 604.628C434.959 611.246 437.568 624.519 439.986 634.125C444.191 650.819 448.165 674.954 448.165 683.797C448.165 687.8 447.914 688.001 441.442 689.2C424.473 692.341 417.149 693.271 408.963 693.323C404.114 693.354 395.825 693.897 390.544 694.529C384.84 695.212 379.119 695.209 376.458 694.519C373.993 693.881 363.334 692.426 352.77 691.284C318.287 687.559 319.791 687.593 316.274 690.447C311.613 694.226 312.07 700.436 319.744 737.511C329.641 785.323 331.184 812.074 332.979 966.899C333.683 1027.65 334.862 1084 335.597 1092.11C336.334 1100.22 337.267 1115.16 337.673 1125.31C338.485 1145.66 339.606 1148.53 346.722 1148.53C356.384 1148.53 357.851 1142.81 355.196 1115.44C352.75 1090.24 350.992 1019.55 350.899 942.702C350.844 897.61 350.105 866.534 348.28 832.669C345.404 779.284 344.425 769.207 340.088 748.412C331.478 707.134 330.014 699.598 330.511 699.101C331.502 698.108 371.865 702.294 379.741 704.206C390.892 706.914 414.141 706.612 432.159 703.526C440.397 702.116 449.834 700.962 453.129 700.962C459.873 700.962 464.366 698.452 466.182 693.67C468.113 688.582 463.962 656.737 458.271 632.992C455.483 621.354 452.643 606.349 451.96 599.649C451.278 592.948 450.162 583.137 449.481 577.847C448.801 572.557 447.612 561.015 446.839 552.198C445.296 534.584 438.501 494.128 433.375 472.046C428.244 449.936 424.662 439.922 412.043 412.412C409.939 407.827 404.764 395.997 400.543 386.122C396.321 376.247 390.048 362.685 386.602 355.984C377.789 338.839 358.724 315.454 339.859 298.645C325.569 285.912 305.376 271.246 299.613 269.414C296.727 268.496 296.163 266.213 298.822 266.213C299.786 266.213 308.396 263.114 317.957 259.324C345.242 248.509 356.852 238.909 366.226 219.404C375.106 200.928 375.818 197.023 375.816 166.824C375.814 142.25 375.494 138.322 372.156 121.938C366.968 96.473 359.508 72.9774 351.232 56.0325C345.54 44.3802 342.254 39.4825 334.989 31.8186C312.106 7.68691 284.144 -2.91762 252.893 0.687331ZM283.284 14.6685C295.042 17.9349 304.464 23.9201 316.882 36.0148C326.06 44.956 328.249 48.0056 333.897 59.74C341.07 74.6446 346.904 91.9024 351.668 112.32C357.55 137.515 358.758 148.566 358.196 171.954C357.698 192.604 357.459 194.322 353.651 204.495C344.024 230.216 331.022 241.64 299.236 252.308C288.818 255.805 285.847 256.249 273.38 256.171C255.61 256.06 237.906 252.581 237.413 249.103C236.942 245.776 236.173 245.272 230.934 244.858C227.905 244.62 225.25 245.322 223.258 246.893C218.442 250.687 208.269 252.553 197.414 251.635C177.5 249.948 159.536 237.13 141.464 211.71C126.723 190.975 121.46 176.63 121.231 156.564C121.113 146.213 121.75 141.391 124.528 131.557C132.597 103.005 146.399 74.3534 158.575 60.8762C170.843 47.299 205.198 26.6876 228.706 18.8018C248.468 12.1716 268.761 10.6352 283.284 14.6685ZM888.671 168.909C876.354 170.337 867.373 174.753 858.032 183.973C848.581 193.301 843.383 202.635 839.456 217.33C833.458 239.777 833.855 263.388 840.678 289.939C847.258 315.549 861.079 336.476 878.661 347.452C883.835 350.681 890.982 354.071 894.543 354.984C898.584 356.019 900.821 357.235 900.495 358.218C899.849 360.157 906.925 366.881 912.976 370.078C917.909 372.686 918.114 372.518 905.933 375.89C887.146 381.095 853.815 397.793 841.947 407.948C834.744 414.111 819.1 433.541 807.591 450.618C800.29 461.451 790.063 481.456 778.988 506.566C773.043 520.046 763.942 550.3 761.771 563.804C761.055 568.251 760.218 572.298 759.909 572.797C759.602 573.297 757.47 582.573 755.173 593.41C751.102 612.612 750.996 613.921 750.996 644.72C750.996 674.001 751.175 676.525 753.435 679.025C756.062 681.931 762.422 682.678 763.917 680.254C764.568 679.199 769.92 679.007 782.88 679.578C808.268 680.696 817.828 683.722 830.039 694.503C840.73 703.943 841.279 705.266 844.629 729.606C853.138 791.437 854.822 830.582 852.051 902.109C849.249 974.412 850.389 1008.17 858.55 1094.67C862.387 1135.34 865.345 1161.21 867.05 1169.03C869.144 1178.63 870.376 1179.3 884.627 1178.49C905.53 1177.31 1003.14 1180.27 1015.09 1182.46C1030.66 1185.3 1041.76 1185.54 1044.21 1183.08C1045.96 1181.33 1046.29 1172.03 1046.83 1108.6C1047.36 1045.86 1047.1 1030.44 1044.87 993.896C1043.45 970.677 1041.73 934.366 1041.04 913.206C1040.34 892.046 1039.05 857.131 1038.16 835.618C1036.5 795.448 1036.11 750.988 1037.15 719.878L1037.73 702.244L1042.26 702.204C1054.27 702.1 1079.13 699.596 1093.52 697.039C1114.67 693.282 1115.88 692.158 1114.68 677.352C1114.22 671.645 1112.75 660.34 1111.42 652.229C1107.17 626.453 1106.23 618.681 1105.06 599.649C1103.46 573.627 1094.6 521.069 1088.08 498.977C1085.07 488.761 1070.5 458.35 1063.88 448.464C1053.55 433.021 1034.05 413.02 1016.69 400.063C1004.82 391.196 981.09 378.257 968.676 373.877L962.274 371.617L966.459 370.08C989.427 361.639 1010.79 346.707 1019.44 333.044C1027.52 320.282 1038.49 283.197 1038.44 268.81C1038.34 241.396 1025.77 208.317 1009.17 191.766C993.54 176.182 980.517 172.245 935.21 169.406C901.736 167.308 902.417 167.315 888.671 168.909ZM943.067 182.951C963.006 184.19 979.533 187.099 985.834 190.483C991.346 193.44 1003.92 208.609 1007.75 216.924C1017.54 238.161 1019.53 245.336 1020.2 261.725C1020.76 275.192 1020.43 278.803 1017.57 290.636C1011 317.88 1004.15 331.137 991.403 341.298C977.947 352.025 954.351 361.737 938.036 363.264C929.28 364.082 912.372 360.964 908.149 357.752C906.163 356.241 906.339 356.061 909.838 356.025C916.423 355.956 919.124 350.403 914.866 345.691C913.234 343.885 912.101 343.75 907.933 344.864C897.755 347.586 882.326 338.984 870.327 323.9C860.823 311.954 855.933 301.352 851.841 283.828C847.486 265.175 846.989 237.499 850.755 223.252C855.527 205.192 865.032 191.597 877.248 185.355C886.974 180.386 896.291 180.045 943.067 182.951ZM954.591 381.458C964.632 384.084 970.556 386.907 989.311 398.006C1006.46 408.158 1021.79 421.351 1037.33 439.343C1048.75 452.565 1051.1 456.214 1060.09 474.61C1070.34 495.576 1072.96 503.695 1078.1 530.397C1084.39 563.025 1087.24 582.31 1088.36 599.649C1089.69 620.169 1092.36 641.329 1095.49 656.076C1096.61 661.366 1097.64 669.707 1097.77 674.613L1098 683.531L1085.84 685.847C1079.15 687.12 1063.85 688.65 1051.85 689.247C1029.43 690.36 1025.77 691.232 1022.5 696.228C1019.81 700.337 1018.35 777.771 1020.38 808.687C1021.19 821.03 1022.43 853.636 1023.13 881.145C1023.83 908.653 1025.25 945.299 1026.28 962.58C1030.14 1027.56 1030.67 1041.69 1031.4 1101.08C1031.82 1134.59 1032.49 1165.03 1032.89 1168.73L1033.63 1175.47L1027.4 1175.43C1023.98 1175.42 1018.87 1174.81 1016.05 1174.09C1011.32 1172.87 990.664 1172.02 907.854 1169.6C889.807 1169.08 876.136 1168.16 875.669 1167.43C874.661 1165.87 872.444 1148.77 870.067 1124.23C863.068 1051.97 861.686 1035.64 860.353 1009.39C859.301 988.651 859.191 965.232 859.986 930.519C861.516 863.699 861.279 809.565 859.352 785.603C857.751 765.71 852.597 722.963 850.263 710.221C848.678 701.573 843.196 693.617 833.885 686.453C818.816 674.861 808.627 671.903 779.461 670.65C759.509 669.793 759.258 669.746 758.493 666.693C758.068 664.995 758.039 651.957 758.428 637.719C759.051 614.921 759.608 609.766 763.096 594.519C765.275 584.997 767.698 574.032 768.481 570.152C771.531 555.049 778.876 529.218 783.25 518.213C790.734 499.383 809.7 462.552 817.592 451.526C830.383 433.654 843.769 417.901 850.741 412.513C859.956 405.393 889.464 390.553 902.732 386.365C926.743 378.789 939.7 377.561 954.591 381.458ZM586.901 557.965C562.49 563.281 541.999 573.679 527.449 588.135C516.156 599.354 509.891 610.738 505.627 627.785C503.22 637.406 503.066 639.903 504.24 650.255C506.518 670.337 514.713 690.257 525.007 700.729C533.959 709.837 542.488 712.876 560.471 713.362C568.364 713.574 575.278 713.826 575.837 713.919C581.14 714.808 581.57 710.107 576.463 707.085C574.417 705.875 568.501 704.614 562.698 704.152C547.799 702.966 538.927 699.391 532.148 691.84C522.637 681.243 516.069 661.915 516.045 644.447C516.008 617.568 530.144 595.101 555.362 581.961C568.028 575.362 569.587 575.199 566.274 580.821C559.381 592.522 556.656 614.88 561.266 621.931C564.369 626.679 571.286 629.413 580.693 629.613C589.164 629.792 596.967 626.409 597.776 622.207C598.538 618.244 595.68 616.964 586.073 616.963L576.852 616.962L576.91 605.42C576.953 596.935 577.568 592.749 579.231 589.619C583.382 581.802 593.143 569.981 596.542 568.651C601.055 566.885 622.293 568.12 631.912 570.706C649.354 575.398 661.531 583.648 671.334 597.413C681.671 611.928 686.314 626.771 686.325 645.324C686.332 657.623 686.097 658.768 681.795 667.378C674.024 682.936 667.968 686.61 624.229 702.297C618.595 704.318 608.512 706.642 601.821 707.462C587.705 709.191 583.358 711.256 584.228 715.814C584.751 718.554 583.636 719.526 574.208 724.55C558.121 733.12 539.164 745.589 532.242 752.154C527.06 757.067 515.651 771.282 500.894 791.21C496.086 797.703 489.758 811.097 485.973 822.794C484.032 828.789 478.992 841.062 474.772 850.069C468.536 863.375 466.766 868.659 465.324 878.283C463.159 892.722 463.049 904.815 464.998 913.993C465.804 917.792 466.525 923.689 466.598 927.095C466.744 933.867 468.582 936.09 475.636 938.025C479.425 939.064 501.007 938.079 514.255 936.263C520.413 935.418 520.847 935.545 521.546 938.392C521.956 940.058 525.515 967.389 529.458 999.13C533.401 1030.87 538.032 1063.76 539.748 1072.23C543.662 1091.52 549.952 1131.91 551.933 1150.47C552.76 1158.22 553.702 1165.01 554.028 1165.55C554.353 1166.08 555.407 1181.18 556.372 1199.1C558.363 1236.08 559.366 1241.65 564.381 1243.56C568.672 1245.2 573.213 1244.1 575.172 1240.96C576.607 1238.66 576.855 1238.72 580.162 1242.27C583.3 1245.63 584.443 1246 591.804 1246C607.225 1246 633.496 1241.67 651.76 1236.11C655.633 1234.93 660.819 1233.75 663.284 1233.49C670.454 1232.73 670.951 1231.13 671.109 1208.24C672.044 1072.79 671.988 1062.4 670.241 1041.45C667.078 1003.53 665.874 981.891 665.535 956.808L665.204 932.44L675.448 932.362C682.82 932.307 689.96 931.12 700.917 928.131C709.29 925.846 719.897 923.626 724.489 923.196C738.269 921.907 738.81 920.506 736.251 892.687C733.857 866.639 723.139 820.835 714.796 800.992C709.37 788.086 695.471 760.932 689.194 750.977C682.184 739.857 661.59 720.243 651.445 715.024C646.693 712.579 642.804 710.205 642.801 709.746C642.799 709.289 647.442 707.414 653.119 705.578C678.506 697.377 692.243 687.365 699.471 671.795C703.133 663.905 703.539 661.742 704.003 647.624C704.375 636.233 703.971 630.003 702.474 624.152C696.795 601.949 684.638 583.373 668.836 572.749C648.718 559.223 611.751 552.553 586.901 557.965ZM640.708 724.966C650.949 731.186 668.173 748.616 674.228 758.887C681.903 771.906 693.942 795.339 698.064 805.281C707.874 828.938 719.625 883.91 719.625 906.138V913.731L714.823 914.504C712.182 914.93 703.319 916.658 695.126 918.346C682.647 920.917 678.034 921.291 666.677 920.647C656.537 920.071 652.619 920.295 651.127 921.535C649.365 923 649.202 928.768 649.74 970.78C650.074 996.952 650.98 1021.83 651.751 1026.06C653.519 1035.77 654.834 1152.57 653.632 1193.21L652.747 1223.13L647.134 1225.54C639.317 1228.9 617.613 1232.9 601.619 1233.94C590.133 1234.68 587.693 1234.49 584.845 1232.62C581.665 1230.53 581.394 1230.55 578.978 1232.97C576.452 1235.5 576.438 1235.47 575.112 1225.04C574.378 1219.29 573.452 1205.45 573.054 1194.28C572.059 1166.44 564.588 1107.19 557.728 1072.74C555.959 1063.85 552.761 1042.78 550.624 1025.93C548.488 1009.07 546.486 994.128 546.174 992.717C545.863 991.307 544.393 980.342 542.905 968.351C537.717 926.508 536.107 924.177 514.62 927.408C498.713 929.801 486.167 929.752 481.393 927.28C479.316 926.204 477.616 924.802 477.616 924.166C477.616 923.528 476.607 921.998 475.375 920.766C472.172 917.564 471.637 897.556 474.33 881.721C475.991 871.948 477.901 866.501 484.201 853.572C488.497 844.756 493.633 832.784 495.614 826.968C500.539 812.516 506.216 801.328 512.435 793.826C515.307 790.361 519.982 784.352 522.824 780.473C537.843 759.967 548.696 751.239 580.611 734.005C592.849 727.397 596.395 726.123 608.741 723.897C616.511 722.495 623.126 721.09 623.442 720.774C625.493 718.718 633.704 720.713 640.708 724.966Z" fill="currentColor"/>
</svg>
