<svg width="592" height="486" viewBox="0 0 592 486" fill="none" xmlns="http://www.w3.org/2000/svg">
<path fill-rule="evenodd" clip-rule="evenodd" d="M191.321 2.98199C196.113 1.93599 202.834 0.840174 206.257 0.546297C222.87 -0.880127 228.933 0.102369 253.242 8.15721C259.917 10.3688 267.338 13.0161 269.734 14.0397C275.474 16.4922 285.824 21.942 289.337 24.3615C290.877 25.4219 293.538 27.0052 295.249 27.8793C302.082 31.3698 307.267 34.405 311.118 37.1701C313.343 38.7671 318.195 42.0184 321.902 44.395C332.424 51.1436 338.395 55.6227 343.79 60.8178C346.529 63.454 351.569 68.3142 354.992 71.6178C358.415 74.9214 362.196 78.9367 363.394 80.5418C369.758 89.0661 377.579 95.9336 394.693 108.022C397.24 109.821 400.271 112.139 401.428 113.174C402.586 114.209 404.514 115.521 405.712 116.09C406.91 116.658 410.69 118.802 414.113 120.853C417.536 122.904 422.436 125.621 425.004 126.891C438.124 133.379 449.844 145.834 457.261 161.171C463.061 173.166 465.455 184.132 465.455 198.713C465.455 216.59 462.797 224.382 452.987 235.264C448.682 240.039 438.54 247.271 432.082 250.169C429.79 251.198 426.027 253.295 423.721 254.829C418.476 258.317 410.983 262.064 405.74 263.819C401.843 265.124 391.895 267.303 382.997 268.801C380.601 269.205 375.84 270.333 372.417 271.309C365.948 273.153 361.388 274.133 356.449 274.742C353.853 275.061 353.437 275.339 352.467 277.404C350.197 282.235 347.175 286.254 344.589 287.878C343.123 288.799 340.828 290.485 339.489 291.626C336.674 294.023 329.046 297.891 325.979 298.477C324.822 298.698 322.896 299.367 321.698 299.964C318.859 301.379 311.784 303.459 307.073 304.265C289.102 307.338 287.18 307.481 262.266 307.606C241.054 307.712 237.564 307.595 234.573 306.678C232.69 306.102 230.52 305.439 229.75 305.205C228.409 304.798 228.35 304.934 228.349 308.432C228.348 312.339 227.027 320.647 225.838 324.226C224.036 329.654 218.025 341.843 215.715 344.753C215.299 345.278 214.411 346.827 213.742 348.197C213.073 349.567 211.75 351.851 210.803 353.274C208.88 356.16 204.851 364.448 202.829 369.678C202.1 371.561 200.856 374.223 200.064 375.592C199.273 376.962 198.14 379.764 197.547 381.819C194.177 393.493 190.929 400.071 187.33 402.514C182.774 405.606 179.94 405.855 175.147 403.586C172.609 402.385 171.717 401.599 171.434 400.317C171.192 399.219 170.216 398.144 168.641 397.24C166.927 396.256 166.097 395.285 165.796 393.914C165.347 391.872 165.801 387.444 166.78 384.309C167.1 383.282 167.942 380.436 168.65 377.986C169.358 375.535 171.038 371.338 172.383 368.658C173.729 365.979 174.83 363.484 174.83 363.115C174.83 361.668 180.925 348.524 184.013 343.313C185.808 340.285 187.276 337.692 187.276 337.553C187.276 337.413 188.979 334.342 191.06 330.727C197.984 318.702 199.1 314.614 199.1 301.283C199.1 292.184 200.096 284.977 201.925 280.84C202.767 278.934 203.457 277.022 203.457 276.591C203.457 276.159 202.364 274.819 201.028 273.611C198.472 271.302 191.006 268.584 184.99 267.776C177.171 266.724 171.861 262.129 164.975 250.453C159.02 240.357 157.148 235.967 155.575 228.402C154.891 225.116 153.403 220.048 152.266 217.139C150.247 211.969 150.084 211.762 145.024 207.901C142.176 205.729 139.015 203.004 137.999 201.846C135.862 199.412 132.589 198.494 130.339 199.699C129.08 200.373 128.695 200.295 127.433 199.107C126.632 198.354 125.208 197.279 124.266 196.718C122.133 195.446 122.103 194.108 124.153 191.672C128.157 186.91 132.594 185.211 143.091 184.418C149.56 183.929 152.124 184.785 158.027 189.401C160.252 191.14 163.222 193.307 164.626 194.214C169.952 197.654 174.739 202.768 177.092 207.534C178.339 210.057 179.582 211.983 179.854 211.815C180.127 211.646 180.948 209.907 181.68 207.951C182.411 205.995 183.97 203.058 185.143 201.424C186.317 199.79 187.276 198.199 187.276 197.888C187.276 196.837 191.095 194.098 192.56 194.098C193.636 194.098 194.515 194.911 195.935 197.221C196.991 198.938 197.856 200.614 197.856 200.944C197.856 201.274 196.503 203.441 194.849 205.76C193.195 208.078 191.345 211.236 190.738 212.777C184.339 229.008 184.316 229.412 189.28 238.305C191.287 241.9 193.857 246.103 194.991 247.644C197.162 250.594 198.616 251.307 208.758 254.389C211.16 255.12 215.219 257.008 217.778 258.586L222.431 261.456L227.101 259.472C234.765 256.217 236.962 255.58 239.137 255.989C240.749 256.291 241.335 256.823 241.958 258.545C242.454 259.92 243.151 260.719 243.852 260.719C246.213 260.719 247.302 263.01 247.347 268.076C247.388 272.571 247.282 272.953 245.493 274.799C244.45 275.876 241.706 277.533 239.394 278.482C236.308 279.75 234.956 280.681 234.303 281.991C233.427 283.748 233.448 283.789 235.697 284.73C240.153 286.592 243.19 286.88 262.266 287.242C272.211 287.431 277.056 287.545 281.871 287.223C286.912 286.886 291.922 286.072 302.717 284.365C304.771 284.041 308.831 282.927 311.741 281.89C318.273 279.563 320.442 277.483 321.667 272.371C322.434 269.168 322.417 268.532 321.514 266.639C320.105 263.681 316.151 259.439 313.934 258.505C312.23 257.787 311.916 257.869 310.02 259.535C307.378 261.856 299.479 265.7 297.35 265.7C296.449 265.7 294.707 265.28 293.478 264.766C292.25 264.252 290.271 263.832 289.081 263.832C287.89 263.832 284.871 262.897 282.37 261.754C277.368 259.468 274.073 256.338 272.005 251.906C270.227 248.097 268.944 246.824 264.607 244.566C261.076 242.727 260.776 242.402 260.374 239.979C260.136 238.544 259.841 236.831 259.718 236.171C259.366 234.281 260.539 233.434 264.132 232.986C266.991 232.628 267.978 232.811 271.046 234.263C275.116 236.189 280.342 241.158 282.174 244.842C284.17 248.857 285.564 250.134 287.949 250.134C289.121 250.134 290.822 249.614 291.731 248.978C294.766 246.853 301.567 244.531 304.753 244.531C307.982 244.531 311.418 245.44 312.985 246.708C313.499 247.123 315.386 247.979 317.179 248.608C321.621 250.168 326.036 254.215 329.562 259.962C331.184 262.604 332.571 264.856 332.645 264.965C332.889 265.326 335.389 263.543 335.389 263.008C335.389 262.719 337.334 259.553 339.71 255.972C343.116 250.84 344.257 248.51 345.095 244.972C346.293 239.92 346.857 238.927 348.534 238.927C349.177 238.927 349.702 238.778 349.702 238.597C349.702 237.772 344.06 230.003 340.719 226.227C336.794 221.791 334.082 220.189 322.884 215.69C317.779 213.639 317.001 213.512 305.77 212.894C299.299 212.537 291.904 212.225 289.337 212.199C280.95 212.114 276.993 211.094 270.567 207.358C266.589 205.047 262.942 201.18 259.695 195.832L257.488 192.197L255.771 194.568C254.827 195.872 253.745 197.518 253.366 198.226C252.987 198.933 251.422 200.465 249.888 201.631C248.068 203.011 246.785 204.616 246.2 206.24C245.707 207.609 244.819 210.082 244.226 211.734C242.757 215.824 236.534 223.512 233.028 225.568L230.188 227.232L219.948 221.094L220.012 217.688C220.064 214.905 220.725 212.92 223.629 206.837C226.657 200.49 227.708 198.243 229.168 196.304C230.044 195.14 231.067 194.086 232.754 192.322C234.952 190.023 238.317 186.19 240.232 183.804C242.252 181.287 244.733 178.958 246.144 178.253C251.479 175.587 251.608 175.068 248.932 167.047C246.824 160.73 245.675 159.297 240.909 157.04C237.679 155.51 236.966 155.411 230.868 155.656C226.851 155.817 221.407 156.58 216.837 157.622C208.199 159.591 204.964 159.5 197.843 157.09C192.097 155.145 185.723 150.904 180.392 145.477C178.146 143.191 175.187 140.748 173.816 140.048C170.649 138.432 169.81 137.404 170.162 135.572C170.317 134.767 170.177 133.785 169.849 133.391C169.457 132.917 169.673 131.85 170.486 130.255C171.164 128.926 171.718 126.902 171.718 125.758C171.718 123.944 172.016 123.554 174.05 122.704C177.031 121.458 182.667 121.973 186.386 123.831C187.854 124.564 190.966 127.119 193.3 129.509C198.053 134.374 201.4 136.862 204.863 138.102C206.942 138.847 207.95 138.779 213.887 137.497C224.568 135.192 225.817 135.026 232.748 134.987C237.049 134.963 240.495 135.294 242.705 135.944C247.989 137.499 255.243 141.548 259.261 145.186C264.272 149.722 266.636 154.73 270.303 168.571C272.72 177.695 272.889 178.164 275.358 182.58C278.384 187.994 280.404 190.334 282.981 191.411C284.356 191.986 289.538 192.498 297.946 192.891C305.02 193.222 312.068 193.75 313.608 194.065C315.148 194.38 317.742 194.791 319.374 194.98C323.948 195.508 340.418 202.658 345.641 206.382C348.794 208.63 356.221 217.205 358.185 220.864C359.014 222.409 360.238 224.514 360.903 225.541C365.565 232.734 366.757 236.924 366.211 244.206L365.778 249.99L370.653 248.854C373.335 248.229 379.59 246.985 384.553 246.09C399.622 243.372 401.139 242.792 415.316 234.341C420.233 231.41 424.242 228.439 427.181 225.548C435.471 217.394 437.167 212.486 436.653 198.146C436.376 190.447 435.982 187.521 434.406 181.494C430.283 165.722 419.815 150.297 409.987 145.514C408.491 144.785 406.847 143.926 406.334 143.605C405.82 143.283 403.497 142.069 401.171 140.906C398.845 139.742 396.528 138.446 396.022 138.027C394.339 136.629 394.48 137.814 396.7 143.724C398.32 148.036 398.882 150.484 398.832 153.006C398.794 154.889 398.787 156.858 398.815 157.381C398.845 157.933 400.552 159.067 402.883 160.083C410.654 163.47 414.065 169 418.104 184.759C419.464 190.067 421.018 196.091 421.557 198.146C422.628 202.231 422.401 205.404 420.698 210.178L419.66 213.088L413.841 213.4C410.505 213.578 408.808 213.685 407.753 212.915C406.635 212.098 406.237 210.297 405.374 206.551C404.782 203.983 403.797 200.34 403.184 198.457C402.572 196.573 401.46 192.091 400.715 188.495C399.969 184.899 399.147 180.977 398.889 179.778C398.631 178.58 397.714 176.03 396.852 174.112C395.519 171.151 394.978 170.563 393.263 170.22C389.418 169.451 388.616 169.754 385.154 173.282C383.283 175.188 380.002 178.004 377.863 179.54C373.183 182.899 373.055 183.668 376.118 189.986C378.581 195.067 383.067 200.698 386.854 203.46C388.291 204.508 389.637 205.903 389.845 206.56C390.415 208.357 386.551 213.344 384.566 213.375C378.705 213.468 365.96 196.883 364.018 186.636C362.763 180.014 364.397 176.478 370.968 171.604L375.38 168.333L373.105 167.546C371.298 166.92 358.33 166.406 351.103 166.675C350.675 166.69 350.325 167.242 350.325 167.901C350.325 169.738 347.613 172.561 342.15 176.414C339.417 178.34 336.288 180.746 335.196 181.76C332.29 184.458 329.882 185.612 328.886 184.785C328.439 184.414 326.044 183.122 323.564 181.914L319.054 179.718L319.353 177.062C319.815 172.955 321.053 171.039 325.433 167.651C327.657 165.931 331.017 162.934 332.9 160.99C337.68 156.053 340.674 154.62 345.214 155.094C347.17 155.299 353.39 155.741 359.037 156.078C375.821 157.079 379.595 157.474 380.438 158.318C382.256 160.135 384.077 159.651 386.289 156.762C388.972 153.258 388.842 152.078 384.512 140.553C382.775 135.93 381.092 131.307 380.773 130.28C380.402 129.083 379.051 127.63 377.011 126.233C375.26 125.034 372.798 123.353 371.539 122.497C370.28 121.641 367.162 119.369 364.611 117.448C362.059 115.528 358.772 113.346 357.305 112.6C355.84 111.854 353.283 109.923 351.625 108.309C349.967 106.696 347.177 104.026 345.426 102.378C343.674 100.73 340.955 97.578 339.383 95.3739C337.811 93.1698 336.339 91.353 336.112 91.3368C335.886 91.3207 334.743 89.9633 333.574 88.3202C332.404 86.6771 330.463 84.6586 329.262 83.8355C328.06 83.0118 323.305 78.6105 318.695 74.0541C310.32 65.777 305.811 62.4877 304.888 63.982C304.635 64.3917 304.079 65.8878 303.653 67.3062C302.051 72.6383 298.657 78.9006 294.733 83.7633L290.677 88.7891L299.515 94.0813C304.375 96.9927 309.14 99.9938 310.102 100.751C311.73 102.032 319.689 113.604 321.847 117.827C322.372 118.855 323.845 123.057 325.121 127.167C327.411 134.545 327.472 134.654 330.012 135.883C331.427 136.568 332.991 137.872 333.488 138.779C334.296 140.254 334.264 140.831 333.184 144.214C331.781 148.605 330.1 149.748 326.199 148.96C324.922 148.702 321.9 148.424 319.486 148.342C312.939 148.12 309.261 145.395 306.308 138.576C305.375 136.422 303.028 126.543 303.028 124.77C303.028 124.02 301.838 121.809 300.383 119.855C298.929 117.902 297.197 114.965 296.535 113.33C295.257 110.172 294.295 109.233 290.289 107.241C288.91 106.555 285.943 104.676 283.696 103.066C280.627 100.867 279.253 100.233 278.17 100.516C276.771 100.882 276.738 101.05 277.05 106.247C277.254 109.642 277.87 112.85 278.734 115.013C280.081 118.385 284.231 125.084 286.842 128.101C290.785 132.657 293.894 135.575 294.825 135.593C295.4 135.605 296.542 136.172 297.361 136.855C298.531 137.83 298.908 138.858 299.119 141.659C299.371 145.007 299.248 145.401 297.079 148.18C295.082 150.739 294.468 151.137 292.521 151.135C290.106 151.133 286.271 149.17 286.155 147.878C286.116 147.445 286.095 146.157 286.107 145.015C286.13 142.921 284.307 140.678 278.208 135.301C274.86 132.349 270.119 125.676 267.562 120.318C262.864 110.472 262.591 99.0941 266.861 91.1326C268.512 88.0563 273.869 83.338 277.404 81.8487C281.79 80.0008 287.467 73.3138 290.058 66.9432L291.856 62.5251L290.441 60.9187C289.663 60.0352 288.858 59.1691 288.653 58.9954C287.15 57.7216 286.236 53.3862 287.47 53.3862C287.812 53.3862 288.087 52.8962 288.081 52.2967C288.068 51.189 283.265 48.1039 277.273 45.3557C275.6 44.5886 272.785 42.8913 271.016 41.5838C269.247 40.277 266.085 38.3412 263.989 37.2828C261.893 36.2243 260.001 35.0719 259.786 34.7213C259.569 34.3714 258.914 34.085 258.329 34.085C257.744 34.085 256.234 33.3839 254.973 32.5266C252.615 30.9233 247.18 28.9627 234.381 25.0969C224.66 22.1612 224.12 22.1792 223.596 25.4524C223.358 26.9473 222.44 28.8768 221.409 30.051C219.01 32.785 217.77 35.9603 217.77 39.3711C217.77 41.9742 218.042 42.4748 221.097 45.4821C228.549 52.819 232.75 62.21 232.846 71.7455C232.898 76.8516 232.718 77.7774 230.945 81.4926C229.211 85.1281 219.748 96.9261 218.512 96.9927C218.275 97.0058 216.463 98.5188 214.485 100.355C212.506 102.192 209.944 104.142 208.79 104.69C206.619 105.721 201.221 106.026 199.911 105.193C199.5 104.932 198.267 102.765 197.169 100.377C196.071 97.9895 194.804 95.6012 194.352 95.0701C192.694 93.12 194.422 89.9104 200.364 83.909C207.309 76.8945 209.057 74.2198 209.057 70.6123C209.057 67.3834 206.462 59.8522 204.764 58.1537C203.581 56.97 203.535 56.9869 201.163 59.4817C199.842 60.8714 197.927 62.1795 196.908 62.3893C187.706 64.2821 182.238 67.4556 177.59 73.6009C175.769 76.0092 172.853 79.8009 171.111 82.0268C167.297 86.8994 164.98 91.2515 162.656 97.9036C161.028 102.568 160.531 103.27 154.835 108.955C149.265 114.515 147.204 115.82 145.961 114.577C145.715 114.33 143.218 113.273 140.413 112.228L135.312 110.328L135.119 107.659C134.876 104.297 136.381 99.6974 138.83 96.3141C139.871 94.8771 141.243 92.188 141.879 90.3388C142.515 88.489 143.891 85.3721 144.938 83.4121C147.116 79.3296 157.974 65.0753 162.197 60.7531C165.396 57.4787 174.973 52.2288 180.811 50.549C184.814 49.3971 187.696 48.074 188.964 46.8058C189.412 46.3575 190.719 45.6508 191.868 45.2349C193.946 44.4834 193.959 44.4529 194.285 39.6979C194.636 34.5713 195.77 31.6829 199.485 26.4579C200.641 24.8316 201.279 23.5005 200.903 23.5005C200.525 23.5005 196.067 24.3422 190.993 25.3714C185.921 26.4006 176.918 28.0649 170.988 29.0698C156.796 31.4744 155.922 31.6848 145.154 35.2972C134.941 38.7229 125.084 43.547 110.644 52.1858C97.8994 59.8104 94.0808 62.4186 82.9027 71.1341L73.4328 78.5171L75.3439 79.6795C76.6826 80.4939 77.163 81.1906 76.9501 82.0069C76.7585 82.7397 77.2184 83.6705 78.1898 84.5154C79.5011 85.656 79.671 86.199 79.3131 88.1061C79.0816 89.342 78.0442 91.5859 77.008 93.0926C74.9114 96.1422 74.0688 100.634 74.0339 108.955C74.0147 113.471 74.0987 113.78 75.3402 113.78C76.0702 113.78 77.5606 114.333 78.6528 115.008C80.3779 116.075 81.1228 116.162 84.3272 115.668C94.5463 114.092 97.4532 113.78 101.95 113.78C107.15 113.78 108.839 114.342 115.709 118.356L119.132 120.356L119.443 124.94C119.804 130.26 119.396 130.782 114.094 131.789C108.415 132.866 103.208 131.449 99.2175 127.738C97.2472 125.907 97.0431 125.876 88.9492 126.199C82.4085 126.459 81.2417 126.722 80.3605 128.134C79.6878 129.211 79.9056 129.84 82.0246 132.94C84.9781 137.261 86.9079 139.051 91.6052 141.824C93.5792 142.989 95.8968 144.956 96.755 146.195C98.8024 149.151 100.775 156.177 100.765 160.475C100.753 165.714 98.5491 178.432 96.9883 182.269C95.9295 184.872 95.3728 186.312 94.3234 187.001C92.9963 187.873 90.8813 187.545 85.9664 186.855L78.3964 185.792L77.6328 183.563C76.7242 180.911 76.6023 170.966 77.3596 161.27L77.9054 154.28L76.2077 153.634C71.9504 152.015 67.6645 148.363 63.5217 142.825C58.291 135.832 56.7639 133.093 54.0997 125.922C52.1238 120.602 52 119.776 51.6583 109.623L51.2986 98.9278L49.1205 100.941C39.7309 109.623 29.0873 124.864 25.4697 134.808C22.0718 144.15 21.3611 149.288 22.2934 157.787C23.3961 167.846 23.9656 169.391 26.738 169.842C27.9478 170.039 29.2292 170.38 29.5864 170.601C29.9436 170.821 33.1548 171.593 36.7219 172.317C40.2897 173.04 43.6546 173.758 44.1998 173.914C45.9989 174.427 51.3646 178.791 54.0897 181.957C55.5628 183.67 60.0068 188.502 63.9648 192.696C67.9227 196.889 71.4283 200.812 71.7544 201.412C72.0805 202.013 72.7221 202.728 73.1801 203.002C74.2069 203.615 74.2306 205.538 73.276 210.721C72.4116 215.418 72.0207 215.72 66.095 216.271C60.8892 216.754 57.749 215.6 53.5166 211.645C51.9987 210.226 50.6284 209.193 50.4722 209.349C50.0782 209.744 55.1047 215.547 59.4822 219.75C64.2933 224.371 70.959 229.772 75.5593 232.777C76.934 233.675 80.1066 236.275 82.6102 238.554C85.1138 240.833 88.3343 243.432 89.7669 244.329C91.1995 245.227 93.1984 246.649 94.2078 247.489C95.9347 248.927 96.071 248.95 96.4979 247.864C96.7475 247.229 96.9715 241.726 96.9958 235.634C97.0462 222.76 97.6698 220.6 101.969 218.406C104.746 216.989 108.841 216.239 109.882 216.958C110.753 217.56 112.53 224.333 112.028 225.139C111.828 225.461 110.702 226.116 109.528 226.595L107.392 227.465L107.543 234.286C107.677 240.35 106.832 251.096 105.991 254.003C105.6 255.354 110.892 258.822 113.372 258.839C114.311 258.845 117.671 260.086 120.839 261.595C124.008 263.104 129.26 265.497 132.512 266.912C148.113 273.704 149.715 275.318 156.301 290.887C161.039 302.086 161.354 304.698 158.743 311.169C154.583 321.476 152.742 324.465 148.067 328.501C145.633 330.602 143.379 332.32 143.056 332.32C142.733 332.32 142.468 333.651 142.468 335.278C142.466 340.131 138.973 352.367 133.013 368.396C127.956 381.995 124.214 388.389 120.047 390.545C118.124 391.54 115.941 391.762 115.605 390.997C115.491 390.738 113.298 388.991 110.73 387.115C108.163 385.239 105.744 383.42 105.355 383.073C104.965 382.725 104.036 381.937 103.289 381.321C101.673 379.987 101.801 379.066 104.814 370.3C111.853 349.823 113.141 345.984 114.003 342.905C115.314 338.219 115.749 336.738 115.245 336.271C114.996 336.04 114.52 336.056 113.808 336.056C112.749 336.056 109.798 335.356 107.249 334.499C104.056 333.427 101.254 332.943 98.2448 332.943C93.3564 332.943 84.6918 330.281 77.2078 326.479C74.9376 325.326 71.7426 323.901 70.1083 323.313C68.2557 322.646 65.7614 320.918 63.4825 318.721C61.4724 316.783 59.1025 314.698 58.2164 314.086C57.3302 313.474 55.0861 311.093 53.2297 308.793C51.3733 306.495 47.869 302.516 45.4426 299.952C43.0155 297.389 41.0303 295.047 41.0303 294.749C41.0303 294.452 40.1902 293.147 39.1633 291.85C38.1365 290.553 37.2964 289.356 37.2964 289.189C37.2964 288.798 33.2593 282.09 32.4018 281.055C31.1634 279.562 21.4091 262.279 20.2217 259.474C19.5695 257.933 17.5438 253.534 15.7198 249.699C13.8958 245.864 12.4016 242.362 12.3997 241.916C12.3972 241.471 11.9809 240.311 11.4737 239.337C10.9665 238.364 9.99629 235.843 9.31734 233.734C8.639 231.625 7.48771 228.218 6.75959 226.163C4.68165 220.3 4.34311 218.656 3.23973 209.041C1.39827 192.993 1.95214 189.004 6.07877 188.608C7.7329 188.448 8.06273 188.199 7.72543 187.362C-1.06301 165.569 -2.26036 148.854 3.6598 130.624C7.60906 118.463 13.3102 108.932 24.909 95.1018C31.2654 87.5227 50.2842 68.9237 57.0489 63.6719C59.2625 61.9529 64.8957 57.5192 69.5663 53.819C74.2368 50.1187 79.6778 46.0561 81.6574 44.791C96.7537 35.141 101.48 32.1841 104.196 30.688C105.907 29.7453 107.588 28.7504 107.93 28.4771C108.272 28.2037 113.033 25.7357 118.51 22.9924C133.956 15.2557 148.714 10.6757 167.984 7.64044C174.667 6.58759 176.209 6.28001 191.321 2.98199ZM49.6271 240.329C44.1836 235.774 38.0257 229.491 33.9047 224.287C30.5286 220.023 30.4508 219.937 30.4508 220.473C30.4508 220.733 31.6712 223.941 33.1635 227.602C34.6552 231.263 36.2247 235.378 36.6516 236.748C39.7813 246.798 46.3736 260.049 56.2119 276.068C58.914 280.467 61.5956 284.848 62.1706 285.802C63.3281 287.724 72.9847 298.386 74.9469 299.91C75.6314 300.442 77.8718 302.593 79.9255 304.69C83.6905 308.535 90.49 312.852 97.0394 315.554C98.9219 316.331 100.835 317.253 101.29 317.602C101.746 317.951 103.566 318.199 105.336 318.152C107.105 318.106 110.065 318.331 111.913 318.653C115.074 319.203 115.441 319.128 118.045 317.402C119.568 316.393 122.028 315.384 123.512 315.162C126.631 314.694 128.109 312.949 131.234 306.04L133.124 301.862L131.178 295.767C128.431 287.155 128.119 286.692 123.139 283.819C120.704 282.415 118.623 281.265 118.514 281.265C118.405 281.265 118.444 282.876 118.6 284.845C118.877 288.338 118.834 288.456 116.853 289.671C115.422 290.548 114.542 291.771 113.874 293.809L112.927 296.703L109.184 296.987C107.125 297.144 104.841 297.052 104.11 296.782C101.74 295.909 98.4483 292.53 97.0232 289.508C95.4499 286.173 93.0036 277.459 92.3906 273.008C92.0185 270.307 91.7509 269.926 89.3767 268.716C87.9435 267.986 84.7535 266.029 82.2872 264.366C79.8209 262.702 77.6241 261.342 77.4051 261.342C77.1854 261.342 77.8307 262.813 78.8383 264.61C82.6089 271.338 85.1113 279.398 83.4292 279.398C83.1317 279.398 81.2554 281.359 79.2596 283.756C76.0055 287.663 75.4024 288.113 73.4216 288.101C70.4643 288.082 66.6862 286.251 64.195 283.629C61.8601 281.171 54.4868 267.066 52.8706 261.964C50.8001 255.428 50.2027 250.703 51.1051 248.01C51.6116 246.497 52.3553 245.512 53.0673 245.411C53.6977 245.32 54.3455 245.115 54.5067 244.953C54.6685 244.791 52.4723 242.711 49.6271 240.329Z" fill="black"/>
<path d="M540.922 326.049C543.394 325.544 549.391 324.629 551.067 324.502C558.699 323.919 566.927 325.209 572.411 327.849C579.649 331.333 585.156 337.947 587.705 346.217C590.306 354.656 590.891 361.303 591.703 391.697C592.417 418.44 592.02 423.861 588.553 434.667C584.929 445.962 578.059 457.652 569.331 467.375C566.556 470.467 564.87 471.954 561.672 474.129C555.832 478.101 547.184 481.01 536.748 482.513C531.573 483.258 529.591 483.346 524.667 483.044C515.483 482.482 510.391 481.636 502.668 479.39C489.802 475.649 479.476 470.673 474.191 465.668C473.385 464.904 472.137 463.823 471.418 463.266C468.656 461.127 463.743 455.366 460.742 450.748C459.824 449.336 457.776 445.62 456.191 442.491C454.606 439.362 452.974 436.313 452.564 435.717C452.154 435.121 451.594 434.105 451.319 433.46C451.045 432.815 450.392 431.572 449.867 430.698C449.343 429.823 448.624 428.338 448.271 427.397C447.206 424.559 445.107 420.331 444.069 418.932C443.532 418.208 442.819 417.011 442.486 416.271C442.152 415.531 441.329 414.266 440.655 413.459C439.982 412.652 438.336 410.341 436.997 408.324C435.658 406.307 434.161 404.051 433.67 403.312C432.812 402.02 431.664 400.515 429.365 397.67C428.775 396.94 427.536 395.208 426.612 393.822C425.687 392.435 424.728 391.005 424.48 390.643C424.232 390.281 423.199 388.72 422.185 387.173C420.897 385.21 419.835 383.919 418.667 382.894C417.746 382.087 415.948 380.372 414.671 379.082C413.394 377.792 411.414 376.108 410.271 375.339C409.129 374.57 407.589 373.515 406.849 372.994C406.11 372.473 405.197 371.975 404.82 371.886C404.443 371.797 403.343 371.205 402.376 370.57C401.408 369.935 399.984 369.041 399.211 368.584C398.438 368.127 396.898 367.003 395.789 366.087C394.679 365.17 393.387 364.25 392.916 364.041C391.787 363.541 382.839 361.157 380.24 360.664C375.869 359.835 370.831 360.421 363.267 362.638C357.98 364.188 350.312 367.87 346.678 370.603C342.987 373.38 339.047 377.032 336.715 379.838C333.818 383.324 333.286 384.152 330.835 388.981C329.064 392.469 328.539 393.786 327.676 396.908C325.162 405.999 324.716 409.492 324.542 421.448C324.339 435.476 325.181 443.216 327.909 452.404C328.458 454.25 329.256 456.357 329.684 457.086C330.73 458.867 333.099 461.386 334.476 462.181C335.092 462.538 336.224 463.253 336.99 463.771C337.757 464.289 339.077 465.004 339.923 465.36C341.375 465.971 341.679 466.006 345.251 465.986C348.039 465.971 350.121 465.796 353.131 465.327C358.382 464.508 358.753 464.425 363.706 462.952C368.748 461.452 372.644 459.97 374.015 459.03C374.576 458.645 375.291 458.219 375.604 458.083C375.917 457.948 376.832 457.345 377.639 456.743C378.446 456.142 380.205 454.904 381.548 453.994C383.294 452.81 385.108 451.213 387.904 448.396C390.056 446.228 392.268 444.16 392.821 443.802C395.278 442.205 400.834 434.91 402.99 430.451C403.608 429.173 404.506 427.543 404.987 426.829C405.467 426.115 406.218 424.851 406.656 424.019C407.624 422.179 409.691 420.037 411.497 419.001C412.841 418.23 413.341 418.052 413.109 418.429C413.04 418.54 413.446 418.854 414.011 419.127C414.899 419.558 415.264 419.597 416.718 419.421C418.205 419.24 418.468 419.272 419.012 419.7C419.349 419.966 419.827 420.183 420.073 420.183C420.32 420.183 420.906 420.367 421.377 420.591C422.118 420.945 422.271 421.175 422.524 422.306C422.685 423.024 422.936 423.709 423.083 423.827C423.348 424.041 425.808 425.369 428.898 426.966C430.481 427.784 430.543 427.85 430.702 428.914C431.042 431.183 430.02 435.013 428.453 437.343C427.987 438.036 427.001 439.785 426.262 441.23C425.289 443.132 424.41 444.42 423.076 445.897C422.063 447.018 420.954 448.368 420.611 448.897C419.622 450.421 412.854 456.877 410.425 458.613C409.736 459.106 408.553 460.262 407.797 461.181C406.981 462.173 405.852 463.199 405.019 463.708C404.247 464.178 402.996 465.095 402.238 465.746C401.48 466.396 399.706 467.63 398.294 468.488C396.882 469.346 394.766 470.74 393.59 471.585C390.759 473.62 384.536 476.763 382.283 477.295C381.88 477.39 380.285 477.996 378.739 478.641C376.12 479.734 372.749 480.877 367.739 482.368C360.004 484.672 347.258 486.274 341.214 485.702C335.781 485.187 331.195 483.518 325.819 480.096C318.778 475.615 314.806 471.42 311.584 465.061C309.633 461.211 307.33 452.866 306.15 445.369C304.079 432.204 304.298 411.014 306.621 399.837C307.421 395.987 309.545 388.389 310.467 386.073C311.9 382.477 314.956 376.497 316.965 373.358C323.695 362.842 335.497 352.825 347.125 347.763C354.818 344.413 356.612 343.795 362.973 342.303C370.038 340.646 377.607 340.237 383.27 341.205C387.436 341.918 395.998 344.156 399.394 345.42C401.007 346.02 403.104 346.745 404.054 347.03C406.334 347.714 409.097 348.994 410.76 350.138C414.89 352.976 418.64 355.394 419.964 356.07C420.792 356.493 422.497 357.502 423.753 358.312C425.01 359.121 426.532 360.051 427.137 360.378C430.003 361.925 435.79 366.886 441.27 372.491C443.501 374.773 447.224 379.618 448.889 382.405C449.21 382.943 451.197 385.694 453.303 388.518C455.41 391.342 457.441 394.148 457.817 394.753C459.562 397.565 462.949 402.529 463.573 403.189C464.285 403.944 465.167 405.442 467.893 410.525C468.758 412.139 469.717 413.899 470.025 414.437C470.332 414.975 471.657 417.506 472.968 420.061C474.28 422.616 476.224 426.266 477.289 428.172C478.354 430.077 479.872 433.048 480.661 434.774C482.5 438.793 485.177 443.426 487.277 446.224C490.184 450.096 497.295 456.546 499.824 457.605C507.985 461.02 517.284 463.024 526.628 463.381C530.846 463.543 532.231 463.403 538.234 462.211C546.538 460.561 550.661 458.591 554.419 454.476C558.736 449.751 564.305 441.641 566.465 436.933C569.128 431.13 571.052 425.309 571.759 420.917C572.323 417.408 572.402 407.427 571.992 391.452C571.259 362.89 570.563 355.509 568.103 350.182C566.133 345.918 563.305 344.52 556.039 344.217C553.389 344.106 552.015 344.168 550.173 344.481C548.849 344.705 547.052 345.005 546.178 345.147C540.909 345.999 529.008 349.878 520.756 353.432C516.998 355.05 513.747 356.733 512.935 357.48C512.598 357.789 511.702 358.407 510.943 358.853C508.782 360.124 503.454 364.436 500.856 367.017C499.009 368.852 493.872 374.579 491.546 377.398C490.605 378.538 489.175 380.132 488.369 380.941C487.562 381.749 486.431 383.03 485.854 383.787C485.278 384.544 484.178 385.738 483.41 386.44C482.642 387.142 481.353 388.35 480.547 389.123C478.929 390.674 477.852 391.383 476.26 391.945C475.416 392.242 475.164 392.255 475.007 392.007C474.899 391.837 474.808 391.792 474.806 391.909C474.804 392.025 474.382 391.75 473.868 391.297C472.254 389.874 471.743 389.473 470.259 388.459C469.464 387.916 468.539 387.242 468.203 386.96C467.272 386.181 467.191 386.12 465.886 385.21C465.217 384.743 464.456 384.171 464.196 383.939C463.935 383.706 463.276 383.211 462.732 382.838C460.698 381.446 460.479 380.991 460.856 378.929C461.354 376.201 462.787 374.016 465.881 371.266C466.418 370.788 467.746 369.413 468.831 368.21C477.69 358.384 482.86 353.211 485.435 351.592C486.242 351.085 487.452 350.208 488.124 349.642C488.796 349.076 490.556 347.812 492.035 346.833C493.514 345.853 495.164 344.751 495.702 344.383C496.24 344.015 497.285 343.412 498.024 343.043C498.763 342.674 499.724 342.105 500.159 341.778C501.642 340.665 513.156 335.086 517.022 333.606C526.469 329.992 535.32 327.194 540.922 326.049Z" fill="black"/>
</svg>
