<svg width="407" height="343" viewBox="0 0 407 343" fill="none" xmlns="http://www.w3.org/2000/svg">
<path fill-rule="evenodd" clip-rule="evenodd" d="M78.4883 1.35121C45.025 6.15521 14.1484 26.2577 4.76565 49.3475C-1.52323 64.8246 -1.58452 77.2728 4.56184 90.5309C7.17301 96.1632 8.55215 97.9461 15.8179 105.089C28.814 117.863 41.3197 124.554 58.1705 127.751C65.4853 129.138 95.1705 129.422 99.4941 128.145C100.966 127.71 106.997 126.334 112.897 125.087C118.797 123.839 126.727 122.115 130.519 121.254C135.782 120.061 139.502 119.742 146.226 119.907C154.097 120.101 155.507 120.355 159.443 122.288C161.866 123.478 163.838 124.685 163.824 124.97C163.811 125.255 163.294 126.157 162.675 126.975C162.056 127.793 161.532 129.172 161.509 130.039C161.48 131.088 159.092 133.501 154.387 137.234C137.742 150.438 130.421 162.786 126.628 184.043C123.342 202.466 127.79 215.524 143.804 234.457C151.266 243.279 165.284 255.346 174.735 261.084C179.364 263.895 199.469 277.358 203.01 280.02C216.06 289.827 223.574 300.63 228.596 316.81C230.387 322.582 230.61 324.338 230.24 329.835C230.005 333.33 229.591 337.441 229.321 338.972C228.755 342.169 229.042 342.461 233.111 342.81C236.399 343.092 236.303 343.193 238.917 336.705C241.194 331.053 241.265 319.199 239.067 311.876C236.675 303.907 233.753 297.052 230.265 291.229C227.123 285.985 215.721 272.213 214.52 272.213C214.18 272.213 211.856 270.575 209.356 268.573C206.855 266.571 198.61 260.815 191.033 255.779C178.893 247.713 168.374 239.826 163.394 235.056C162.512 234.211 160.121 231.279 158.081 228.54C156.04 225.801 153.238 222.277 151.854 220.709C146.341 214.467 141.629 202.53 141.629 194.806C141.629 188.428 144.645 176.175 147.794 169.755C151.562 162.075 162.987 150.885 174.192 143.901C176.721 142.325 179.539 140.15 180.456 139.068L182.121 137.1L190.799 139.23C198.379 141.091 217.24 147.639 224.015 150.762C225.29 151.349 228.91 152.755 232.06 153.886C239.321 156.491 241.823 157.761 253.11 164.575C262.695 170.362 269.602 173.813 276.095 176.063C280.972 177.753 292.151 178.307 302.755 177.384C310.055 176.749 311.702 176.321 316.783 173.742C324.232 169.961 332.152 162.62 336.445 155.518C350.871 131.652 346.002 111.028 319.224 82.581C315.653 78.7883 309.984 72.5117 306.626 68.6333C299.002 59.829 294.739 56.4179 285.604 51.8093L278.394 48.1722L266.901 47.8703C248.35 47.3823 237.331 49.9199 220.547 58.5464C211.943 62.9681 200.105 71.1594 194.263 76.735C192.66 78.2643 189.389 82.0163 186.994 85.0711C182.675 90.5823 181.471 91.5699 181.471 89.6046C181.471 89.043 180.417 85.3362 179.129 81.3681C177.841 77.4 175.249 68.8746 173.368 62.4233C166.474 38.7749 156.456 23.6588 141.094 13.7206C133.97 9.11193 123.162 3.72946 117.877 2.15724C111.874 0.372018 88.6234 -0.103785 78.4883 1.35121ZM116.232 21.2683C131.204 30.2135 135.564 34.7693 142.647 48.8687C145.976 55.4954 147.641 60.2228 150.443 70.9885C152.403 78.5194 154.191 85.16 154.415 85.7453C154.641 86.3307 152.302 85.255 149.22 83.3548C143.324 79.7193 138.829 78.8719 136.172 80.8946C134.435 82.2163 133.534 88.0309 134.823 89.5847C135.945 90.9363 150.355 100.443 157.203 104.349C164.123 108.297 164.355 110.879 157.577 108.518C154.147 107.323 151.269 107.11 139.331 107.166C125.394 107.232 124.831 107.299 105.807 111.188C88.3369 114.76 85.4905 115.144 76.4686 115.144C60.1572 115.144 48.2583 111.813 37.0475 104.108C27.9651 97.8664 21.0533 90.665 17.7717 84.026C15.2532 78.9293 14.9943 77.8045 14.9314 71.6881C14.8211 61.0105 19.0857 50.5788 27.2992 41.4336C37.1042 30.5162 59.8216 19.1138 77.2693 16.3532C85.8468 14.9955 86.6175 14.9434 96.424 15.0507L106.001 15.1564L116.232 21.2683ZM274.016 65.4306C279.64 69.1236 282.068 71.3318 285.597 75.9596C288.054 79.1799 292.573 84.4007 295.641 87.5612C304.189 96.3693 310.049 103.43 314.396 110.164C323.515 124.286 323.718 133.727 315.212 148.213C311.878 153.891 308.199 157.607 302.529 161.026C300.314 162.36 298.609 162.642 292.735 162.645C282.407 162.649 277.184 160.655 259.601 149.993C250.229 144.31 245.192 141.782 236.636 138.471C211.905 128.897 204.807 126.297 198.026 124.328C193.857 123.118 190.195 121.849 189.889 121.509C188.919 120.431 188.429 115.196 189.251 114.688C189.681 114.422 194.675 113.045 200.347 111.629C207.57 109.826 211.625 109.181 213.879 109.477C218.257 110.053 219.63 108.834 219.891 104.141C220.148 99.5344 218.785 98.2878 213.492 98.2878C210.483 98.2878 198.832 100.799 190.091 103.331C187.738 104.012 187.925 103.016 190.825 99.4203C197.962 90.5738 204.05 84.5018 210.954 79.3446C226.779 67.5223 244.38 60.9216 260.388 60.8051L266.901 60.7569L274.016 65.4306ZM371.869 175.403C364.993 176.832 360.059 178.705 353.48 182.384C342.474 188.539 333.919 197.39 326.791 209.998C323.911 215.091 320.801 221.498 319.88 224.235C318.958 226.971 318.005 229.409 317.763 229.652C317.52 229.894 316.148 229.616 314.714 229.033C313.28 228.45 309.775 227.746 306.926 227.468C304.076 227.191 300.973 226.68 300.03 226.333C299.048 225.973 294.876 226.14 290.27 226.725C279.079 228.144 271.983 231.71 263.98 239.933C259.133 244.913 258.017 246.56 256.915 250.35C255.22 256.181 255.671 264.467 257.917 268.765C260.823 274.327 266.704 279.413 272.051 280.99C274.188 281.621 275.426 282.461 275.609 283.406C276.187 286.394 279.03 286.671 289.821 284.791C302.593 282.565 301.873 282.965 312.429 272.254L322.066 262.476L323.767 264.854C335.496 281.254 338.677 290.389 334.85 296.682C332.307 300.863 330.295 301.821 322.888 302.377C319.125 302.659 313.781 303.426 311.012 304.081C308.242 304.737 299.943 305.575 292.568 305.943C277.955 306.674 272.727 307.751 262.321 312.178C257.268 314.326 255.724 315.417 253.417 318.469C250.223 322.694 248.891 326.486 248.907 331.298C248.924 336.41 250.182 338.109 255.408 340.083C259.801 341.742 262.914 341.817 264.564 340.305C264.965 339.938 265.873 339.637 266.583 339.637C268.102 339.637 270.079 336.868 270.766 333.779C272.181 327.421 272.649 326.743 277.482 324.051C281.984 321.543 282.73 321.382 292.185 320.875C297.663 320.581 306.455 319.539 311.723 318.562C316.99 317.583 323.541 316.563 326.281 316.295C329.02 316.026 332.985 315.629 335.092 315.411C337.199 315.194 341.104 313.971 343.77 312.692C347.725 310.796 349.096 309.62 351.218 306.303C355.487 299.629 356.358 296.698 356.052 290.031C355.819 284.957 355.318 283.136 352.634 277.576C350.905 273.994 347.285 268.157 344.589 264.606C341.894 261.055 338.515 256.59 337.081 254.684C335.572 252.681 334.835 251.1 335.331 250.935C335.804 250.777 337.494 249.762 339.089 248.678C340.683 247.593 346.987 245.07 353.097 243.069C359.207 241.068 366.203 238.546 368.642 237.463C371.081 236.379 374.26 235.272 375.707 235C377.154 234.729 379.913 233.508 381.838 232.287C383.764 231.066 386.984 229.232 388.995 228.214C394.929 225.207 401.025 219.743 403.797 214.947C406.317 210.587 406.347 210.419 406.341 200.957C406.336 192.858 406.087 190.841 404.727 187.893C402.444 182.939 398.854 179.15 394.287 176.873C390.718 175.095 389.527 174.915 381.871 174.996C377.212 175.045 372.712 175.228 371.869 175.403ZM384.058 188.292C387.882 192.467 389.725 204.524 387.258 209.232C385.649 212.304 381.64 215.847 376.466 218.77C373.937 220.199 371.179 221.774 370.336 222.27C367.899 223.707 340.351 233.831 338.708 233.895C337.614 233.937 342.735 228.74 345.597 226.903C347.615 225.608 349.255 223.982 349.242 223.288C349.216 221.945 345.929 217.813 344.887 217.813C344.545 217.813 342.497 219.004 340.336 220.46C338.175 221.915 335.475 223.34 334.336 223.626C332.271 224.143 332.269 224.14 333.41 221.937C336.987 215.031 343.44 205.703 347.613 201.405C356.131 192.631 369.461 185.698 377.895 185.653C381.182 185.636 381.91 185.947 384.058 188.292ZM294.438 238.142C295.257 238.76 297.325 239.29 299.036 239.32L302.146 239.373L297.165 241.235C289.784 243.994 285.793 246.247 283.303 249.062C280.623 252.09 280.56 253.03 282.799 256.575C284.507 259.279 284.565 259.302 288.923 258.936C292.049 258.674 294.777 257.769 298.336 255.812C301.092 254.298 303.939 253.056 304.662 253.053C305.385 253.05 306.925 252.554 308.084 251.949C311.735 250.044 310.422 252.168 303.869 258.765C292.691 270.02 291.839 270.625 285.94 271.499C283.054 271.927 278.796 272.241 276.478 272.197C272.843 272.128 271.913 271.782 269.709 269.674C266.073 266.2 264.985 263.699 264.985 258.818C264.985 253.025 266.296 250.327 271.408 245.593C278.149 239.352 282.828 236.979 288.354 236.999C291.186 237.01 293.522 237.448 294.438 238.142Z" fill="currentColor"/>
</svg>
