<svg width="869" height="1239" viewBox="0 0 869 1239" fill="black" xmlns="http://www.w3.org/2000/svg">
<path fill-rule="evenodd" clip-rule="evenodd" d="M396.996 1.83783C376.876 4.41383 364.527 7.25183 349.424 12.7728C342.274 15.3868 333.949 18.3268 330.924 19.3068C327.899 20.2878 323.399 21.9598 320.924 23.0238C318.449 24.0868 307.199 27.1318 295.924 29.7898C284.649 32.4478 268.449 36.8728 259.924 39.6248C251.399 42.3758 238.063 46.4358 230.288 48.6458C195.639 58.4968 172.05 70.3798 161.437 83.3318C159.374 85.8498 155.426 91.8198 152.665 96.5968C139.966 118.568 135.27 130.836 133.018 147.921C131.31 160.881 129.947 203.079 130.94 212.283C132.763 229.187 134.107 258.1 133.961 277.283C133.877 288.283 134.1 341.158 134.456 394.783C135.072 487.531 135.002 493.664 133.014 520.622C130.592 553.458 130.39 579.471 132.43 595.783C133.221 602.108 134.362 614.708 134.965 623.783C136.307 643.954 138.609 670.35 140.025 681.783C141.032 689.924 140.639 719.805 139.277 738.617C138.706 746.499 138.558 746.92 136.549 746.382C135.38 746.069 130.374 747.135 125.424 748.752C120.474 750.368 108.099 753.043 97.9239 754.695C75.4559 758.344 64.1819 761.169 43.9239 768.226C35.3989 771.197 25.9489 774.318 22.9239 775.162C16.3659 776.994 10.2379 781.28 6.53291 786.626C4.34091 789.789 3.83291 791.633 3.84191 796.404C3.84891 799.637 3.72991 819.928 3.57891 841.494C3.33191 876.663 3.12891 880.899 1.61391 882.573C-0.433088 884.835 -0.524089 887.104 1.29091 890.629C2.04191 892.089 4.78591 897.653 7.38691 902.994C14.1979 916.978 26.4059 929.459 39.9239 936.258C41.8489 937.227 45.6739 939.71 48.4239 941.777C53.9819 945.955 57.7839 947.359 65.9239 948.239C75.6289 949.289 92.9529 953.195 92.5999 954.254C91.6009 957.252 60.2869 976.27 45.7939 982.681C41.0479 984.78 35.6479 987.644 33.7939 989.045C31.9409 990.446 27.6719 993.196 24.3079 995.157C17.5179 999.115 15.1859 1002.73 16.7709 1006.85C17.2859 1008.19 20.5009 1012.43 23.9159 1016.28C27.3299 1020.13 35.7829 1031.83 42.6989 1042.28C49.6159 1052.73 57.5849 1064.21 60.4079 1067.78C63.2319 1071.36 67.1729 1076.76 69.1659 1079.78C71.1589 1082.81 75.3309 1088.21 78.4359 1091.78C81.5419 1095.36 89.3339 1105.21 95.7529 1113.68C102.172 1122.16 110.218 1132.73 113.634 1137.18C117.049 1141.64 122.288 1148.66 125.277 1152.78C128.265 1156.91 133.539 1163.66 136.997 1167.78C140.454 1171.91 145.676 1178.99 148.6 1183.52C154.824 1193.16 167.106 1208.1 177.757 1218.99C181.904 1223.23 185.776 1228.18 186.36 1229.99C187.207 1232.61 188.605 1233.85 193.213 1236.09C196.51 1237.69 199.799 1238.64 200.855 1238.3C203.545 1237.45 205.385 1232.51 203.986 1229.9C203.016 1228.09 203.34 1227.55 206.653 1225.46C208.727 1224.15 211.973 1222.28 213.866 1221.31C215.759 1220.33 219.708 1217.26 222.641 1214.49C227.541 1209.85 239.07 1201.55 249.752 1194.95C261.732 1187.56 275.77 1178.21 278.585 1175.76C282.346 1172.48 304.527 1159.86 310.924 1157.36C313.399 1156.4 322.849 1151.65 331.924 1146.81C345.036 1139.82 350.785 1137.38 359.924 1134.88C380.884 1129.17 406.308 1121.01 414.684 1117.3C419.252 1115.27 425.287 1113.41 428.184 1113.14C432.693 1112.71 434.401 1113.12 440.424 1116.06C450.505 1120.98 470.566 1134.44 473.726 1138.4C475.606 1140.76 477.251 1141.78 479.153 1141.78C480.654 1141.78 488.201 1139.76 495.924 1137.28C503.647 1134.81 510.96 1132.78 512.173 1132.78C514.127 1132.78 513.961 1133.13 510.719 1135.8C506.021 1139.67 503.965 1147.55 506.236 1152.99C508.011 1157.23 512.87 1161.39 517.15 1162.33C518.951 1162.72 526.949 1165.62 534.924 1168.77C542.899 1171.92 553.249 1175.74 557.924 1177.25C562.599 1178.77 569.054 1181.1 572.268 1182.45C575.482 1183.79 584.932 1187.29 593.268 1190.23C608.982 1195.76 624.579 1202.65 631.935 1207.29C636.449 1210.14 647.457 1215.02 654.924 1217.49C657.399 1218.3 664.824 1220.77 671.424 1222.96C694.505 1230.64 698.698 1231.64 713.663 1233.07C724.026 1234.06 731.106 1234.22 737.424 1233.61C747.029 1232.67 769.143 1232.55 771.409 1233.42C772.511 1233.84 783.416 1232.04 796.424 1229.29C797.524 1229.06 805.174 1224.08 813.424 1218.22C829.05 1207.13 837.018 1202.55 842.894 1201.28C851.152 1199.49 863.392 1182.34 867.371 1166.99C868.95 1160.89 868.919 1160.39 865.843 1142.52C863.511 1128.98 862.058 1123.16 860.203 1119.92C856.831 1114.03 845.363 1101.57 841.943 1100.08C840.424 1099.42 828.661 1088.06 815.803 1074.82C802.944 1061.59 786.83 1045.71 779.993 1039.53C773.155 1033.34 763.255 1023.97 757.993 1018.69C747.09 1007.76 745.211 1006.38 738.364 1004.3C731.572 1002.24 730.835 1002.32 721.048 1006.19C706.015 1012.13 706.539 1012.19 687.757 1002.54C652.403 984.388 632.829 973.439 619.424 964.318C561.519 924.922 541.806 912.334 522.924 902.698C512.199 897.224 500.949 891.414 497.924 889.786C491.225 886.181 484.221 885.852 474.779 888.699C471.284 889.753 464.374 891.12 459.424 891.737C454.474 892.354 442.099 895.087 431.924 897.81C419.715 901.077 409.003 903.254 400.424 904.212C393.274 905.01 385.399 906.392 382.924 907.284C376.159 909.722 364.13 912.422 347.424 915.253C328.6 918.443 311.516 922.702 297.707 927.649L286.991 931.488L278.957 923.258C274.539 918.731 270.924 914.633 270.924 914.15C270.924 911.764 311.009 903.422 332.799 901.274C342.337 900.334 349.535 899.112 351.762 898.056C355.525 896.27 372.963 891.395 381.3 889.798C383.982 889.284 386.457 888.584 386.8 888.243C387.143 887.902 387.705 883.046 388.048 877.453C388.391 871.859 389.173 860.308 389.785 851.783C390.396 843.258 391.417 827.733 392.054 817.283C392.69 806.833 393.406 796.033 393.644 793.283C394.003 789.144 393.641 787.641 391.545 784.554C389.375 781.359 389.098 780.106 389.61 775.789C390.085 771.772 389.843 770.351 388.41 768.768C387.422 767.676 386.254 766.783 385.814 766.783C383.94 766.783 363.85 757.642 357.424 753.865C348.639 748.702 327.334 738.323 323.666 737.42C322.15 737.047 319.225 734.861 317.166 732.562C307.019 721.231 304.374 718.958 300.487 718.229C296.028 717.392 289.456 718.767 265.924 725.461C257.399 727.886 243.674 731.189 235.424 732.801C221.004 735.618 209.929 738.026 205.174 739.377L202.924 740.016V720.389C202.924 707.869 203.461 697.416 204.406 691.522C207.932 669.544 208.916 650.03 208.905 602.283C208.895 555.345 208.197 535.329 205.456 503.283C204.656 493.933 203.509 470.758 202.908 451.783C202.306 432.808 201.356 410.308 200.796 401.783C199.701 385.102 198.14 304.188 197.295 220.257L196.771 168.232L198.897 166.307C200.787 164.597 201.381 164.527 204.224 165.681C211.399 168.592 228.45 173.923 235.211 175.368C239.178 176.216 252.099 177.545 263.924 178.32C286.216 179.782 312.571 182.428 338.424 185.8C368.375 189.707 374.688 189.949 429.424 189.291C486.718 188.603 510.079 187.616 524.924 185.256C530.912 184.304 547.733 183.4 570.424 182.809C609.003 181.805 618.069 181.008 632.924 177.309C651.489 172.686 663.648 170.788 680.924 169.816C697.993 168.856 706.852 167.725 711.924 165.856C713.299 165.349 716.11 164.655 718.172 164.314C724.953 163.191 726.977 155.426 727.693 127.783C728.749 87.0298 728.601 85.7988 722.338 83.1828C709.831 77.9568 692.223 76.4078 644.424 76.3268C570.959 76.2038 494.755 74.6268 496.611 73.2698C498.857 71.6268 497.569 68.7828 494.579 68.7828C492.62 68.7828 491.519 67.5258 488.666 62.0328C486.738 58.3208 483.492 51.0078 481.453 45.7828C475.736 31.1298 472.269 25.4058 464.184 17.2678C458.712 11.7598 454.826 8.86183 449.576 6.37083C435.179 -0.460166 423.093 -1.50217 396.996 1.83783ZM432.924 10.2108C443.218 12.4178 448.578 15.2638 456.155 22.5438C464.727 30.7798 466.444 33.4308 471.851 46.7828C476.374 57.9508 480.656 66.2848 484.522 71.4448L486.891 74.6058L478.657 75.1598C474.129 75.4638 458.931 75.9488 444.883 76.2378C430.836 76.5268 417.336 77.0338 414.883 77.3648C410.876 77.9058 410.323 77.7288 409.424 75.6248C408.805 74.1748 405.567 71.8158 400.924 69.4318L393.424 65.5818L383.424 66.1158C370.277 66.8178 357.905 70.6018 353.124 75.3828L349.744 78.7628L336.084 79.7298C281.11 83.6198 265.793 85.2018 247.424 88.8838C239.174 90.5378 227.249 92.3438 220.924 92.8968C205.963 94.2058 199.01 95.9958 190.982 100.605L184.424 104.371L184.095 116.327C183.914 122.903 184.289 135.708 184.929 144.783C185.819 157.412 185.815 161.987 184.915 164.283C182.81 169.648 181.75 209.948 182.968 238.283C183.582 252.583 184.473 291.958 184.946 325.783C185.42 359.608 186.273 394.483 186.841 403.283C187.41 412.083 188.577 437.058 189.435 458.783C190.293 480.508 191.636 504.583 192.419 512.283C194.432 532.076 196.258 600.462 195.595 631.283C195.043 656.977 193.486 676.302 190.478 694.783C188.692 705.756 188.422 730.333 189.953 742.542C190.889 750.004 190.798 751.109 188.956 754.72C186.49 759.554 183.955 760.223 170.639 759.559C160.88 759.071 153.552 756.824 151.948 753.827C151.387 752.779 151.405 749.615 151.993 745.697C152.524 742.169 153.236 727.133 153.577 712.283C154.065 691.028 153.849 681.772 152.563 668.783C151.664 659.708 150.46 643.733 149.887 633.283C149.313 622.833 148.178 608.658 147.363 601.783C144.841 580.491 144.57 561.404 146.426 535.783C148.969 500.693 149.757 457.771 149.845 349.494C149.901 280.382 149.557 246.659 148.674 234.494C147.091 212.691 147.171 161.303 148.807 149.283C149.481 144.333 150.705 137.583 151.527 134.283C153.145 127.786 167.273 98.9408 172.221 92.0308C176.502 86.0528 188.974 76.4568 198.424 71.8708C208.345 67.0558 228.716 59.8518 243.924 55.7788C250.249 54.0858 262.399 50.3068 270.924 47.3828C279.449 44.4598 293.174 40.6258 301.424 38.8638C309.674 37.1028 320.474 34.2938 325.424 32.6228C330.374 30.9508 337.799 28.4568 341.924 27.0798C346.049 25.7038 353.092 23.0568 357.575 21.1988C367.872 16.9308 383.994 13.1338 401.661 10.8148C418.825 8.56183 424.701 8.44783 432.924 10.2108ZM398.424 75.7278L402.424 77.6208L390.814 77.7018C384.428 77.7468 377.003 78.0318 374.314 78.3368L369.424 78.8908L372.424 77.1448C378.581 73.5598 392.267 72.8148 398.424 75.7278ZM601.924 86.8218C619.799 87.3658 645.674 87.6928 659.424 87.5468C683.533 87.2918 700.505 88.4218 710.292 90.9318L714.161 91.9238L713.487 104.603C713.116 111.577 712.5 124.933 712.119 134.283C711.737 143.633 711.089 151.798 710.68 152.428C710.172 153.21 708.743 153.307 706.18 152.735C695.31 150.309 680.386 149.556 627.924 148.784C596.299 148.319 564.89 147.428 558.125 146.804C545.17 145.609 525.308 145.716 405.424 147.63C333.201 148.783 261.033 151.218 251.924 152.81C248.899 153.339 238.422 154.215 228.643 154.757C213.057 155.62 210.34 155.541 206.643 154.117C204.322 153.224 201.885 151.996 201.227 151.388C200.454 150.675 199.647 143.361 198.953 130.783C198.361 120.058 197.72 110.243 197.528 108.973C196.913 104.909 200.458 103.698 216.136 102.62C223.994 102.08 236.049 100.561 242.924 99.2458C262.541 95.4918 267.054 94.9198 289.937 93.2858C301.755 92.4418 315.791 91.3148 321.129 90.7828C329.581 89.9388 443.04 86.2818 485.424 85.4878C508.273 85.0588 565.622 85.7158 601.924 86.8218ZM562.924 157.883C568.149 158.412 590.424 159.261 612.424 159.769C634.424 160.277 652.874 160.751 653.424 160.822C653.974 160.894 648.574 162.266 641.424 163.871C634.274 165.477 625.499 167.475 621.924 168.312C617.349 169.383 605.207 170.125 580.924 170.82C546.273 171.811 536.455 172.462 512.424 175.368C502.394 176.58 484.648 177.062 434.747 177.475C369.342 178.017 365.98 177.905 338.424 174.253C318.848 171.659 280.741 167.863 268.424 167.28C254.702 166.631 236.602 164.771 237.292 164.081C237.811 163.563 246.197 162.449 261.924 160.811C267.793 160.199 314.099 159.25 366.924 158.658C418.899 158.076 469.749 157.241 479.924 156.803C501.507 155.873 549.213 156.494 562.924 157.883ZM394.093 208.147C392.811 208.858 389.211 212.605 386.093 216.474C382.975 220.343 374.688 230.321 367.678 238.648C352.704 256.435 348.924 261.491 348.924 263.73C348.924 264.636 350.689 267.101 352.847 269.208C357.625 273.874 360.34 273.607 364.842 268.027C366.503 265.968 375.97 254.383 385.881 242.283C407.194 216.261 409.178 212.034 401.852 208.246C398.433 206.478 397.132 206.461 394.093 208.147ZM449.802 212.914C447.213 215.686 446.822 216.749 447.298 219.74C448.847 229.479 451.031 252.761 452.416 274.283C453.265 287.483 454.575 305.236 455.326 313.735C456.627 328.453 456.818 329.295 459.364 331.485C463.107 334.705 467.386 334.475 471.001 330.86C474.521 327.34 474.673 324.402 472.461 302.662C471.656 294.754 470.512 281.083 469.918 272.283C468.174 246.415 464.354 218.323 461.977 213.883C461.399 212.802 459.913 211.627 458.675 211.271C457.437 210.915 455.624 210.401 454.646 210.127C453.505 209.808 451.771 210.806 449.802 212.914ZM493.979 217.457C488.911 221.007 493.002 226.898 506.104 234.917C513.82 239.64 518.976 243.826 526.539 251.508C535.081 260.186 537.138 261.783 539.774 261.783C542.299 261.783 543.393 261.031 545.498 257.85C547.2 255.278 547.88 253.219 547.461 251.901C546.636 249.299 533.096 236.653 525.915 231.777C516.029 225.063 502.644 217.509 499.296 216.754C497.055 216.249 495.39 216.469 493.979 217.457ZM306.177 735.283C312.316 742.651 315.294 744.622 328.598 750.119C333.093 751.977 342.601 756.726 349.726 760.673C356.851 764.62 366.354 769.354 370.844 771.192C375.334 773.029 379.253 774.779 379.553 775.079C379.853 775.379 379.581 778.117 378.949 781.164C378.134 785.087 376.513 788.36 373.394 792.377C366.526 801.221 370.49 800.16 328.729 804.336C312.766 805.932 308.458 806.718 266.891 815.62C243.613 820.606 227.892 823.015 210.424 824.273C205.474 824.63 197.824 825.578 193.424 826.38C189.024 827.183 182.949 828.283 179.924 828.825C176.899 829.367 167.674 830.466 159.424 831.266C151.174 832.067 138.416 833.934 131.073 835.416C118.693 837.915 117.166 838.022 110.073 836.891C105.266 836.124 94.6219 835.784 81.4239 835.977L60.4239 836.283L55.8599 833.6C50.3129 830.339 22.2129 801.673 19.4239 796.43L17.4239 792.67L22.5999 787.726C26.4199 784.077 28.5519 782.783 30.7399 782.783C32.3709 782.783 39.9419 780.477 47.5639 777.658C69.9579 769.377 86.2549 765.023 107.064 761.761C125.296 758.903 128.125 758.106 138.174 752.998C138.587 752.788 138.924 753.979 138.924 755.644C138.924 762.013 145.812 765.954 160.064 767.741C177.903 769.978 190.169 768.273 193.651 763.072C194.626 761.616 197.854 758.091 200.824 755.239C207.132 749.182 210.406 747.957 229.924 744.351C242.544 742.019 254.021 739.192 283.424 731.171C290.024 729.371 296.531 727.984 297.885 728.09C299.588 728.224 302.141 730.437 306.177 735.283ZM287.924 756.958C283.602 758.187 280.924 760.492 280.924 762.983C280.924 765.722 285.068 769.446 289.639 770.816C292.946 771.806 294.108 771.739 296.678 770.41C301.751 767.787 301.924 760.837 297.011 757.065C295.138 755.627 292.708 755.598 287.924 756.958ZM310.924 768.963C303.994 770.943 303.188 773.736 307.974 779.187C311.92 783.682 316.938 785.434 321.021 783.743C324.642 782.243 325.924 780.048 325.924 775.349C325.924 768.587 320.429 766.248 310.924 768.963ZM193.199 785.205C191.564 786.581 188.358 790.128 186.075 793.087C180.194 800.711 180.55 806.806 186.874 806.768C190.317 806.747 190.893 806.265 196.318 798.855C201.634 791.594 202.285 786.74 198.298 784.107C196.389 782.847 195.869 782.959 193.199 785.205ZM170.018 789.579C164.908 794.44 164.526 798.009 168.874 800.257C170.497 801.096 172.478 801.783 173.275 801.783C175.427 801.783 185.141 790.155 184.743 788.057C184.481 786.681 183.249 786.216 179.258 785.984C174.467 785.706 173.829 785.954 170.018 789.579ZM210.675 790.405C207.308 792.17 199.116 802.168 198.268 805.55C197.778 807.503 198.166 808.561 199.884 809.952C204.656 813.816 205.967 812.926 215.79 799.158C219.827 793.499 216.297 787.46 210.675 790.405ZM223.145 792.533C219.755 796.847 216.914 802.095 216.946 803.983C216.958 804.698 217.796 806.36 218.808 807.676C221.469 811.136 224.94 809.891 229.339 803.899C233.849 797.755 234.849 793.462 232.399 790.756C229.624 787.689 226.477 788.293 223.145 792.533ZM377.88 828.328C377.348 843.153 376.466 859.108 375.921 863.783C375.376 868.458 374.928 874.606 374.927 877.446L374.924 882.609L363.674 885.227C357.487 886.668 350.624 888.701 348.424 889.747C345.792 890.997 341.005 891.874 334.424 892.31C319.624 893.291 289.271 899.487 266.308 906.215C262.197 907.419 262.164 907.407 238.808 896.024C211.53 882.729 198.886 877.425 189.324 875.266C185.529 874.409 180.689 873.034 178.568 872.211C176.448 871.388 166.12 868.917 155.618 866.719C145.116 864.521 133.126 861.876 128.974 860.84C124.821 859.805 119.399 858.635 116.924 858.241C114.449 857.847 108.824 856.445 104.424 855.125C100.024 853.804 92.1489 852.076 86.9239 851.284C81.6989 850.492 75.2699 849.108 72.6359 848.207C70.0029 847.306 66.9659 846.8 65.8859 847.083C64.6779 847.398 63.9239 847.095 63.9239 846.293C63.9239 844.727 89.8689 843.14 98.2169 844.195C113.821 846.168 119.468 846.044 133.015 843.429C140.39 842.005 152.049 840.361 158.924 839.775C165.799 839.188 177.755 837.602 185.494 836.249C193.232 834.896 205.382 833.336 212.494 832.783C231.881 831.275 244.804 829.215 272.924 823.148C304.677 816.298 316.071 814.314 331.924 812.876C364.975 809.879 366.47 809.676 370.706 807.636C373.062 806.501 375.762 804.539 376.706 803.276C377.651 802.013 378.519 801.068 378.636 801.176C378.753 801.285 378.413 813.503 377.88 828.328ZM29.4099 826.726C36.8789 834.152 43.4449 839.731 46.7659 841.476L52.1079 844.283L52.2659 883.283C52.3529 904.733 52.8229 923.105 53.3099 924.11C54.5349 926.633 58.3879 927.937 61.3209 926.822C64.7639 925.513 65.2639 919.975 64.4209 892.463C63.9379 876.713 64.0369 869.604 64.7299 870.283C65.2909 870.833 69.6039 877.941 74.3139 886.079C84.1759 903.12 95.0579 920.126 100.591 927.146C106.633 934.812 110.924 940.925 110.924 941.867C110.924 942.342 109.502 943.467 107.764 944.366C103.741 946.446 98.1449 945.962 78.9379 941.873C67.7959 939.501 63.2949 938.058 59.4379 935.621C56.6799 933.878 51.3639 930.749 47.6249 928.667C33.3159 920.7 25.4769 912.748 17.8329 898.445C14.8729 892.906 14.7769 892.381 15.9539 888.176C16.8999 884.797 17.0199 875.557 16.4599 849.264C16.0549 830.299 16.0999 814.783 16.5599 814.783C17.0189 814.783 22.8019 820.158 29.4099 826.726ZM84.8269 860.306C89.4479 861.123 93.7229 862.174 94.3269 862.642C96.1919 864.088 101.975 865.754 108.848 866.825C112.465 867.389 120.824 869.139 127.424 870.714C134.024 872.289 144.374 874.561 150.424 875.764C156.474 876.966 165.474 879.222 170.424 880.777C175.374 882.332 181.181 883.903 183.328 884.268C188.638 885.17 205.512 892.144 222.428 900.426C230.13 904.197 240.255 909.082 244.928 911.28C252.675 914.925 255.024 916.82 271.574 932.78C297.363 957.651 317.204 976.446 326.079 984.412C351.861 1007.55 357.667 1012.64 361.907 1015.78C377.863 1027.62 383.379 1032.08 391.495 1039.73C396.484 1044.43 403.749 1050.9 407.641 1054.11C411.532 1057.31 415.775 1061.1 417.07 1062.52C419.132 1064.78 419.184 1065.02 417.488 1064.4C413.866 1063.09 377.489 1058.91 359.924 1057.79C350.299 1057.18 339.724 1056.18 336.424 1055.59C333.124 1055 317.149 1054.15 300.924 1053.7C284.699 1053.26 263.324 1052.61 253.424 1052.25C243.524 1051.9 231.374 1052.03 226.424 1052.54C221.474 1053.06 216.902 1053.29 216.264 1053.06C214.65 1052.47 185.59 1020.17 177.064 1009.48C173.204 1004.64 165.034 993.619 158.908 984.984C152.783 976.348 145.986 967.033 143.803 964.283C141.62 961.533 135.518 952.813 130.244 944.906C124.969 936.998 118.636 928.052 116.171 925.025C110.231 917.733 98.8719 900.231 89.3399 883.686C85.0939 876.314 80.1129 868.039 78.2709 865.296C74.8979 860.271 74.2969 858.768 75.6739 858.801C76.0859 858.812 80.2049 859.489 84.8269 860.306ZM498.353 902.26C502.163 904.361 510.841 908.912 517.637 912.372C528.538 917.923 537.636 923.505 555.424 935.558C565.318 942.263 601.332 966.423 611.273 973.025C624.683 981.931 631.378 985.884 649.924 995.844C658.449 1000.42 668.574 1005.87 672.424 1007.95C676.274 1010.03 678.681 1011.74 677.773 1011.76C676.865 1011.77 673.446 1013.79 670.175 1016.25C663.364 1021.37 656.055 1024.78 651.89 1024.78C650.312 1024.78 646.412 1024.1 643.223 1023.27C638.542 1022.05 636.364 1021.97 631.924 1022.87C627.161 1023.84 625.711 1024.75 621.1 1029.64C614.22 1036.93 610.924 1044.15 610.924 1051.91C610.924 1055.14 610.545 1057.78 610.083 1057.78C608.35 1057.78 581.141 1038.46 571.424 1030.32C568.674 1028.02 562.149 1022.95 556.924 1019.05C551.699 1015.15 544.499 1009.39 540.924 1006.26C537.349 1003.12 531.274 998.047 527.424 994.977C523.574 991.907 520.029 988.695 519.546 987.839C517.828 984.792 506.647 974.683 502.858 972.749C497.583 970.058 493.49 970.28 486.381 973.643C478.492 977.375 474.924 981.572 474.924 987.116C474.924 993.628 476.317 997.05 481.971 1004.44C489.655 1014.47 490.53 1015.34 500.924 1023.3C506.149 1027.3 512.224 1032.46 514.424 1034.78C516.624 1037.09 521.799 1041.6 525.924 1044.79C530.049 1047.98 535.674 1052.9 538.424 1055.72C541.174 1058.54 548.309 1064.75 554.279 1069.53C560.445 1074.46 564.548 1078.39 563.779 1078.62C563.034 1078.85 557.249 1080.94 550.924 1083.27C544.599 1085.61 532.706 1088.97 524.494 1090.74C516.283 1092.52 508.408 1094.41 506.994 1094.95C505.581 1095.49 500.374 1096.78 495.424 1097.83C490.474 1098.88 485.47 1100.01 484.305 1100.34C482.593 1100.83 480.48 1099.18 473.305 1091.76C463.045 1081.16 452.814 1074.04 442.313 1070.21C436.295 1068.01 434.924 1067.12 434.924 1065.39C434.924 1063.46 422.614 1051.56 410.924 1042.2C408.999 1040.66 404.049 1036.22 399.924 1032.34C395.799 1028.46 386.53 1020.68 379.327 1015.06C372.123 1009.44 362.411 1001.34 357.744 997.065C353.077 992.785 345.471 985.948 340.841 981.871C325.188 968.087 296.674 939.813 298.062 939.451C298.811 939.255 305.049 937.248 311.924 934.99C319.107 932.63 333.356 929.194 345.424 926.91C372.997 921.692 383.769 919.292 388.5 917.316C390.638 916.422 396.777 915.273 402.143 914.762C413.337 913.696 420.74 912.104 436.924 907.283C443.249 905.399 452.699 903.162 457.924 902.312C475.524 899.449 479.38 898.597 482.901 896.791C486.228 895.083 486.536 895.08 488.916 896.715C490.295 897.663 494.542 900.159 498.353 902.26ZM443.924 915.196C441.999 915.926 438.624 917.314 436.424 918.281C434.224 919.249 428.475 921.102 423.648 922.399C418.822 923.697 413.575 925.429 411.989 926.249C410.404 927.069 403.328 928.888 396.265 930.292C389.202 931.695 380.274 933.907 376.424 935.208C371.137 936.995 368.069 937.451 363.885 937.072C359.594 936.683 358.047 936.929 357.023 938.164C355.316 940.22 356.349 944.405 358.9 945.77C361.213 947.008 373.474 944.762 380.244 941.86C382.596 940.852 389.089 939.304 394.674 938.419C405.311 936.734 429.037 929.742 445.924 923.315C448.399 922.373 453.124 921.53 456.424 921.443C462.384 921.284 462.424 921.263 462.424 918.293C462.424 915.78 461.945 915.2 459.424 914.661C454.34 913.574 447.593 913.807 443.924 915.196ZM512.174 935.938C506.629 939.077 506.099 939.854 508.272 941.657C510.195 943.253 522.162 937.264 521.717 934.928C521.226 932.351 517.886 932.705 512.174 935.938ZM466.162 940.304C458.867 942.172 450.924 944.574 448.509 945.642C446.094 946.711 441.617 948.312 438.559 949.201C434.504 950.38 432.313 951.717 430.462 954.144C429.066 955.974 427.924 957.838 427.924 958.287C427.924 959.575 435.226 968.767 440.975 974.714C445.139 979.022 446.866 980.14 449.324 980.118C454.46 980.074 469.871 976.803 475.319 974.602C478.127 973.468 485.515 970.637 491.738 968.311C503.867 963.778 505.32 962.802 506.324 958.513C506.904 956.036 506.003 954.742 497.801 946.263C488.78 936.938 488.555 936.784 484.027 936.845C481.495 936.88 473.456 938.436 466.162 940.304ZM395.892 946.986C387.592 950.47 385.723 950.899 380.738 950.472C374.152 949.907 371.544 951.677 372.099 956.337C372.716 961.524 375.676 961.3 395.076 954.598C399.835 952.953 404.672 950.947 405.826 950.139C408.139 948.519 408.66 944.279 406.642 943.505C405.937 943.234 401.099 944.801 395.892 946.986ZM491.475 950.908L498.354 958.034L486.389 962.262C479.808 964.587 472.162 967.409 469.398 968.533C466.634 969.657 460.854 971.168 456.555 971.891C449.254 973.118 448.672 973.084 447.717 971.378C447.155 970.373 444.434 967.055 441.672 964.004C436.976 958.819 436.768 958.371 438.477 957.12C439.483 956.385 441.458 955.779 442.865 955.773C444.273 955.768 447.899 954.583 450.924 953.139C456.031 950.703 479.425 943.909 483.01 943.822C483.882 943.8 487.691 946.989 491.475 950.908ZM468.424 953.222C458.609 956.365 454.924 958.444 454.924 960.84C454.924 964.066 457.513 964.202 465.737 961.407C469.985 959.964 474.26 958.783 475.237 958.783C476.215 958.783 478.2 957.598 479.648 956.15C482.177 953.621 482.207 953.463 480.411 952.15C478.024 950.404 476.916 950.504 468.424 953.222ZM128.528 966.598C134.521 974.472 143.474 986.682 148.424 993.731C159.337 1009.27 165.586 1017.03 181.907 1035.28C199.601 1055.07 209.376 1064.78 211.607 1064.78C212.661 1064.78 214.086 1064.22 214.772 1063.53C216.535 1061.77 248.897 1061.29 263.745 1062.82C270.168 1063.47 287.799 1064.37 302.924 1064.81C318.049 1065.25 332.543 1066.09 335.133 1066.66C337.722 1067.24 347.397 1068.18 356.633 1068.76C385.615 1070.59 421.187 1075.41 434.894 1079.38C441.158 1081.2 446.639 1083.83 452.532 1087.87C457.364 1091.18 468.66 1103.78 465.074 1101.86C456.635 1097.35 420.733 1101.66 402.77 1109.35C398.229 1111.29 383.919 1116.03 370.969 1119.87C335.772 1130.31 336.035 1130.22 323.8 1136.9C317.543 1140.32 308.078 1145.04 302.767 1147.4C288.809 1153.59 276.103 1160.85 262.424 1170.45C255.824 1175.08 242.999 1183.75 233.924 1189.72C224.849 1195.69 214.949 1202.71 211.924 1205.33C205.319 1211.06 196.603 1216.78 194.488 1216.78C192.372 1216.78 171.054 1192.25 163.642 1181.28C160.297 1176.33 154.338 1168.23 150.401 1163.28C146.464 1158.33 141.726 1152.03 139.871 1149.28C136.238 1143.9 99.4699 1095.5 88.8759 1082.16C78.7659 1069.43 70.4249 1057.8 57.0559 1037.79C50.2529 1027.61 42.0409 1016.16 38.8059 1012.33C35.5709 1008.51 32.9439 1005.14 32.9689 1004.83C33.0989 1003.25 49.0879 993.813 60.9239 988.339C74.3299 982.138 112.967 957.088 115.255 953.114C115.712 952.32 116.434 951.808 116.859 951.977C117.284 952.145 122.535 958.725 128.528 966.598ZM400.942 971.298C390.919 974.759 388.645 976.564 390.568 979.533C392.066 981.845 398.067 981.564 406.397 978.792C414.274 976.171 416.706 973.794 415.104 970.279C413.687 967.169 412.69 967.241 400.942 971.298ZM501.569 985.895C504.501 988.157 507.83 991.513 508.968 993.353C510.105 995.194 514.048 999.078 517.73 1001.98C521.412 1004.89 528.024 1010.38 532.424 1014.18C546.541 1026.37 596.12 1063.53 602.584 1066.76C613.476 1072.19 622.477 1066.84 622.202 1055.09C622.06 1049.01 623.861 1044.22 628.424 1038.52C632.143 1033.88 635.87 1033.04 643.244 1035.19C646.262 1036.06 650.013 1036.77 651.578 1036.76C656.457 1036.73 667.231 1032.32 674.342 1027.45C678.09 1024.88 681.717 1022.78 682.403 1022.78C683.088 1022.78 685.368 1024.15 687.47 1025.82C689.836 1027.7 691.887 1028.61 692.858 1028.2C693.719 1027.84 699.824 1025.74 706.424 1023.52C713.024 1021.31 721.249 1018.43 724.703 1017.13C733.721 1013.74 737.905 1014.58 743.867 1021.02C746.373 1023.72 756.074 1032.98 765.424 1041.59C774.774 1050.2 787.991 1063.1 794.795 1070.26C811.145 1087.47 835.141 1110.76 836.529 1110.77C838.008 1110.79 846.971 1120.4 849.59 1124.78C852.288 1129.3 857.421 1158.24 856.469 1163.57C854.644 1173.78 843.109 1190.78 838.006 1190.78C834.857 1190.78 821.174 1198.55 808.924 1207.28C802.599 1211.8 796.299 1216.17 794.924 1217.01C790.324 1219.81 779.684 1221.16 759.924 1221.45C749.199 1221.61 735.249 1221.86 728.924 1222C717.162 1222.27 703.336 1220.78 694.424 1218.29C691.674 1217.52 682.732 1214.62 674.552 1211.84C666.373 1209.06 659.001 1206.78 658.169 1206.78C657.338 1206.78 647.155 1202 635.541 1196.16C622.283 1189.49 607.911 1183.18 596.924 1179.22C562.393 1166.75 556.296 1164.54 547.424 1161.25C542.474 1159.42 535.049 1156.58 530.924 1154.95C526.799 1153.32 522.078 1151.59 520.434 1151.11C516.479 1149.96 516.114 1147.24 519.449 1143.76C524.067 1138.94 526.76 1138.35 536.152 1140.11C540.701 1140.96 546.599 1141.95 549.257 1142.29C551.916 1142.64 555.966 1143.61 558.257 1144.44C561.01 1145.44 569.043 1146.25 581.924 1146.82C608.776 1148.02 615.231 1148.62 620.164 1150.38C627.649 1153.04 634.955 1149.95 636.775 1143.36C638.26 1137.98 637.092 1135.25 629.786 1127.04C625.986 1122.78 619.85 1115.72 616.151 1111.36C612.451 1107.01 607.174 1100.98 604.424 1097.96C599.119 1092.15 580.796 1076.24 560.339 1059.69C556.536 1056.61 550.724 1051.49 547.424 1048.3C544.124 1045.12 538.274 1040.02 534.424 1036.98C530.574 1033.94 524.274 1028.46 520.424 1024.81C516.574 1021.15 510.14 1015.73 506.127 1012.75C498.631 1007.2 487.541 994.09 486.359 989.379C485.816 987.215 486.33 986.608 490.582 984.395C493.245 983.01 495.607 981.855 495.832 981.83C496.056 981.804 498.638 983.633 501.569 985.895ZM580.703 1091.7C583.43 1093.86 588.265 1098.08 591.448 1101.09L597.235 1106.57L588.408 1109.26C574.618 1113.47 542.031 1120.59 524.424 1123.26C512.689 1125.03 505.413 1126.76 497.129 1129.73C490.916 1131.96 485.404 1133.78 484.879 1133.78C483.325 1133.78 483.792 1130.05 485.424 1129.42C486.594 1128.97 486.924 1126.98 486.924 1120.39V1111.94L491.674 1110.37C494.287 1109.51 499.124 1108.31 502.424 1107.7C505.724 1107.1 512.147 1105.53 516.697 1104.22C521.246 1102.91 530.021 1100.88 536.197 1099.7C542.455 1098.52 552.293 1095.68 558.424 1093.29C572.415 1087.85 572.118 1087.95 574.084 1087.86C574.997 1087.82 577.976 1089.55 580.703 1091.7ZM462.91 1110.25C463.474 1111.73 465.852 1113.73 468.885 1115.26C472.899 1117.3 473.924 1118.32 473.924 1120.3C473.924 1121.67 473.488 1122.78 472.955 1122.78C472.422 1122.78 468.935 1120.82 465.205 1118.41C461.476 1116.01 456.399 1113 453.924 1111.72L449.424 1109.39L452.424 1108.7C459.004 1107.2 461.917 1107.63 462.91 1110.25ZM620.107 1133.21C623.232 1136.53 625.617 1139.42 625.408 1139.63C625.198 1139.84 623.541 1139.47 621.725 1138.81C618.536 1137.66 607.47 1136.67 576.924 1134.84C568.898 1134.36 560.258 1133.27 557.573 1132.39C554.905 1131.53 549.831 1130.52 546.297 1130.16C542.764 1129.8 540.021 1129.35 540.204 1129.17C540.386 1128.99 549.96 1126.79 561.479 1124.29C572.999 1121.79 586.924 1118.44 592.424 1116.86L602.424 1113.99L608.424 1120.58C611.724 1124.21 616.981 1129.89 620.107 1133.21Z" fill="black"/>
</svg>
