<svg width="1156" height="1396" viewBox="0 0 1156 1396" fill="none" xmlns="http://www.w3.org/2000/svg">
<path fill-rule="evenodd" clip-rule="evenodd" d="M754.64 0.427756C754.402 0.666756 716.189 1.34776 669.723 1.94176C544.889 3.53776 530.107 4.18376 450.24 11.5378C404.606 15.7398 374.296 19.2258 354.74 22.5208C346.765 23.8648 324.715 27.2328 305.74 30.0068C286.765 32.7798 253.015 38.1798 230.74 42.0048C186.23 49.6498 171.917 51.8278 145.74 54.9398C136.115 56.0838 120.59 58.1328 111.24 59.4938C58.9527 67.1058 51.1097 67.9948 36.1847 68.0018C27.9647 68.0058 18.2017 68.2958 14.4897 68.6468C8.26474 69.2348 7.73974 69.4658 7.73974 71.6208C7.73974 74.6318 8.39974 74.7498 29.2397 75.4848C43.8877 76.0018 47.5537 75.8108 55.7397 74.1018C60.9647 73.0108 71.5397 71.3858 79.2397 70.4888C86.9397 69.5928 98.8647 68.0028 105.74 66.9568C112.615 65.9098 126.565 64.1248 136.74 62.9898C162.381 60.1308 185.921 56.6868 215.24 51.5068C254.689 44.5358 268.439 42.3258 296.24 38.4848C310.54 36.5088 333.04 33.1438 346.24 31.0068C378.136 25.8408 395.77 23.7788 448.74 19.0158C512.614 13.2728 514.862 13.1348 562.24 12.0258C751.187 7.60276 889.426 7.58776 926.24 11.9858C930.64 12.5108 941.89 13.6458 951.24 14.5058C969.905 16.2238 999.128 20.2928 1004.93 21.9808C1009.24 23.2378 1010.83 25.5118 1016.74 38.9678C1024.91 57.5778 1029.62 73.6938 1031.27 88.7288C1033.22 106.399 1035.03 117.683 1038.77 135.301C1041.94 150.223 1043.94 168.964 1048.25 223.995C1049.65 241.87 1051.44 262.57 1052.23 269.995C1054.84 294.611 1055 298.916 1055.19 348.88C1055.37 398.421 1056.47 436.086 1059.23 487.995C1060.04 503.12 1061.17 525.395 1061.75 537.495C1062.33 549.595 1063.48 568.045 1064.31 578.495C1065.14 588.945 1066.47 605.716 1067.26 615.763C1069.12 639.287 1069.93 646.131 1075.31 683.335C1080.32 718.056 1081.28 723.185 1086.87 744.963C1090.17 757.816 1091.09 763.649 1092.3 779.463C1094.11 803.126 1096.1 818.872 1099.29 834.995C1106.1 869.324 1115.3 944.655 1117.19 981.495C1117.87 994.867 1120.08 1014.95 1122.33 1028.27C1123.14 1033.09 1124.46 1051.76 1125.25 1069.77C1126.82 1105.4 1126.73 1104.81 1135.07 1134.26C1141.93 1158.48 1143.2 1167.27 1142.4 1184.99C1141.63 1202.1 1139.6 1213.73 1135.08 1226.99C1130.68 1239.94 1127.86 1245.47 1118.54 1259.45C1110.35 1271.74 1105.98 1275.42 1095.36 1278.95C1089.47 1280.91 1085.72 1281.16 1049.59 1281.97C1006.7 1282.94 1001.39 1283.47 968.418 1290.04C957.516 1292.22 948.396 1293.99 948.151 1293.99C947.907 1293.99 950.005 1291.07 952.815 1287.49C957.596 1281.41 958.263 1279.82 963.202 1262.74L968.481 1244.49L979.86 1241.2C986.119 1239.39 993.49 1236.99 996.24 1235.86C1010.38 1230.07 1022.65 1225.69 1026.08 1225.23C1028.19 1224.94 1030.13 1224.13 1030.4 1223.43C1030.73 1222.59 1032.01 1222.33 1034.14 1222.67C1038.4 1223.36 1040.26 1221.44 1042.37 1214.18C1045.32 1204.07 1043.34 1157.4 1036.7 1080.49C1035.61 1067.84 1034.5 1056.37 1034.23 1054.99C1033.76 1052.54 1031.09 1027 1028.22 997.495C1026.35 978.157 1026.56 979.683 1019.7 936.995C1012.94 895.003 1011.56 884.602 1008.8 854.995C1005.92 824.055 1003.97 795.884 1002.26 760.431C1000.9 732.185 999.47 712.416 996.758 684.495C996.223 678.995 995.088 665.945 994.234 655.495C993.381 645.045 991.142 620.52 989.259 600.995C987.377 581.47 985.118 555.37 984.24 542.995C981.996 511.355 976.069 442.905 973.721 421.495C971.134 397.915 970.04 378.523 968.725 332.995C968.13 312.37 967.213 289.42 966.688 281.995C966.163 274.57 965.082 249.37 964.287 225.995C963.492 202.62 962.367 178.545 961.786 172.495C959.163 145.177 953.697 106.708 950.818 95.3028C949.125 88.5978 947.74 82.1948 947.74 81.0738C947.74 78.3528 943.026 76.0398 928.503 71.6378C913.884 67.2058 909.434 66.4318 887.74 64.5488C850.907 61.3528 815.462 57.9408 814.795 57.5288C814.413 57.2928 808.282 56.2918 801.17 55.3048C785.061 53.0688 772.025 53.0508 750.24 55.2358C702.758 59.9988 692.441 60.3868 614.24 60.3468C572.99 60.3268 518.315 60.1258 492.74 59.9018C446.978 59.5008 445.883 59.5378 423.74 62.2258C411.365 63.7278 378.965 67.2238 351.74 69.9938C292.294 76.0428 261.684 79.4608 244.24 81.9958C237.09 83.0348 220.44 84.6078 207.24 85.4908C171.957 87.8518 141.354 93.0928 111.072 101.959C84.4087 109.766 72.4387 114.931 64.1617 122.198L60.6987 125.238L56.9357 122.631C54.8657 121.197 50.0377 118.951 46.2067 117.641C42.3747 116.33 36.3147 113.992 32.7397 112.445C26.6737 109.82 25.4377 109.647 14.2417 109.847C1.88174 110.068 -0.978262 110.96 0.266738 114.205C1.28974 116.871 8.38774 118.058 17.7397 117.126C25.7137 116.331 26.6417 116.445 32.7397 118.975C36.3147 120.458 41.8077 122.475 44.9467 123.457C54.0467 126.303 53.7807 125.499 54.1267 151.12C54.3917 170.757 54.8657 176.371 57.9987 196.995C60.8317 215.643 61.6987 224.831 62.1997 241.495C63.2507 276.5 64.7367 309.877 65.7607 321.495C66.2937 327.545 67.6447 352.48 68.7617 376.906C69.8787 401.332 71.2357 424.442 71.7777 428.262C72.3197 432.081 73.4427 446.296 74.2727 459.851C75.1037 473.405 76.4587 490.345 77.2847 497.495C78.1097 504.645 80.1207 525.345 81.7527 543.495C85.3277 583.236 86.0567 589.47 89.7637 611.995C96.9477 655.637 102.464 709.224 104.742 757.495C105.338 770.145 106.47 786.57 107.257 793.995C112.388 842.427 117.716 941.281 117.739 988.495C117.757 1026.3 120.462 1075.57 124.244 1106.99C127.305 1132.42 133.004 1172.62 136.261 1191.74C140.198 1214.86 141.284 1227.74 142.733 1268.49C143.3 1284.44 144.023 1299.18 144.34 1301.24C144.657 1303.31 144.52 1304.99 144.036 1304.99C143.552 1304.99 139.125 1307.31 134.198 1310.14C129.271 1312.96 122.311 1316.27 118.73 1317.49C115.15 1318.71 108.625 1321.38 104.23 1323.42C93.0467 1328.61 72.3837 1336.53 65.2397 1338.35C52.3837 1341.64 42.4027 1342.29 23.8447 1341.03C4.19874 1339.71 0.352738 1340.25 0.920738 1344.25C1.23374 1346.45 1.63874 1346.52 22.2397 1347.68C45.1767 1348.98 57.1397 1348.32 71.4117 1344.98C79.8967 1343 101.772 1334.5 113.49 1328.65C119.937 1325.42 124.236 1323.83 129.756 1322.62C131.14 1322.32 134.74 1320.23 137.756 1317.97C141.985 1314.81 143.812 1314.01 145.74 1314.48C147.115 1314.82 152.29 1315.72 157.24 1316.49C181.704 1320.3 191.496 1322.19 205.74 1325.84C225.386 1330.89 241.045 1332.91 266.24 1333.67C290.782 1334.42 304.008 1333.33 341.74 1327.47C374.219 1322.43 418.404 1316.45 430.24 1315.49C434.64 1315.14 446.115 1313.99 455.74 1312.93C465.365 1311.88 487.64 1309.87 505.24 1308.47C522.84 1307.06 547.504 1304.8 560.048 1303.45C572.593 1302.1 591.943 1300.3 603.048 1299.46C614.154 1298.62 628.751 1297.25 635.486 1296.4L647.731 1294.86L653.986 1297.91C657.426 1299.59 664.29 1302.05 669.24 1303.39C680.61 1306.46 709.135 1320.95 706.136 1322.13C702.236 1323.67 642.997 1341.96 637.083 1343.45C629.765 1345.29 617.928 1347.56 608.24 1348.98C604.39 1349.54 583.015 1350.68 560.74 1351.51C538.465 1352.34 515.515 1353.48 509.74 1354.05C477.063 1357.25 461.79 1358.2 429.74 1359.01C361.949 1360.72 308.169 1362.92 295.366 1364.5C279.589 1366.44 253.083 1366.78 207.74 1365.6C182.109 1364.93 171.843 1365 167.806 1365.88C164.818 1366.52 150.193 1367.5 135.306 1368.05C106.262 1369.13 70.8647 1373.16 56.6257 1377.01C31.3967 1383.84 26.0857 1384.99 19.8827 1385C16.2287 1385 11.5527 1385.47 9.48974 1386.05C6.31274 1386.93 5.73974 1387.51 5.73974 1389.85C5.73974 1391.37 6.37874 1393.49 7.15874 1394.55C8.43174 1396.29 8.92074 1396.36 11.9087 1395.22C13.7407 1394.52 19.9647 1393.49 25.7397 1392.93C35.3817 1392 45.2097 1389.69 59.8797 1384.91C62.9807 1383.9 74.9057 1381.66 86.3797 1379.92C103.62 1377.32 111.838 1376.63 133.74 1376C150.726 1375.5 164.01 1374.6 170.74 1373.49C181.997 1371.62 188.684 1371.68 232.74 1374.07C257.162 1375.39 273.022 1374.9 296.74 1372.08C314.262 1370.01 325.234 1369.55 395.74 1367.96C441.234 1366.93 476.349 1365.09 501.24 1362.45C514.465 1361.04 524.465 1360.51 585.522 1357.99C623.38 1356.43 633.249 1354.38 689.627 1336.42C704.165 1331.78 716.904 1327.99 717.935 1327.99C718.966 1327.99 720.807 1328.63 722.025 1329.41C723.243 1330.18 734.59 1333.55 747.24 1336.88L770.24 1342.94L779.977 1341.47C785.332 1340.66 799.057 1338.39 810.477 1336.43C821.897 1334.47 833.715 1332.47 836.74 1331.99C844.411 1330.76 866.384 1330.47 877.773 1331.44C885.584 1332.11 888.384 1331.95 893.273 1330.54C903.559 1327.58 914.851 1321.6 925.898 1313.28L936.556 1305.25L960.398 1300.13C983.532 1295.17 993.58 1293.32 1010.24 1290.97C1014.64 1290.34 1035.79 1289.48 1057.24 1289.04C1101.39 1288.15 1103.87 1287.76 1115.67 1279.88C1121.83 1275.77 1123.92 1273.21 1133.79 1257.71C1148.63 1234.4 1155.24 1209.91 1155.18 1178.49C1155.14 1159.65 1154.05 1153.24 1146.16 1125.7C1139.65 1102.96 1139.13 1099.25 1137.76 1065.99C1137.19 1051.97 1136.06 1035.99 1135.26 1030.49C1134.46 1024.99 1132.88 1008.12 1131.75 992.995C1126.71 925.612 1119.94 869.402 1112.29 831.495C1109.21 816.256 1107.13 799.787 1105.72 779.495C1104.84 766.854 1103.69 759.611 1100.25 744.995C1094.2 719.259 1093.25 714.186 1088.7 682.995C1086 664.442 1084.37 648.988 1083.71 635.495C1082.73 615.55 1081.1 593.736 1080.23 588.995C1079.61 585.579 1076.99 544.793 1076.25 526.995C1075.92 519.02 1075 502.145 1074.2 489.495C1071.63 448.54 1070.71 417.686 1070.15 353.995C1069.67 298.188 1069.35 288.818 1067.2 266.495C1065.88 252.745 1064.09 232.72 1063.23 221.995C1058.73 165.871 1057.25 151.48 1054.75 139.495C1050.6 119.586 1047.76 102.936 1046.75 92.4948C1045.17 76.2958 1044.12 71.3478 1039.16 56.8628C1034.25 42.5368 1027.27 27.4128 1022.59 20.9478C1020.82 18.5088 1017.87 16.0548 1015.37 14.9478C1005.15 10.4278 930.408 2.43376 884.868 0.988756C855.131 0.0457562 755.452 -0.383244 754.64 0.427756ZM787.598 63.3148C789.571 63.9638 791.697 65.5248 792.324 66.7828C792.95 68.0418 794.208 69.6168 795.119 70.2828C797.921 72.3328 804.438 118.195 808.719 165.995C817.306 261.882 820.447 303.608 821.703 338.495C823.186 379.666 824.53 400.457 827.264 424.495C830.352 451.646 835.479 508.103 836.255 523.495C836.588 530.095 837.513 544.27 838.311 554.995C839.109 565.72 841.098 593.17 842.732 615.995C844.365 638.82 847.046 671.67 848.689 688.995C851.93 723.173 853.335 742.014 854.209 762.995C854.518 770.42 855.223 787.295 855.775 800.495C856.327 813.695 857.476 836.42 858.329 850.995C859.182 865.57 859.735 879.733 859.56 882.468L859.24 887.44L855.03 883.179C848.149 876.214 843.597 874.751 826.24 873.931C817.99 873.541 808.54 872.517 805.24 871.656C801.94 870.795 794.065 869.603 787.74 869.007C766.878 867.041 768.175 867.412 765.354 862.6C762.124 857.087 757.718 853.78 747.028 848.841L738.407 844.858L728.324 847.095C716.383 849.744 696.461 850.702 688.346 849.017C684.915 848.305 681.369 846.682 678.885 844.686C676.699 842.931 671.665 838.842 667.697 835.6C658.534 828.112 651.753 825.734 639.161 825.595C630.66 825.501 629.762 825.693 625.079 828.599C622.328 830.306 617.498 832.514 614.345 833.506C610.957 834.571 607.515 836.495 605.927 838.21C604.449 839.806 601.093 842.706 598.469 844.654C592.719 848.923 588.502 854.832 584.855 863.73C583.36 867.378 581.646 870.526 581.047 870.726C579.426 871.266 571.232 858.447 562.695 842.017C558.545 834.03 551.466 820.745 546.963 812.495C542.461 804.245 536.514 792.374 533.748 786.115L528.719 774.734L535.96 775.448C539.942 775.84 549.735 777.54 557.72 779.226C571.051 782.039 573.877 782.295 592.24 782.348C603.24 782.38 616.74 782.218 622.24 781.989C632.163 781.575 632.314 781.604 641.74 785.716C654.055 791.088 656.033 791.552 657.756 789.475C659.798 787.015 658.189 785.292 649.719 780.869C639.504 775.536 633.626 774.721 615.516 776.128C597.885 777.497 580.238 776.28 560.889 772.36C553.932 770.951 543.131 769.552 536.888 769.252L525.535 768.707L523.611 765.601C519.786 759.426 503.711 726.169 497.699 711.995C494.317 704.02 488.42 691.161 484.594 683.42C479.203 672.51 477.421 667.787 476.671 662.42C475.407 653.382 474.488 650.703 467.981 637.101C463.839 628.441 461.176 624.321 456.885 619.934C449.198 612.074 443.996 610.546 427.295 611.243C406.91 612.095 399.051 616.789 394.751 630.682C391.832 640.11 391.338 644.787 392.717 649.91C393.368 652.326 394.462 657.834 395.149 662.149L396.397 669.995H393.649C392.138 669.995 385.128 668.835 378.071 667.418C363.969 664.585 360.518 664.651 343.88 668.071C332.122 670.488 327.275 670.474 317.24 667.995C306.069 665.235 294.468 665.384 281.57 668.452C275.889 669.804 264.787 671.406 256.899 672.013C236.72 673.565 226.69 676.912 207.74 688.415C195.936 695.58 193.359 697.832 194.875 699.658C195.485 700.393 196.305 700.995 196.697 700.995C197.089 700.995 201.197 698.694 205.825 695.882C215.466 690.024 228.326 683.418 234.211 681.3C236.427 680.503 245.737 679.233 254.899 678.479C266.107 677.556 273.961 676.362 278.899 674.828C289.04 671.68 302.554 671.652 312.095 674.761C320.826 677.606 329.134 677.624 339.33 674.819C349.707 671.965 366.986 671.787 373.74 674.465C376.365 675.506 382.402 676.509 388.228 676.872L398.217 677.495L399.928 683.995C400.87 687.57 405.905 699.045 411.119 709.495C416.332 719.945 423.125 735.02 426.213 742.995C430.718 754.628 435.713 767.005 437.49 770.941C437.628 771.246 427.053 771.495 413.99 771.495C391.999 771.495 389.722 771.664 383.24 773.77C373.743 776.858 369.331 779.163 368.93 781.248C368.433 783.828 372.433 783.498 380.467 780.296C387.115 777.647 387.636 777.599 408.74 777.675C422.913 777.727 432.455 778.223 436.74 779.132L443.24 780.51L446.74 789.621C448.665 794.632 451.413 801.603 452.846 805.113C454.279 808.623 456.218 813.97 457.156 816.995C458.093 820.02 462.184 829.245 466.247 837.495C476.276 857.859 486.242 879.64 487.752 884.495C488.437 886.695 490.983 892.489 493.41 897.37C495.838 902.251 497.646 906.423 497.428 906.64C497.21 906.858 494.627 906.521 491.688 905.891C480.492 903.489 466.143 906.698 439.496 917.564C426.462 922.879 422.271 924.139 415.94 924.649C411.705 924.99 407.704 925.69 407.049 926.205C404.889 927.904 406.847 929.888 411.349 930.564C417.203 931.442 426.41 929.089 439.65 923.333C455.084 916.623 470.23 911.913 478.429 911.275C484.567 910.797 486.846 911.124 494.026 913.511L502.435 916.306L506.087 925.566C508.096 930.66 509.74 935.237 509.74 935.739C509.74 936.24 510.892 939.486 512.3 942.951C513.708 946.417 516.383 956.057 518.244 964.373C520.105 972.69 523.498 985.57 525.784 992.995C528.07 1000.42 530.989 1010.32 532.27 1014.99C533.551 1019.67 535.081 1024.76 535.67 1026.31C537.873 1032.1 536.738 1032.12 529.99 1026.38C520.984 1018.73 512.408 1013.29 499.74 1007.18C493.965 1004.4 484.965 999.331 479.74 995.915C474.515 992.499 463.402 986.433 455.045 982.435C437.743 974.159 434.37 971.987 423.24 961.96C418.84 957.996 409.615 951.029 402.74 946.477C395.865 941.926 387.315 935.63 383.74 932.486C372.763 922.834 371.594 922.3 359.916 921.597C350.853 921.051 348.289 921.295 338.916 923.594C333.044 925.034 326.996 926.853 325.476 927.636C321.383 929.746 310.953 943.342 310.152 947.613C309.273 952.296 310.253 961.269 312.293 967.224C313.877 971.845 321.125 979.663 327.686 983.826C329.091 984.718 330.616 986.048 331.075 986.783C333.837 991.207 359.741 1019.01 380.74 1040.09C422.141 1081.65 458.216 1119.1 464.937 1127.49C468.46 1131.89 474.438 1139.32 478.222 1143.99C487.014 1154.86 494.202 1165.95 493.098 1166.96C491.293 1168.62 481.437 1171.19 476.451 1171.31C473.585 1171.38 468.203 1171.05 464.49 1170.58C458.014 1169.75 457.74 1169.8 457.74 1171.83C457.74 1178.23 474.714 1179.72 489.571 1174.63L497.903 1171.78L500.916 1174.64C502.574 1176.21 507.286 1181.65 511.388 1186.74C515.491 1191.82 520.915 1197.67 523.443 1199.74C530.431 1205.45 543.583 1217.88 560.22 1234.5C580.36 1254.62 589.653 1262.11 605.898 1271.33C608.46 1272.78 612.719 1275.62 615.362 1277.64C618.006 1279.66 623.56 1283.14 627.704 1285.39L635.24 1289.46L629.74 1290.15C626.715 1290.53 617.265 1291.34 608.74 1291.96C600.215 1292.57 581.09 1294.39 566.24 1295.99C551.39 1297.59 527.54 1299.84 513.24 1300.99C447.046 1306.33 403.461 1311.35 347.673 1320.03C319.427 1324.43 312.271 1325.19 292.24 1325.93C257.644 1327.22 237.899 1325.29 206.988 1317.61C199.427 1315.73 186.94 1313.23 179.24 1312.04C163.09 1309.55 158.711 1307.83 157.478 1303.49C157.008 1301.84 156.007 1282.94 155.253 1261.49C153.85 1221.59 153.187 1214.83 147.705 1184.49C146.114 1175.69 143.457 1158.14 141.8 1145.49C140.142 1132.84 138.123 1117.54 137.312 1111.49C133.335 1081.82 131.1 1043.02 130.254 988.995C129.24 924.227 124.667 841.775 119.273 790.995C118.484 783.57 117.562 769.62 117.223 759.995C116.161 729.871 109.161 658.159 104.191 626.495C98.9847 593.328 97.7787 583.726 95.2787 555.495C93.8657 539.545 91.8047 517.72 90.6987 506.995C87.8067 478.961 87.8397 479.361 86.6917 457.995C86.1147 447.27 85.2157 435.57 84.6927 431.995C84.1697 428.42 83.0507 409.745 82.2067 390.495C81.3617 371.245 80.0057 345.595 79.1937 333.495C77.7287 311.687 76.6737 289.732 74.7727 241.495C74.0867 224.083 73.0057 211.335 71.2097 199.495C66.9537 171.425 65.9557 162.283 65.2487 144.887L64.5747 128.279L71.0237 124.206C79.2817 118.99 86.1507 116.126 102.263 111.179C135.175 101.074 164.558 95.7448 199.888 93.4728C213.282 92.6118 230.315 91.0398 237.74 89.9798C258.988 86.9438 289.831 83.5088 349.74 77.5048C380.265 74.4448 415.59 70.7828 428.24 69.3658C450.343 66.8898 452.722 66.8148 489.24 67.4328C510.14 67.7868 536.24 68.4338 547.24 68.8708C558.24 69.3078 595.14 69.3138 629.24 68.8838C682.566 68.2118 695.611 67.7408 722.482 65.5138C739.664 64.0898 756.314 62.5188 759.482 62.0228C766.42 60.9348 782.628 61.6798 787.598 63.3148ZM819.24 64.0428C853.945 67.3888 882.529 69.9718 890.74 70.5058C895.965 70.8458 902.94 71.5818 906.24 72.1408C913.185 73.3178 931.94 78.4478 934.465 79.8608C935.566 80.4768 936.592 83.0948 937.324 87.1578C937.952 90.6438 939.389 97.0948 940.516 101.495C941.644 105.895 943.072 114.22 943.69 119.995C944.308 125.77 945.683 137.245 946.745 145.495C949.702 168.469 950.649 183.263 951.737 223.495C952.288 243.845 953.171 265.329 953.7 271.237C954.228 277.145 955.132 296.945 955.708 315.237C957.057 358.051 958.637 392.993 959.768 404.995C960.26 410.22 961.566 423.495 962.67 434.495C966.616 473.802 971.584 531.618 973.754 563.495C974.353 572.295 976.191 592.77 977.838 608.995C980.491 635.131 983.003 661.629 988.17 717.995C989.002 727.07 990.382 748.67 991.237 765.995C994.896 840.136 998.614 876.066 1009.76 944.995C1012.47 961.77 1015.39 982.695 1016.24 991.495C1018.37 1013.44 1021.44 1042.09 1023.23 1056.49C1024.04 1063.09 1025.39 1076.82 1026.23 1086.99C1027.06 1097.17 1028.41 1113.14 1029.24 1122.49C1032.82 1163.27 1033.59 1200.95 1031.06 1211.78L1029.36 1219.07L1026.3 1218.39C1019.7 1216.92 1010.54 1218.9 994.74 1225.22C987.757 1228.01 974.903 1231.99 972.877 1231.99C972.388 1231.99 973.506 1226.73 975.36 1220.29C978.651 1208.88 978.706 1208.37 977.665 1199.54C976.276 1187.76 974.574 1180.42 969.605 1164.81C966.324 1154.49 964.939 1151.5 962.51 1149.45C960.123 1147.45 958.585 1144.21 955.163 1133.99C952.783 1126.88 948.836 1115.98 946.392 1109.78C943.948 1103.57 938.931 1089.04 935.242 1077.49C920.666 1031.85 912.911 1009.99 898.591 974.163C890.383 953.63 881.627 930.68 879.131 923.163L874.594 909.495L872.706 871.995C871.667 851.37 870.13 819.87 869.291 801.995C866.347 739.284 865.628 728.138 861.712 684.495C859.541 660.295 856.858 627.445 855.75 611.495C854.642 595.545 853.064 574.62 852.244 564.995C851.424 555.37 850.285 538.945 849.714 528.495C848.681 509.581 846.363 483.721 840.753 428.495C837.609 397.557 836.182 375.629 835.22 343.495C834.481 318.778 832.513 288.901 828.669 243.995C827.045 225.02 825.043 201.17 824.221 190.995C823.398 180.82 822.281 168.445 821.737 163.495C821.193 158.545 820.284 148.42 819.717 140.995C818.272 122.082 809.309 70.6518 806.731 66.4798C804.177 62.3478 804.224 61.6108 806.99 62.4208C808.227 62.7828 813.74 63.5128 819.24 64.0428ZM535.475 175.012C531.755 176.103 523.118 179.471 516.283 182.495C509.448 185.52 502.534 187.995 500.92 187.995C496.952 187.995 495.118 190.32 496.338 193.805C497.725 197.765 500.712 197.616 507.471 193.247C514.508 188.699 532.322 181.402 539.901 179.963C546.125 178.782 553.188 179.548 556.74 181.79C558.115 182.658 562.12 185.812 565.641 188.798C577.308 198.695 584.81 200.151 599.777 195.423C607.56 192.965 608.07 192.924 611.355 194.483C619.245 198.226 622.602 191.411 615.243 186.589C612.783 184.977 612.329 185.016 605.285 187.448C600.317 189.162 595.773 189.995 591.386 189.995C585.268 189.995 584.481 189.72 578.554 185.505C560.444 172.627 562.536 173.585 551.873 173.292C544.595 173.092 540.587 173.512 535.475 175.012ZM324.638 175.522C316.927 177.393 301.967 183.972 294.47 188.788C291.043 190.989 287.227 193.091 285.989 193.46C282.417 194.524 281.416 197.392 283.849 199.593C286.155 201.681 284.922 202.163 298.24 193.971C309.565 187.005 322.242 181.805 329.275 181.24C335.222 180.763 335.604 180.876 339.348 184.225C341.489 186.14 344.365 188.31 345.74 189.048C349.057 190.828 360.659 190.62 368.178 188.646L374.116 187.087L378.488 191.117C385.361 197.452 393.847 199.98 396.7 196.543C397.911 195.085 397.274 190.995 395.836 190.995C395.414 190.995 392.307 188.78 388.933 186.072C385.559 183.364 381.917 180.869 380.839 180.526C379.761 180.184 374.932 180.644 370.108 181.548C359.214 183.589 356.584 183.173 348.121 178.069C342.277 174.544 340.617 174.006 335.803 174.078C332.743 174.124 327.719 174.774 324.638 175.522ZM700.74 181.132C696.615 181.608 688.29 181.757 682.24 181.463C671.323 180.932 671.191 180.952 664.74 184.211C660.016 186.598 658.153 188.11 657.92 189.745C657.501 192.698 659.114 192.629 666.186 189.391C670.543 187.396 672.617 186.965 675.056 187.545C679.651 188.638 692.045 188.382 709.226 186.84C722.058 185.688 724.261 185.244 724.549 183.748C725.246 180.131 717.137 179.24 700.74 181.132ZM146.15 193.963C137.886 198.114 129.019 205.597 121.769 214.539C115.529 222.236 115.031 224.01 118.577 225.908C121.224 227.325 125.264 224.124 126.099 219.948C126.488 218.004 128.778 214.832 132.215 211.476C137.104 206.703 145.79 199.995 147.082 199.995C147.347 199.995 147.871 201.811 148.246 204.03C149.727 212.797 157.099 217.026 167.658 215.166C170.744 214.623 181.424 210.762 191.391 206.586C201.359 202.411 209.82 198.995 210.194 198.995C210.568 198.995 212.395 200.607 214.254 202.578L217.633 206.162L230.937 205.487C239.603 205.047 245.935 205.202 249.102 205.933C254.459 207.168 256.74 206.261 256.74 202.896C256.74 198.935 252.202 197.519 238.296 197.138C225.573 196.79 225.182 196.713 221.966 193.888C216.443 189.039 211.079 190.111 186.24 201.028C174.006 206.405 165.902 208.204 163.372 206.104C162.613 205.475 161.693 202.7 161.327 199.938C160.582 194.326 158.002 190.995 154.4 190.995C153.113 190.995 149.4 192.331 146.15 193.963ZM651.74 272.558C632.064 274.228 623.37 275.594 612.74 278.685C598.82 282.733 594.563 283.132 583.823 281.394C569.671 279.104 560.639 280.556 541.021 288.276C528.498 293.203 527.74 293.62 527.74 295.585C527.74 298.506 530.71 298.031 543.608 293.046C562.896 285.591 564.648 285.34 578.744 287.996L590.512 290.213L600.376 287.643C605.801 286.23 613.52 284.173 617.529 283.072C629.089 279.897 646.255 278.729 690.727 278.091C729.601 277.533 732.237 277.382 732.56 275.697C733.438 271.122 732.446 270.987 698.868 271.118C681.472 271.186 660.265 271.834 651.74 272.558ZM215.24 283.02C212.49 283.467 205.965 284.762 200.74 285.898C188.619 288.534 180.305 288.563 173 285.995C169.87 284.895 164.992 283.995 162.159 283.995C154.947 283.995 144.78 289.212 137.857 296.466C133.898 300.613 131.876 301.995 129.763 301.995C127.792 301.995 126.017 303.055 123.844 305.53C122.137 307.474 120.74 309.624 120.74 310.307C120.74 312.688 123.869 315.995 126.122 315.995C128.64 315.995 129.115 315.556 137.719 305.289C143.95 297.854 147.909 294.41 153.44 291.613C157.818 289.4 160.406 289.58 166.159 292.499C173.028 295.984 182.269 295.841 199.725 291.979C207.142 290.338 214.459 288.995 215.984 288.995C217.509 288.995 220.621 290.345 222.899 291.995C227.475 295.31 229.882 295.734 231.7 293.543C233.522 291.348 232.614 289.01 228.74 285.914C224.511 282.534 221.804 281.953 215.24 283.02ZM345.166 290.046C342.375 290.531 334.524 292.743 327.72 294.961C319.556 297.623 313.533 298.995 310.012 298.995C304.308 298.995 302.413 300.654 304.432 303.881C306.237 306.765 310.965 306.161 327.24 300.964C341.583 296.384 343.861 295.918 349.24 296.465C352.54 296.801 367.84 297.466 383.24 297.943C398.64 298.42 412.48 299.129 413.996 299.52C416.982 300.29 419.74 298.754 419.74 296.322C419.74 295.536 418.053 294.168 415.99 293.283C413.002 291.999 406.449 291.517 383.74 290.907C368.065 290.486 354.115 289.922 352.74 289.653C351.365 289.385 347.957 289.562 345.166 290.046ZM651.24 384.023C625.716 384.669 620.022 385.365 605.49 389.618C603.286 390.263 603.198 393.85 605.365 394.682C606.26 395.025 611.097 394.223 616.115 392.9C624.396 390.717 627.229 390.495 646.74 390.495C658.565 390.495 673.64 390.105 680.24 389.628C691.269 388.831 692.685 388.932 697.74 390.878C709.565 395.43 720.74 395.919 720.74 391.884C720.74 390.811 720.178 389.759 719.49 389.548C695.501 382.179 702.326 382.731 651.24 384.023ZM479.74 390.239C474.56 392.323 472.722 392.453 448.144 392.473C427.52 392.49 421.701 392.783 420.394 393.867C416.097 397.433 420.952 402.392 426.493 400.097C428.435 399.293 435.657 399.009 449.288 399.2C468.988 399.477 469.348 399.445 477.796 396.596L486.352 393.712L491.086 397.326C493.69 399.313 497.715 401.451 500.03 402.077C504.486 403.28 516.561 402.568 518.123 401.01C520.033 399.105 517.668 397.241 511.902 396.107C508.594 395.456 503.339 393.563 500.224 391.901C492.684 387.878 486.799 387.4 479.74 390.239ZM317.24 390.636C315.04 390.845 303.79 391.414 292.24 391.9C267.933 392.924 236.813 397.318 220.456 402.036C214.837 403.656 208.793 404.985 207.025 404.989C203.111 404.996 201.064 407.864 202.74 410.995C204.094 413.525 206.771 413.53 211.707 411.012C217.72 407.944 228.828 405.292 245.24 403.007C253.49 401.858 263.793 400.217 268.136 399.361C272.479 398.504 277.429 398.088 279.136 398.436C280.843 398.784 293.04 398.549 306.24 397.914C327.393 396.896 331.257 396.951 338.818 398.377C350.615 400.602 354.44 400.515 355.237 398.004C355.585 396.909 355.61 395.594 355.294 395.082C353.723 392.54 328.37 389.578 317.24 390.636ZM143.963 402.656C139.988 404.615 135.534 409.691 135.942 411.795C136.457 414.447 138.432 414.204 142.028 411.047C143.94 409.368 145.722 407.995 145.989 407.995C146.256 407.995 147.618 409.723 149.016 411.836C152.046 416.415 156.382 418.472 161.127 417.582C166.367 416.599 166.369 414.492 161.136 408.648C153.993 400.673 150.475 399.446 143.963 402.656ZM628.49 423.569C626.235 425.853 628.048 428.125 634.862 431.556C650.285 439.323 655.283 447.21 656.405 465.552C657.161 477.901 658.223 479.687 663.49 477.464L666.74 476.092V466.064C666.74 452.156 664.256 444.746 656.946 436.85C653.196 432.8 649.303 429.9 644.293 427.424C637.097 423.867 629.923 422.117 628.49 423.569ZM624.407 437.662C623.092 438.977 623.778 441.719 625.891 443.59C628.776 446.145 633.319 456.374 634.17 462.233C635.24 469.591 639.389 472.25 643.211 468.027C647.25 463.564 641.844 445.626 634.631 439.557C631.732 437.117 626.011 436.057 624.407 437.662ZM581.26 441.589C572.109 445.611 566.144 449.94 563.573 454.424C561.578 457.905 561.24 459.871 561.241 467.995C561.242 479.699 563.401 486.587 568.956 492.614C578.841 503.337 591.225 502.195 608.946 488.923C615.279 484.181 617.74 480.554 617.74 475.963C617.74 474.985 614.905 472.148 611.24 469.457C607.397 466.636 604.74 463.946 604.74 462.878C604.74 461.883 605.614 458.691 606.681 455.783C611.792 441.862 610.479 439.747 596.433 439.271C588.294 438.996 586.554 439.262 581.26 441.589ZM597.342 446.587L599.445 447.151L596.97 453.278C595.608 456.648 594.274 461.048 594.005 463.056C593.45 467.197 594.788 468.8 605.035 476.27L610.83 480.495L608.035 482.796C606.498 484.061 602.116 486.977 598.298 489.274C590.262 494.11 585.749 494.562 580.786 491.028C579.065 489.803 576.438 488.481 574.949 488.091C571.215 487.113 568.449 479.116 568.344 468.993C568.24 458.981 570.084 455.855 578.74 451.367C588.209 446.458 592.63 445.322 597.342 446.587ZM618.029 450.505L615.873 452.015L618.102 458.255C620.569 465.16 622.748 466.455 626.578 463.292C628.499 461.706 628.634 461.069 627.732 457.861C626.57 453.728 623.184 448.995 621.39 448.995C620.727 448.995 619.215 449.675 618.029 450.505ZM321.74 543.995V581.995H438.24H554.74V543.995V505.995H438.24H321.74V543.995ZM548.74 543.995V575.995H438.24H327.74V543.995V511.995H438.24H548.74V543.995ZM212.757 530.624C198.006 531.446 186.226 532.584 183.121 533.487C176.667 535.363 170.269 540.994 159.545 554.236C155.142 559.673 150.504 564.515 149.237 564.996C146.213 566.146 145.418 567.577 146.161 570.537C147.365 575.333 153.776 574.66 155.726 569.532C157.009 566.156 168.714 550.89 173.868 545.87C180.898 539.023 183.734 538.343 211.24 536.907C257.677 534.482 254.194 534.897 254.556 531.745L254.873 528.995L246.056 529.127C241.207 529.2 226.223 529.874 212.757 530.624ZM340.49 530.075C337.228 531.975 338.502 537.303 342.742 539.496C345.927 541.143 350.069 540.321 354.504 537.163C357.222 535.228 359.013 534.64 361.47 534.877C362.147 534.942 365.636 537.656 369.225 540.908C379.486 550.207 382.892 551.487 397.24 551.441C403.84 551.419 415.348 551.021 422.812 550.556C437.79 549.623 439.592 549.882 458.074 555.628C472.409 560.085 478.883 560.552 499.24 558.599C508.59 557.701 518.49 556.861 521.24 556.731C525.553 556.527 526.283 556.191 526.555 554.28C527.039 550.877 523.476 550.526 503.119 551.977C493.096 552.691 482.948 552.974 480.568 552.605C478.187 552.237 469.49 550.042 461.24 547.728L446.24 543.521L431.74 543.899C423.765 544.107 411.165 544.326 403.74 544.386C388.482 544.509 387.768 544.283 377.24 536.003C373.94 533.407 370.257 530.769 369.056 530.139C365.783 528.425 360.463 528.753 354.33 531.047L348.845 533.1L346.792 531.047C344.519 528.774 343.099 528.555 340.49 530.075ZM632.74 544.142C622.902 547.177 612.682 549.856 608.428 550.517C605.214 551.016 604.665 551.453 604.928 553.302C605.475 557.148 611.908 556.729 625.77 551.944C638.701 547.48 638.624 547.482 649.24 551.381C657.532 554.428 667.927 554.82 679.856 552.537C684.045 551.736 694.81 550.139 703.778 548.99C712.747 547.841 720.457 546.67 720.912 546.389C722.576 545.36 721.678 543.018 719.401 542.446C716.668 541.76 700.121 543.41 687.24 545.653C673.733 548.005 663.883 547.7 653.378 544.606C642.949 541.533 641.318 541.497 632.74 544.142ZM444.205 624.416C446.13 625.22 449.129 627.932 451.116 630.666C456.649 638.278 463.832 655.235 464.804 662.979C465.811 671 467.624 675.785 476.054 692.675C479.574 699.726 485.3 712.245 488.78 720.495C492.26 728.745 498.789 742.695 503.289 751.495C507.789 760.295 513.894 772.232 516.856 778.021C519.817 783.811 524.031 792.569 526.22 797.484C528.409 802.399 533.969 813.187 538.575 821.458C543.181 829.728 549.555 841.67 552.739 847.995C560.397 863.206 569.883 877.502 573.975 879.997C575.867 881.15 579.013 881.989 581.455 881.991C587.599 881.997 591.853 877.909 595.282 868.705C597.665 862.305 598.934 860.571 606.571 853.277C612.028 848.065 616.285 844.829 618.208 844.432C619.876 844.087 624.068 842.273 627.524 840.4C632.405 837.756 634.974 836.998 639.024 837.007C650.203 837.032 655.253 839.518 669.24 851.879C671.99 854.309 676.04 857.094 678.24 858.068C688.514 862.614 710.633 863.022 727.437 858.975L736.634 856.76L742.178 859.058C749.881 862.251 754.62 866.475 757.303 872.542C759.931 878.484 758.427 878.033 782.24 880.022C789.39 880.62 799.065 881.953 803.74 882.985C808.415 884.017 818.315 885.177 825.74 885.562C835.925 886.09 840.161 886.725 842.99 888.149C845.053 889.187 846.74 890.477 846.74 891.017C846.74 891.557 849 893.622 851.762 895.606C854.524 897.591 857.897 901.114 859.258 903.435C860.618 905.756 864.611 916.17 868.131 926.575C871.651 936.981 881.043 961.695 889.003 981.495C902.476 1015.01 911.969 1041.87 923.288 1078.49C925.837 1086.74 931.441 1102.94 935.741 1114.49C940.041 1126.04 944.765 1139.39 946.238 1144.15C948.73 1152.2 950.741 1155.69 954.046 1157.69C956.465 1159.15 963.781 1183.79 965.435 1196.05L966.994 1207.61L957.322 1241.44L947.649 1275.28L941.763 1282.89C935.806 1290.59 928.845 1297.18 920.31 1303.19C905.497 1313.64 903.106 1314.98 893.867 1318L884.071 1321.21L873.656 1319.82C861.611 1318.21 842.86 1318.91 829.044 1321.5C817.481 1323.67 781.489 1329.66 775.24 1330.46C771.059 1331 766.842 1330.19 749.489 1325.53C729.902 1320.27 727.965 1319.53 714.989 1312.33C707.427 1308.13 699.665 1304.04 697.74 1303.24C695.815 1302.44 691.765 1300.27 688.74 1298.43C685.579 1296.5 679.2 1294.03 673.74 1292.61C663.452 1289.94 657.232 1287.6 656.265 1286.04C655.929 1285.49 653.395 1284.38 650.634 1283.56C644.387 1281.7 633.146 1275.66 620.74 1267.49C615.515 1264.05 607.865 1259.15 603.74 1256.6C593.315 1250.17 585.972 1243.73 560.968 1219.07C549.017 1207.29 536.414 1195.42 532.96 1192.7C529.506 1189.99 524.575 1185 522.002 1181.63C519.429 1178.26 514.764 1172.79 511.636 1169.49C508.508 1166.19 502.758 1158.67 498.859 1152.77C494.959 1146.87 488.264 1137.87 483.981 1132.77C479.698 1127.67 474.508 1121.24 472.447 1118.49C468.355 1113.03 427.578 1070.77 394.269 1037.47C371.911 1015.11 345.865 987.245 340.839 980.297C339.169 977.988 336.776 975.566 335.521 974.915C330.728 972.427 324.441 966.524 323.057 963.212C322.264 961.313 321.53 957.45 321.427 954.627C321.256 949.93 321.631 948.987 325.857 943.495L330.474 937.495L339.993 935.107C348.218 933.044 350.774 932.818 358.788 933.445L368.064 934.17L376.055 941.087C380.449 944.891 386.564 949.649 389.643 951.661C405.496 962.021 408.918 964.524 416.265 971.125C426.794 980.584 434.276 985.348 451.74 993.711C459.715 997.53 470.433 1003.42 475.557 1006.8C480.682 1010.17 489.62 1015.21 495.42 1017.99C507.915 1023.97 515.072 1028.58 522.66 1035.52C530.614 1042.8 532.67 1043.99 537.24 1043.99C541.933 1043.99 545.131 1042.07 547.246 1037.98C549.275 1034.06 549.126 1030.44 546.601 1022.35C545.425 1018.58 543.665 1012.57 542.69 1008.99C541.715 1005.42 539.09 996.645 536.856 989.495C534.623 982.345 531.158 969.295 529.156 960.495C527.155 951.695 524.466 941.795 523.181 938.495C521.896 935.195 519.195 927.995 517.178 922.495C515.162 916.995 510.453 906.098 506.715 898.28C502.977 890.462 499.378 882.362 498.718 880.28C497.313 875.85 486.552 852.441 476.751 832.495C472.968 824.795 469.11 816.02 468.179 812.995C467.248 809.97 465.149 804.345 463.515 800.495C461.88 796.645 459.675 791.02 458.614 787.995C457.553 784.97 453.77 776.645 450.208 769.495C446.646 762.345 441.002 749.295 437.667 740.495C434.331 731.695 427.194 715.72 421.807 704.995C411.482 684.442 411.416 684.24 405.037 653.408C403.236 644.706 403.23 644.031 404.881 637.486C407.011 629.05 409.317 625.842 414.346 624.324C420.051 622.602 440.011 622.663 444.205 624.416ZM595.74 633.621C569.686 636.788 555.28 639.171 547.484 641.605C538.647 644.363 536.135 645.975 537.031 648.311C537.508 649.553 539.595 649.269 550.418 646.486C567.221 642.166 598.474 638.583 613.478 639.256C619.397 639.522 628.965 640.512 634.74 641.457C647.437 643.534 664.028 643.219 710.74 640.015C728.065 638.826 747.758 637.998 754.502 638.175C765.714 638.468 766.815 638.337 767.352 636.644C767.674 635.626 767.42 634.276 766.786 633.644C764.619 631.483 721.429 632.762 682.24 636.146C666.672 637.491 648.912 636.75 631.24 634.018C616.397 631.724 611.767 631.672 595.74 633.621ZM720.464 776.273C719.494 778.8 721.715 779.716 730.24 780.306C734.64 780.611 742.965 781.395 748.74 782.048C758.963 783.205 791.244 782.794 803.573 781.349C808.579 780.763 811.052 778.963 809.273 777.202C808.88 776.813 799.262 776.495 787.9 776.495C776.537 776.495 756.851 776.09 744.154 775.596C723.53 774.793 721.004 774.865 720.464 776.273ZM310.465 797.604C310.206 797.863 301.796 798.062 291.777 798.046L273.56 798.018L260.262 802.506C251.043 805.617 241.487 807.914 229.102 809.995C214.52 812.445 209.955 813.626 204.24 816.431C195.566 820.689 189.821 826.182 191.689 828.433C193.17 830.218 195.341 829.351 200.408 824.951C204.437 821.453 212.182 818.574 221.74 817.021C242.387 813.668 247.226 812.564 259.363 808.437L272.486 803.974L283.064 804.758C291.003 805.346 295.836 805.162 302.441 804.018C311.858 802.388 313.74 801.643 313.74 799.543C313.74 798.183 311.319 796.749 310.465 797.604ZM246.325 928.102C232.029 930.187 221.694 934.091 211.827 941.132C208.85 943.257 205.638 944.995 204.688 944.995C201.603 944.995 198.406 948.368 199.18 950.807C200.307 954.356 204.743 953.639 210.356 949.001C225.553 936.443 250.484 930.137 268.361 934.33C272.145 935.217 282.585 937.137 291.562 938.597C308.236 941.308 310.782 941.154 309.387 937.517C308.426 935.013 303.235 933.329 290.873 931.512C284.621 930.593 276.521 929.209 272.873 928.436C265.594 926.893 255.485 926.766 246.325 928.102ZM245.366 1041.11C225.809 1042 224.516 1042.38 220.836 1048.34C219.664 1050.24 217.588 1052.52 216.222 1053.41C212.977 1055.54 213.022 1058.71 216.318 1060.21C219.727 1061.77 221.709 1060.45 223.428 1055.48C224.17 1053.34 225.748 1050.55 226.933 1049.29C228.997 1047.09 229.754 1046.99 244.664 1046.93C253.231 1046.9 262.49 1046.49 265.24 1046.01C269.498 1045.28 271.614 1045.58 279.502 1048.07C287.871 1050.71 290.088 1050.99 302.502 1050.99C310.058 1050.98 319.278 1050.69 322.99 1050.34C328.641 1049.81 329.74 1049.41 329.74 1047.87C329.74 1045.34 327.752 1045.03 308.74 1044.56C296.021 1044.25 290.537 1043.68 284.808 1042.07C276.782 1039.83 274.642 1039.78 245.366 1041.11ZM248.488 1172.42C246.424 1173.16 243.123 1175.05 241.152 1176.63C239.18 1178.2 236.482 1180.17 235.155 1180.99C232.38 1182.72 231.984 1185.49 234.381 1186.41C236.109 1187.07 238.157 1185.95 245.604 1180.27C250.665 1176.41 249 1176.5 271.24 1178.89C276.19 1179.42 285.865 1179.88 292.74 1179.92C299.615 1179.96 312.215 1180.48 320.74 1181.08C330.313 1181.75 340.255 1181.85 346.74 1181.33C356.294 1180.57 357.24 1180.31 357.24 1178.49C357.24 1176.18 355.69 1176.06 303.031 1174.13C286.416 1173.52 270.891 1172.58 268.531 1172.03C262.526 1170.65 252.936 1170.83 248.488 1172.42ZM485.596 1256.24C482.603 1258.7 476.74 1266.73 476.74 1268.38C476.74 1269.3 477.486 1270.34 478.398 1270.69C480.006 1271.31 482.336 1269.26 486.028 1263.99L487.507 1261.88L490.873 1263.93C494.873 1266.37 499.458 1266.56 504.433 1264.48C507.841 1263.05 508.175 1263.08 509.94 1264.98C511.302 1266.44 513.093 1266.99 516.465 1266.99C519.824 1266.99 521.737 1267.58 523.37 1269.12C526.106 1271.69 530.27 1271.05 531.268 1267.91C532.185 1265.02 528.367 1261.18 523.83 1260.43C521.856 1260.11 518.122 1259.12 515.534 1258.24C511.6 1256.89 509.991 1256.82 505.732 1257.81C501.2 1258.85 500.206 1258.76 496.729 1256.99C492.271 1254.71 487.827 1254.42 485.596 1256.24Z" fill="#ddea90"/>
</svg>
